<svg version="1.2" baseProfile="tiny-ps" xmlns="http://www.w3.org/2000/svg" viewBox="0 0 160 41" width="160" height="41">
	<title>logo-svg</title>
	<style>
		tspan { white-space:pre }
		.shp0 { fill: #5267f7 } 
		.shp1 { fill: #ffffff } 
	</style>
	<g id="logo">
		<g id="Group_6">
			<path id="Path_3" fill-rule="evenodd" class="shp0" d="M34.67 10.01L34.67 30.02L17.34 40.03L0 30.02L0 10.01L17.33 0L34.67 10.01ZM26.68 14.61L17.33 9.21L7.98 14.61L7.98 25.41L17.33 30.81L26.68 25.41L26.68 14.61Z" />
			<g id="Group_5">
				<g id="Group_4">
					<g id="Group_2">
						<path id="Path_4" class="shp1" d="M7.98 14.81L17.33 20.21L17.33 31.01" />
					</g>
					<g id="Group_3">
						<path id="Path_5" class="shp1" d="M17.33 31L7.98 25.6L7.98 14.81" />
					</g>
				</g>
			</g>
		</g>
		<path id="Path_178" fill-rule="evenodd" class="shp1" d="M53.94 11.41C54.18 11.41 54.42 11.42 54.66 11.44C54.9 11.45 55.14 11.48 55.38 11.51C55.62 11.54 55.86 11.58 56.09 11.63C56.33 11.68 56.56 11.74 56.79 11.8C56.99 11.86 57.18 11.92 57.37 11.98C57.56 12.05 57.75 12.12 57.94 12.2C58.12 12.28 58.3 12.36 58.48 12.46C58.66 12.55 58.84 12.65 59.01 12.75C59.14 12.84 59.28 12.92 59.41 13.01C59.54 13.1 59.67 13.19 59.8 13.28C59.92 13.38 60.05 13.47 60.18 13.57C60.3 13.67 60.43 13.76 60.55 13.87C60.64 13.93 60.72 14.01 60.81 14.08C60.89 14.15 60.97 14.23 61.05 14.31C61.13 14.39 61.21 14.47 61.29 14.55C61.36 14.63 61.44 14.72 61.51 14.8L61.81 15.2L59.22 17.78C59.17 17.71 59.1 17.61 59.01 17.48C58.96 17.42 58.91 17.37 58.86 17.31C58.81 17.25 58.76 17.2 58.71 17.14C58.65 17.09 58.6 17.04 58.55 16.98C58.49 16.93 58.44 16.88 58.38 16.83C58.3 16.75 58.22 16.68 58.14 16.6C58.05 16.53 57.97 16.46 57.88 16.39C57.79 16.32 57.7 16.26 57.61 16.19C57.52 16.13 57.42 16.07 57.33 16.01C57.21 15.94 57.09 15.88 56.97 15.82C56.85 15.76 56.72 15.7 56.6 15.64C56.47 15.59 56.35 15.54 56.22 15.49C56.09 15.45 55.96 15.4 55.83 15.36C55.68 15.32 55.52 15.27 55.37 15.23C55.21 15.2 55.05 15.17 54.89 15.14C54.73 15.12 54.58 15.1 54.42 15.08C54.26 15.07 54.09 15.07 53.93 15.06C53.52 15.05 53.11 15.09 52.71 15.16C52.3 15.23 51.9 15.34 51.52 15.5C51.14 15.65 50.78 15.84 50.43 16.07C50.09 16.3 49.77 16.56 49.48 16.85C49.19 17.14 48.93 17.46 48.7 17.8C48.47 18.15 48.28 18.51 48.13 18.89C47.97 19.28 47.86 19.67 47.79 20.08C47.71 20.48 47.68 20.89 47.69 21.3C47.68 21.72 47.71 22.13 47.79 22.53C47.86 22.94 47.97 23.34 48.13 23.72C48.28 24.1 48.47 24.47 48.7 24.81C48.93 25.15 49.19 25.47 49.48 25.76C49.77 26.05 50.09 26.31 50.43 26.54C50.78 26.77 51.14 26.96 51.52 27.12C51.91 27.27 52.3 27.38 52.71 27.46C53.11 27.53 53.52 27.56 53.94 27.55C54.1 27.55 54.27 27.54 54.44 27.53C54.6 27.52 54.77 27.5 54.94 27.48C55.1 27.45 55.27 27.42 55.43 27.39C55.59 27.35 55.76 27.31 55.92 27.26C56.05 27.22 56.19 27.18 56.33 27.13C56.46 27.09 56.59 27.03 56.72 26.98C56.86 26.92 56.98 26.86 57.11 26.79C57.24 26.73 57.36 26.66 57.49 26.59C57.58 26.53 57.68 26.47 57.77 26.4C57.87 26.34 57.96 26.28 58.05 26.21C58.14 26.15 58.23 26.08 58.32 26.01C58.41 25.94 58.5 25.87 58.59 25.8C58.65 25.75 58.71 25.7 58.77 25.64C58.83 25.59 58.89 25.53 58.95 25.47C59.01 25.42 59.07 25.36 59.12 25.3C59.17 25.24 59.23 25.17 59.28 25.11L59.49 24.83L61.94 27.41C61.91 27.45 61.89 27.49 61.86 27.52C61.84 27.56 61.81 27.59 61.78 27.63C61.76 27.66 61.73 27.7 61.7 27.73C61.67 27.77 61.64 27.8 61.62 27.83C61.54 27.91 61.46 27.99 61.38 28.07C61.31 28.15 61.23 28.23 61.14 28.3C61.06 28.38 60.98 28.45 60.9 28.53C60.82 28.6 60.73 28.67 60.65 28.75C60.52 28.85 60.4 28.96 60.27 29.06C60.14 29.17 60.01 29.26 59.87 29.36C59.74 29.46 59.6 29.55 59.47 29.64C59.33 29.73 59.19 29.82 59.05 29.9C58.87 30 58.69 30.09 58.51 30.17C58.32 30.26 58.14 30.34 57.95 30.42C57.77 30.49 57.58 30.56 57.39 30.63C57.19 30.69 57 30.75 56.81 30.8C56.57 30.87 56.34 30.93 56.1 30.99C55.87 31.04 55.63 31.08 55.39 31.11C55.15 31.15 54.91 31.17 54.66 31.19C54.42 31.21 54.18 31.22 53.94 31.22C53.26 31.23 52.59 31.18 51.92 31.06C51.26 30.94 50.6 30.76 49.98 30.51C49.35 30.26 48.75 29.95 48.18 29.58C47.61 29.21 47.09 28.78 46.61 28.31C46.13 27.86 45.7 27.37 45.32 26.83C44.95 26.3 44.63 25.72 44.37 25.12C44.12 24.52 43.92 23.9 43.8 23.26C43.67 22.61 43.61 21.96 43.62 21.31C43.61 20.65 43.67 20 43.8 19.36C43.92 18.72 44.12 18.1 44.37 17.5C44.63 16.89 44.95 16.32 45.32 15.79C45.7 15.25 46.13 14.76 46.61 14.31C47.09 13.84 47.61 13.42 48.18 13.05C48.75 12.68 49.35 12.37 49.98 12.12C50.61 11.87 51.26 11.69 51.92 11.57C52.59 11.45 53.26 11.4 53.94 11.41L53.94 11.41ZM77.67 24.16C77.67 24.62 77.62 25.07 77.53 25.51C77.44 25.95 77.3 26.39 77.12 26.8C76.94 27.22 76.72 27.61 76.46 27.98C76.2 28.35 75.9 28.7 75.57 29C75.25 29.33 74.89 29.63 74.51 29.89C74.13 30.15 73.73 30.37 73.3 30.55C72.88 30.73 72.44 30.86 71.99 30.95C71.53 31.04 71.07 31.08 70.61 31.08C70.15 31.08 69.69 31.04 69.24 30.95C68.79 30.86 68.35 30.72 67.92 30.55C67.5 30.37 67.09 30.15 66.71 29.89C66.33 29.63 65.98 29.33 65.66 29C65.33 28.69 65.03 28.35 64.77 27.98C64.51 27.61 64.28 27.21 64.1 26.8C63.92 26.38 63.79 25.95 63.69 25.51C63.6 25.06 63.56 24.61 63.56 24.16C63.56 23.71 63.6 23.25 63.7 22.81C63.79 22.37 63.92 21.93 64.11 21.52C64.29 21.1 64.51 20.71 64.77 20.34C65.03 19.97 65.33 19.63 65.67 19.32C65.99 18.99 66.34 18.69 66.72 18.43C67.1 18.17 67.51 17.95 67.93 17.77C68.36 17.59 68.8 17.46 69.25 17.37C69.7 17.28 70.16 17.24 70.62 17.24C71.08 17.24 71.54 17.28 71.99 17.37C72.44 17.46 72.88 17.59 73.31 17.77C73.73 17.95 74.14 18.17 74.52 18.43C74.9 18.69 75.25 18.99 75.57 19.32C75.9 19.63 76.2 19.97 76.46 20.34C76.72 20.71 76.95 21.1 77.13 21.52C77.31 21.93 77.44 22.37 77.53 22.81C77.63 23.26 77.67 23.71 77.67 24.16L77.67 24.16ZM67.36 24.17C67.36 24.4 67.37 24.63 67.41 24.85C67.45 25.08 67.51 25.3 67.59 25.52C67.68 25.73 67.78 25.94 67.9 26.13C68.03 26.32 68.17 26.5 68.33 26.67C68.47 26.83 68.63 26.98 68.81 27.1C68.98 27.23 69.17 27.34 69.37 27.42C69.56 27.51 69.77 27.58 69.98 27.62C70.19 27.66 70.4 27.69 70.62 27.68C70.83 27.69 71.05 27.66 71.26 27.62C71.47 27.58 71.68 27.51 71.87 27.42C72.07 27.34 72.26 27.23 72.43 27.1C72.61 26.98 72.77 26.83 72.91 26.67C73.07 26.51 73.21 26.32 73.34 26.13C73.46 25.94 73.57 25.73 73.65 25.52C73.73 25.3 73.8 25.08 73.83 24.85C73.87 24.63 73.89 24.4 73.89 24.17C73.89 23.94 73.87 23.71 73.84 23.48C73.8 23.25 73.73 23.03 73.65 22.81C73.57 22.6 73.46 22.39 73.34 22.2C73.22 22 73.08 21.82 72.92 21.65C72.77 21.49 72.61 21.35 72.44 21.22C72.26 21.09 72.08 20.99 71.88 20.9C71.68 20.81 71.48 20.74 71.27 20.7C71.05 20.66 70.84 20.63 70.62 20.63C70.41 20.63 70.19 20.66 69.98 20.7C69.77 20.74 69.57 20.81 69.37 20.9C69.17 20.99 68.98 21.09 68.81 21.22C68.64 21.35 68.48 21.49 68.33 21.65C68.17 21.82 68.03 22 67.91 22.2C67.78 22.39 67.68 22.6 67.6 22.81C67.51 23.03 67.45 23.25 67.41 23.48C67.37 23.71 67.36 23.94 67.36 24.17L67.36 24.17ZM84.19 30.8L80.52 30.8L80.52 17.5L84.19 17.5L84.19 30.8ZM84.45 13.7C84.46 13.84 84.45 13.98 84.43 14.11C84.4 14.25 84.37 14.38 84.32 14.5C84.27 14.63 84.2 14.75 84.13 14.87C84.05 14.98 83.97 15.09 83.87 15.18C83.76 15.28 83.65 15.36 83.52 15.44C83.4 15.51 83.27 15.57 83.13 15.62C82.99 15.66 82.85 15.7 82.71 15.72C82.57 15.74 82.42 15.74 82.28 15.74C82.14 15.74 82.01 15.74 81.88 15.72C81.74 15.69 81.61 15.66 81.48 15.61C81.36 15.56 81.24 15.5 81.12 15.43C81.01 15.36 80.9 15.28 80.8 15.18C80.71 15.08 80.63 14.98 80.56 14.86C80.48 14.75 80.42 14.63 80.38 14.5C80.33 14.37 80.3 14.24 80.27 14.11C80.25 13.97 80.25 13.84 80.25 13.7C80.25 13.57 80.25 13.43 80.28 13.3C80.3 13.17 80.33 13.03 80.38 12.91C80.43 12.78 80.49 12.66 80.56 12.55C80.63 12.43 80.72 12.32 80.81 12.23C80.91 12.13 81.01 12.05 81.13 11.98C81.24 11.91 81.36 11.85 81.49 11.8C81.61 11.75 81.74 11.71 81.88 11.69C82.01 11.67 82.15 11.66 82.28 11.67C82.42 11.66 82.57 11.67 82.71 11.69C82.85 11.71 82.99 11.74 83.13 11.79C83.27 11.84 83.4 11.9 83.52 11.97C83.65 12.05 83.76 12.13 83.87 12.23C83.97 12.32 84.05 12.43 84.13 12.54C84.21 12.66 84.27 12.78 84.32 12.9C84.37 13.03 84.4 13.16 84.43 13.3C84.45 13.43 84.46 13.57 84.45 13.7L84.45 13.7ZM91.5 19.13C91.53 19.08 91.57 19.04 91.61 18.99C91.64 18.95 91.68 18.91 91.72 18.86C91.76 18.82 91.79 18.78 91.83 18.73C91.87 18.69 91.91 18.65 91.95 18.61C92.05 18.52 92.15 18.44 92.25 18.36C92.35 18.29 92.45 18.21 92.56 18.14C92.67 18.07 92.78 18.01 92.89 17.94C93 17.88 93.11 17.82 93.23 17.77C93.39 17.68 93.55 17.6 93.72 17.54C93.89 17.47 94.06 17.42 94.23 17.37C94.41 17.33 94.59 17.29 94.76 17.27C94.94 17.25 95.12 17.24 95.3 17.24C95.65 17.22 96 17.25 96.34 17.31C96.68 17.38 97.02 17.48 97.34 17.61C97.66 17.75 97.96 17.92 98.24 18.12C98.53 18.32 98.79 18.56 99.02 18.81C99.27 19.11 99.49 19.42 99.68 19.75C99.87 20.09 100.02 20.44 100.15 20.8C100.27 21.16 100.36 21.54 100.41 21.92C100.46 22.3 100.48 22.68 100.46 23.07L100.46 30.8L96.8 30.8L96.8 23.48C96.81 23.3 96.8 23.12 96.77 22.94C96.75 22.76 96.7 22.59 96.64 22.42C96.58 22.25 96.5 22.09 96.4 21.94C96.31 21.78 96.2 21.64 96.08 21.51C95.96 21.39 95.83 21.27 95.68 21.18C95.54 21.08 95.39 21 95.23 20.94C95.07 20.87 94.9 20.83 94.73 20.8C94.56 20.77 94.39 20.75 94.22 20.76C94.03 20.75 93.85 20.76 93.67 20.8C93.48 20.83 93.31 20.88 93.14 20.95C92.96 21.02 92.8 21.11 92.65 21.21C92.5 21.32 92.36 21.44 92.23 21.58C92.1 21.74 91.99 21.91 91.89 22.09C91.79 22.27 91.71 22.47 91.65 22.66C91.59 22.86 91.54 23.06 91.52 23.27C91.49 23.47 91.49 23.68 91.5 23.89L91.5 30.8L87.84 30.8L87.84 17.5L91.5 17.5L91.5 19.13ZM111.57 31.08C111.39 31.08 111.21 31.07 111.03 31.05C110.84 31.03 110.66 31 110.48 30.96C110.31 30.92 110.13 30.88 109.96 30.82C109.78 30.76 109.61 30.69 109.45 30.61C109.32 30.56 109.19 30.5 109.07 30.43C108.94 30.36 108.82 30.29 108.7 30.21C108.59 30.13 108.47 30.05 108.36 29.96C108.25 29.87 108.15 29.78 108.05 29.68L107.64 29.19L107.64 36.51L103.98 36.51L103.98 17.51L107.64 17.51L107.64 19.14C107.65 19.13 107.67 19.11 107.68 19.09C107.69 19.07 107.71 19.06 107.72 19.04C107.73 19.02 107.75 19.01 107.76 18.99C107.78 18.98 107.79 18.96 107.81 18.94C107.88 18.86 108.04 18.72 108.29 18.5C108.35 18.45 108.41 18.39 108.47 18.34C108.54 18.29 108.6 18.24 108.67 18.19C108.73 18.14 108.8 18.1 108.87 18.05C108.93 18 109 17.96 109.07 17.92C109.16 17.87 109.25 17.82 109.34 17.78C109.43 17.73 109.52 17.69 109.61 17.65C109.7 17.61 109.79 17.58 109.89 17.54C109.98 17.51 110.08 17.48 110.17 17.45C110.29 17.42 110.4 17.39 110.52 17.36C110.63 17.34 110.75 17.32 110.87 17.3C110.98 17.28 111.1 17.27 111.22 17.26C111.34 17.25 111.45 17.25 111.57 17.25C112 17.25 112.42 17.29 112.83 17.38C113.24 17.47 113.65 17.6 114.03 17.77C114.42 17.94 114.78 18.15 115.12 18.4C115.46 18.65 115.78 18.94 116.06 19.25C116.37 19.58 116.65 19.93 116.89 20.31C117.13 20.7 117.33 21.1 117.5 21.52C117.66 21.94 117.78 22.37 117.86 22.82C117.94 23.26 117.97 23.71 117.96 24.16C117.97 24.61 117.94 25.06 117.86 25.51C117.78 25.95 117.66 26.39 117.5 26.81C117.33 27.23 117.13 27.63 116.89 28.01C116.65 28.39 116.37 28.75 116.06 29.07C115.78 29.39 115.46 29.67 115.12 29.92C114.78 30.17 114.42 30.38 114.03 30.56C113.65 30.73 113.24 30.86 112.83 30.95C112.42 31.03 112 31.08 111.57 31.08ZM110.9 20.5C110.69 20.5 110.47 20.52 110.26 20.57C110.04 20.61 109.83 20.68 109.64 20.77C109.44 20.85 109.25 20.96 109.07 21.09C108.9 21.22 108.74 21.37 108.59 21.53C108.43 21.71 108.29 21.9 108.17 22.11C108.04 22.31 107.94 22.53 107.86 22.75C107.78 22.98 107.72 23.21 107.68 23.45C107.64 23.68 107.63 23.92 107.64 24.16C107.63 24.4 107.64 24.64 107.68 24.88C107.72 25.11 107.78 25.35 107.86 25.57C107.94 25.8 108.04 26.01 108.17 26.22C108.29 26.43 108.43 26.62 108.59 26.8C108.74 26.96 108.9 27.11 109.07 27.24C109.25 27.37 109.44 27.48 109.63 27.57C109.83 27.66 110.04 27.72 110.26 27.77C110.47 27.81 110.69 27.83 110.9 27.83C111.12 27.83 111.34 27.81 111.55 27.77C111.76 27.72 111.97 27.66 112.17 27.57C112.37 27.48 112.56 27.37 112.73 27.24C112.91 27.11 113.07 26.96 113.21 26.8C113.37 26.62 113.51 26.42 113.63 26.22C113.75 26.01 113.86 25.8 113.94 25.57C114.02 25.35 114.08 25.11 114.12 24.88C114.15 24.64 114.17 24.4 114.16 24.16C114.17 23.92 114.15 23.68 114.12 23.45C114.08 23.21 114.02 22.98 113.94 22.75C113.86 22.53 113.76 22.31 113.63 22.11C113.51 21.9 113.37 21.71 113.21 21.53C113.07 21.37 112.91 21.22 112.73 21.09C112.56 20.96 112.37 20.85 112.17 20.77C111.97 20.68 111.76 20.61 111.55 20.57C111.34 20.52 111.12 20.5 110.9 20.5ZM124.47 30.81L120.8 30.81L120.8 17.51L124.47 17.51L124.47 30.81ZM124.73 13.71C124.73 13.85 124.72 13.98 124.7 14.12C124.68 14.25 124.64 14.39 124.59 14.51C124.54 14.64 124.48 14.76 124.4 14.88C124.33 14.99 124.24 15.09 124.15 15.19C124.04 15.29 123.92 15.37 123.8 15.44C123.67 15.52 123.54 15.58 123.41 15.63C123.27 15.67 123.13 15.71 122.99 15.73C122.84 15.75 122.7 15.75 122.56 15.75C122.42 15.75 122.28 15.75 122.15 15.72C122.02 15.7 121.89 15.67 121.76 15.62C121.63 15.57 121.51 15.51 121.4 15.44C121.28 15.37 121.18 15.28 121.08 15.19C120.99 15.09 120.9 14.98 120.83 14.87C120.76 14.76 120.7 14.63 120.65 14.51C120.61 14.38 120.57 14.25 120.55 14.12C120.53 13.98 120.52 13.85 120.53 13.71C120.52 13.58 120.53 13.44 120.55 13.31C120.57 13.17 120.61 13.04 120.65 12.92C120.7 12.79 120.76 12.67 120.84 12.55C120.91 12.44 120.99 12.33 121.09 12.23C121.18 12.14 121.29 12.06 121.4 11.98C121.52 11.91 121.64 11.85 121.77 11.8C121.89 11.76 122.02 11.72 122.16 11.7C122.29 11.68 122.42 11.67 122.56 11.68C122.7 11.67 122.85 11.68 122.99 11.7C123.13 11.72 123.27 11.75 123.41 11.8C123.54 11.84 123.68 11.91 123.8 11.98C123.92 12.05 124.04 12.14 124.15 12.23C124.25 12.33 124.33 12.43 124.41 12.55C124.48 12.66 124.55 12.78 124.6 12.91C124.65 13.04 124.68 13.17 124.71 13.3C124.73 13.44 124.74 13.57 124.73 13.71L124.73 13.71ZM131.93 30.81L128.26 30.81L128.26 11.81L131.93 11.81L131.93 30.81ZM148.73 25.51C148.64 25.95 148.51 26.38 148.33 26.8C148.15 27.21 147.92 27.61 147.66 27.98C147.4 28.35 147.1 28.69 146.77 29C146.45 29.33 146.1 29.63 145.72 29.89C145.34 30.15 144.93 30.37 144.51 30.54C144.09 30.72 143.64 30.86 143.19 30.95C142.74 31.03 142.28 31.08 141.82 31.07C141.36 31.08 140.9 31.03 140.45 30.94C140 30.86 139.56 30.72 139.13 30.54C138.71 30.37 138.3 30.14 137.92 29.89C137.54 29.63 137.19 29.33 136.87 29C136.53 28.69 136.24 28.35 135.97 27.98C135.71 27.61 135.49 27.21 135.31 26.8C135.13 26.38 134.99 25.95 134.9 25.51C134.81 25.06 134.76 24.61 134.76 24.16C134.76 23.7 134.81 23.25 134.9 22.81C134.99 22.36 135.13 21.93 135.31 21.52C135.49 21.1 135.71 20.7 135.97 20.33C136.24 19.97 136.53 19.62 136.87 19.31C137.19 18.98 137.54 18.69 137.92 18.43C138.3 18.17 138.71 17.95 139.13 17.77C139.56 17.59 140 17.46 140.45 17.37C140.9 17.28 141.36 17.24 141.82 17.24C142.28 17.24 142.74 17.28 143.19 17.37C143.64 17.46 144.09 17.59 144.51 17.77C144.93 17.95 145.34 18.17 145.72 18.43C146.1 18.69 146.45 18.98 146.77 19.31C147.1 19.62 147.4 19.97 147.66 20.34C147.92 20.71 148.15 21.1 148.33 21.52C148.51 21.93 148.64 22.37 148.73 22.81C148.83 23.25 148.87 23.71 148.87 24.16C148.87 24.61 148.83 25.06 148.73 25.51ZM138.56 24.17C138.56 24.4 138.57 24.63 138.61 24.85C138.65 25.08 138.71 25.3 138.79 25.52C138.88 25.73 138.98 25.94 139.1 26.13C139.23 26.32 139.37 26.5 139.53 26.67C139.67 26.83 139.83 26.98 140.01 27.1C140.18 27.23 140.37 27.34 140.57 27.42C140.77 27.51 140.97 27.58 141.18 27.62C141.4 27.66 141.61 27.69 141.83 27.68C142.04 27.68 142.26 27.66 142.47 27.62C142.68 27.57 142.88 27.51 143.08 27.42C143.27 27.33 143.46 27.22 143.63 27.1C143.81 26.97 143.97 26.83 144.11 26.67C144.27 26.5 144.41 26.32 144.54 26.13C144.66 25.93 144.76 25.73 144.85 25.51C144.93 25.3 144.99 25.08 145.03 24.85C145.07 24.62 145.09 24.4 145.08 24.17C145.09 23.94 145.07 23.71 145.03 23.48C144.99 23.25 144.93 23.03 144.85 22.81C144.76 22.6 144.66 22.39 144.54 22.2C144.41 22 144.27 21.82 144.11 21.65C143.97 21.49 143.81 21.35 143.63 21.22C143.46 21.09 143.27 20.99 143.08 20.9C142.88 20.81 142.67 20.74 142.46 20.7C142.25 20.66 142.04 20.63 141.82 20.63C141.6 20.63 141.39 20.66 141.18 20.7C140.97 20.74 140.76 20.81 140.56 20.9C140.37 20.99 140.18 21.09 140.01 21.22C139.83 21.35 139.67 21.49 139.53 21.65C139.37 21.82 139.23 22 139.1 22.2C138.98 22.39 138.88 22.6 138.8 22.81C138.71 23.03 138.65 23.25 138.61 23.48C138.57 23.7 138.56 23.93 138.56 24.16L138.56 24.17ZM153.22 13.58L156.47 13.58L156.47 17.78L159.17 17.78L159.17 21.04L156.47 21.04L156.47 26.33C156.47 26.43 156.48 26.53 156.5 26.62C156.52 26.72 156.55 26.82 156.59 26.91C156.63 27 156.68 27.09 156.73 27.17C156.79 27.25 156.86 27.32 156.93 27.39C157.01 27.46 157.09 27.53 157.18 27.58C157.27 27.64 157.37 27.69 157.47 27.72C157.57 27.76 157.67 27.79 157.77 27.81C157.88 27.82 157.98 27.83 158.09 27.83C158.15 27.83 158.21 27.82 158.27 27.82C158.32 27.82 158.38 27.81 158.44 27.81C158.5 27.8 158.56 27.79 158.62 27.79C158.67 27.78 158.73 27.77 158.79 27.75C158.83 27.74 158.88 27.74 158.92 27.72C158.96 27.71 159.01 27.7 159.05 27.69C159.09 27.68 159.13 27.66 159.18 27.65C159.22 27.63 159.26 27.62 159.3 27.6L159.46 27.55L159.46 30.67C159.26 30.75 159.06 30.81 158.86 30.86C158.66 30.91 158.46 30.96 158.25 30.99C158.05 31.02 157.84 31.05 157.63 31.06C157.42 31.07 157.22 31.08 157.01 31.07C154.21 31.07 152.81 29.54 152.81 26.46L152.81 21.04L150.5 21.04L150.5 17.78L151.72 17.78C151.82 17.79 151.92 17.78 152.02 17.75C152.12 17.73 152.21 17.7 152.3 17.66C152.4 17.62 152.48 17.56 152.56 17.5C152.64 17.44 152.72 17.37 152.78 17.29C152.85 17.21 152.92 17.11 152.98 17.01C153.03 16.91 153.08 16.81 153.12 16.7C153.16 16.59 153.18 16.48 153.2 16.37C153.22 16.25 153.22 16.14 153.22 16.02L153.22 13.58Z" />
	</g>
</svg>