<?xml version="1.0" encoding="utf-8"?>
<!-- Generator: Adobe Illustrator 19.0.0, SVG Export Plug-In . SVG Version: 6.00 Build 0)  -->
<svg version="1.1" id="Layer_1" xmlns="http://www.w3.org/2000/svg" xmlns:xlink="http://www.w3.org/1999/xlink" x="0px" y="0px"
	 viewBox="-709 403.5 500 274.5" style="enable-background:new -709 403.5 500 274.5;" xml:space="preserve">
<style type="text/css">
	.st0{opacity:0.5;}
	.st1{fill:#5267F7;}
	.st2{fill:none;stroke:#5267F7;stroke-miterlimit:10;}
	.st3{fill:none;stroke:#5267F7;stroke-width:4;stroke-miterlimit:10;}
</style>
<g id="XMLID_49_" class="st0">
	<path id="XMLID_50_" class="st1" d="M-699.4,425.2v-14.4h1.5v12.9h7.4v1.4h-8.9V425.2z"/>
	<path id="XMLID_52_" class="st1" d="M-682.5,418.9c0-0.7-0.2-1.3-0.7-1.8c-0.5-0.4-1.1-0.6-1.8-0.6c-0.5,0-1,0.1-1.5,0.4
		c-0.5,0.3-0.8,0.5-1,0.7l-0.3,0.4l-0.9-0.9c0-0.1,0.1-0.1,0.2-0.2s0.2-0.2,0.5-0.4c0.2-0.2,0.5-0.4,0.7-0.6c0.3-0.2,0.6-0.3,1-0.4
		c0.4-0.1,0.9-0.2,1.3-0.2c1.1,0,2.1,0.4,2.8,1.1c0.7,0.7,1.1,1.6,1.1,2.7v6.3h-1.4v-1.3c0,0-0.1,0.1-0.1,0.2
		c-0.1,0.1-0.2,0.2-0.4,0.4c-0.2,0.2-0.4,0.3-0.6,0.5c-0.2,0.1-0.5,0.3-0.9,0.4s-0.8,0.2-1.1,0.2c-1,0-1.8-0.3-2.5-0.9
		c-0.7-0.6-1-1.2-1-2c0-0.8,0.2-1.5,0.7-2s1.2-0.8,2.1-1L-682.5,418.9z M-683.4,423.2c0.6-0.6,0.9-1.4,0.9-2.4v-0.6l-3.4,0.6
		c-1.2,0.2-1.8,0.8-1.9,1.7c0,0.4,0.2,0.8,0.5,1.1c0.4,0.3,0.9,0.4,1.5,0.4C-684.8,424.1-684,423.8-683.4,423.2z"/>
	<path id="XMLID_55_" class="st1" d="M-672.9,417.5c-0.1-0.1-0.1-0.2-0.2-0.3c-0.1-0.1-0.3-0.3-0.7-0.5c-0.4-0.2-0.8-0.3-1.2-0.3
		c-0.5,0-1,0.1-1.3,0.4c-0.3,0.3-0.5,0.6-0.5,1c0,0.4,0.2,0.7,0.6,1c0.4,0.2,0.8,0.4,1.3,0.6c0.5,0.1,1,0.3,1.6,0.5
		c0.5,0.2,1,0.5,1.3,0.9c0.4,0.4,0.6,1,0.6,1.6c0,0.8-0.3,1.6-1,2.1c-0.6,0.6-1.5,0.8-2.6,0.8c-0.5,0-0.9-0.1-1.3-0.2
		c-0.4-0.1-0.8-0.3-1-0.4c-0.3-0.2-0.5-0.3-0.7-0.5c-0.2-0.2-0.3-0.3-0.4-0.4l-0.1-0.2l1-1c0,0,0.1,0.1,0.1,0.2
		c0,0.1,0.2,0.2,0.3,0.3c0.2,0.2,0.3,0.3,0.5,0.4c0.2,0.1,0.4,0.2,0.7,0.3c0.3,0.1,0.6,0.2,0.9,0.2c0.7,0,1.2-0.2,1.6-0.5
		c0.4-0.3,0.6-0.7,0.6-1.2c0-0.4-0.2-0.7-0.6-1c-0.4-0.3-0.8-0.5-1.3-0.6c-0.5-0.1-1-0.3-1.6-0.5c-0.5-0.2-1-0.5-1.3-0.9
		c-0.4-0.4-0.6-0.9-0.6-1.5c0-0.7,0.3-1.4,0.9-1.9c0.6-0.5,1.4-0.8,2.4-0.8c0.4,0,0.8,0,1.1,0.1c0.3,0.1,0.7,0.2,0.9,0.3
		c0.2,0.1,0.4,0.3,0.6,0.4s0.3,0.2,0.4,0.3l0.2,0.2L-672.9,417.5z"/>
	<path id="XMLID_57_" class="st1" d="M-668.1,412.1h1.3v3.3h2.2v1.3h-2.2v5.8c0,1,0.4,1.5,1.3,1.5c0.2,0,0.4,0,0.7-0.1
		c0.2-0.1,0.4-0.1,0.5-0.1l0.2-0.1v1.3c-0.4,0.2-0.9,0.3-1.4,0.3c-0.8,0-1.5-0.2-2-0.7s-0.7-1.2-0.7-2.1v-5.9h-1.8v-1.3h1.1
		c0.5,0,0.8-0.3,0.8-1C-668.1,414.3-668.1,412.1-668.1,412.1z"/>
	<path id="XMLID_59_" class="st1" d="M-658.4,425.2c0-0.9,0.2-1.8,0.6-2.6c0.4-0.8,0.9-1.4,1.4-1.9c0.6-0.5,1.2-1,1.8-1.4
		c0.7-0.5,1.3-0.9,1.8-1.3c0.6-0.4,1-0.8,1.4-1.4c0.4-0.6,0.6-1.1,0.6-1.8c0-0.8-0.3-1.5-0.8-2s-1.3-0.8-2.3-0.8
		c-0.5,0-0.9,0.1-1.3,0.3c-0.4,0.2-0.6,0.4-0.8,0.6c-0.2,0.2-0.4,0.5-0.5,0.7c-0.1,0.2-0.2,0.4-0.3,0.6l-0.1,0.3l-1.3-0.6
		c0-0.1,0-0.2,0.1-0.4c0.1-0.1,0.2-0.4,0.4-0.8c0.2-0.4,0.5-0.7,0.8-1c0.3-0.3,0.7-0.6,1.3-0.8c0.6-0.2,1.2-0.4,1.9-0.4
		c1.4,0,2.5,0.4,3.3,1.2c0.9,0.8,1.3,1.8,1.3,3c0,0.7-0.2,1.3-0.5,1.9c-0.3,0.6-0.7,1.1-1.2,1.5s-1,0.8-1.6,1.3
		c-0.6,0.4-1.2,0.8-1.7,1.2s-1,0.8-1.5,1.3s-0.8,1.1-1,1.7h7.5v1.4h-9.3V425.2z"/>
	<path id="XMLID_61_" class="st1" d="M-629.4,419.4c0-0.9-0.2-1.6-0.7-2.1s-1-0.7-1.8-0.7c-0.8,0-1.4,0.3-1.9,0.9s-0.8,1.4-0.8,2.4
		v5.4h-1.4v-5.9c0-0.9-0.2-1.6-0.7-2.1s-1-0.8-1.8-0.8s-1.4,0.3-1.9,0.9s-0.8,1.4-0.8,2.4v5.4h-1.4v-9.9h1.4v1.2
		c0,0,0.1-0.1,0.1-0.2c0-0.1,0.1-0.2,0.3-0.3c0.2-0.2,0.3-0.3,0.5-0.4s0.5-0.2,0.8-0.4c0.3-0.2,0.7-0.2,1-0.2c0.4,0,0.9,0.1,1.2,0.2
		c0.4,0.1,0.7,0.3,0.9,0.4c0.2,0.2,0.4,0.3,0.6,0.5c0.2,0.2,0.3,0.3,0.4,0.4l0.1,0.2c0,0,0.1-0.1,0.1-0.2s0.2-0.2,0.4-0.4
		c0.2-0.2,0.4-0.4,0.6-0.5c0.2-0.2,0.5-0.3,1-0.4c0.4-0.1,0.8-0.2,1.3-0.2c1.1,0,2,0.4,2.7,1.1c0.7,0.7,1.1,1.8,1.1,3.1v5.9h-1.4
		L-629.4,419.4L-629.4,419.4z"/>
	<path id="XMLID_63_" class="st1" d="M-623.9,416.6c1-1,2.2-1.5,3.6-1.5c1.4,0,2.6,0.5,3.6,1.5s1.5,2.2,1.5,3.6
		c0,1.4-0.5,2.7-1.5,3.6c-1,1-2.2,1.5-3.6,1.5c-1.4,0-2.6-0.5-3.6-1.5s-1.5-2.2-1.5-3.6C-625.4,418.8-624.9,417.6-623.9,416.6z
		 M-617.8,417.6c-0.7-0.7-1.6-1.1-2.5-1.1c-0.9,0-1.8,0.4-2.5,1.1c-0.7,0.7-1.2,1.6-1.2,2.7c0,1.1,0.4,2,1.1,2.7
		c0.7,0.7,1.6,1.1,2.5,1.1c0.9,0,1.8-0.4,2.5-1.1c0.7-0.7,1.1-1.6,1.1-2.7C-616.8,419.2-617.1,418.3-617.8,417.6z"/>
	<path id="XMLID_66_" class="st1" d="M-611.3,416.8c0,0,0.1-0.1,0.1-0.2c0.1-0.1,0.2-0.2,0.4-0.4c0.2-0.2,0.4-0.4,0.6-0.5
		c0.2-0.1,0.5-0.3,0.9-0.4c0.4-0.1,0.8-0.2,1.1-0.2c1.2,0,2.2,0.4,2.9,1.2c0.7,0.8,1.1,1.8,1.1,3.1v5.9h-1.4v-5.9
		c0-0.9-0.2-1.6-0.7-2.1s-1.1-0.8-1.9-0.8c-0.9,0-1.6,0.3-2.2,0.9c-0.6,0.6-0.9,1.4-0.9,2.4v5.4h-1.4v-9.9h1.4V416.8z"/>
	<path id="XMLID_68_" class="st1" d="M-600,412.1h1.3v3.3h2.2v1.3h-2.2v5.8c0,1,0.4,1.5,1.3,1.5c0.2,0,0.4,0,0.7-0.1
		c0.2-0.1,0.4-0.1,0.5-0.1l0.2-0.1v1.3c-0.4,0.2-0.9,0.3-1.4,0.3c-0.8,0-1.5-0.2-2-0.7s-0.7-1.2-0.7-2.1v-5.9h-1.9v-1.3h1.1
		c0.5,0,0.8-0.3,0.8-1L-600,412.1L-600,412.1z"/>
	<path id="XMLID_70_" class="st1" d="M-592,416.8c0,0,0.1-0.1,0.1-0.2c0.1-0.1,0.2-0.2,0.4-0.4c0.2-0.2,0.4-0.4,0.6-0.5
		c0.2-0.1,0.5-0.3,0.9-0.4c0.4-0.1,0.8-0.2,1.2-0.2c1.2,0,2.2,0.4,2.9,1.2c0.7,0.8,1.1,1.8,1.1,3.1v5.9h-1.4v-5.9
		c0-0.9-0.3-1.6-0.8-2.1s-1.1-0.8-1.9-0.8c-0.9,0-1.6,0.3-2.2,0.9c-0.6,0.6-0.9,1.4-0.9,2.4v5.4h-1.4v-14.4h1.4
		C-592,410.8-592,416.8-592,416.8z"/>
	<path id="XMLID_72_" class="st1" d="M-576.6,417.5c-0.1-0.1-0.1-0.2-0.2-0.3c-0.1-0.1-0.3-0.3-0.7-0.5c-0.4-0.2-0.8-0.3-1.2-0.3
		c-0.5,0-1,0.1-1.3,0.4c-0.3,0.3-0.5,0.6-0.5,1c0,0.4,0.2,0.7,0.6,1c0.4,0.2,0.8,0.4,1.3,0.6c0.5,0.1,1,0.3,1.6,0.5
		c0.5,0.2,1,0.5,1.3,0.9c0.4,0.4,0.6,1,0.6,1.6c0,0.8-0.3,1.6-1,2.1c-0.6,0.6-1.5,0.8-2.6,0.8c-0.5,0-0.9-0.1-1.3-0.2
		c-0.4-0.1-0.8-0.3-1-0.4c-0.3-0.2-0.5-0.3-0.7-0.5c-0.2-0.2-0.3-0.3-0.4-0.4l-0.1-0.2l1-1c0,0,0.1,0.1,0.1,0.2
		c0,0.1,0.2,0.2,0.3,0.3c0.2,0.2,0.3,0.3,0.5,0.4s0.4,0.2,0.7,0.3c0.3,0.1,0.6,0.2,0.9,0.2c0.7,0,1.2-0.2,1.6-0.5
		c0.4-0.3,0.6-0.7,0.6-1.2c0-0.4-0.2-0.7-0.6-1c-0.4-0.3-0.8-0.5-1.3-0.6c-0.5-0.1-1-0.3-1.6-0.5c-0.5-0.2-1-0.5-1.3-0.9
		c-0.4-0.4-0.6-0.9-0.6-1.5c0-0.7,0.3-1.4,0.9-1.9s1.4-0.8,2.4-0.8c0.4,0,0.8,0,1.1,0.1c0.3,0.1,0.7,0.2,0.9,0.3
		c0.2,0.1,0.4,0.3,0.6,0.4s0.3,0.2,0.4,0.3l0.2,0.2L-576.6,417.5z"/>
</g>
<g id="XMLID_153_" class="st0">
	<path id="XMLID_154_" class="st1" d="M-697.2,656.4v14.4h-1.5v-11.5h-2.7v-0.9c0.5,0,0.9-0.1,1.3-0.2c0.4-0.1,0.7-0.3,0.9-0.5
		s0.4-0.4,0.5-0.6c0.1-0.2,0.2-0.3,0.3-0.5l0.1-0.2H-697.2z"/>
</g>
<g id="XMLID_150_" class="st0">
	<path id="XMLID_151_" class="st1" d="M-676,670.8c0-0.9,0.2-1.8,0.6-2.6c0.4-0.8,0.9-1.4,1.4-1.9c0.6-0.5,1.2-1,1.8-1.4
		c0.7-0.5,1.3-0.9,1.8-1.3c0.6-0.4,1-0.8,1.4-1.4s0.6-1.1,0.6-1.8c0-0.8-0.3-1.5-0.8-2s-1.3-0.8-2.3-0.8c-0.5,0-0.9,0.1-1.3,0.3
		c-0.4,0.2-0.7,0.4-0.9,0.6c-0.2,0.2-0.4,0.5-0.5,0.7c-0.1,0.2-0.2,0.4-0.3,0.6l-0.1,0.3l-1.3-0.6c0-0.1,0-0.2,0.1-0.4
		c0.1-0.1,0.2-0.4,0.4-0.8c0.2-0.4,0.5-0.7,0.8-1c0.3-0.3,0.7-0.6,1.3-0.8c0.6-0.2,1.2-0.4,1.9-0.4c1.4,0,2.5,0.4,3.3,1.2
		c0.9,0.8,1.3,1.8,1.3,3c0,0.7-0.2,1.3-0.5,1.9c-0.3,0.6-0.7,1.1-1.2,1.5c-0.5,0.4-1,0.8-1.6,1.3c-0.6,0.5-1.2,0.8-1.7,1.2
		s-1,0.8-1.5,1.3s-0.8,1.1-1,1.7h7.5v1.4h-9.2V670.8z"/>
</g>
<g id="XMLID_147_" class="st0">
	<path id="XMLID_148_" class="st1" d="M-641.6,663.3c0.1,0,0.3,0.2,0.6,0.3c0.3,0.2,0.6,0.4,0.8,0.6c0.2,0.2,0.4,0.6,0.6,1
		c0.2,0.4,0.3,1,0.3,1.5c0,1.1-0.4,2.1-1.3,3c-0.9,0.8-2.1,1.2-3.5,1.2c-0.6,0-1.2-0.1-1.8-0.2c-0.6-0.2-1-0.3-1.4-0.5
		c-0.4-0.2-0.7-0.4-0.9-0.6s-0.5-0.4-0.6-0.5l-0.2-0.2l1-1c0,0,0.1,0.1,0.1,0.2c0.1,0.1,0.2,0.2,0.5,0.4c0.2,0.2,0.5,0.4,0.8,0.5
		c0.3,0.1,0.6,0.3,1.1,0.4c0.4,0.1,0.9,0.2,1.4,0.2c1,0,1.9-0.3,2.5-0.8c0.6-0.5,0.9-1.2,0.9-2s-0.3-1.4-0.9-2
		c-0.6-0.5-1.4-0.8-2.5-0.8h-1.4v-1.4h1.4c0.9,0,1.5-0.2,2-0.7s0.7-1.1,0.7-1.9c0-0.7-0.2-1.2-0.7-1.7c-0.5-0.4-1.2-0.7-2-0.7
		c-0.4,0-0.8,0.1-1.2,0.2c-0.4,0.1-0.7,0.2-0.9,0.4s-0.5,0.3-0.6,0.5c-0.2,0.2-0.3,0.3-0.4,0.4l-0.1,0.2l-1-1.1
		c0-0.1,0.1-0.1,0.2-0.2c0.1-0.1,0.2-0.2,0.5-0.5c0.3-0.2,0.6-0.4,0.9-0.6s0.7-0.3,1.2-0.5c0.5-0.1,1-0.2,1.6-0.2
		c1.3,0,2.3,0.4,3.1,1.1s1.2,1.6,1.2,2.7c0,0.5-0.1,0.9-0.2,1.3c-0.1,0.4-0.3,0.7-0.5,0.9c-0.2,0.2-0.4,0.4-0.6,0.6
		c-0.2,0.2-0.4,0.3-0.5,0.3l-0.2,0.1C-641.8,663.2-641.8,663.2-641.6,663.3z"/>
</g>
<g id="XMLID_143_" class="st0">
	<path id="XMLID_144_" class="st1" d="M-611.1,666.3v1.4h-1.8v3.1h-1.5v-3.1h-7.3V666l6.9-9.6h1.9v9.9L-611.1,666.3L-611.1,666.3z
		 M-614.5,658.1l-5.8,8.1h5.8V658.1z"/>
</g>
<g id="XMLID_140_" class="st0">
	<path id="XMLID_141_" class="st1" d="M-585.4,662.9c0.9,0.9,1.4,2,1.4,3.4s-0.5,2.5-1.4,3.4c-0.9,0.9-2.1,1.3-3.6,1.3
		c-0.6,0-1.2-0.1-1.7-0.2c-0.5-0.2-1-0.3-1.3-0.5c-0.4-0.2-0.7-0.4-0.9-0.6c-0.3-0.2-0.5-0.4-0.6-0.5l-0.2-0.2l1-1
		c0,0,0.1,0.1,0.1,0.2c0.1,0.1,0.2,0.2,0.5,0.4c0.2,0.2,0.5,0.4,0.7,0.5c0.3,0.2,0.6,0.3,1,0.4c0.4,0.1,0.9,0.2,1.3,0.2
		c1,0,1.9-0.3,2.5-0.9c0.6-0.6,0.9-1.4,0.9-2.4s-0.3-1.8-0.9-2.4c-0.6-0.6-1.4-0.9-2.4-0.9c-0.6,0-1.2,0.1-1.8,0.4
		c-0.6,0.3-0.9,0.5-1.1,0.8l-0.1,0.2h-1.1l0.5-8.1h7.7v1.4h-6.4l-0.3,4.5c0.1-0.1,0.2-0.1,0.3-0.2c0.1-0.1,0.5-0.2,0.9-0.4
		c0.4-0.2,1-0.2,1.5-0.2C-587.4,661.5-586.3,662-585.4,662.9z"/>
</g>
<g id="XMLID_136_" class="st0">
	<path id="XMLID_137_" class="st1" d="M-558,662.9c0.9,0.9,1.4,2,1.4,3.4c0,1.3-0.5,2.5-1.4,3.4c-0.9,0.9-2.1,1.4-3.5,1.4
		s-2.6-0.5-3.5-1.4c-0.9-0.9-1.4-2-1.4-3.4c0-0.5,0.1-1,0.3-1.5c0.2-0.5,0.3-0.9,0.5-1.2l0.3-0.4l4.3-6.8h1.5l-3.4,5.3
		c0.4-0.1,0.9-0.2,1.5-0.2C-560,661.5-558.9,662-558,662.9z M-559.1,663.9c-0.6-0.6-1.4-0.9-2.5-0.9c-1.1,0-1.8,0.3-2.5,0.9
		c-0.6,0.6-0.9,1.4-0.9,2.4s0.3,1.8,0.9,2.4c0.6,0.6,1.4,0.9,2.5,0.9c1.1,0,1.8-0.3,2.5-0.9c0.6-0.6,0.9-1.4,0.9-2.4
		C-558.1,665.3-558.4,664.5-559.1,663.9z"/>
</g>
<g id="XMLID_133_" class="st0">
	<path id="XMLID_134_" class="st1" d="M-529.5,656.4v1.4l-6.4,12.9h-1.5l6.4-12.9h-7.5v-1.4H-529.5z"/>
</g>
<g id="XMLID_128_" class="st0">
	<path id="XMLID_129_" class="st1" d="M-503.7,657.3c0.8,0.8,1.2,1.6,1.2,2.7c0,0.4-0.1,0.8-0.2,1.1c-0.1,0.3-0.3,0.6-0.5,0.9
		c-0.2,0.2-0.4,0.4-0.5,0.6c-0.2,0.2-0.3,0.3-0.5,0.3l-0.2,0.1c0.1,0,0.2,0.1,0.3,0.1c0.1,0,0.3,0.2,0.6,0.4
		c0.3,0.2,0.5,0.4,0.7,0.7c0.2,0.2,0.4,0.6,0.6,1c0.2,0.4,0.3,0.9,0.3,1.4c0,1.2-0.5,2.2-1.4,3.1c-0.9,0.9-2.1,1.3-3.4,1.3
		s-2.5-0.4-3.4-1.3c-0.9-0.9-1.4-1.9-1.4-3.1c0-0.5,0.1-1,0.3-1.4s0.4-0.8,0.6-1c0.2-0.3,0.5-0.5,0.7-0.7c0.2-0.2,0.4-0.3,0.6-0.4
		l0.3-0.1c-0.1,0-0.1-0.1-0.2-0.1c-0.1,0-0.2-0.2-0.4-0.3c-0.2-0.2-0.4-0.4-0.6-0.6c-0.2-0.2-0.3-0.5-0.4-0.9
		c-0.1-0.4-0.2-0.7-0.2-1.1c0-1,0.4-1.9,1.2-2.7c0.8-0.8,1.8-1.1,3-1.1C-505.4,656.2-504.5,656.6-503.7,657.3z M-509,664.5
		c-0.6,0.6-1,1.3-1,2.1c0,0.8,0.3,1.5,0.9,2.1s1.4,0.9,2.4,0.9s1.8-0.3,2.4-0.9s0.9-1.3,0.9-2.1c0-0.8-0.3-1.5-1-2.1
		c-0.6-0.6-1.4-0.9-2.3-0.9C-507.6,663.6-508.4,663.9-509,664.5z M-504.8,661.7c0.5-0.4,0.7-1,0.7-1.7s-0.2-1.2-0.7-1.7
		c-0.5-0.4-1.1-0.7-1.9-0.7s-1.5,0.2-1.9,0.7c-0.5,0.4-0.7,1-0.7,1.7s0.2,1.3,0.7,1.7s1.1,0.7,1.9,0.7S-505.2,662.1-504.8,661.7z"/>
</g>
<g id="XMLID_124_" class="st0">
	<path id="XMLID_125_" class="st1" d="M-482.8,664.3c-0.9-0.9-1.4-2-1.4-3.4c0-1.3,0.5-2.5,1.4-3.4c0.9-0.9,2.1-1.4,3.5-1.4
		c1.4,0,2.6,0.5,3.5,1.4c0.9,0.9,1.4,2,1.4,3.4c0,0.5-0.1,1-0.3,1.5s-0.3,0.9-0.5,1.2l-0.3,0.4l-4.3,6.8h-1.5l3.4-5.3
		c-0.4,0.1-0.9,0.2-1.5,0.2C-480.8,665.6-481.9,665.2-482.8,664.3z M-481.7,663.3c0.6,0.6,1.4,0.9,2.5,0.9c1.1,0,1.8-0.3,2.5-0.9
		c0.6-0.6,0.9-1.4,0.9-2.4s-0.3-1.8-0.9-2.4c-0.6-0.6-1.4-0.9-2.5-0.9c-1.1,0-1.8,0.3-2.5,0.9c-0.6,0.6-0.9,1.4-0.9,2.4
		S-482.4,662.7-481.7,663.3z"/>
</g>
<g id="XMLID_118_" class="st0">
	<path id="XMLID_119_" class="st1" d="M-457.4,656.4v14.4h-1.5v-11.5h-2.7v-0.9c0.5,0,0.9-0.1,1.3-0.2c0.4-0.1,0.7-0.3,0.9-0.5
		s0.4-0.4,0.5-0.6c0.1-0.2,0.2-0.3,0.3-0.5l0.1-0.2H-457.4z"/>
	<path id="XMLID_121_" class="st1" d="M-444.2,668.9c-1.1,1.4-2.5,2-4,2c-1.6,0-2.9-0.7-4.1-2c-1.1-1.4-1.7-3.1-1.7-5.4
		c0-2.2,0.6-4,1.7-5.4c1.1-1.4,2.5-2,4-2s2.9,0.7,4,2c1.1,1.4,1.7,3.1,1.7,5.4C-442.5,665.8-443.1,667.6-444.2,668.9z M-451.2,668
		c0.8,1.1,1.8,1.6,3,1.6s2.1-0.5,3-1.6c0.8-1.1,1.2-2.5,1.2-4.4c0-1.9-0.4-3.3-1.2-4.4c-0.8-1.1-1.8-1.6-3-1.6s-2.1,0.5-3,1.6
		c-0.8,1.1-1.2,2.5-1.2,4.4C-452.4,665.5-452.1,666.9-451.2,668z"/>
</g>
<g id="XMLID_113_" class="st0">
	<path id="XMLID_114_" class="st1" d="M-425.8,656.4v14.4h-1.5v-11.5h-2.7v-0.9c0.5,0,0.9-0.1,1.3-0.2c0.4-0.1,0.7-0.3,0.9-0.5
		c0.2-0.2,0.4-0.4,0.5-0.6c0.1-0.2,0.2-0.3,0.3-0.5l0.1-0.2H-425.8z"/>
	<path id="XMLID_116_" class="st1" d="M-418.6,656.4v14.4h-1.5v-11.5h-2.7v-0.9c0.5,0,0.9-0.1,1.3-0.2c0.4-0.1,0.7-0.3,0.9-0.5
		c0.2-0.2,0.4-0.4,0.5-0.6c0.1-0.2,0.2-0.3,0.3-0.5l0.1-0.2H-418.6z"/>
</g>
<g id="XMLID_108_" class="st0">
	<path id="XMLID_109_" class="st1" d="M-400.4,656.4v14.4h-1.5v-11.5h-2.7v-0.9c0.5,0,0.9-0.1,1.3-0.2c0.4-0.1,0.7-0.3,0.9-0.5
		c0.2-0.2,0.4-0.4,0.5-0.6c0.1-0.2,0.2-0.3,0.3-0.5l0.1-0.2H-400.4z"/>
	<path id="XMLID_111_" class="st1" d="M-397.4,670.8c0-0.9,0.2-1.8,0.6-2.6c0.4-0.8,0.9-1.4,1.4-1.9c0.6-0.5,1.2-1,1.8-1.4
		c0.7-0.5,1.3-0.9,1.8-1.3c0.6-0.4,1-0.8,1.4-1.4s0.6-1.1,0.6-1.8c0-0.8-0.3-1.5-0.8-2s-1.3-0.8-2.3-0.8c-0.5,0-0.9,0.1-1.3,0.3
		s-0.7,0.4-0.9,0.6c-0.2,0.2-0.4,0.5-0.5,0.7s-0.2,0.4-0.3,0.6l-0.1,0.3l-1.3-0.6c0-0.1,0-0.2,0.1-0.4c0-0.1,0.2-0.4,0.4-0.8
		c0.2-0.4,0.5-0.7,0.8-1s0.7-0.6,1.3-0.8c0.6-0.2,1.2-0.4,1.9-0.4c1.4,0,2.5,0.4,3.3,1.2c0.9,0.8,1.3,1.8,1.3,3
		c0,0.7-0.2,1.3-0.5,1.9c-0.3,0.6-0.7,1.1-1.2,1.5c-0.5,0.4-1,0.8-1.6,1.3c-0.6,0.4-1.2,0.8-1.7,1.2s-1,0.8-1.5,1.3s-0.8,1.1-1,1.7
		h7.5v1.4h-9.2V670.8z"/>
</g>
<g id="XMLID_103_" class="st0">
	<path id="XMLID_104_" class="st1" d="M-372.2,656.4v14.4h-1.5v-11.5h-2.7v-0.9c0.5,0,0.9-0.1,1.3-0.2c0.4-0.1,0.7-0.3,0.9-0.5
		c0.2-0.2,0.4-0.4,0.5-0.6c0.1-0.2,0.2-0.3,0.3-0.5l0.1-0.2H-372.2z"/>
	<path id="XMLID_106_" class="st1" d="M-362.2,663.3c0.1,0,0.3,0.2,0.6,0.3c0.3,0.2,0.6,0.4,0.8,0.6c0.2,0.2,0.4,0.6,0.6,1
		c0.2,0.4,0.3,1,0.3,1.5c0,1.1-0.4,2.1-1.3,3c-0.9,0.8-2.1,1.2-3.5,1.2c-0.6,0-1.2-0.1-1.8-0.2c-0.6-0.1-1-0.3-1.4-0.5
		c-0.4-0.2-0.7-0.4-0.9-0.6c-0.3-0.2-0.5-0.4-0.6-0.5l-0.2-0.2l1-1c0,0,0.1,0.1,0.1,0.2c0.1,0.1,0.2,0.2,0.5,0.4
		c0.2,0.2,0.5,0.4,0.8,0.5c0.3,0.2,0.6,0.3,1.1,0.4c0.4,0.1,0.9,0.2,1.4,0.2c1,0,1.9-0.3,2.5-0.8s0.9-1.2,0.9-2s-0.3-1.4-0.9-2
		s-1.4-0.8-2.5-0.8h-1.4v-1.4h1.4c0.9,0,1.5-0.2,2-0.7s0.7-1.1,0.7-1.9c0-0.7-0.2-1.2-0.7-1.7c-0.5-0.4-1.2-0.7-2-0.7
		c-0.4,0-0.8,0.1-1.2,0.2c-0.4,0.1-0.7,0.2-0.9,0.4c-0.2,0.2-0.5,0.3-0.6,0.5c-0.2,0.2-0.3,0.3-0.4,0.4l-0.1,0.2l-1-1.1
		c0-0.1,0.1-0.1,0.2-0.2c0.1-0.1,0.2-0.2,0.5-0.5c0.3-0.2,0.6-0.4,0.9-0.6s0.7-0.3,1.2-0.5c0.5-0.1,1-0.2,1.6-0.2
		c1.3,0,2.3,0.4,3.1,1.1s1.2,1.6,1.2,2.7c0,0.5-0.1,0.9-0.2,1.3s-0.3,0.7-0.5,0.9c-0.2,0.2-0.4,0.4-0.6,0.6s-0.4,0.3-0.5,0.3
		l-0.2,0.1C-362.4,663.2-362.3,663.2-362.2,663.3z"/>
</g>
<g id="XMLID_97_" class="st0">
	<path id="XMLID_98_" class="st1" d="M-345.1,656.4v14.4h-1.5v-11.5h-2.7v-0.9c0.5,0,0.9-0.1,1.3-0.2c0.4-0.1,0.7-0.3,0.9-0.5
		c0.2-0.2,0.4-0.4,0.5-0.6c0.1-0.2,0.2-0.3,0.3-0.5l0.1-0.2H-345.1z"/>
	<path id="XMLID_100_" class="st1" d="M-331.6,666.3v1.4h-1.8v3.1h-1.6v-3.1h-7.3V666l6.9-9.6h1.9v9.9L-331.6,666.3L-331.6,666.3z
		 M-335,658.1l-5.8,8.1h5.8V658.1z"/>
</g>
<g id="XMLID_92_" class="st0">
	<path id="XMLID_93_" class="st1" d="M-317.9,656.4v14.4h-1.5v-11.5h-2.7v-0.9c0.5,0,0.9-0.1,1.3-0.2c0.4-0.1,0.7-0.3,0.9-0.5
		c0.2-0.2,0.4-0.4,0.5-0.6c0.1-0.2,0.2-0.3,0.3-0.5l0.1-0.2H-317.9z"/>
	<path id="XMLID_95_" class="st1" d="M-306,662.9c0.9,0.9,1.4,2,1.4,3.4s-0.5,2.5-1.4,3.4c-0.9,0.9-2.1,1.3-3.6,1.3
		c-0.6,0-1.2-0.1-1.7-0.2c-0.5-0.1-1-0.3-1.3-0.5c-0.4-0.2-0.7-0.4-0.9-0.6c-0.3-0.2-0.5-0.4-0.6-0.5l-0.2-0.2l1-1
		c0,0,0.1,0.1,0.1,0.2s0.2,0.2,0.5,0.4c0.3,0.2,0.5,0.4,0.7,0.5c0.2,0.1,0.6,0.3,1,0.4s0.9,0.2,1.3,0.2c1,0,1.9-0.3,2.5-0.9
		c0.6-0.6,0.9-1.4,0.9-2.4s-0.3-1.8-0.9-2.4c-0.6-0.6-1.4-0.9-2.4-0.9c-0.6,0-1.2,0.1-1.8,0.4c-0.5,0.3-0.9,0.5-1.1,0.8l-0.3,0.4
		h-1.1l0.5-8.1h7.7v1.4h-6.4l-0.3,4.5c0.1-0.1,0.2-0.1,0.3-0.2c0.1-0.1,0.5-0.2,0.9-0.4c0.4-0.2,1-0.2,1.5-0.2
		C-308,661.5-306.9,662-306,662.9z"/>
</g>
<g id="XMLID_86_" class="st0">
	<path id="XMLID_87_" class="st1" d="M-290.3,656.4v14.4h-1.5v-11.5h-2.7v-0.9c0.5,0,0.9-0.1,1.3-0.2c0.4-0.1,0.7-0.3,0.9-0.5
		c0.2-0.2,0.4-0.4,0.5-0.6c0.1-0.2,0.2-0.3,0.3-0.5l0.1-0.2H-290.3z"/>
	<path id="XMLID_89_" class="st1" d="M-278.5,662.9c0.9,0.9,1.4,2,1.4,3.4c0,1.3-0.5,2.5-1.4,3.4c-0.9,0.9-2.1,1.4-3.5,1.4
		s-2.6-0.5-3.5-1.4c-0.9-0.9-1.4-2-1.4-3.4c0-0.5,0.1-1,0.3-1.5c0.2-0.5,0.3-0.9,0.5-1.2l0.3-0.4l4.3-6.8h1.5l-3.4,5.3
		c0.4-0.1,0.9-0.2,1.5-0.2C-280.6,661.5-279.5,662-278.5,662.9z M-279.6,663.9c-0.6-0.6-1.4-0.9-2.5-0.9c-1,0-1.8,0.3-2.5,0.9
		c-0.7,0.6-0.9,1.4-0.9,2.4s0.3,1.8,0.9,2.4c0.6,0.6,1.4,0.9,2.5,0.9c1,0,1.8-0.3,2.5-0.9c0.6-0.6,0.9-1.4,0.9-2.4
		S-279,664.5-279.6,663.9z"/>
</g>
<g id="XMLID_81_" class="st0">
	<path id="XMLID_82_" class="st1" d="M-261.1,656.4v14.4h-1.5v-11.5h-2.7v-0.9c0.5,0,0.9-0.1,1.3-0.2c0.4-0.1,0.7-0.3,0.9-0.5
		c0.2-0.2,0.4-0.4,0.5-0.6c0.1-0.2,0.2-0.3,0.3-0.5l0.1-0.2H-261.1z"/>
	<path id="XMLID_84_" class="st1" d="M-249.3,656.4v1.4l-6.4,12.9h-1.5l6.4-12.9h-7.5v-1.4H-249.3z"/>
</g>
<g id="XMLID_74_" class="st0">
	<path id="XMLID_75_" class="st1" d="M-235.5,656.4v14.4h-1.5v-11.5h-2.7v-0.9c0.5,0,0.9-0.1,1.3-0.2c0.4-0.1,0.7-0.3,0.9-0.5
		c0.2-0.2,0.4-0.4,0.5-0.6c0.1-0.2,0.2-0.3,0.3-0.5l0.1-0.2H-235.5z"/>
	<path id="XMLID_77_" class="st1" d="M-224.3,657.3c0.8,0.8,1.2,1.6,1.2,2.7c0,0.4-0.1,0.8-0.2,1.1c-0.1,0.4-0.3,0.6-0.5,0.9
		c-0.2,0.2-0.4,0.4-0.5,0.6c-0.2,0.2-0.3,0.3-0.5,0.3l-0.2,0.1c0.1,0,0.2,0.1,0.3,0.1s0.3,0.2,0.6,0.4c0.3,0.2,0.5,0.4,0.7,0.7
		c0.2,0.2,0.4,0.6,0.6,1s0.3,0.9,0.3,1.4c0,1.2-0.5,2.2-1.4,3.1s-2.1,1.3-3.4,1.3s-2.5-0.4-3.4-1.3s-1.4-1.9-1.4-3.1
		c0-0.5,0.1-1,0.3-1.4c0.2-0.4,0.4-0.8,0.6-1c0.2-0.3,0.5-0.5,0.7-0.7s0.4-0.3,0.6-0.4l0.3-0.1c-0.1,0-0.1-0.1-0.2-0.1
		s-0.2-0.2-0.4-0.3c-0.2-0.2-0.4-0.4-0.6-0.6s-0.3-0.5-0.4-0.9c-0.1-0.4-0.2-0.7-0.2-1.1c0-1,0.4-1.9,1.2-2.7c0.8-0.8,1.8-1.1,3-1.1
		C-226.1,656.2-225.1,656.6-224.3,657.3z M-229.6,664.5c-0.6,0.6-1,1.3-1,2.1c0,0.8,0.3,1.5,0.9,2.1s1.4,0.9,2.4,0.9
		s1.8-0.3,2.4-0.9s0.9-1.3,0.9-2.1c0-0.8-0.3-1.5-1-2.1c-0.6-0.6-1.4-0.9-2.3-0.9S-228.9,663.9-229.6,664.5z M-225.3,661.7
		c0.5-0.4,0.7-1,0.7-1.7s-0.2-1.2-0.7-1.7c-0.5-0.4-1.1-0.7-1.9-0.7s-1.5,0.2-1.9,0.7c-0.5,0.4-0.7,1-0.7,1.7s0.2,1.3,0.7,1.7
		s1.1,0.7,1.9,0.7C-226.5,662.4-225.8,662.1-225.3,661.7z"/>
</g>
<g id="XMLID_27_">
	<path id="XMLID_28_" class="st1" d="M-298.7,424v-3.5h-3.5v-2.6h3.5v-3.5h2.4v3.5h3.5v2.6h-3.5v3.5H-298.7z"/>
	<path id="XMLID_30_" class="st1" d="M-281.7,417c0.9,0.9,1.4,2.1,1.4,3.4c0,1.5-0.5,2.7-1.5,3.6c-1,1-2.3,1.4-3.9,1.4
		c-0.7,0-1.3-0.1-2-0.2c-0.7-0.1-1.1-0.3-1.5-0.6c-0.4-0.2-0.7-0.4-1-0.7c-0.3-0.3-0.5-0.4-0.6-0.6l-0.2-0.2l1.9-1.9
		c0.1,0.1,0.2,0.2,0.4,0.4c0.2,0.2,0.5,0.4,1.1,0.6c0.6,0.3,1.2,0.4,1.8,0.4c0.8,0,1.4-0.2,1.8-0.6s0.7-1,0.7-1.6s-0.2-1.2-0.7-1.7
		s-1.1-0.7-1.8-0.7c-0.5,0-0.9,0.1-1.3,0.3c-0.4,0.2-0.7,0.4-0.8,0.6l-0.2,0.3l-2.2-0.2l0.5-8.2h8.7v2.7h-5.9l-0.2,2.7
		c0.5-0.3,1.3-0.5,2.3-0.5C-283.8,415.7-282.6,416.1-281.7,417z"/>
	<path id="XMLID_32_" class="st1" d="M-267.8,423.5c-1.2,1.4-2.7,2.1-4.4,2.1s-3.2-0.7-4.4-2.1s-1.8-3.2-1.8-5.4
		c0-2.2,0.6-4.1,1.8-5.4c1.2-1.4,2.6-2.1,4.4-2.1s3.2,0.7,4.4,2.1c1.2,1.4,1.8,3.2,1.8,5.4C-266,420.3-266.6,422.1-267.8,423.5z
		 M-274.3,421.5c0.6,0.8,1.3,1.2,2.2,1.2c0.8,0,1.6-0.4,2.2-1.2s0.9-2,0.9-3.5s-0.3-2.7-0.9-3.5s-1.3-1.2-2.2-1.2
		c-0.8,0-1.6,0.4-2.2,1.2s-0.9,2-0.9,3.5S-274.9,420.7-274.3,421.5z"/>
	<path id="XMLID_35_" class="st1" d="M-263.4,422.8c0.3-0.3,0.7-0.5,1.2-0.5s0.8,0.2,1.2,0.5c0.3,0.3,0.5,0.7,0.5,1.1
		s-0.2,0.8-0.5,1.1s-0.7,0.5-1.2,0.5s-0.8-0.2-1.2-0.5c-0.3-0.3-0.5-0.7-0.5-1.1S-263.7,423.1-263.4,422.8z"/>
	<path id="XMLID_37_" class="st1" d="M-248,423.5c-1.2,1.4-2.7,2.1-4.4,2.1s-3.2-0.7-4.4-2.1s-1.8-3.2-1.8-5.4
		c0-2.2,0.6-4.1,1.8-5.4c1.2-1.4,2.6-2.1,4.4-2.1s3.2,0.7,4.4,2.1c1.2,1.4,1.8,3.2,1.8,5.4C-246.2,420.3-246.9,422.1-248,423.5z
		 M-254.6,421.5c0.6,0.8,1.3,1.2,2.2,1.2c0.8,0,1.6-0.4,2.2-1.2s0.9-2,0.9-3.5s-0.3-2.7-0.9-3.5s-1.3-1.2-2.2-1.2
		c-0.8,0-1.6,0.4-2.2,1.2s-0.9,2-0.9,3.5S-255.2,420.7-254.6,421.5z"/>
	<path id="XMLID_40_" class="st1" d="M-233.5,423.5c-1.2,1.4-2.7,2.1-4.4,2.1s-3.2-0.7-4.4-2.1s-1.8-3.2-1.8-5.4
		c0-2.2,0.6-4.1,1.8-5.4c1.2-1.4,2.6-2.1,4.4-2.1s3.2,0.7,4.4,2.1c1.2,1.4,1.8,3.2,1.8,5.4C-231.7,420.3-232.3,422.1-233.5,423.5z
		 M-240,421.5c0.6,0.8,1.3,1.2,2.2,1.2c0.8,0,1.6-0.4,2.2-1.2s0.9-2,0.9-3.5s-0.3-2.7-0.9-3.5s-1.3-1.2-2.2-1.2
		c-0.8,0-1.6,0.4-2.2,1.2s-0.9,2-0.9,3.5S-240.6,420.7-240,421.5z"/>
	<path id="XMLID_43_" class="st1" d="M-224,416.3c-0.7,0.7-1.5,1-2.5,1s-1.8-0.3-2.5-1c-0.7-0.7-1-1.5-1-2.4s0.3-1.7,1-2.4
		s1.5-1,2.5-1s1.8,0.3,2.5,1s1,1.5,1,2.4C-222.9,414.8-223.3,415.6-224,416.3z M-218.9,410.8h2.6l-9,14.4h-2.7L-218.9,410.8z
		 M-227.5,414.9c0.3,0.3,0.6,0.4,1,0.4s0.8-0.1,1-0.4c0.2-0.3,0.4-0.6,0.4-1s-0.1-0.8-0.4-1c-0.3-0.2-0.5-0.4-0.9-0.4
		s-0.8,0.1-1,0.4c-0.3,0.3-0.4,0.6-0.4,1C-227.9,414.3-227.7,414.7-227.5,414.9z M-220.4,419.8c0.7-0.7,1.5-1,2.5-1s1.8,0.3,2.5,1
		c0.7,0.7,1,1.5,1,2.4c0,0.9-0.3,1.7-1,2.4c-0.7,0.7-1.5,1-2.5,1s-1.8-0.3-2.5-1c-0.7-0.7-1-1.5-1-2.4
		C-221.4,421.2-221.1,420.5-220.4,419.8z M-216.9,421.1c-0.3-0.3-0.6-0.4-1-0.4s-0.8,0.1-1,0.4c-0.3,0.3-0.4,0.6-0.4,1
		s0.1,0.8,0.4,1c0.3,0.3,0.6,0.4,1,0.4s0.8-0.1,1-0.4c0.3-0.3,0.4-0.6,0.4-1S-216.6,421.4-216.9,421.1z"/>
</g>
<g id="XMLID_2294_">
	<g id="XMLID_581_" class="st0">
		<line id="XMLID_701_" class="st2" x1="-698.6" y1="437.8" x2="-698.6" y2="650.6"/>
		<line id="XMLID_700_" class="st2" x1="-671.2" y1="437.8" x2="-671.2" y2="650.6"/>
		<line id="XMLID_699_" class="st2" x1="-643.8" y1="437.8" x2="-643.8" y2="650.6"/>
		<line id="XMLID_698_" class="st2" x1="-616.4" y1="437.8" x2="-616.4" y2="650.6"/>
		<line id="XMLID_697_" class="st2" x1="-588.9" y1="437.8" x2="-588.9" y2="650.6"/>
		<line id="XMLID_696_" class="st2" x1="-561.5" y1="437.8" x2="-561.5" y2="650.6"/>
		<line id="XMLID_695_" class="st2" x1="-534.1" y1="437.8" x2="-534.1" y2="650.6"/>
		<line id="XMLID_694_" class="st2" x1="-506.7" y1="437.8" x2="-506.7" y2="650.6"/>
		<line id="XMLID_661_" class="st2" x1="-479.3" y1="437.8" x2="-479.3" y2="650.6"/>
		<line id="XMLID_654_" class="st2" x1="-451.9" y1="437.8" x2="-451.9" y2="650.6"/>
		<line id="XMLID_625_" class="st2" x1="-424.4" y1="437.8" x2="-424.4" y2="650.6"/>
		<line id="XMLID_624_" class="st2" x1="-397" y1="437.8" x2="-397" y2="650.6"/>
		<line id="XMLID_623_" class="st2" x1="-369.6" y1="437.8" x2="-369.6" y2="650.6"/>
		<line id="XMLID_621_" class="st2" x1="-342.2" y1="437.8" x2="-342.2" y2="650.6"/>
		<line id="XMLID_619_" class="st2" x1="-314.8" y1="437.8" x2="-314.8" y2="650.6"/>
		<line id="XMLID_616_" class="st2" x1="-287.4" y1="437.8" x2="-287.4" y2="650.6"/>
		<line id="XMLID_612_" class="st2" x1="-260" y1="437.8" x2="-260" y2="650.6"/>
		<line id="XMLID_610_" class="st2" x1="-232.5" y1="437.8" x2="-232.5" y2="650.6"/>
	</g>
	<path id="XMLID_605_" class="st3" d="M-698.6,639.1c0,0,121.7-84.5,181.5-99.3c102.3-25.3,148.6-5.2,175.2-25.9
		c26.5-20.7,54.1-66.2,109.3-64.6"/>
</g>
</svg>
