<svg xmlns="http://www.w3.org/2000/svg" xmlns:xlink="http://www.w3.org/1999/xlink" width="66" height="66" viewBox="0 0 66 66">
  <defs>
    <clipPath id="clip-path">
      <rect id="Rectangle_79" data-name="Rectangle 79" width="66" height="66" transform="translate(-1650 668)" fill="none" stroke="#707070" stroke-width="1"/>
    </clipPath>
  </defs>
  <g id="icon-1" transform="translate(1650 -668)" clip-path="url(#clip-path)">
    <g id="icon-1-2" data-name="icon-1" transform="translate(-1640.653 676.754)">
      <path id="Path_111" data-name="Path 111" d="M151.565,1546.456v-1.948a8.753,8.753,0,0,1,8.743-8.743V1534a5.345,5.345,0,0,1,0-10.691V1510.85l-1.4,1.455a23.051,23.051,0,0,1-16.639,7.319,21.815,21.815,0,0,1-3.547-.292l-2.357-.389.094,2.387a52.313,52.313,0,0,0,4.083,19.031A37.655,37.655,0,0,0,148.424,1552a29.876,29.876,0,0,0,11.327,7.334l.557.167v-13.045Z" transform="translate(-136.362 -1510.85)" fill="#dfe2f4"/>
      <path id="Path_112" data-name="Path 112" d="M211.834,1519.332a21.811,21.811,0,0,1-3.547.292,23.047,23.047,0,0,1-16.639-7.319l-1.4-1.455v12.456a5.345,5.345,0,1,1,0,10.691v1.769a8.753,8.753,0,0,1,8.744,8.743v1.948h-8.744V1559.5l.558-.167A29.877,29.877,0,0,0,202.129,1552a37.656,37.656,0,0,0,7.885-11.639,52.323,52.323,0,0,0,4.083-19.031l.093-2.387Z" transform="translate(-166.299 -1510.85)" fill="#dfe2f4"/>
      <ellipse id="Ellipse_8" data-name="Ellipse 8" cx="5.345" cy="5.345" rx="5.345" ry="5.345" transform="translate(18.601 12.456)" fill="#5267f7"/>
      <path id="Path_113" data-name="Path 113" d="M170.571,1575.658v1.947h17.487v-1.947a8.743,8.743,0,0,0-17.487,0Z" transform="translate(-155.368 -1541.999)" fill="#5267f7"/>
    </g>
  </g>
</svg>
