<svg xmlns="http://www.w3.org/2000/svg" xmlns:xlink="http://www.w3.org/1999/xlink" width="66" height="66" viewBox="0 0 66 66">
  <defs>
    <clipPath id="clip-path">
      <rect id="Rectangle_80" data-name="Rectangle 80" width="66" height="66" transform="translate(-1487 668)" fill="none" stroke="#707070" stroke-width="1"/>
    </clipPath>
  </defs>
  <g id="icon-2" transform="translate(1487 -668)" clip-path="url(#clip-path)">
    <g id="icon-2-2" data-name="icon-2" transform="translate(-1476.033 677.839)">
      <g id="Group_18" data-name="Group 18" transform="translate(0 0)">
        <rect id="Rectangle_19" data-name="Rectangle 19" width="3.756" height="3.357" transform="translate(4.695 43.128)" fill="#5267f7"/>
        <rect id="Rectangle_20" data-name="Rectangle 20" width="3.756" height="3.357" transform="translate(38.034 43.128)" fill="#5267f7"/>
        <rect id="Rectangle_21" data-name="Rectangle 21" width="1.878" height="3.756" transform="translate(0 5.634)" fill="#5267f7"/>
        <rect id="Rectangle_22" data-name="Rectangle 22" width="1.878" height="3.756" transform="translate(0 33.737)" fill="#5267f7"/>
        <path id="Path_114" data-name="Path 114" d="M779.585,1522.523v5.635h15.73v31.859h-15.73v5.635h21.365v-43.128Z" transform="translate(-756.342 -1522.523)" fill="#dfe2f4"/>
        <path id="Path_115" data-name="Path 115" d="M787.145,1550.659a7.568,7.568,0,0,1-7.56,7.56v8.37h15.73V1534.73h-15.73v8.369A7.569,7.569,0,0,1,787.145,1550.659Z" transform="translate(-756.342 -1529.096)" fill="#5267f7"/>
        <path id="Path_116" data-name="Path 116" d="M787.145,1560.422a7.569,7.569,0,0,0-7.56-7.56v4.743a2.817,2.817,0,0,1,0,5.635v4.742A7.568,7.568,0,0,0,787.145,1560.422Z" transform="translate(-756.342 -1538.858)" fill="#3ec1f3"/>
        <path id="Path_117" data-name="Path 117" d="M782.4,1565.954a2.82,2.82,0,0,0-2.817-2.817v5.634A2.82,2.82,0,0,0,782.4,1565.954Z" transform="translate(-756.342 -1544.391)" fill="#3ec1f3"/>
        <path id="Path_118" data-name="Path 118" d="M738.933,1560.017v-31.859h15.73v-5.635H733.3v43.128h21.365v-5.635Z" transform="translate(-731.421 -1522.523)" fill="#dfe2f4"/>
        <path id="Path_119" data-name="Path 119" d="M745.506,1566.589h15.73v-8.37a7.56,7.56,0,1,1,0-15.12v-8.369h-15.73v31.859Z" transform="translate(-737.993 -1529.096)" fill="#5267f7"/>
        <path id="Path_120" data-name="Path 120" d="M767.949,1560.422a2.821,2.821,0,0,1,2.817-2.817v-4.743a7.56,7.56,0,1,0,0,15.119v-4.742A2.821,2.821,0,0,1,767.949,1560.422Z" transform="translate(-747.524 -1538.858)" fill="#3ec1f3"/>
        <path id="Path_121" data-name="Path 121" d="M773.481,1565.954a2.82,2.82,0,0,0,2.818,2.818v-5.634A2.821,2.821,0,0,0,773.481,1565.954Z" transform="translate(-753.056 -1544.391)" fill="#3ec1f3"/>
      </g>
    </g>
  </g>
</svg>
