<svg xmlns="http://www.w3.org/2000/svg" xmlns:xlink="http://www.w3.org/1999/xlink" width="66" height="66" viewBox="0 0 66 66">
  <defs>
    <clipPath id="clip-path">
      <rect id="Rectangle_83" data-name="Rectangle 83" width="66" height="66" transform="translate(-943 701)" fill="#fff" stroke="#707070" stroke-width="1"/>
    </clipPath>
  </defs>
  <g id="icon-5" transform="translate(943 -701)" clip-path="url(#clip-path)">
    <g id="icon-5-2" data-name="icon-5" transform="translate(-936.712 717.926)">
      <g id="Group_15" data-name="Group 15" transform="translate(0)">
        <path id="Path_89" data-name="Path 89" d="M755.86,1764l-6.112,6.112a6.561,6.561,0,0,1,3.073,3.073l6.112-6.112A6.562,6.562,0,0,1,755.86,1764Z" transform="translate(-740.42 -1751.008)" fill="#dfe2f4"/>
        <path id="Path_90" data-name="Path 90" d="M782.989,1766.448,780.542,1764a6.561,6.561,0,0,1-3.073,3.073l2.446,2.447A6.56,6.56,0,0,1,782.989,1766.448Z" transform="translate(-753.338 -1751.008)" fill="#dfe2f4"/>
        <path id="Path_91" data-name="Path 91" d="M804.436,1757.137l-6.112,6.112a6.564,6.564,0,0,1,3.073,3.073l6.112-6.112A6.562,6.562,0,0,1,804.436,1757.137Z" transform="translate(-763.056 -1747.809)" fill="#dfe2f4"/>
        <g id="Group_14" data-name="Group 14">
          <path id="Path_92" data-name="Path 92" d="M760,1753.053a6.482,6.482,0,0,0,.637,2.809,6.561,6.561,0,0,0,3.073,3.073,6.473,6.473,0,0,0,2.809.637v-13.038A6.527,6.527,0,0,0,760,1753.053Z" transform="translate(-745.198 -1742.868)" fill="#5267f7"/>
          <path id="Path_93" data-name="Path 93" d="M741.609,1774.89a6.522,6.522,0,1,0,3.073,3.073A6.563,6.563,0,0,0,741.609,1774.89Z" transform="translate(-732.281 -1755.785)" fill="#5267f7"/>
          <path id="Path_94" data-name="Path 94" d="M815.1,1739.67h0a6.519,6.519,0,0,0,0,13.038h0a6.519,6.519,0,1,0,0-13.038Z" transform="translate(-767.833 -1739.67)" fill="#5267f7"/>
          <path id="Path_95" data-name="Path 95" d="M778.728,1753.053a6.526,6.526,0,0,0-6.519-6.519v13.038a6.473,6.473,0,0,0,2.809-.637,6.56,6.56,0,0,0,3.073-3.073A6.482,6.482,0,0,0,778.728,1753.053Z" transform="translate(-750.887 -1742.868)" fill="#5267f7"/>
          <path id="Path_96" data-name="Path 96" d="M790.185,1768.027a6.468,6.468,0,0,0-2.808-.637h0a6.469,6.469,0,0,0-2.808.637,6.56,6.56,0,0,0-3.073,3.073,6.517,6.517,0,0,0,5.882,9.328h0a6.518,6.518,0,0,0,2.808-12.4Z" transform="translate(-754.916 -1752.587)" fill="#5267f7"/>
        </g>
      </g>
    </g>
  </g>
</svg>
