<svg xmlns="http://www.w3.org/2000/svg" width="996.571" height="783.819" viewBox="0 0 996.571 783.819">
  <g id="img-top" transform="translate(-822.241 -215.507)">
    <path id="Path_6" data-name="Path 6" d="M1711.87,853.545V774.6l-47.726-48.532H1530.119L1482.394,774.6v73.205H1315.445V817.393h0c-53.466-5.742-37.05-45.214-66.653-45.214h-52.659a20.148,20.148,0,0,0-10.854,3.14L1111,729.389h-76.432L938.759,788.6h.173v74.548l-64.317,39.746v68.261H1759.5V902.076Z" transform="translate(0.194 1.889)" fill="#dfe2f4"/>
    <path id="Path_7" data-name="Path 7" d="M1788.431,970.355H1736.58c0-14.265,11.572-28.8,25.925-28.8S1788.431,956,1788.431,970.355Z" transform="translate(3.387 2.686)" fill="#3ec1f3"/>
    <path id="Path_8" data-name="Path 8" d="M1815.276,970.329H1776.8c0-10.582,8.611-21.351,19.2-21.351S1815.276,959.654,1815.276,970.329Z" transform="translate(3.535 2.714)" fill="#3ec1f3"/>
    <path id="Path_9" data-name="Path 9" d="M1061.77,626.164c25.119-7.806,57.419-18.928,155.735,61.451s135.461,27.809,125.42,15.7c-8.073-9.779-53.2,16.6-19.556,52.215,31.846,33.827,125.324,1.435,150.98-19.2,36.512-29.424,88.722-52.657,134.743-54.273" transform="translate(0.885 1.497)" fill="none" stroke="#3ec1f3" stroke-linecap="round" stroke-linejoin="round" stroke-width="4" stroke-dasharray="12"/>
    <line id="Line_1" data-name="Line 1" x1="95.809" y1="59.208" transform="translate(1034.85 731.186)" fill="none" stroke="#4856df" stroke-miterlimit="10" stroke-width="3" opacity="0.5"/>
    <path id="Path_10" data-name="Path 10" d="M939.684,788.276H1130.4v181.75" transform="translate(0.435 2.118)" fill="none" stroke="#4856df" stroke-miterlimit="10" stroke-width="3" opacity="0.5"/>
    <line id="Line_2" data-name="Line 2" y1="106.574" x2="0.897" transform="translate(936.71 865.839)" fill="none" stroke="#4856df" stroke-miterlimit="10" stroke-width="3" opacity="0.5"/>
    <line id="Line_3" data-name="Line 3" x2="60.823" transform="translate(875.707 904.773)" fill="none" stroke="#4856df" stroke-miterlimit="10" stroke-width="3" opacity="0.5"/>
    <line id="Line_4" data-name="Line 4" x2="191.618" transform="translate(937.786 892.035)" fill="none" stroke="#4856df" stroke-miterlimit="10" stroke-width="3" opacity="0.5"/>
    <line id="Line_5" data-name="Line 5" x2="135.73" transform="translate(1480.525 919.126)" fill="none" stroke="#4856df" stroke-miterlimit="10" stroke-width="3" opacity="0.5"/>
    <line id="Line_6" data-name="Line 6" x2="44.674" transform="translate(1130.659 790.394)" fill="none" stroke="#4856df" stroke-miterlimit="10" stroke-width="3" opacity="0.5"/>
    <path id="Path_11" data-name="Path 11" d="M1481.05,774.422h133.218V970.078" transform="translate(2.442 2.067)" fill="none" stroke="#4856df" stroke-miterlimit="10" stroke-width="3" opacity="0.5"/>
    <path id="Path_12" data-name="Path 12" d="M1613.77,969.181V774.422h93.567" transform="translate(2.929 2.067)" fill="none" stroke="#4856df" stroke-miterlimit="10" stroke-width="3" opacity="0.5"/>
    <line id="Line_7" data-name="Line 7" x2="50.866" transform="translate(1263.877 820.896)" fill="none" stroke="#4856df" stroke-miterlimit="10" stroke-width="3" opacity="0.5"/>
    <path id="Path_13" data-name="Path 13" d="M1661.23,969.606V901.431h94.022" transform="translate(3.105 2.539)" fill="none" stroke="#4856df" stroke-miterlimit="10" stroke-width="3" opacity="0.5"/>
    <line id="Line_8" data-name="Line 8" x1="47.186" y2="47.995" transform="translate(1616.703 728.496)" fill="none" stroke="#4856df" stroke-miterlimit="10" stroke-width="3" opacity="0.5"/>
    <line id="Line_9" data-name="Line 9" x2="47.635" y2="48.532" transform="translate(1616.703 855.434)" fill="none" stroke="#4856df" stroke-miterlimit="10" stroke-width="3" opacity="0.5"/>
    <line id="Line_10" data-name="Line 10" x1="93.656" transform="translate(1617.062 853.37)" fill="none" stroke="#4856df" stroke-miterlimit="10" stroke-width="3" opacity="0.5"/>
    <path id="Path_14" data-name="Path 14" d="M1196.27,773.529c-29.6,0-13.184,39.472-66.653,45.212h133.307C1209.454,813.089,1225.865,773.529,1196.27,773.529Z" transform="translate(1.141 2.064)" fill="none" stroke="#4856df" stroke-miterlimit="10" stroke-width="3" opacity="0.5"/>
    <path id="Path_15" data-name="Path 15" d="M1129.7,969.016V818.664h133.227V969.913" transform="translate(1.138 2.23)" fill="none" stroke="#4856df" stroke-miterlimit="10" stroke-width="3" opacity="0.5"/>
    <path id="Path_16" data-name="Path 16" d="M1262.25,968.857V862.1H1478.9V969.75" transform="translate(1.631 2.389)" fill="none" stroke="#4856df" stroke-miterlimit="10" stroke-width="3" opacity="0.5"/>
    <line id="Line_11" data-name="Line 11" y1="14.443" x2="50.057" transform="translate(1264.236 847.987)" fill="none" stroke="#4856df" stroke-miterlimit="10" stroke-width="3" opacity="0.5"/>
    <path id="Path_17" data-name="Path 17" d="M1478.9,848.249v13.906H1262.25" transform="translate(1.631 2.34)" fill="none" stroke="#4856df" stroke-miterlimit="10" stroke-width="3" opacity="0.5"/>
    <path id="Path_18" data-name="Path 18" d="M1305.2,886.681h.173a14.721,14.721,0,0,1,14.712,14.712v69.255h-29.6V901.483a14.684,14.684,0,0,1,14.712-14.8Z" transform="translate(1.729 2.483)" fill="#3ec1f3"/>
    <path id="Path_19" data-name="Path 19" d="M1437.124,886.681h.269a14.72,14.72,0,0,1,14.712,14.712h0v69.255h-29.6V901.393a14.531,14.531,0,0,1,14.624-14.712Z" transform="translate(2.22 2.483)" fill="#3ec1f3"/>
    <path id="Path_20" data-name="Path 20" d="M1371.165,886.681h.269a14.72,14.72,0,0,1,14.712,14.712v69.255h-29.6V901.484a14.554,14.554,0,0,1,14.624-14.8Z" transform="translate(1.976 2.483)" fill="#3ec1f3"/>
    <path id="Path_21" data-name="Path 21" d="M1710.353,920.2h.271a14.72,14.72,0,0,1,14.712,14.712v35.526h-29.6V934.909a14.643,14.643,0,0,1,14.622-14.709Z" transform="translate(3.234 2.609)" fill="#3ec1f3"/>
    <path id="Path_22" data-name="Path 22" d="M978.08,920.2h.269a14.721,14.721,0,0,1,14.712,14.712v35.526h-29.6V934.91A14.587,14.587,0,0,1,978.08,920.2Z" transform="translate(0.524 2.608)" fill="#3ec1f3"/>
    <path id="Path_23" data-name="Path 23" d="M1090.254,920.2h.269a14.7,14.7,0,0,1,14.712,14.622h0v35.525h-29.6V934.818a14.745,14.745,0,0,1,14.624-14.618Z" transform="translate(0.941 2.609)" fill="#3ec1f3"/>
    <path id="Path_24" data-name="Path 24" d="M1034.124,920.2h.269a14.721,14.721,0,0,1,14.712,14.712v35.526h-29.6V934.909A14.7,14.7,0,0,1,1034.124,920.2Z" transform="translate(0.732 2.609)" fill="#3ec1f3"/>
    <rect id="Rectangle_4" data-name="Rectangle 4" width="29.605" height="50.147" transform="translate(963.891 816.769)" fill="#3ec1f3"/>
    <rect id="Rectangle_5" data-name="Rectangle 5" width="29.605" height="50.147" transform="translate(1076.565 816.769)" fill="#3ec1f3"/>
    <rect id="Rectangle_6" data-name="Rectangle 6" width="29.605" height="50.147" transform="translate(1020.228 816.769)" fill="#3ec1f3"/>
    <rect id="Rectangle_7" data-name="Rectangle 7" width="24.581" height="37.05" transform="translate(1161.698 846.372)" fill="#3ec1f3"/>
    <rect id="Rectangle_8" data-name="Rectangle 8" width="24.581" height="37.05" transform="translate(1208.527 846.372)" fill="#3ec1f3"/>
    <rect id="Rectangle_9" data-name="Rectangle 9" width="24.581" height="37.05" transform="translate(1161.698 911.322)" fill="#3ec1f3"/>
    <rect id="Rectangle_10" data-name="Rectangle 10" width="24.581" height="37.05" transform="translate(1208.527 911.322)" fill="#3ec1f3"/>
    <rect id="Rectangle_11" data-name="Rectangle 11" width="24.581" height="37.05" transform="translate(1512.909 797.033)" fill="#3ec1f3"/>
    <rect id="Rectangle_12" data-name="Rectangle 12" width="24.581" height="37.05" transform="translate(1559.738 797.033)" fill="#3ec1f3"/>
    <rect id="Rectangle_13" data-name="Rectangle 13" width="24.581" height="37.05" transform="translate(1654.291 797.033)" fill="#3ec1f3"/>
    <rect id="Rectangle_14" data-name="Rectangle 14" width="24.581" height="37.05" transform="translate(1512.909 861.983)" fill="#3ec1f3"/>
    <rect id="Rectangle_15" data-name="Rectangle 15" width="24.581" height="37.05" transform="translate(1559.738 861.983)" fill="#3ec1f3"/>
    <path id="Path_25" data-name="Path 25" d="M1066.63,580.047c0,18.48-19.736,39.92-27.542,39.92s-27.541-21.351-27.541-39.92a27.543,27.543,0,1,1,55.085,0Z" transform="translate(0.703 1.058)" fill="#3ec1f3"/>
    <circle id="Ellipse_1" data-name="Ellipse 1" cx="8.613" cy="8.613" r="8.613" transform="translate(1031.173 572.492)" fill="#fff"/>
    <path id="Path_26" data-name="Path 26" d="M1666.349,640.456c0,18.48-19.736,39.921-27.54,39.921s-27.541-21.351-27.541-39.921a27.54,27.54,0,1,1,55.081,0Z" transform="translate(2.919 1.47)" fill="#3ec1f3"/>
    <circle id="Ellipse_2" data-name="Ellipse 2" cx="8.611" cy="8.611" r="8.611" transform="translate(1633.12 633.315)" fill="#fff"/>
    <path id="Path_27" data-name="Path 27" d="M849.054,970.355h51.853c0-14.265-11.572-28.8-25.927-28.8S849.054,956,849.054,970.355Z" transform="translate(0.099 2.686)" fill="#3ec1f3"/>
    <path id="Path_28" data-name="Path 28" d="M822.241,970.329h38.485c0-10.582-8.611-21.351-19.2-21.351S822.241,959.654,822.241,970.329Z" transform="translate(0 2.714)" fill="#3ec1f3"/>
    <path id="Path_29" data-name="Path 29" d="M1290.857,462.851c-63.872,39.031-86.032,147.75-99.573,187.4-14.622,42.881-46.827,41.9-84.236,54.455s-35.973,39.741-35.973,39.741a249.477,249.477,0,0,0-25.028,19.467l47.367,60.464c11.213-7.714,27.721-17.4,50.506-31.13,47.011-28.349,88.991-54.991,116.173-84.6s98.5-159.412,98.5-159.412Z" transform="translate(0.831 0.914)" fill="#4856df"/>
    <path id="Path_30" data-name="Path 30" d="M1093.565,823.269,1046.189,762.8a217.3,217.3,0,0,0-40.278,47.184l66.743,85.314c9.42-17.044,1.884-41,2.691-51.494C1075.888,837.443,1081.63,831.523,1093.565,823.269Z" transform="translate(0.679 2.022)" fill="#30242a"/>
    <path id="Path_31" data-name="Path 31" d="M1000.73,819.233l65.666,83.877a28.782,28.782,0,0,0,6.28-7.98l-66.744-85.312C1004.043,812.863,1002.343,816,1000.73,819.233Z" transform="translate(0.661 2.2)" fill="#3ec1f3"/>
    <line id="Line_12" data-name="Line 12" x2="12.738" y2="7.086" transform="translate(1069.926 828.879)" fill="none" stroke="#fff" stroke-linecap="round" stroke-linejoin="round" stroke-width="4"/>
    <line id="Line_13" data-name="Line 13" x2="12.738" y2="2.871" transform="translate(1064.275 841.707)" fill="none" stroke="#fff" stroke-linecap="round" stroke-linejoin="round" stroke-width="4"/>
    <line id="Line_14" data-name="Line 14" x1="22.697" y2="17.762" transform="translate(1064.275 769.402)" fill="none" stroke="#3ec1f3" stroke-linecap="round" stroke-miterlimit="10" stroke-width="4"/>
    <line id="Line_15" data-name="Line 15" x1="22.697" y2="17.762" transform="translate(1052.793 754.69)" fill="none" stroke="#3ec1f3" stroke-linecap="round" stroke-miterlimit="10" stroke-width="4"/>
    <line id="Line_16" data-name="Line 16" x1="22.697" y2="17.673" transform="translate(1075.759 784.114)" fill="none" stroke="#3ec1f3" stroke-linecap="round" stroke-miterlimit="10" stroke-width="4"/>
    <line id="Line_17" data-name="Line 17" x1="22.697" y2="17.673" transform="translate(1087.241 798.827)" fill="none" stroke="#3ec1f3" stroke-linecap="round" stroke-miterlimit="10" stroke-width="4"/>
    <line id="Line_18" data-name="Line 18" x2="49.698" y2="63.694" transform="translate(1069.838 746.079)" fill="none" stroke="#3ec1f3" stroke-linecap="round" stroke-miterlimit="10" stroke-width="4"/>
    <path id="Path_32" data-name="Path 32" d="M1309.732,631.532a373.5,373.5,0,0,1-29.425-55.35" transform="translate(1.699 1.334)" fill="none" stroke="#30242a" stroke-linecap="round" stroke-linejoin="round" stroke-width="4"/>
    <path id="Path_33" data-name="Path 33" d="M1519.566,347.554l.089-.269-.174.173Z" transform="translate(2.584 0.486)" fill="none"/>
    <path id="Path_34" data-name="Path 34" d="M1511.483,385.419c-3.678,0-5.473-3.05-4.037-6.727l12.559-31.039-.089-.09.173-.174a89.513,89.513,0,0,0,9.688-10.5c5.652-7.178,7.355-12.469,5.378-14.624a3.692,3.692,0,0,0-2.153-.987,5.576,5.576,0,0,0-2.429.174c-6.368,1.435-17.4,10.136-29.6,24.491-14.8,17.4-43.6,51.851-43.6,51.851-2.959-2.243-7.357-6.19-12.559-10.854l-41.356,53.2a187.152,187.152,0,0,0,28.259,18.215,30.422,30.422,0,0,1,56.516-3.587c24.938-18.659,44.674-51.851,53.825-69.434h-30.59Z" transform="translate(2.146 0.389)" fill="#eaa58b"/>
    <path id="Path_35" data-name="Path 35" d="M1374.563,341.744H1361.9c24.132,14.532,13.456,41.98,13.456,41.98s32.923,23.056,10.676,50.956a25.862,25.862,0,0,0,4.127-5.742s5.293,4.843,13.456,11.125l41.356-53.2C1425.772,369.644,1394.565,341.744,1374.563,341.744Z" transform="translate(1.995 0.465)" fill="#4756df"/>
    <path id="Path_36" data-name="Path 36" d="M1248.359,385.991s-24.222,20.185-7.895,47.184l8.613-48.442Z" transform="translate(1.53 0.624)" fill="#3ec1f3"/>
    <path id="Path_37" data-name="Path 37" d="M1293.89,330.3v.269l1.077-.269Z" transform="translate(1.748 0.42)" fill="#ff7235"/>
    <path id="Path_38" data-name="Path 38" d="M1327.81,297.581c-7.98-2.691-16.955-11.841-17.044-21.53l-20.544,8.97c.806,11.3,1.972,25.566,2.959,37.05C1301.078,319.291,1321.53,310.948,1327.81,297.581Z" transform="translate(1.732 0.221)" fill="#30242a"/>
    <path id="Path_39" data-name="Path 39" d="M1384.4,281.273c2.775,9.869,5.031,17.493,1.525,26.368a21.521,21.521,0,0,1-10.582,11.035l-.173-.09c-5.473,2.692-13.184,4.217-23.419,2.871l.54,9.06H1293.98c-.173-2.512-.449-5.378-.718-8.432,7.895-2.776,28.347-11.125,34.627-24.491-7.98-2.691-16.955-11.931-17.046-21.53a15.626,15.626,0,0,1,2.96-9.06,12.9,12.9,0,0,1,11.034-6.1,6.745,6.745,0,0,1,1.346.09h.173a7.112,7.112,0,0,1,1.346.269h.173a7.5,7.5,0,0,1,1.344.359h.174c.449.173.9.271,1.346.449h.09l1.346.54.089.173c.449.173.9.449,1.346.628h.09c.449.269.9.449,1.346.718h0l1.346.807a49.15,49.15,0,0,1,8.88,7.267,51.278,51.278,0,0,0,15.34-17.762l15.7-6.817c2.691,9.241,3.589,17.942,4.933,21.53.538,0,8.073-.359,8.882,3.05C1391.409,276.609,1384.4,281.273,1384.4,281.273Z" transform="translate(1.743 0.113)" fill="#eaa58b"/>
    <path id="Path_40" data-name="Path 40" d="M1345.222,272.273a51.256,51.256,0,0,0,15.34-17.762l-24.222,10.582A45.19,45.19,0,0,1,1345.222,272.273Z" transform="translate(1.901 0.142)" fill="#30242a"/>
    <path id="Path_41" data-name="Path 41" d="M1335,264.163Z" transform="translate(1.897 0.178)" fill="#4756df"/>
    <path id="Path_42" data-name="Path 42" d="M1333.66,263.448Z" transform="translate(1.893 0.175)" fill="#4756df"/>
    <path id="Path_43" data-name="Path 43" d="M1332.23,262.733Z" transform="translate(1.886 0.173)" fill="#4756df"/>
    <path id="Path_44" data-name="Path 44" d="M1330.76,262.108Z" transform="translate(1.918 0.17)" fill="#4756df"/>
    <path id="Path_45" data-name="Path 45" d="M1326.17,260.946Z" transform="translate(1.942 0.167)" fill="#4756df"/>
    <path id="Path_46" data-name="Path 46" d="M1313.82,267.123a12.9,12.9,0,0,1,11.035-6.1h-.089c-2.243-24.938,3.318-38.395,7.445-44.855a75.54,75.54,0,0,0-11.663,2.6c-28.527,8.613-31.846,36.776-31.039,53.556.173,3.319.449,7.806.807,12.828l20.544-8.97a15.207,15.207,0,0,1,2.96-9.06Z" transform="translate(1.731 0.001)" fill="#4756df"/>
    <path id="Path_47" data-name="Path 47" d="M1329.21,261.661Z" transform="translate(1.955 0.168)" fill="#4756df"/>
    <path id="Path_48" data-name="Path 48" d="M1327.69,261.214Z" transform="translate(1.949 0.168)" fill="#4756df"/>
    <path id="Path_49" data-name="Path 49" d="M1335.01,264.166a9.837,9.837,0,0,0-1.344-.718,9.843,9.843,0,0,1,1.344.718Z" transform="translate(1.896 0.175)" fill="#3ec1f3"/>
    <path id="Path_50" data-name="Path 50" d="M1336.35,264.971l-1.346-.808Z" transform="translate(1.9 0.178)" fill="#3ec1f3"/>
    <path id="Path_51" data-name="Path 51" d="M1329.109,261.573c-.449-.09-.9-.269-1.344-.359C1328.207,261.3,1328.658,261.483,1329.109,261.573Z" transform="translate(1.874 0.168)" fill="#3ec1f3"/>
    <path id="Path_52" data-name="Path 52" d="M1333.579,263.366a9.162,9.162,0,0,0-1.345-.628C1332.677,262.91,1333.129,263.179,1333.579,263.366Z" transform="translate(1.89 0.177)" fill="#3ec1f3"/>
    <path id="Path_53" data-name="Path 53" d="M1326.07,260.948a6.737,6.737,0,0,0-1.346-.09C1325.168,260.858,1325.619,260.948,1326.07,260.948Z" transform="translate(1.86 0.165)" fill="#3ec1f3"/>
    <path id="Path_54" data-name="Path 54" d="M1327.59,261.214l-1.346-.269Z" transform="translate(1.866 0.166)" fill="#3ec1f3"/>
    <path id="Path_55" data-name="Path 55" d="M1330.63,262.11a7.833,7.833,0,0,0-1.346-.449A7.833,7.833,0,0,1,1330.63,262.11Z" transform="translate(1.878 0.168)" fill="#3ec1f3"/>
    <path id="Path_56" data-name="Path 56" d="M1332.149,262.646l-1.344-.538Z" transform="translate(1.885 0.17)" fill="#3ec1f3"/>
    <path id="Path_57" data-name="Path 57" d="M1324.638,261.022h0a7.208,7.208,0,0,1,1.436.09h.174a7.1,7.1,0,0,1,1.346.269h.173a7.476,7.476,0,0,1,1.345.359h.173c.449.173.9.271,1.346.449h.09l1.346.54.09.088c.449.173.9.449,1.346.628h.089c.449.269.9.449,1.346.718h0l1.346.807,24.222-10.582,15.7-6.817c-4.755-16.777-15.25-35.614-44.317-31.489C1327.951,222.628,1322.4,236.173,1324.638,261.022Z" transform="translate(1.859)" fill="#3ec1f3"/>
    <path id="Path_58" data-name="Path 58" d="M1460.59,436.842a30.456,30.456,0,0,0-28.97,21.082c13.184,6.727,27.181,10.854,38.037,6.817a77.015,77.015,0,0,0,18.562-10.408,30.517,30.517,0,0,0-27.629-17.491Z" transform="translate(2.257 0.817)" fill="#ca7358"/>
    <path id="Path_59" data-name="Path 59" d="M1379.155,487.742c29.6-19.288,8.972-52.215,7.355-53.018,22.248-27.99-10.676-50.956-10.676-50.956s10.676-27.45-13.456-41.98h-9.151l-.718-11.484h-57.324l-1.078.269.987,11.215h-18.48l-27.54,43.24-8.613,48.442.449.718c-.269.538-.628,1.075-.9,1.615-5.563,10.944-6.37,20.274-4.933,27.809a39.87,39.87,0,0,0,15.7,24.132Z" transform="translate(1.526 0.423)" fill="#3ec1f3"/>
    <path id="Path_60" data-name="Path 60" d="M1250.72,501.6h128.37V487.161H1250.72Z" transform="translate(1.587 1.003)" fill="#30242a"/>
    <line id="Line_19" data-name="Line 19" x2="138.421" transform="translate(1238.939 384.193)" fill="none" stroke="#4856df" stroke-miterlimit="10" stroke-width="4"/>
    <line id="Line_20" data-name="Line 20" x2="146.494" transform="translate(1242.257 435.147)" fill="none" stroke="#4856df" stroke-miterlimit="10" stroke-width="4"/>
    <line id="Line_21" data-name="Line 21" x1="0.359" y1="4.845" transform="translate(1356.458 343.106)" fill="none" stroke="#a15842" stroke-linecap="round" stroke-miterlimit="10" stroke-width="4"/>
    <line id="Line_22" data-name="Line 22" x1="0.807" y1="13.187" transform="translate(1340.309 332.34)" fill="none" stroke="#a15842" stroke-linecap="round" stroke-miterlimit="10" stroke-width="4"/>
    <line id="Line_23" data-name="Line 23" x1="0.807" y1="13.187" transform="translate(1328.019 332.34)" fill="none" stroke="#a15842" stroke-linecap="round" stroke-miterlimit="10" stroke-width="4"/>
    <line id="Line_24" data-name="Line 24" x1="0.807" y1="13.187" transform="translate(1315.64 332.34)" fill="none" stroke="#a15842" stroke-linecap="round" stroke-miterlimit="10" stroke-width="4"/>
    <line id="Line_25" data-name="Line 25" x1="9.869" y2="12.2" transform="translate(1448.049 397.469)" fill="none" stroke="#a15842" stroke-linecap="round" stroke-linejoin="round" stroke-width="4"/>
    <path id="Path_61" data-name="Path 61" d="M1340.1,320.472a54.919,54.919,0,0,0,11.213,2.6" transform="translate(1.919 0.386)" fill="none" stroke="#a15842" stroke-linecap="round" stroke-miterlimit="10" stroke-width="4"/>
    <path id="Path_62" data-name="Path 62" d="M1529.4,336.938a4.135,4.135,0,0,0,4.576,4.127H1560.8a11.2,11.2,0,0,0,9.418-6.727l8.164-20.276c1.525-3.678-.269-6.727-4.037-6.727h-26.823a11.2,11.2,0,0,0-9.419,6.727l-3.319,8.254C1536.755,324.465,1535.055,329.758,1529.4,336.938Z" transform="translate(2.618 0.339)" fill="#f5ebdd"/>
    <path id="Path_63" data-name="Path 63" d="M1584.741,294.194h-7.265l-.628,1.615a6.891,6.891,0,0,1-5.921,4.217h-13.815c-2.333,0-3.409-1.884-2.512-4.217l.628-1.615h-7.267a11.083,11.083,0,0,0-9.419,6.729l-8.342,20.543a7.377,7.377,0,0,1,2.428-.173,3.96,3.96,0,0,1,2.153.987l3.318-8.254a11.311,11.311,0,0,1,9.419-6.727h26.823c3.678,0,5.473,3.05,4.037,6.727l-8.164,20.274a11.313,11.313,0,0,1-9.42,6.729h-26.824a4.184,4.184,0,0,1-4.575-4.127,89.551,89.551,0,0,1-9.688,10.5l-.09.269-12.56,31.038c-1.525,3.679.269,6.729,4.037,6.729h36.691a11.2,11.2,0,0,0,9.418-6.729l31.4-77.867C1590.223,297.244,1588.419,294.194,1584.741,294.194Zm-35.874,78.94a6.06,6.06,0,0,1-2.333,2.871,5.569,5.569,0,0,1-3.5,1.256h-20.454c-2.243,0-3.408-1.794-2.428-4.127a6.808,6.808,0,0,1,5.742-4.127h20.545a2.72,2.72,0,0,1,2.428,4.127Z" transform="translate(2.535 0.29)" fill="#4756df"/>
    <path id="Path_64" data-name="Path 64" d="M1546.386,368.825h-20.544a6.812,6.812,0,0,0-5.74,4.127c-.9,2.243.173,4.127,2.429,4.127h20.544a6.891,6.891,0,0,0,3.5-1.256,7.341,7.341,0,0,0,2.331-2.871C1549.717,370.62,1548.642,368.825,1546.386,368.825Z" transform="translate(2.58 0.566)" fill="#3ec1f3"/>
    <path id="Path_65" data-name="Path 65" d="M1556.935,300.026h13.815a7,7,0,0,0,5.921-4.217l.628-1.615h-22.248l-.628,1.615C1553.535,298.142,1554.611,300.026,1556.935,300.026Z" transform="translate(2.711 0.29)" fill="#3ec1f3"/>
    <line id="Line_26" data-name="Line 26" x1="55.081" y2="24.669" transform="translate(1343.629 240.209)" fill="none" stroke="#30242a" stroke-linecap="round" stroke-linejoin="round" stroke-width="4"/>
    <path id="Path_66" data-name="Path 66" d="M1379,291.443c-1.613.449-7.086-.449-7.895-5.114" transform="translate(2.03 0.26)" fill="none" stroke="#000" stroke-linecap="round" stroke-miterlimit="10" stroke-width="4"/>
    <circle id="Ellipse_3" data-name="Ellipse 3" cx="2.691" cy="2.691" r="2.691" transform="translate(1369.824 262.906)" fill="#30242a"/>
    <line id="Line_27" data-name="Line 27" x2="9.688" y2="6.189" transform="translate(1326.943 277.619)" fill="none" stroke="#a15842" stroke-linecap="round" stroke-miterlimit="10" stroke-width="4"/>
    <path id="Path_67" data-name="Path 67" d="M1436.71,490.111a12.405,12.405,0,0,1,12.381,12.379h0a12.327,12.327,0,0,1-12.291,12.379h0" transform="translate(2.272 1.014)" fill="none" stroke="#ff7235" stroke-miterlimit="10" stroke-width="4"/>
    <path id="Path_68" data-name="Path 68" d="M1453.96,490.111a12.329,12.329,0,0,1,12.29,12.379h0a12.329,12.329,0,0,1-12.291,12.379" transform="translate(2.336 1.014)" fill="none" stroke="#ff7235" stroke-miterlimit="10" stroke-width="4"/>
    <path id="Path_69" data-name="Path 69" d="M1407.172,491.72H1543.08a10.6,10.6,0,0,1,10.582,10.582v.174a10.606,10.606,0,0,1-10.582,10.582H1407.172a10.6,10.6,0,0,1-10.582-10.582V502.3A10.6,10.6,0,0,1,1407.172,491.72Z" transform="translate(2.131 1.02)" fill="#30242a"/>
    <rect id="Rectangle_16" data-name="Rectangle 16" width="21.349" height="462.616" transform="translate(1465.069 497.073) rotate(-10.19)" fill="#30242a"/>
    <path id="Path_70" data-name="Path 70" d="M1407.172,491.72h.173a10.6,10.6,0,0,1,10.582,10.582v.174a10.6,10.6,0,0,1-10.582,10.582h-.173a10.6,10.6,0,0,1-10.582-10.582V502.3A10.6,10.6,0,0,1,1407.172,491.72Z" transform="translate(2.131 1.02)" fill="none" stroke="#4856df" stroke-miterlimit="10" stroke-width="4"/>
    <path id="Path_71" data-name="Path 71" d="M1509.65,490.737A12.3,12.3,0,0,1,1517.9,502.4h0a12.287,12.287,0,0,1-7.355,11.3" transform="translate(2.548 1.018)" fill="none" stroke="#4856df" stroke-miterlimit="10" stroke-width="4"/>
    <path id="Path_72" data-name="Path 72" d="M1523.95,490.737A12.3,12.3,0,0,1,1532.2,502.4h0a12.287,12.287,0,0,1-7.357,11.3" transform="translate(2.601 1.018)" fill="none" stroke="#4856df" stroke-miterlimit="10" stroke-width="4"/>
    <rect id="Rectangle_17" data-name="Rectangle 17" width="300.166" height="21.351" transform="translate(1257.238 951.6)" fill="#30242a"/>
    <circle id="Ellipse_4" data-name="Ellipse 4" cx="26.285" cy="26.285" r="26.285" transform="translate(1249.524 946.757)" fill="#30242a"/>
    <circle id="Ellipse_5" data-name="Ellipse 5" cx="9.869" cy="9.869" r="9.869" transform="translate(1265.942 963.174)" fill="#3ec1f3"/>
    <circle id="Ellipse_6" data-name="Ellipse 6" cx="26.285" cy="26.285" r="26.285" transform="translate(1535.875 946.757)" fill="#30242a"/>
    <circle id="Ellipse_7" data-name="Ellipse 7" cx="9.869" cy="9.869" r="9.869" transform="translate(1552.292 963.174)" fill="#3ec1f3"/>
    <path id="Path_73" data-name="Path 73" d="M1315.372,970.647h-82.264a41.134,41.134,0,1,1,82.268,0Z" transform="translate(1.518 2.395)" fill="#4856df"/>
    <path id="Path_74" data-name="Path 74" d="M1600.672,970.647h-82.264a41.134,41.134,0,1,1,82.267,0Z" transform="translate(2.579 2.395)" fill="#4856df"/>
    <path id="Path_75" data-name="Path 75" d="M1355.339,879.046h76.881c.9-13.456,3.409-32.205,6.549-58.042,6.639-54.453,11.572-103.972,4.933-143.623s-64.859-175.83-64.859-175.83H1269.308c-8.613,74.279,63.333,158.875,86.216,193.942,24.76,37.947,4.125,62.707-9.061,99.845s9.061,52.84,9.061,52.84a253.062,253.062,0,0,0-.185,30.868Z" transform="translate(1.65 1.058)" fill="#4856df"/>
    <path id="Path_76" data-name="Path 76" d="M1367.494,939.285h108.278c-7.633-17.942-31.128-26.822-38.844-33.91-4.755-4.306-5.921-12.837-4.933-27.809h-76.881a209.075,209.075,0,0,0,12.381,61.72Z" transform="translate(1.975 2.448)" fill="#30242a"/>
    <path id="Path_77" data-name="Path 77" d="M1371.668,948.924h106.484a31.229,31.229,0,0,0-2.429-9.867H1367.446A88.228,88.228,0,0,0,1371.668,948.924Z" transform="translate(2.017 2.676)" fill="#3ec1f3"/>
    <line id="Line_28" data-name="Line 28" y2="27.003" transform="translate(1386.958 852.114)" fill="none" stroke="#3ec1f3" stroke-linecap="round" stroke-miterlimit="10" stroke-width="4"/>
    <line id="Line_29" data-name="Line 29" y2="27.003" transform="translate(1368.299 852.114)" fill="none" stroke="#3ec1f3" stroke-linecap="round" stroke-miterlimit="10" stroke-width="4"/>
    <line id="Line_30" data-name="Line 30" y2="27.003" transform="translate(1405.618 852.114)" fill="none" stroke="#3ec1f3" stroke-linecap="round" stroke-miterlimit="10" stroke-width="4"/>
    <line id="Line_31" data-name="Line 31" y2="27.003" transform="translate(1424.188 852.114)" fill="none" stroke="#3ec1f3" stroke-linecap="round" stroke-miterlimit="10" stroke-width="4"/>
    <line id="Line_32" data-name="Line 32" x2="78.944" transform="translate(1357.354 851.307)" fill="none" stroke="#3ec1f3" stroke-linecap="round" stroke-miterlimit="10" stroke-width="4"/>
    <path id="Path_78" data-name="Path 78" d="M1404.98,565.194c-2.692-6.639-5.294-13.1-7.716-19.108L1356.893,539v.173a17.319,17.319,0,0,0,14.084,20.093Z" transform="translate(1.979 1.195)" fill="#3ec1f3"/>
    <line id="Line_33" data-name="Line 33" y1="5.202" x2="12.738" transform="translate(1421.765 897.059)" fill="none" stroke="#fff" stroke-linecap="round" stroke-linejoin="round" stroke-width="4"/>
    <line id="Line_34" data-name="Line 34" y1="8.611" x2="10.675" transform="translate(1428.313 906.029)" fill="none" stroke="#fff" stroke-linecap="round" stroke-linejoin="round" stroke-width="4"/>
    <path id="Path_79" data-name="Path 79" d="M1558.057,376.405s14.084.538,15.251-11.751c0,0,10.048-4.665,7.446-13.815,0,0,9.241-2.6,6.549-11.841-.173-.538,5.2-1.613,4.933-9.241-.359-11.123-7.895-19.108-11.213-19.915-9.867-2.512-6.1,13.546-6.549,13.184-5.742-4.934-14.175-7.177-17.135-4.665a7.979,7.979,0,0,0-1.614,10.235s-6.729-1.615-9.957,3.228c-3.948,5.832,3.14,11.3,3.14,11.3s-7.445.807-6.189,7.714c1.344,7.716,13.01,9.42,18.48,17.493Z" transform="translate(2.668 0.349)" fill="#eaa58b"/>
    <path id="Path_80" data-name="Path 80" d="M1548.62,341.565c7.895,2.959,21.53,9.51,25.388,20.274" transform="translate(2.692 0.464)" fill="none" stroke="#a15842" stroke-linecap="round" stroke-linejoin="round" stroke-width="4"/>
    <path id="Path_81" data-name="Path 81" d="M1557.46,327.89c6.727,3.678,18.66,11.213,23.953,21.082" transform="translate(2.718 0.414)" fill="none" stroke="#a15842" stroke-linecap="round" stroke-linejoin="round" stroke-width="4"/>
    <path id="Path_82" data-name="Path 82" d="M1575.7,321.633a51.986,51.986,0,0,1,12.2,15.252" transform="translate(2.792 0.391)" fill="none" stroke="#a15842" stroke-linecap="round" stroke-linejoin="round" stroke-width="4"/>
    <path id="Path_83" data-name="Path 83" d="M1490.04,485.392c-4.933-12.379-20.543-25.476-38.665-32.115-34.807-12.648-119.223,5.742-119.223,5.742l-12.649-27-62.263,30.5c8.97,17.493,19.736,32.205,30.769,42.433a30.385,30.385,0,0,1,53.825,15.25c34.448-2.692,72.485-18.388,83.339-28.169,0,0,6.549,5.742,13.994,6.549,0,2.512-11.482,35.345,9.061,27.99,0,0,5.74,7.445,13.994-.808,0,0,5.742,8.254,13.994.808,0,0,4.486,2.776,10.676-4.127C1494.168,514.1,1496.32,501.089,1490.04,485.392Z" transform="translate(1.608 0.8)" fill="#eaa58b"/>
    <path id="Path_84" data-name="Path 84" d="M1277.151,341.744h-2.064c-16.686,0-44.046,12.379-40.728,44.315a221.189,221.189,0,0,0,22.876,76.7l62.258-30.5Z" transform="translate(1.522 0.465)" fill="#4756df"/>
    <path id="Path_85" data-name="Path 85" d="M1311.49,493.329a30.514,30.514,0,0,0-23.683,11.3,77.063,77.063,0,0,0,7.177,6.011c11.572,8.432,28.623,10.675,46.649,9.239a30.471,30.471,0,0,0-30.143-26.553Z" transform="translate(1.721 1.026)" fill="#ca7358"/>
    <path id="Path_86" data-name="Path 86" d="M1448.16,525.02c3.587-7.177,11.751-25.747,5.83-38.216" transform="translate(2.321 1.002)" fill="none" stroke="#a15842" stroke-linecap="round" stroke-linejoin="round" stroke-width="4"/>
    <line id="Line_35" data-name="Line 35" y1="4.037" x2="19.377" transform="translate(1312.409 458.292)" fill="none" stroke="#a15842" stroke-linecap="round" stroke-linejoin="round" stroke-width="4"/>
    <path id="Path_87" data-name="Path 87" d="M1462.63,524.661c3.768-7.536,11.841-25.835,6.1-37.857" transform="translate(2.368 1.002)" fill="none" stroke="#a15842" stroke-linecap="round" stroke-linejoin="round" stroke-width="4"/>
    <path id="Path_88" data-name="Path 88" d="M1476.94,525.558c3.587-7.265,11.572-26.463,5.74-38.754" transform="translate(2.428 1.002)" fill="none" stroke="#a15842" stroke-linecap="round" stroke-linejoin="round" stroke-width="4"/>
  </g>
</svg>
