<?xml version="1.0" encoding="utf-8"?>
<!-- Generator: Adobe Illustrator 19.0.0, SVG Export Plug-In . SVG Version: 6.00 Build 0)  -->
<svg version="1.1" id="Layer_1" xmlns="http://www.w3.org/2000/svg" xmlns:xlink="http://www.w3.org/1999/xlink" x="0px" y="0px"
	 viewBox="-811.3 503.2 167.7 76.1" style="enable-background:new -811.3 503.2 167.7 76.1;" xml:space="preserve">
<style type="text/css">
	.st0{fill:#DFE2F4;}
	.st1{fill:#FFFFFF;}
	.st2{fill:none;stroke:#5267F7;stroke-linecap:round;stroke-miterlimit:10;}
	.st3{fill:#5267F7;}
	.st4{fill:#4C4C4C;}
	.st5{fill:#ACB0C1;}
	.st6{fill:none;stroke:#5267F7;stroke-linecap:round;stroke-linejoin:bevel;stroke-miterlimit:10;}
</style>
<path id="XMLID_810_" class="st0" d="M-796,544.5h-8.6c-0.6,0-1.2-0.5-1.2-1.2v-0.5h10.9v0.5C-794.8,544-795.3,544.5-796,544.5z"/>
<g>
	<path id="XMLID_811_" class="st0" d="M-723,510.5h-80.8c-2.8,0-5.1,2.3-5.1,5.1v42c0,2.8,2.3,5.1,5.1,5.1h35.2v6.8h-6v3.7h22.3
		v-3.7h-6v-6.8h35.2c2.8,0,5.1-2.3,5.1-5.1v-42C-717.9,512.8-720.2,510.5-723,510.5z"/>
	<path id="XMLID_807_" class="st1" d="M-725.3,559.8h-76.2c-2.6,0-4.7-2.1-4.7-4.7v-37.5c0-2.6,2.1-4.7,4.7-4.7h76.2
		c2.6,0,4.7,2.1,4.7,4.7v37.5C-720.6,557.7-722.7,559.8-725.3,559.8z"/>
	<path id="XMLID_752_" class="st2" d="M-801.7,555.2c1.8-4.1,4.9-7.6,8.6-10c0.4-0.2,0.7-0.4,1.2-0.4c0.4,0,0.7,0.2,1,0.5
		c2,1.5,4.1,3.7,6.5,3.2c0.9-0.2,1.7-0.7,2.4-1.2c2.8-2,5.6-3.9,8.4-5.9c0.8-0.6,1.7-1.2,2.8-1.1c0.8,0.1,1.5,0.5,2.1,1
		c2.7,1.9,5.6,3.9,8.8,3.5c2.8-0.3,5-2.4,6.8-4.6c1.9-2.3,3.6-4.7,5.8-6.8c2.1-2,4.8-3.7,7.8-3.9c1.4-0.1,2.8,0.1,4.1-0.4
		c1.2-0.4,2.1-1.4,3-2.4c2-2.4,3.7-5.1,4.9-8"/>
	<g id="XMLID_829_">
		<path id="XMLID_820_" class="st3" d="M-724.7,558.1h-17.8c-1.3,0-2.4-1.1-2.4-2.4v-0.9c0-1.3,1.1-2.4,2.4-2.4h17.8
			c1.3,0,2.4,1.1,2.4,2.4v0.9C-722.3,557-723.4,558.1-724.7,558.1z"/>
		<g>
			<path class="st1" d="M-738.4,554.4c0.2,0,0.4,0.1,0.5,0.2c0.1,0.1,0.2,0.3,0.2,0.5c0,0.2-0.1,0.3-0.2,0.5
				c-0.1,0.1-0.3,0.2-0.5,0.2h-0.6v0.8h-0.2v-2.1H-738.4z M-739,554.6v0.9h0.6c0.1,0,0.2,0,0.3-0.1s0.1-0.2,0.1-0.3
				c0-0.1,0-0.2-0.1-0.3c-0.1-0.1-0.2-0.1-0.3-0.1H-739z"/>
			<path class="st1" d="M-736.6,555.2L-736.6,555.2c-0.2,0-0.3,0-0.4,0.1c-0.1,0.1-0.1,0.2-0.1,0.3v0.8h-0.2V555h0.2v0.2
				c0,0,0,0,0,0c0,0,0,0,0.1-0.1c0,0,0.1,0,0.1-0.1c0,0,0.1,0,0.1-0.1c0.1,0,0.1,0,0.2,0h0.1V555.2z"/>
			<path class="st1" d="M-736.2,555.2c0.1-0.1,0.3-0.2,0.5-0.2s0.4,0.1,0.5,0.2s0.2,0.3,0.2,0.5c0,0.2-0.1,0.4-0.2,0.5
				s-0.3,0.2-0.5,0.2s-0.4-0.1-0.5-0.2c-0.1-0.1-0.2-0.3-0.2-0.5C-736.4,555.6-736.3,555.4-736.2,555.2z M-735.3,555.4
				c-0.1-0.1-0.2-0.2-0.4-0.2c-0.1,0-0.3,0.1-0.4,0.2c-0.1,0.1-0.2,0.2-0.2,0.4c0,0.2,0.1,0.3,0.2,0.4c0.1,0.1,0.2,0.2,0.4,0.2
				c0.1,0,0.3-0.1,0.4-0.2c0.1-0.1,0.2-0.2,0.2-0.4C-735.1,555.6-735.2,555.5-735.3,555.4z"/>
			<path class="st1" d="M-733.9,555.2h-0.3v1.3h-0.2v-1.3h-0.2V555h0.2v-0.3c0-0.1,0-0.2,0.1-0.3c0.1-0.1,0.2-0.1,0.3-0.1
				c0,0,0.1,0,0.1,0c0,0,0.1,0,0.1,0l0,0v0.2c-0.1,0-0.1,0-0.2,0c-0.1,0-0.2,0.1-0.2,0.2v0.3h0.3V555.2z"/>
			<path class="st1" d="M-733.5,554.5C-733.5,554.4-733.5,554.4-733.5,554.5c0.1,0,0.2,0,0.2,0c0,0,0,0.1,0,0.1c0,0,0,0.1,0,0.1
				c0,0-0.1,0-0.1,0c0,0-0.1,0-0.1,0C-733.6,554.6-733.6,554.6-733.5,554.5C-733.6,554.5-733.6,554.5-733.5,554.5z M-733.6,555h0.2
				v1.5h-0.2V555z"/>
			<path class="st1" d="M-732.7,554.6h0.2v0.5h0.3v0.2h-0.3v0.9c0,0.2,0.1,0.2,0.2,0.2c0,0,0.1,0,0.1,0c0,0,0.1,0,0.1,0l0,0v0.2
				c-0.1,0-0.1,0-0.2,0c-0.1,0-0.2,0-0.3-0.1c-0.1-0.1-0.1-0.2-0.1-0.3v-0.9h-0.3V555h0.2c0.1,0,0.1-0.1,0.1-0.2V554.6z"/>
			<path class="st1" d="M-730.9,555.9l-0.2,0.6h-0.2l0.9-2.1h0.2l0.9,2.1h-0.2l-0.2-0.6H-730.9z M-730.4,554.7l-0.4,1h0.8
				L-730.4,554.7z"/>
			<path class="st1" d="M-728.9,556.5h-0.2v-2.1h0.2V556.5z"/>
			<path class="st1" d="M-728.2,555.9c0,0.1,0.1,0.2,0.2,0.3c0.1,0.1,0.2,0.1,0.4,0.1c0.1,0,0.2,0,0.3-0.1c0.1,0,0.1-0.1,0.2-0.1
				l0.1-0.1l0.1,0.1c0,0,0,0,0,0c0,0,0,0-0.1,0.1c0,0-0.1,0.1-0.1,0.1s-0.1,0.1-0.2,0.1c-0.1,0-0.1,0-0.2,0c-0.2,0-0.4-0.1-0.5-0.2
				c-0.1-0.1-0.2-0.3-0.2-0.5c0-0.2,0.1-0.4,0.2-0.5c0.1-0.1,0.3-0.2,0.5-0.2c0.2,0,0.4,0.1,0.5,0.2c0.1,0.1,0.2,0.3,0.2,0.5l0,0.1
				L-728.2,555.9z M-728.1,555.3c-0.1,0.1-0.2,0.2-0.2,0.3h1c0-0.1-0.1-0.2-0.2-0.3c-0.1-0.1-0.2-0.1-0.3-0.1
				C-727.9,555.2-728,555.3-728.1,555.3z"/>
			<path class="st1" d="M-725.9,555.2L-725.9,555.2c-0.2,0-0.3,0-0.4,0.1c-0.1,0.1-0.1,0.2-0.1,0.3v0.8h-0.2V555h0.2v0.2
				c0,0,0,0,0,0c0,0,0,0,0.1-0.1c0,0,0.1,0,0.1-0.1c0,0,0.1,0,0.1-0.1c0.1,0,0.1,0,0.2,0h0.1V555.2z"/>
			<path class="st1" d="M-725.5,554.6h0.2v0.5h0.3v0.2h-0.3v0.9c0,0.2,0.1,0.2,0.2,0.2c0,0,0.1,0,0.1,0c0,0,0.1,0,0.1,0l0,0v0.2
				c-0.1,0-0.1,0-0.2,0c-0.1,0-0.2,0-0.3-0.1c-0.1-0.1-0.1-0.2-0.1-0.3v-0.9h-0.3V555h0.2c0.1,0,0.1-0.1,0.1-0.2V554.6z"/>
		</g>
		<g id="XMLID_826_">
			<g>
				<g id="XMLID_74_">
					<g id="XMLID_75_">
						<path id="XMLID_76_" class="st1" d="M-740.3,556.2l-0.2-0.3c-0.1-0.1-0.1-0.3-0.1-0.4v-0.3c0-0.3-0.2-0.6-0.5-0.7v-0.2
							c0-0.1-0.1-0.2-0.2-0.2s-0.2,0.1-0.2,0.2v0.2c-0.3,0.1-0.5,0.4-0.5,0.7v0.3c0,0.2,0,0.3-0.1,0.4l-0.2,0.3c0,0,0,0,0,0.1
							c0,0,0,0,0,0L-740.3,556.2C-740.4,556.3-740.4,556.3-740.3,556.2C-740.3,556.2-740.3,556.2-740.3,556.2z"/>
					</g>
				</g>
				<g id="XMLID_71_">
					<g id="XMLID_72_">
						<path id="XMLID_73_" class="st1" d="M-741.7,556.4c0.1,0.1,0.2,0.2,0.3,0.2c0.1,0,0.3-0.1,0.3-0.2H-741.7z"/>
					</g>
				</g>
			</g>
		</g>
	</g>
	<g id="XMLID_223_">
		<path id="XMLID_843_" class="st3" d="M-798.9,514.9l-4.1,2.4v4.7l4.1,2.4l4.1-2.4v-4.7L-798.9,514.9z M-796.7,520.9l-2.2,1.3
			l-2.2-1.3v-2.6l2.2-1.3l2.2,1.3V520.9z"/>
		<g id="XMLID_825_">
			<g>
				<g id="XMLID_27_">
					<polyline points="-801.1,518.4 -798.9,519.7 -798.9,522.3 					"/>
				</g>
				<g id="XMLID_26_">
					<polyline points="-798.9,522.3 -801.1,521 -801.1,518.4 					"/>
				</g>
			</g>
		</g>
	</g>
</g>
<path id="XMLID_812_" class="st0" d="M-647,573.8h-68.9v-33c0-1.7,1.4-3.1,3.1-3.1h62.7c1.7,0,3.1,1.4,3.1,3.1V573.8z"/>
<path id="XMLID_814_" class="st1" d="M-649.9,571.8h-63.2v-29.3c0-1.5,1.3-2.8,2.8-2.8h57.7c1.5,0,2.8,1.3,2.8,2.8V571.8z"/>
<circle id="XMLID_817_" class="st4" cx="-681.5" cy="538.7" r="0.8"/>
<circle id="XMLID_819_" class="st1" cx="-680" cy="538.7" r="0.2"/>
<rect id="XMLID_818_" x="-717.9" y="573.8" class="st5" width="72.8" height="2.7"/>
<path id="XMLID_821_" class="st2" d="M-710.8,569.8c1.4-3.1,3.8-5.8,6.7-7.7c0.3-0.2,0.6-0.3,0.9-0.3c0.3,0,0.5,0.2,0.8,0.4
	c1.5,1.2,3.1,2.9,5,2.5c0.7-0.1,1.3-0.6,1.9-1c2.2-1.5,4.3-3,6.5-4.5c0.6-0.4,1.4-0.9,2.1-0.9c0.6,0,1.1,0.4,1.6,0.7
	c2.1,1.4,4.3,3,6.8,2.7c2.1-0.3,3.8-1.9,5.2-3.5c1.5-1.8,2.8-3.6,4.5-5.2s3.7-2.9,6-3c1.1-0.1,2.2,0.1,3.2-0.3
	c0.9-0.3,1.6-1.1,2.3-1.8c1.6-1.9,2.8-3.9,3.8-6.2"/>
<g id="XMLID_838_">
	<path id="XMLID_895_" class="st3" d="M-677.6,544.3h-7.8c-0.6,0-1-0.5-1-1v-0.4c0-0.6,0.5-1,1-1h7.8c0.6,0,1,0.5,1,1v0.4
		C-676.5,543.8-677,544.3-677.6,544.3z"/>
	<g>
		<path class="st1" d="M-683.6,542.7c0.1,0,0.2,0,0.2,0.1c0.1,0.1,0.1,0.1,0.1,0.2c0,0.1,0,0.2-0.1,0.2c-0.1,0.1-0.1,0.1-0.2,0.1
			h-0.2v0.3h-0.1v-0.9H-683.6z M-683.8,542.8v0.4h0.2c0.1,0,0.1,0,0.1-0.1c0,0,0.1-0.1,0.1-0.1s0-0.1-0.1-0.1c0,0-0.1-0.1-0.1-0.1
			H-683.8z"/>
		<path class="st1" d="M-682.8,543L-682.8,543c-0.1,0-0.1,0-0.2,0.1c0,0-0.1,0.1-0.1,0.1v0.3h-0.1V543h0.1v0.1c0,0,0,0,0,0
			c0,0,0,0,0,0s0,0,0,0s0,0,0.1,0C-682.9,543-682.8,543-682.8,543L-682.8,543L-682.8,543z"/>
		<path class="st1" d="M-682.6,543c0.1-0.1,0.1-0.1,0.2-0.1c0.1,0,0.2,0,0.2,0.1s0.1,0.1,0.1,0.2c0,0.1,0,0.2-0.1,0.2
			s-0.1,0.1-0.2,0.1c-0.1,0-0.2,0-0.2-0.1s-0.1-0.1-0.1-0.2C-682.7,543.2-682.7,543.1-682.6,543z M-682.2,543.1c0,0-0.1-0.1-0.2-0.1
			c-0.1,0-0.1,0-0.2,0.1s-0.1,0.1-0.1,0.2s0,0.1,0.1,0.2c0,0,0.1,0.1,0.2,0.1c0.1,0,0.1,0,0.2-0.1s0.1-0.1,0.1-0.2
			C-682.1,543.2-682.2,543.2-682.2,543.1z"/>
		<path class="st1" d="M-681.6,543.1h-0.2v0.5h-0.1v-0.5h-0.1V543h0.1v-0.1c0-0.1,0-0.1,0-0.1s0.1,0,0.1,0c0,0,0,0,0,0c0,0,0,0,0,0
			l0,0v0.1c0,0-0.1,0-0.1,0c-0.1,0-0.1,0-0.1,0.1v0.1L-681.6,543.1L-681.6,543.1z"/>
		<path class="st1" d="M-681.4,542.7C-681.4,542.7-681.4,542.7-681.4,542.7C-681.4,542.7-681.4,542.7-681.4,542.7c0.1,0,0.1,0,0.1,0
			S-681.4,542.8-681.4,542.7c0.1,0.1,0.1,0.1,0,0.1S-681.4,542.8-681.4,542.7C-681.5,542.8-681.5,542.8-681.4,542.7
			C-681.5,542.7-681.5,542.7-681.4,542.7z M-681.5,543L-681.5,543l0.1,0.6h-0.1V543z"/>
		<path class="st1" d="M-681.1,542.8L-681.1,542.8l0.1,0.2h0.1v0.1h-0.1v0.4c0,0.1,0,0.1,0.1,0.1c0,0,0,0,0,0c0,0,0,0,0,0l0,0v0.1
			c0,0-0.1,0-0.1,0c-0.1,0-0.1,0-0.1,0c0,0,0-0.1,0-0.1v-0.4h-0.1V543h0.1c0,0,0.1,0,0.1-0.1V542.8z"/>
		<path class="st1" d="M-680.3,543.3l-0.1,0.3h-0.1l0.4-0.9h0.1l0.4,0.9h-0.1l-0.1-0.3H-680.3z M-680.1,542.8l-0.2,0.4h0.4
			L-680.1,542.8z"/>
		<path class="st1" d="M-679.4,543.6L-679.4,543.6l-0.1-0.9h0.1V543.6z"/>
		<path class="st1" d="M-679.1,543.3c0,0.1,0,0.1,0.1,0.1c0,0,0.1,0.1,0.2,0.1c0,0,0.1,0,0.1,0c0,0,0.1,0,0.1-0.1l0,0l0.1,0.1
			c0,0,0,0,0,0s0,0,0,0s0,0-0.1,0c0,0,0,0-0.1,0c0,0-0.1,0-0.1,0c-0.1,0-0.2,0-0.2-0.1S-679.2,543.4-679.1,543.3
			c-0.1-0.1-0.1-0.2,0-0.3c0.1-0.1,0.1-0.1,0.2-0.1c0.1,0,0.2,0,0.2,0.1s0.1,0.1,0.1,0.2l0,0L-679.1,543.3z M-679.1,543.1
			c0,0-0.1,0.1-0.1,0.1h0.4c0-0.1,0-0.1-0.1-0.1s-0.1-0.1-0.1-0.1C-679,543-679,543.1-679.1,543.1z"/>
		<path class="st1" d="M-678.1,543L-678.1,543c-0.1,0-0.1,0-0.2,0.1c0,0-0.1,0.1-0.1,0.1v0.3h-0.1V543h0.1v0.1c0,0,0,0,0,0
			c0,0,0,0,0,0s0,0,0,0s0,0,0.1,0C-678.2,543-678.2,543-678.1,543L-678.1,543L-678.1,543z"/>
		<path class="st1" d="M-677.9,542.8L-677.9,542.8l0.1,0.2h0.1v0.1h-0.1v0.4c0,0.1,0,0.1,0.1,0.1c0,0,0,0,0,0c0,0,0,0,0,0l0,0v0.1
			c0,0-0.1,0-0.1,0c-0.1,0-0.1,0-0.1,0c0,0,0-0.1,0-0.1v-0.4h-0.1V543h0.1c0,0,0.1,0,0.1-0.1V542.8z"/>
	</g>
	<g id="XMLID_839_">
		<g>
			<g id="XMLID_62_">
				<g id="XMLID_63_">
					<path id="XMLID_64_" class="st1" d="M-684.4,543.5l-0.1-0.1c0-0.1-0.1-0.1-0.1-0.2V543c0-0.1-0.1-0.3-0.2-0.3v-0.1
						c0,0,0-0.1-0.1-0.1c0,0-0.1,0-0.1,0.1v0.1c-0.1,0-0.2,0.2-0.2,0.3v0.1c0,0.1,0,0.1-0.1,0.2l-0.1,0.1c0,0,0,0,0,0c0,0,0,0,0,0
						L-684.4,543.5C-684.4,543.5-684.4,543.5-684.4,543.5C-684.4,543.5-684.4,543.5-684.4,543.5z"/>
				</g>
			</g>
			<g id="XMLID_59_">
				<g id="XMLID_60_">
					<path id="XMLID_61_" class="st1" d="M-685,543.5c0,0.1,0.1,0.1,0.1,0.1c0.1,0,0.1,0,0.1-0.1H-685z"/>
				</g>
			</g>
		</g>
	</g>
</g>
<g id="XMLID_834_">
	<path id="XMLID_866_" class="st3" d="M-653.7,566l-2.1,1.2v2.4l2.1,1.2l2.1-1.2v-2.4L-653.7,566z M-652.6,569.1l-1.1,0.6l-1.1-0.6
		v-1.3l1.1-0.6l1.1,0.6V569.1z"/>
	<g id="XMLID_835_">
		<g>
			<g id="XMLID_24_">
				<polyline points="-654.8,567.8 -653.7,568.5 -653.7,569.7 				"/>
			</g>
			<g id="XMLID_23_">
				<polyline points="-653.7,569.7 -654.8,569.1 -654.8,567.8 				"/>
			</g>
		</g>
	</g>
</g>
<path id="XMLID_806_" class="st0" d="M-704.4,531v-20c0-2.4,2-4.4,4.4-4.4h37.1c2.4,0,4.4,2,4.4,4.4v20c0,2.4-2,4.4-4.4,4.4H-700
	C-702.5,535.4-704.4,533.4-704.4,531z"/>
<path id="XMLID_808_" class="st1" d="M-702.6,529.4v-16.8c0-2.2,1.7-3.9,3.9-3.9h34.5c2.2,0,3.9,1.7,3.9,3.9v16.8
	c0,2.2-1.7,3.9-3.9,3.9h-34.5C-700.9,533.3-702.6,531.6-702.6,529.4z"/>
<path id="XMLID_813_" class="st6" d="M-701.8,523.8c0.3,0.1,0.6,0.2,0.8,0.3c3,1.2,6.2,2.6,9.8,2.3c3.1-0.2,5.5-1.6,7.6-3
	c2.1-1.5,4-3.1,6.4-4.5c2.4-1.4,5.4-2.4,8.7-2.6c1.5-0.1,3.1,0.1,4.6-0.2c0.9-0.2,1.7-0.6,2.4-1"/>
<g id="XMLID_841_">
	<path id="XMLID_911_" class="st3" d="M-677.4,511.8h-8.2c-0.6,0-1.1-0.5-1.1-1.1v-0.4c0-0.6,0.5-1.1,1.1-1.1h8.2
		c0.6,0,1.1,0.5,1.1,1.1v0.4C-676.3,511.3-676.8,511.8-677.4,511.8z"/>
	<g>
		<path class="st1" d="M-683.7,510.1c0.1,0,0.2,0,0.2,0.1c0.1,0.1,0.1,0.1,0.1,0.2s0,0.2-0.1,0.2s-0.1,0.1-0.2,0.1h-0.3v0.4h-0.1v-1
			H-683.7z M-683.9,510.1v0.4h0.3c0.1,0,0.1,0,0.2-0.1c0,0,0.1-0.1,0.1-0.2c0-0.1,0-0.1-0.1-0.2s-0.1-0.1-0.2-0.1H-683.9z"/>
		<path class="st1" d="M-682.8,510.4L-682.8,510.4c-0.1,0-0.1,0-0.2,0.1c0,0-0.1,0.1-0.1,0.2v0.4h-0.1v-0.7h0.1v0.1c0,0,0,0,0,0
			c0,0,0,0,0,0c0,0,0,0,0,0c0,0,0,0,0.1,0C-682.9,510.3-682.9,510.3-682.8,510.4L-682.8,510.4L-682.8,510.4z"/>
		<path class="st1" d="M-682.7,510.4c0.1-0.1,0.1-0.1,0.2-0.1c0.1,0,0.2,0,0.2,0.1c0.1,0.1,0.1,0.1,0.1,0.2c0,0.1,0,0.2-0.1,0.2
			c-0.1,0.1-0.1,0.1-0.2,0.1c-0.1,0-0.2,0-0.2-0.1c-0.1-0.1-0.1-0.1-0.1-0.2C-682.8,510.6-682.7,510.5-682.7,510.4z M-682.2,510.5
			c0,0-0.1-0.1-0.2-0.1c-0.1,0-0.1,0-0.2,0.1c0,0-0.1,0.1-0.1,0.2c0,0.1,0,0.1,0.1,0.2c0,0.1,0.1,0.1,0.2,0.1c0.1,0,0.1,0,0.2-0.1
			c0,0,0.1-0.1,0.1-0.2C-682.2,510.6-682.2,510.6-682.2,510.5z"/>
		<path class="st1" d="M-681.6,510.4h-0.2v0.6h-0.1v-0.6h-0.1v-0.1h0.1v-0.1c0-0.1,0-0.1,0-0.1c0,0,0.1-0.1,0.1-0.1c0,0,0,0,0,0
			c0,0,0,0,0,0l0,0v0.1c0,0-0.1,0-0.1,0c-0.1,0-0.1,0-0.1,0.1v0.1L-681.6,510.4L-681.6,510.4z"/>
		<path class="st1" d="M-681.4,510.1C-681.4,510.1-681.4,510.1-681.4,510.1C-681.4,510.1-681.4,510.1-681.4,510.1c0.1,0,0.1,0,0.1,0
			C-681.3,510.2-681.3,510.2-681.4,510.1c0.1,0.1,0.1,0.1,0,0.1C-681.4,510.2-681.4,510.2-681.4,510.1
			C-681.5,510.2-681.5,510.2-681.4,510.1C-681.5,510.1-681.5,510.1-681.4,510.1z M-681.5,510.4L-681.5,510.4l0.1,0.7h-0.1V510.4z"/>
		<path class="st1" d="M-681.1,510.1L-681.1,510.1l0.1,0.2h0.1v0.1h-0.1v0.4c0,0.1,0,0.1,0.1,0.1c0,0,0,0,0,0c0,0,0,0,0,0l0,0v0.1
			c0,0-0.1,0-0.1,0c-0.1,0-0.1,0-0.1-0.1c0,0,0-0.1,0-0.1v-0.4h-0.1v-0.1h0.1c0,0,0.1,0,0.1-0.1V510.1z"/>
		<path class="st1" d="M-680.2,510.8l-0.1,0.3h-0.1l0.4-1h0.1l0.4,1h-0.1l-0.1-0.3H-680.2z M-680,510.2l-0.2,0.5h0.4L-680,510.2z"/>
		<path class="st1" d="M-679.3,511L-679.3,511l-0.1-1h0.1V511z"/>
		<path class="st1" d="M-679,510.7c0,0.1,0,0.1,0.1,0.2c0,0,0.1,0.1,0.2,0.1c0,0,0.1,0,0.1,0c0,0,0.1,0,0.1-0.1l0,0l0.1,0.1
			c0,0,0,0,0,0c0,0,0,0,0,0c0,0,0,0-0.1,0c0,0,0,0-0.1,0c0,0-0.1,0-0.1,0c-0.1,0-0.2,0-0.2-0.1C-679.1,510.9-679.1,510.8-679,510.7
			c-0.1-0.1-0.1-0.2,0-0.3s0.1-0.1,0.2-0.1c0.1,0,0.2,0,0.2,0.1c0.1,0.1,0.1,0.1,0.1,0.2l0,0.1L-679,510.7z M-678.9,510.5
			c0,0-0.1,0.1-0.1,0.1h0.5c0-0.1,0-0.1-0.1-0.1c0,0-0.1-0.1-0.1-0.1C-678.8,510.4-678.9,510.5-678.9,510.5z"/>
		<path class="st1" d="M-677.9,510.4L-677.9,510.4c-0.1,0-0.1,0-0.2,0.1c0,0-0.1,0.1-0.1,0.2v0.4h-0.1v-0.7h0.1v0.1c0,0,0,0,0,0
			c0,0,0,0,0,0c0,0,0,0,0,0c0,0,0,0,0.1,0C-678,510.3-678,510.3-677.9,510.4L-677.9,510.4L-677.9,510.4z"/>
		<path class="st1" d="M-677.7,510.1L-677.7,510.1l0.1,0.2h0.1v0.1h-0.1v0.4c0,0.1,0,0.1,0.1,0.1c0,0,0,0,0,0c0,0,0,0,0,0l0,0v0.1
			c0,0-0.1,0-0.1,0c-0.1,0-0.1,0-0.1-0.1c0,0,0-0.1,0-0.1v-0.4h-0.1v-0.1h0.1c0,0,0.1,0,0.1-0.1V510.1z"/>
	</g>
	<g id="XMLID_846_">
		<g>
			<g id="XMLID_68_">
				<g id="XMLID_69_">
					<path id="XMLID_70_" class="st1" d="M-684.6,510.9l-0.1-0.1c0-0.1-0.1-0.1-0.1-0.2v-0.1c0-0.1-0.1-0.3-0.2-0.3V510
						c0-0.1,0-0.1-0.1-0.1c-0.1,0-0.1,0-0.1,0.1v0.1c-0.1,0-0.2,0.2-0.2,0.3v0.1c0,0.1,0,0.1-0.1,0.2l-0.1,0.1c0,0,0,0,0,0
						c0,0,0,0,0,0L-684.6,510.9C-684.6,510.9-684.6,510.9-684.6,510.9C-684.6,510.9-684.6,510.9-684.6,510.9z"/>
				</g>
			</g>
			<g id="XMLID_65_">
				<g id="XMLID_66_">
					<path id="XMLID_67_" class="st1" d="M-685.2,511c0,0.1,0.1,0.1,0.1,0.1c0.1,0,0.1,0,0.1-0.1H-685.2z"/>
				</g>
			</g>
		</g>
	</g>
</g>
<g id="XMLID_832_">
	<path id="XMLID_855_" class="st3" d="M-663.7,527.3l-2.2,1.2v2.5l2.2,1.2l2.2-1.2v-2.5L-663.7,527.3z M-662.6,530.4l-1.2,0.7
		l-1.2-0.7v-1.3l1.2-0.7l1.2,0.7V530.4z"/>
	<g id="XMLID_833_">
		<g>
			<g id="XMLID_25_">
				<polyline points="-664.9,529.1 -663.7,529.8 -663.7,531.1 				"/>
			</g>
			<g id="XMLID_22_">
				<polyline points="-663.7,531.1 -664.9,530.4 -664.9,529.1 				"/>
			</g>
		</g>
	</g>
</g>
</svg>
