<?xml version="1.0" encoding="utf-8"?>
<!-- Generator: Adobe Illustrator 19.0.0, SVG Export Plug-In . SVG Version: 6.00 Build 0)  -->
<svg version="1.1" id="Layer_1" xmlns="http://www.w3.org/2000/svg" xmlns:xlink="http://www.w3.org/1999/xlink" x="0px" y="0px"
	 viewBox="-812.5 503.4 167.7 76.1" style="enable-background:new -812.5 503.4 167.7 76.1;" xml:space="preserve">
<style type="text/css">
	.st0{fill:#DFE2F4;}
	.st1{fill:#5267F7;}
	.st2{fill:#40DD44;}
	.st3{fill:#4C4C4C;}
	.st4{opacity:0.5;}
	.st5{fill:#FFFFFF;}
	.st6{fill:#DBD10F;}
	.st7{fill:#E03F3F;}
</style>
<g>
	<path id="XMLID_788_" class="st0" d="M-767.6,559h-42.1c-1.1,0-1.9-0.9-1.9-1.9v-31.6c0-1.1,0.9-1.9,1.9-1.9h42.1
		c1.1,0,1.9,0.9,1.9,1.9v31.6C-765.7,558.2-766.5,559-767.6,559z"/>
	<path id="XMLID_787_" class="st1" d="M-800.9,536.1h-4.5c-1.1,0-1.9-0.9-1.9-1.9v-4.5c0-1.1,0.9-1.9,1.9-1.9h4.5
		c1.1,0,1.9,0.9,1.9,1.9v4.5C-798.9,535.3-799.8,536.1-800.9,536.1z"/>
	<path id="XMLID_786_" class="st1" d="M-777.8,557.2h-21.8c-0.8,0-1.4-0.6-1.4-1.4v-2.4c0-0.8,0.6-1.4,1.4-1.4h21.8
		c0.8,0,1.4,0.6,1.4,1.4v2.4C-776.4,556.5-777,557.2-777.8,557.2z"/>
	<path id="XMLID_785_" class="st2" d="M-772.4,549.3h-5.3c-0.6,0-1.1-0.5-1.1-1.1v-5.3c0-0.6,0.5-1.1,1.1-1.1h5.3
		c0.6,0,1.1,0.5,1.1,1.1v5.3C-771.2,548.8-771.8,549.3-772.4,549.3z"/>
	<g>
		<path class="st1" d="M-795.7,529.1v0.4h-0.8v2.4h-0.4v-2.4h-0.8v-0.4H-795.7z"/>
		<path class="st1" d="M-794.7,530.3c-0.2,0-0.3,0-0.4,0.1c-0.1,0.1-0.1,0.2-0.1,0.4v1h-0.4V530h0.4v0.2l0,0c0,0,0,0,0.1-0.1
			c0,0,0.1-0.1,0.1-0.1c0,0,0.1,0,0.2-0.1c0.1,0,0.1,0,0.2,0h0.1v0.4C-794.6,530.3-794.6,530.3-794.7,530.3z"/>
		<path class="st1" d="M-793.1,531.9v-0.2c0,0,0,0,0,0c0,0,0,0-0.1,0.1c0,0-0.1,0.1-0.1,0.1c0,0-0.1,0-0.2,0.1c-0.1,0-0.1,0-0.2,0
			c-0.2,0-0.4-0.1-0.5-0.2c-0.1-0.1-0.2-0.2-0.2-0.4c0-0.2,0-0.3,0.1-0.4c0.1-0.1,0.2-0.2,0.4-0.2l0.7-0.1c0-0.1,0-0.2-0.1-0.3
			s-0.2-0.1-0.3-0.1c-0.1,0-0.2,0-0.3,0.1c-0.1,0-0.1,0.1-0.2,0.1l-0.1,0.1l-0.3-0.3c0,0,0,0,0,0c0,0,0,0,0.1-0.1
			c0,0,0.1-0.1,0.1-0.1s0.1-0.1,0.2-0.1c0.1,0,0.2,0,0.3,0c0.2,0,0.4,0.1,0.6,0.2c0.1,0.1,0.2,0.3,0.2,0.5v1.2H-793.1z
			 M-793.2,531.4c0.1-0.1,0.1-0.2,0.1-0.4v0l-0.6,0.1c-0.1,0-0.1,0-0.2,0.1c0,0-0.1,0.1-0.1,0.2c0,0.1,0,0.1,0.1,0.2
			c0.1,0,0.1,0.1,0.2,0.1C-793.4,531.5-793.3,531.5-793.2,531.4z"/>
		<path class="st1" d="M-791.1,529.9c0.1,0,0.1,0,0.2,0.1c0,0,0.1,0.1,0.1,0.1c0,0,0.1,0,0.1,0.1l0,0v-1.1h0.4v2.8h-0.4v-0.2
			c0,0,0,0-0.1,0.1c0,0-0.1,0.1-0.2,0.1s-0.2,0.1-0.3,0.1c-0.3,0-0.5-0.1-0.7-0.3c-0.2-0.2-0.3-0.4-0.3-0.7s0.1-0.5,0.3-0.7
			c0.2-0.2,0.4-0.3,0.7-0.3C-791.3,529.9-791.2,529.9-791.1,529.9z M-790.9,531.4c0.1-0.1,0.2-0.3,0.2-0.4c0-0.2-0.1-0.3-0.2-0.4
			c-0.1-0.1-0.2-0.2-0.4-0.2c-0.1,0-0.3,0.1-0.4,0.2c-0.1,0.1-0.2,0.3-0.2,0.4c0,0.2,0.1,0.3,0.2,0.4c0.1,0.1,0.2,0.2,0.4,0.2
			C-791.2,531.5-791,531.5-790.9,531.4z"/>
		<path class="st1" d="M-789.4,529.5c0,0-0.1,0.1-0.2,0.1s-0.1,0-0.2-0.1c0,0-0.1-0.1-0.1-0.2s0-0.1,0.1-0.2c0,0,0.1-0.1,0.2-0.1
			s0.1,0,0.2,0.1c0,0,0.1,0.1,0.1,0.2S-789.3,529.5-789.4,529.5z M-789.3,531.9h-0.4V530h0.4V531.9z"/>
		<path class="st1" d="M-788.4,530.2L-788.4,530.2C-788.3,530.1-788.3,530.1-788.4,530.2c0.1-0.1,0.2-0.1,0.2-0.2c0,0,0.1,0,0.2-0.1
			c0.1,0,0.1,0,0.2,0c0.2,0,0.4,0.1,0.6,0.2c0.1,0.2,0.2,0.4,0.2,0.6v1.1h-0.4v-1.1c0-0.1,0-0.2-0.1-0.3c-0.1-0.1-0.2-0.1-0.3-0.1
			c-0.2,0-0.3,0-0.4,0.1c-0.1,0.1-0.1,0.2-0.1,0.4v1h-0.4V530h0.4V530.2z"/>
		<path class="st1" d="M-785.1,531.6L-785.1,531.6C-785.2,531.6-785.2,531.6-785.1,531.6c-0.1,0.1-0.2,0.1-0.2,0.2
			c0,0-0.1,0-0.2,0.1c-0.1,0-0.1,0-0.2,0c-0.2,0-0.4-0.1-0.6-0.3c-0.2-0.2-0.3-0.4-0.3-0.7c0-0.3,0.1-0.5,0.3-0.7
			c0.2-0.2,0.4-0.3,0.6-0.3c0.1,0,0.2,0,0.3,0.1c0.1,0,0.2,0.1,0.2,0.1l0.1,0.1V530h0.4v1.8c0,0.3-0.1,0.5-0.3,0.7
			c-0.2,0.2-0.4,0.3-0.7,0.3c-0.1,0-0.2,0-0.3,0c-0.1,0-0.2-0.1-0.2-0.1c-0.1,0-0.1-0.1-0.2-0.1c0,0-0.1-0.1-0.1-0.1l0,0l0.3-0.3
			c0,0,0,0,0,0c0,0,0,0,0.1,0.1c0,0,0.1,0.1,0.1,0.1c0,0,0.1,0.1,0.2,0.1c0.1,0,0.1,0,0.2,0c0.2,0,0.3-0.1,0.4-0.2
			c0.1-0.1,0.2-0.3,0.2-0.4L-785.1,531.6z M-786,531.3c0.1,0.1,0.2,0.2,0.4,0.2c0.1,0,0.3-0.1,0.4-0.2c0.1-0.1,0.2-0.3,0.2-0.4
			c0-0.2-0.1-0.3-0.2-0.4c-0.1-0.1-0.2-0.2-0.4-0.2c-0.1,0-0.3,0.1-0.4,0.2c-0.1,0.1-0.2,0.3-0.2,0.4
			C-786.2,531-786.1,531.2-786,531.3z"/>
		<path class="st1" d="M-783.2,531.9v-2.8h1.1c0.2,0,0.4,0.1,0.6,0.2c0.2,0.1,0.2,0.3,0.2,0.5c0,0.1,0,0.2-0.1,0.3s-0.1,0.2-0.1,0.2
			l-0.1,0.1c0,0,0,0,0,0c0,0,0.1,0,0.1,0.1c0,0,0.1,0.1,0.1,0.1c0,0,0.1,0.1,0.1,0.2c0,0.1,0,0.2,0,0.2c0,0.2-0.1,0.4-0.3,0.6
			s-0.4,0.2-0.6,0.2H-783.2z M-782.8,529.5v0.8h0.7c0.1,0,0.2,0,0.3-0.1c0.1-0.1,0.1-0.2,0.1-0.3c0-0.1,0-0.2-0.1-0.3
			c-0.1-0.1-0.2-0.1-0.3-0.1H-782.8z M-782.1,531.5c0.1,0,0.2,0,0.3-0.1c0.1-0.1,0.1-0.2,0.1-0.3s0-0.2-0.1-0.3
			c-0.1-0.1-0.2-0.1-0.3-0.1h-0.8v0.9H-782.1z"/>
		<path class="st1" d="M-780.5,530.2c0.2-0.2,0.4-0.3,0.7-0.3s0.5,0.1,0.7,0.3c0.2,0.2,0.3,0.4,0.3,0.7c0,0.3-0.1,0.5-0.3,0.7
			c-0.2,0.2-0.4,0.3-0.7,0.3s-0.5-0.1-0.7-0.3c-0.2-0.2-0.3-0.4-0.3-0.7C-780.8,530.6-780.7,530.4-780.5,530.2z M-779.4,530.5
			c-0.1-0.1-0.3-0.2-0.4-0.2s-0.3,0.1-0.4,0.2c-0.1,0.1-0.2,0.3-0.2,0.4c0,0.2,0.1,0.3,0.2,0.4c0.1,0.1,0.3,0.2,0.4,0.2
			s0.3-0.1,0.4-0.2c0.1-0.1,0.2-0.3,0.2-0.4C-779.2,530.7-779.3,530.6-779.4,530.5z"/>
		<path class="st1" d="M-778.2,529.3h0.4v0.6h0.4v0.4h-0.4v1c0,0.1,0,0.1,0.1,0.2c0,0,0.1,0.1,0.2,0.1c0,0,0.1,0,0.1,0
			c0,0,0.1,0,0.1,0l0,0v0.4c-0.1,0-0.2,0-0.3,0c-0.4,0-0.6-0.2-0.6-0.6v-1h-0.4V530h0.2c0.1,0,0.2-0.1,0.2-0.2V529.3z"/>
		<path class="st1" d="M-774.3,529.1c0.1,0,0.2,0.1,0.3,0.1s0.2,0.1,0.2,0.2c0.1,0.1,0.1,0.1,0.1,0.1l0,0.1l-0.3,0.3c0,0,0,0,0,0
			s0-0.1-0.1-0.1c-0.1,0-0.1-0.1-0.2-0.1c-0.1,0-0.1-0.1-0.2-0.1c-0.1,0-0.2,0-0.3,0c-0.3,0-0.5,0.1-0.7,0.3
			c-0.2,0.2-0.3,0.4-0.3,0.7c0,0.3,0.1,0.5,0.3,0.7c0.2,0.2,0.4,0.3,0.7,0.3c0.1,0,0.2,0,0.3,0c0.1,0,0.2-0.1,0.2-0.1
			s0.1-0.1,0.2-0.1c0,0,0.1-0.1,0.1-0.1l0,0l0.3,0.3c0,0,0,0,0,0.1c0,0-0.1,0.1-0.1,0.1c-0.1,0.1-0.1,0.1-0.2,0.2
			c-0.1,0-0.2,0.1-0.3,0.1c-0.1,0-0.3,0.1-0.4,0.1c-0.4,0-0.8-0.1-1-0.4c-0.3-0.3-0.4-0.6-0.4-1c0-0.4,0.1-0.7,0.4-1
			c0.3-0.3,0.6-0.4,1-0.4C-774.5,529.1-774.4,529.1-774.3,529.1z"/>
	</g>
	<g>
		<path class="st3" d="M-796.2,533.1v0.2h-0.6v1.6h-0.2v-1.6h-0.6v-0.2H-796.2z"/>
		<path class="st3" d="M-796.2,533.9c0.1-0.1,0.3-0.2,0.4-0.2s0.3,0.1,0.4,0.2c0.1,0.1,0.2,0.3,0.2,0.4c0,0.2-0.1,0.3-0.2,0.4
			c-0.1,0.1-0.3,0.2-0.4,0.2s-0.3-0.1-0.4-0.2s-0.2-0.3-0.2-0.4C-796.4,534.1-796.3,534-796.2,533.9z M-795.4,534
			c-0.1-0.1-0.2-0.1-0.3-0.1c-0.1,0-0.2,0-0.3,0.1c-0.1,0.1-0.1,0.2-0.1,0.3c0,0.1,0,0.2,0.1,0.3s0.2,0.1,0.3,0.1
			c0.1,0,0.2,0,0.3-0.1c0.1-0.1,0.1-0.2,0.1-0.3C-795.3,534.2-795.3,534.1-795.4,534z"/>
		<path class="st3" d="M-794.7,533.3h0.2v0.4h0.3v0.2h-0.3v0.7c0,0.1,0.1,0.2,0.2,0.2c0,0,0.1,0,0.1,0c0,0,0,0,0.1,0l0,0v0.2
			c-0.1,0-0.1,0-0.2,0c-0.1,0-0.2,0-0.2-0.1c-0.1-0.1-0.1-0.1-0.1-0.3v-0.7h-0.2v-0.2h0.1c0.1,0,0.1,0,0.1-0.1V533.3z"/>
		<path class="st3" d="M-793.2,534.1c0-0.1,0-0.2-0.1-0.2c-0.1-0.1-0.1-0.1-0.2-0.1c-0.1,0-0.1,0-0.2,0c-0.1,0-0.1,0.1-0.1,0.1l0,0
			l-0.1-0.1c0,0,0,0,0,0c0,0,0,0,0.1-0.1c0,0,0.1,0,0.1-0.1c0,0,0.1,0,0.1-0.1c0.1,0,0.1,0,0.2,0c0.1,0,0.3,0,0.3,0.1
			c0.1,0.1,0.1,0.2,0.1,0.3v0.8h-0.2v-0.2c0,0,0,0,0,0c0,0,0,0,0,0c0,0-0.1,0-0.1,0.1c0,0-0.1,0-0.1,0c0,0-0.1,0-0.1,0
			c-0.1,0-0.2,0-0.3-0.1c-0.1-0.1-0.1-0.2-0.1-0.2c0-0.1,0-0.2,0.1-0.2c0.1-0.1,0.1-0.1,0.3-0.1L-793.2,534.1z M-793.3,534.7
			c0.1-0.1,0.1-0.2,0.1-0.3v-0.1l-0.4,0.1c-0.2,0-0.2,0.1-0.2,0.2c0,0.1,0,0.1,0.1,0.1c0,0,0.1,0.1,0.2,0.1
			C-793.5,534.8-793.4,534.7-793.3,534.7z"/>
		<path class="st3" d="M-792.5,534.9h-0.2v-1.8h0.2V534.9z"/>
		<path class="st3" d="M-790.8,533.1c0.2,0,0.3,0.1,0.4,0.2c0.1,0.1,0.2,0.2,0.2,0.4s-0.1,0.3-0.2,0.4c-0.1,0.1-0.2,0.2-0.4,0.2
			h-0.5v0.7h-0.2v-1.8H-790.8z M-791.3,533.3v0.8h0.5c0.1,0,0.2,0,0.3-0.1c0.1-0.1,0.1-0.2,0.1-0.3c0-0.1,0-0.2-0.1-0.3
			c-0.1-0.1-0.2-0.1-0.3-0.1H-791.3z"/>
		<path class="st3" d="M-789.3,533.8L-789.3,533.8c-0.2,0-0.3,0-0.3,0.1c-0.1,0.1-0.1,0.2-0.1,0.3v0.7h-0.2v-1.2h0.2v0.2
			c0,0,0,0,0,0c0,0,0,0,0,0c0,0,0.1,0,0.1-0.1c0,0,0.1,0,0.1,0c0,0,0.1,0,0.1,0h0.1V533.8z"/>
		<path class="st3" d="M-789,533.9c0.1-0.1,0.3-0.2,0.4-0.2c0.2,0,0.3,0.1,0.4,0.2c0.1,0.1,0.2,0.3,0.2,0.4c0,0.2-0.1,0.3-0.2,0.4
			c-0.1,0.1-0.3,0.2-0.4,0.2c-0.2,0-0.3-0.1-0.4-0.2c-0.1-0.1-0.2-0.3-0.2-0.4C-789.1,534.1-789.1,534-789,533.9z M-788.2,534
			c-0.1-0.1-0.2-0.1-0.3-0.1s-0.2,0-0.3,0.1c-0.1,0.1-0.1,0.2-0.1,0.3c0,0.1,0,0.2,0.1,0.3c0.1,0.1,0.2,0.1,0.3,0.1s0.2,0,0.3-0.1
			c0.1-0.1,0.1-0.2,0.1-0.3C-788.1,534.2-788.1,534.1-788.2,534z"/>
		<path class="st3" d="M-787.1,533.9h-0.3v1h-0.2v-1h-0.2v-0.2h0.2v-0.2c0-0.1,0-0.2,0.1-0.3c0.1-0.1,0.1-0.1,0.2-0.1
			c0,0,0.1,0,0.1,0c0,0,0.1,0,0.1,0l0,0v0.2c0,0-0.1,0-0.2,0c-0.1,0-0.2,0.1-0.2,0.2v0.2h0.3V533.9z"/>
		<path class="st3" d="M-786.8,533.2C-786.7,533.2-786.7,533.2-786.8,533.2c0.1,0,0.1,0,0.2,0c0,0,0,0,0,0.1c0,0,0,0.1,0,0.1
			c0,0,0,0-0.1,0c0,0-0.1,0-0.1,0C-786.8,533.3-786.8,533.3-786.8,533.2C-786.8,533.3-786.8,533.2-786.8,533.2z M-786.8,533.7h0.2
			v1.2h-0.2V533.7z"/>
		<path class="st3" d="M-786.1,533.3h0.2v0.4h0.3v0.2h-0.3v0.7c0,0.1,0.1,0.2,0.2,0.2c0,0,0.1,0,0.1,0c0,0,0,0,0.1,0l0,0v0.2
			c-0.1,0-0.1,0-0.2,0c-0.1,0-0.2,0-0.2-0.1s-0.1-0.1-0.1-0.3v-0.7h-0.2v-0.2h0.1c0.1,0,0.1,0,0.1-0.1V533.3z"/>
		<path class="st1" d="M-784,534.7v-0.5h-0.5v-0.2h0.5v-0.5h0.2v0.5h0.5v0.2h-0.5v0.5H-784z"/>
		<path class="st1" d="M-782.6,533.1v1.8h-0.2v-1.4h-0.3v-0.1c0.1,0,0.1,0,0.2,0c0,0,0.1,0,0.1-0.1c0,0,0,0,0.1-0.1c0,0,0,0,0-0.1
			l0,0H-782.6z"/>
		<path class="st1" d="M-782.2,534.9c0-0.1,0-0.2,0.1-0.3s0.1-0.2,0.2-0.2s0.1-0.1,0.2-0.2c0.1-0.1,0.2-0.1,0.2-0.2s0.1-0.1,0.2-0.2
			c0-0.1,0.1-0.1,0.1-0.2c0-0.1,0-0.2-0.1-0.2c-0.1-0.1-0.2-0.1-0.3-0.1c-0.1,0-0.1,0-0.2,0c0,0-0.1,0-0.1,0.1c0,0,0,0.1-0.1,0.1
			c0,0,0,0.1,0,0.1l0,0l-0.2-0.1c0,0,0,0,0,0c0,0,0,0,0-0.1c0,0,0.1-0.1,0.1-0.1c0,0,0.1-0.1,0.2-0.1c0.1,0,0.1,0,0.2,0
			c0.2,0,0.3,0,0.4,0.1s0.2,0.2,0.2,0.4c0,0.1,0,0.2-0.1,0.2c0,0.1-0.1,0.1-0.1,0.2c-0.1,0-0.1,0.1-0.2,0.2
			c-0.1,0.1-0.1,0.1-0.2,0.1c-0.1,0-0.1,0.1-0.2,0.2c-0.1,0.1-0.1,0.1-0.1,0.2h0.9v0.2H-782.2z"/>
		<path class="st1" d="M-780.2,533.8c-0.1,0.1-0.2,0.1-0.3,0.1c-0.1,0-0.2,0-0.3-0.1c-0.1-0.1-0.1-0.2-0.1-0.3c0-0.1,0-0.2,0.1-0.3
			c0.1-0.1,0.2-0.1,0.3-0.1c0.1,0,0.2,0,0.3,0.1c0.1,0.1,0.1,0.2,0.1,0.3C-780.1,533.6-780.1,533.7-780.2,533.8z M-780.3,533.3
			c0,0-0.1-0.1-0.2-0.1c-0.1,0-0.1,0-0.2,0.1c0,0-0.1,0.1-0.1,0.2c0,0.1,0,0.1,0.1,0.2c0,0,0.1,0.1,0.2,0.1c0.1,0,0.1,0,0.2-0.1
			c0,0,0.1-0.1,0.1-0.2C-780.2,533.4-780.3,533.4-780.3,533.3z M-779.5,533.1h0.2l-1.1,1.8h-0.2L-779.5,533.1z M-779.8,534.3
			c0.1-0.1,0.2-0.1,0.3-0.1c0.1,0,0.2,0,0.3,0.1c0.1,0.1,0.1,0.2,0.1,0.3c0,0.1,0,0.2-0.1,0.3c-0.1,0.1-0.2,0.1-0.3,0.1
			c-0.1,0-0.2,0-0.3-0.1c-0.1-0.1-0.1-0.2-0.1-0.3C-779.9,534.4-779.9,534.3-779.8,534.3z M-779.7,534.7c0,0,0.1,0.1,0.2,0.1
			s0.1,0,0.2-0.1c0,0,0.1-0.1,0.1-0.2c0-0.1,0-0.1-0.1-0.2c0,0-0.1-0.1-0.2-0.1s-0.1,0-0.2,0.1c0,0-0.1,0.1-0.1,0.2
			C-779.8,534.6-779.7,534.7-779.7,534.7z"/>
	</g>
	<g class="st4">
		<path class="st1" d="M-805.5,539.2v0.1h-0.4v1.2h-0.1v-1.2h-0.4v-0.1H-805.5z"/>
		<path class="st1" d="M-805,539.7L-805,539.7c-0.1,0-0.2,0-0.3,0.1c-0.1,0.1-0.1,0.1-0.1,0.2v0.5h-0.1v-0.9h0.1v0.1c0,0,0,0,0,0
			c0,0,0,0,0,0c0,0,0,0,0.1,0c0,0,0.1,0,0.1,0c0,0,0.1,0,0.1,0h0V539.7z"/>
		<path class="st1" d="M-804.2,540c0-0.1,0-0.1-0.1-0.2c0,0-0.1-0.1-0.2-0.1c0,0-0.1,0-0.1,0c0,0-0.1,0-0.1,0.1l0,0l-0.1-0.1
			c0,0,0,0,0,0c0,0,0,0,0,0c0,0,0,0,0.1-0.1c0,0,0.1,0,0.1,0s0.1,0,0.1,0c0.1,0,0.2,0,0.3,0.1c0.1,0.1,0.1,0.2,0.1,0.3v0.6h-0.1
			v-0.1c0,0,0,0,0,0c0,0,0,0,0,0c0,0,0,0-0.1,0c0,0,0,0-0.1,0c0,0-0.1,0-0.1,0c-0.1,0-0.2,0-0.2-0.1c-0.1-0.1-0.1-0.1-0.1-0.2
			c0-0.1,0-0.1,0.1-0.2c0,0,0.1-0.1,0.2-0.1L-804.2,540z M-804.3,540.3c0.1-0.1,0.1-0.1,0.1-0.2v-0.1l-0.3,0.1
			c-0.1,0-0.2,0.1-0.2,0.2c0,0,0,0.1,0.1,0.1c0,0,0.1,0,0.1,0C-804.4,540.4-804.4,540.4-804.3,540.3z"/>
		<path class="st1" d="M-803.8,539.2C-803.7,539.2-803.7,539.2-803.8,539.2c0.1,0,0.1,0,0.1,0c0,0,0,0,0,0.1s0,0,0,0.1
			c0,0,0,0-0.1,0c0,0,0,0-0.1,0C-803.8,539.4-803.8,539.3-803.8,539.2C-803.8,539.3-803.8,539.3-803.8,539.2z M-803.8,539.6h0.1v0.9
			h-0.1V539.6z"/>
		<path class="st1" d="M-803.2,539.3h0.1v0.3h0.2v0.1h-0.2v0.6c0,0.1,0,0.1,0.1,0.1c0,0,0,0,0.1,0c0,0,0,0,0,0l0,0v0.1
			c0,0-0.1,0-0.1,0c-0.1,0-0.1,0-0.2-0.1c0,0-0.1-0.1-0.1-0.2v-0.6h-0.2v-0.1h0.1c0.1,0,0.1,0,0.1-0.1V539.3z"/>
		<path class="st1" d="M-801.4,539.8C-801.4,539.8-801.4,539.8-801.4,539.8c0.1,0.1,0.1,0.1,0.1,0.1c0,0,0,0.1,0.1,0.1
			c0,0,0,0.1,0,0.1c0,0.1,0,0.2-0.1,0.3s-0.2,0.1-0.3,0.1h-0.6v-1.4h0.5c0.1,0,0.2,0,0.3,0.1c0.1,0.1,0.1,0.1,0.1,0.2
			c0,0,0,0.1,0,0.1c0,0,0,0.1,0,0.1C-801.4,539.7-801.4,539.8-801.4,539.8C-801.4,539.8-801.4,539.8-801.4,539.8L-801.4,539.8
			C-801.4,539.8-801.4,539.8-801.4,539.8z M-802.1,539.3v0.4h0.4c0.1,0,0.1,0,0.2-0.1c0,0,0.1-0.1,0.1-0.2c0-0.1,0-0.1-0.1-0.2
			s-0.1-0.1-0.2-0.1H-802.1z M-801.6,540.4c0.1,0,0.1,0,0.2-0.1c0,0,0.1-0.1,0.1-0.2c0-0.1,0-0.1-0.1-0.2c0-0.1-0.1-0.1-0.2-0.1
			h-0.4v0.5H-801.6z"/>
	</g>
	<g>
		<path class="st1" d="M-806.5,541.8h0.3l0.4,1.1l0.4-1.1h0.3l-0.5,1.4h-0.3L-806.5,541.8z"/>
		<path class="st1" d="M-804.5,543.1C-804.6,543.1-804.6,543.1-804.5,543.1c0,0-0.1,0.1-0.1,0.1c0,0-0.1,0-0.1,0
			c-0.1,0-0.2,0-0.2-0.1s-0.1-0.1-0.1-0.2c0-0.1,0-0.2,0.1-0.2c0.1-0.1,0.1-0.1,0.2-0.1l0.3-0.1c0,0,0-0.1,0-0.1c0,0-0.1,0-0.1,0
			c0,0-0.1,0-0.1,0c0,0-0.1,0-0.1,0.1l0,0l-0.2-0.2c0,0,0,0,0,0c0,0,0,0,0,0c0,0,0.1,0,0.1-0.1c0,0,0.1,0,0.1,0s0.1,0,0.1,0
			c0.1,0,0.2,0,0.3,0.1s0.1,0.2,0.1,0.3v0.6h-0.3V543.1z M-804.6,542.9c0,0,0.1-0.1,0.1-0.2v0l-0.2,0c-0.1,0-0.1,0-0.1,0.1
			c0,0.1,0,0.1,0.1,0.1C-804.7,543-804.6,543-804.6,542.9z"/>
		<path class="st1" d="M-803.7,543.2h-0.3v-1.4h0.3V543.2z"/>
		<path class="st1" d="M-802.8,543.1C-802.8,543.1-802.8,543.1-802.8,543.1c0,0-0.1,0.1-0.1,0.1s-0.1,0-0.2,0c-0.1,0-0.2,0-0.3-0.1
			c-0.1-0.1-0.1-0.2-0.1-0.3v-0.6h0.3v0.6c0,0.1,0,0.1,0.1,0.1c0,0,0.1,0.1,0.1,0.1c0.1,0,0.1,0,0.1-0.1c0,0,0.1-0.1,0.1-0.2v-0.5
			h0.3v1h-0.3V543.1z"/>
		<path class="st1" d="M-802,542.8c0,0.1,0,0.1,0.1,0.1c0,0,0.1,0.1,0.2,0.1c0.1,0,0.1,0,0.1,0c0,0,0.1,0,0.1-0.1l0,0l0.1,0.2l0,0
			c0,0,0,0-0.1,0c0,0-0.1,0-0.1,0.1c0,0-0.1,0-0.1,0c0,0-0.1,0-0.2,0c-0.1,0-0.3-0.1-0.4-0.2c-0.1-0.1-0.2-0.2-0.2-0.4
			s0.1-0.3,0.2-0.4c0.1-0.1,0.2-0.2,0.4-0.2c0.1,0,0.3,0,0.4,0.1s0.1,0.2,0.1,0.4l0,0.1H-802z M-801.9,542.5c0,0-0.1,0.1-0.1,0.1
			h0.5c0-0.1,0-0.1-0.1-0.1c0,0-0.1-0.1-0.1-0.1S-801.9,542.4-801.9,542.5z"/>
		<path class="st1" d="M-800.6,543.2v-1.4h0.6c0.1,0,0.2,0,0.3,0.1c0.1,0.1,0.1,0.2,0.1,0.3c0,0,0,0.1,0,0.1c0,0,0,0.1,0,0.1
			c0,0,0,0,0,0.1c0,0,0,0,0,0l0,0c0,0,0,0,0,0c0,0,0,0,0.1,0c0,0,0.1,0,0.1,0.1c0,0,0,0.1,0.1,0.1c0,0,0,0.1,0,0.1
			c0,0.1,0,0.2-0.1,0.3c-0.1,0.1-0.2,0.1-0.3,0.1H-800.6z M-800.3,542v0.3h0.3c0.1,0,0.1,0,0.1,0c0,0,0-0.1,0-0.1s0-0.1,0-0.1
			c0,0-0.1,0-0.1,0H-800.3z M-800,542.9c0.1,0,0.1,0,0.1-0.1c0,0,0.1-0.1,0.1-0.1c0-0.1,0-0.1-0.1-0.1c0,0-0.1-0.1-0.1-0.1h-0.3v0.4
			H-800z"/>
	</g>
	<g class="st4">
		<path class="st1" d="M-805.5,545.5v0.1h-0.4v1.2h-0.1v-1.2h-0.4v-0.1H-805.5z"/>
		<path class="st1" d="M-805,546.1L-805,546.1c-0.1,0-0.2,0-0.3,0.1c-0.1,0.1-0.1,0.1-0.1,0.2v0.5h-0.1v-0.9h0.1v0.1c0,0,0,0,0,0
			c0,0,0,0,0,0c0,0,0,0,0.1,0c0,0,0.1,0,0.1,0c0,0,0.1,0,0.1,0h0V546.1z"/>
		<path class="st1" d="M-804.2,546.3c0-0.1,0-0.1-0.1-0.2c0,0-0.1-0.1-0.2-0.1c0,0-0.1,0-0.1,0c0,0-0.1,0-0.1,0.1l0,0l-0.1-0.1
			c0,0,0,0,0,0c0,0,0,0,0,0c0,0,0,0,0.1-0.1c0,0,0.1,0,0.1,0c0,0,0.1,0,0.1,0c0.1,0,0.2,0,0.3,0.1c0.1,0.1,0.1,0.2,0.1,0.3v0.6h-0.1
			v-0.1c0,0,0,0,0,0c0,0,0,0,0,0c0,0,0,0-0.1,0c0,0,0,0-0.1,0c0,0-0.1,0-0.1,0c-0.1,0-0.2,0-0.2-0.1c-0.1-0.1-0.1-0.1-0.1-0.2
			c0-0.1,0-0.1,0.1-0.2c0,0,0.1-0.1,0.2-0.1L-804.2,546.3z M-804.3,546.7c0.1-0.1,0.1-0.1,0.1-0.2v-0.1l-0.3,0.1
			c-0.1,0-0.2,0.1-0.2,0.2c0,0,0,0.1,0.1,0.1c0,0,0.1,0,0.1,0C-804.4,546.8-804.4,546.7-804.3,546.7z"/>
		<path class="st1" d="M-803.8,545.6C-803.7,545.6-803.7,545.5-803.8,545.6c0.1,0,0.1,0,0.1,0c0,0,0,0,0,0.1c0,0,0,0,0,0.1
			c0,0,0,0-0.1,0c0,0,0,0-0.1,0C-803.8,545.7-803.8,545.7-803.8,545.6C-803.8,545.6-803.8,545.6-803.8,545.6z M-803.8,545.9h0.1v0.9
			h-0.1V545.9z"/>
		<path class="st1" d="M-803.2,545.6h0.1v0.3h0.2v0.1h-0.2v0.6c0,0.1,0,0.1,0.1,0.1c0,0,0,0,0.1,0c0,0,0,0,0,0l0,0v0.1
			c0,0-0.1,0-0.1,0c-0.1,0-0.1,0-0.2-0.1c0,0-0.1-0.1-0.1-0.2v-0.6h-0.2v-0.1h0.1c0.1,0,0.1,0,0.1-0.1V545.6z"/>
		<path class="st1" d="M-802.1,545.7c0.1-0.1,0.3-0.2,0.5-0.2c0.1,0,0.1,0,0.2,0c0.1,0,0.1,0,0.2,0.1c0,0,0.1,0.1,0.1,0.1
			c0,0,0.1,0.1,0.1,0.1l0,0l-0.1,0.1c0,0,0,0,0,0c0,0,0,0-0.1-0.1c0,0-0.1,0-0.1-0.1c0,0-0.1,0-0.1-0.1c-0.1,0-0.1,0-0.2,0
			c-0.2,0-0.3,0.1-0.4,0.2c-0.1,0.1-0.2,0.2-0.2,0.4c0,0.2,0.1,0.3,0.2,0.4c0.1,0.1,0.2,0.2,0.4,0.2c0.1,0,0.1,0,0.2,0
			c0.1,0,0.1,0,0.1-0.1c0,0,0.1,0,0.1-0.1c0,0,0,0,0.1-0.1l0,0l0.1,0.1c0,0,0,0,0,0c0,0,0,0-0.1,0.1c0,0-0.1,0.1-0.1,0.1
			c0,0-0.1,0-0.2,0.1c-0.1,0-0.1,0-0.2,0c-0.2,0-0.4-0.1-0.5-0.2c-0.1-0.1-0.2-0.3-0.2-0.5C-802.3,546-802.2,545.8-802.1,545.7z"/>
	</g>
	<g>
		<path class="st1" d="M-806.5,548.1h0.3l0.4,1.1l0.4-1.1h0.3l-0.5,1.4h-0.3L-806.5,548.1z"/>
		<path class="st1" d="M-804.5,549.4C-804.6,549.4-804.6,549.4-804.5,549.4c0,0-0.1,0.1-0.1,0.1c0,0-0.1,0-0.1,0
			c-0.1,0-0.2,0-0.2-0.1s-0.1-0.1-0.1-0.2c0-0.1,0-0.2,0.1-0.2c0.1-0.1,0.1-0.1,0.2-0.1l0.3-0.1c0,0,0-0.1,0-0.1c0,0-0.1,0-0.1,0
			c0,0-0.1,0-0.1,0c0,0-0.1,0-0.1,0.1l0,0l-0.2-0.2c0,0,0,0,0,0c0,0,0,0,0,0c0,0,0.1,0,0.1-0.1c0,0,0.1,0,0.1,0c0,0,0.1,0,0.1,0
			c0.1,0,0.2,0,0.3,0.1c0.1,0.1,0.1,0.2,0.1,0.3v0.6h-0.3V549.4z M-804.6,549.3c0,0,0.1-0.1,0.1-0.2v0l-0.2,0c-0.1,0-0.1,0-0.1,0.1
			c0,0.1,0,0.1,0.1,0.1C-804.7,549.3-804.6,549.3-804.6,549.3z"/>
		<path class="st1" d="M-803.7,549.5h-0.3v-1.4h0.3V549.5z"/>
		<path class="st1" d="M-802.8,549.4C-802.8,549.4-802.8,549.4-802.8,549.4c0,0-0.1,0.1-0.1,0.1s-0.1,0-0.2,0c-0.1,0-0.2,0-0.3-0.1
			c-0.1-0.1-0.1-0.2-0.1-0.3v-0.6h0.3v0.6c0,0.1,0,0.1,0.1,0.1c0,0,0.1,0.1,0.1,0.1c0.1,0,0.1,0,0.1-0.1c0,0,0.1-0.1,0.1-0.2v-0.5
			h0.3v1h-0.3V549.4z"/>
		<path class="st1" d="M-802,549.1c0,0.1,0,0.1,0.1,0.1c0,0,0.1,0.1,0.2,0.1c0.1,0,0.1,0,0.1,0c0,0,0.1,0,0.1-0.1l0,0l0.1,0.2l0,0
			c0,0,0,0-0.1,0c0,0-0.1,0-0.1,0.1c0,0-0.1,0-0.1,0c0,0-0.1,0-0.2,0c-0.1,0-0.3-0.1-0.4-0.2c-0.1-0.1-0.2-0.2-0.2-0.4
			c0-0.1,0.1-0.3,0.2-0.4c0.1-0.1,0.2-0.2,0.4-0.2c0.1,0,0.3,0,0.4,0.1s0.1,0.2,0.1,0.4l0,0.1H-802z M-801.9,548.8
			c0,0-0.1,0.1-0.1,0.1h0.5c0-0.1,0-0.1-0.1-0.1c0,0-0.1-0.1-0.1-0.1S-801.9,548.8-801.9,548.8z"/>
		<path class="st1" d="M-799.7,548.1c0.1,0,0.1,0,0.2,0.1c0,0,0.1,0.1,0.1,0.1c0,0,0.1,0.1,0.1,0.1l0,0l-0.2,0.2c0,0,0,0,0,0
			c0,0,0,0,0,0c0,0-0.1,0-0.1-0.1c0,0-0.1,0-0.1,0c0,0-0.1,0-0.1,0c-0.1,0-0.2,0-0.3,0.1c-0.1,0.1-0.1,0.2-0.1,0.3
			c0,0.1,0,0.2,0.1,0.3c0.1,0.1,0.2,0.1,0.3,0.1c0.1,0,0.1,0,0.1,0c0,0,0.1,0,0.1-0.1c0,0,0.1,0,0.1-0.1c0,0,0,0,0.1-0.1l0,0
			l0.2,0.2c0,0,0,0,0,0c0,0,0,0-0.1,0.1c0,0-0.1,0.1-0.1,0.1c0,0-0.1,0-0.2,0.1c-0.1,0-0.1,0-0.2,0c-0.2,0-0.4-0.1-0.6-0.2
			c-0.1-0.1-0.2-0.3-0.2-0.5c0-0.2,0.1-0.4,0.2-0.5c0.2-0.1,0.3-0.2,0.6-0.2C-799.8,548.1-799.7,548.1-799.7,548.1z"/>
	</g>
	<g class="st4">
		<path class="st1" d="M-790.4,539.2v0.1h-0.4v1.2h-0.1v-1.2h-0.4v-0.1H-790.4z"/>
		<path class="st1" d="M-789.8,539.7L-789.8,539.7c-0.1,0-0.2,0-0.3,0.1c-0.1,0.1-0.1,0.1-0.1,0.2v0.5h-0.1v-0.9h0.1v0.1
			c0,0,0,0,0,0c0,0,0,0,0,0c0,0,0,0,0.1,0c0,0,0.1,0,0.1,0c0,0,0.1,0,0.1,0h0V539.7z"/>
		<path class="st1" d="M-789.1,540c0-0.1,0-0.1-0.1-0.2c0,0-0.1-0.1-0.2-0.1c0,0-0.1,0-0.1,0c0,0-0.1,0-0.1,0.1l0,0l-0.1-0.1
			c0,0,0,0,0,0c0,0,0,0,0,0c0,0,0,0,0.1-0.1c0,0,0.1,0,0.1,0c0,0,0.1,0,0.1,0c0.1,0,0.2,0,0.3,0.1c0.1,0.1,0.1,0.2,0.1,0.3v0.6h-0.1
			v-0.1c0,0,0,0,0,0c0,0,0,0,0,0c0,0,0,0-0.1,0c0,0,0,0-0.1,0c0,0-0.1,0-0.1,0c-0.1,0-0.2,0-0.2-0.1c-0.1-0.1-0.1-0.1-0.1-0.2
			c0-0.1,0-0.1,0.1-0.2c0,0,0.1-0.1,0.2-0.1L-789.1,540z M-789.2,540.3c0.1-0.1,0.1-0.1,0.1-0.2v-0.1l-0.3,0.1
			c-0.1,0-0.2,0.1-0.2,0.2c0,0,0,0.1,0.1,0.1c0,0,0.1,0,0.1,0C-789.3,540.4-789.2,540.4-789.2,540.3z"/>
		<path class="st1" d="M-788.6,539.2C-788.6,539.2-788.6,539.2-788.6,539.2c0.1,0,0.1,0,0.1,0c0,0,0,0,0,0.1s0,0,0,0.1
			c0,0,0,0-0.1,0c0,0,0,0-0.1,0C-788.6,539.4-788.7,539.3-788.6,539.2C-788.7,539.3-788.6,539.3-788.6,539.2z M-788.6,539.6h0.1v0.9
			h-0.1V539.6z"/>
		<path class="st1" d="M-788.1,539.3h0.1v0.3h0.2v0.1h-0.2v0.6c0,0.1,0,0.1,0.1,0.1c0,0,0,0,0.1,0c0,0,0,0,0,0l0,0v0.1
			c0,0-0.1,0-0.1,0c-0.1,0-0.1,0-0.2-0.1c0,0-0.1-0.1-0.1-0.2v-0.6h-0.2v-0.1h0.1c0.1,0,0.1,0,0.1-0.1V539.3z"/>
		<path class="st1" d="M-786.6,539.2c0.2,0,0.4,0.1,0.5,0.2s0.2,0.3,0.2,0.5c0,0.2-0.1,0.3-0.2,0.5s-0.3,0.2-0.5,0.2h-0.4v-1.4
			H-786.6z M-786.9,539.3v1.1h0.3c0.2,0,0.3-0.1,0.4-0.2c0.1-0.1,0.2-0.2,0.2-0.4s-0.1-0.3-0.2-0.4c-0.1-0.1-0.2-0.2-0.4-0.2H-786.9
			z"/>
	</g>
	<g class="st4">
		<path class="st1" d="M-778.6,539.2c0.1,0,0.2,0,0.3,0.1c0.1,0.1,0.1,0.2,0.1,0.3c0,0.1,0,0.1,0,0.2c0,0,0,0.1-0.1,0.1
			s-0.1,0-0.1,0.1c0,0-0.1,0-0.1,0l0,0l0.3,0.6h-0.2l-0.3-0.5h-0.4v0.5h-0.1v-1.4H-778.6z M-779,539.3v0.5h0.4c0.1,0,0.1,0,0.2-0.1
			c0,0,0.1-0.1,0.1-0.2c0-0.1,0-0.1-0.1-0.2c0,0-0.1-0.1-0.2-0.1H-779z"/>
		<path class="st1" d="M-777.9,539.2C-777.9,539.2-777.9,539.2-777.9,539.2c0.1,0,0.1,0,0.1,0c0,0,0,0,0,0.1s0,0,0,0.1
			c0,0,0,0-0.1,0s0,0-0.1,0C-777.9,539.4-777.9,539.3-777.9,539.2C-777.9,539.3-777.9,539.3-777.9,539.2z M-777.9,539.6h0.1v0.9
			h-0.1V539.6z"/>
		<path class="st1" d="M-777,539.8C-777,539.8-777,539.8-777,539.8C-777,539.8-777,539.8-777,539.8c-0.1-0.1-0.2-0.1-0.2-0.1
			c-0.1,0-0.1,0-0.1,0c0,0,0,0.1,0,0.1c0,0,0,0.1,0.1,0.1c0,0,0.1,0,0.1,0.1c0,0,0.1,0,0.1,0c0,0,0.1,0,0.1,0.1c0,0,0.1,0.1,0.1,0.2
			c0,0.1,0,0.1-0.1,0.2c-0.1,0.1-0.1,0.1-0.2,0.1c0,0-0.1,0-0.1,0c0,0-0.1,0-0.1,0c0,0,0,0-0.1,0s0,0,0,0l0,0l0.1-0.1c0,0,0,0,0,0
			c0,0,0,0,0,0s0,0,0,0c0,0,0,0,0.1,0c0,0,0.1,0,0.1,0c0.1,0,0.1,0,0.2,0c0,0,0.1-0.1,0.1-0.1c0,0,0-0.1-0.1-0.1c0,0-0.1,0-0.1-0.1
			c0,0-0.1,0-0.1,0c0,0-0.1,0-0.1-0.1c0,0-0.1-0.1-0.1-0.1c0-0.1,0-0.1,0.1-0.2c0.1-0.1,0.1-0.1,0.2-0.1c0,0,0.1,0,0.1,0
			c0,0,0.1,0,0.1,0c0,0,0,0,0.1,0c0,0,0,0,0,0L-777,539.8L-777,539.8z"/>
		<path class="st1" d="M-776.5,540.5h-0.1v-1.4h0.1v0.9l0.5-0.5h0.2l-0.4,0.4l0.4,0.6h-0.2l-0.3-0.5l-0.2,0.2V540.5z"/>
		<path class="st1" d="M-775.2,540.5v-1.4h0.1v1.2h0.7v0.1H-775.2z"/>
		<path class="st1" d="M-774.1,540.1c0,0.1,0,0.2,0.1,0.2c0.1,0.1,0.1,0.1,0.2,0.1c0.1,0,0.1,0,0.2,0c0,0,0.1-0.1,0.1-0.1l0,0
			l0.1,0.1c0,0,0,0,0,0c0,0,0,0,0,0c0,0-0.1,0-0.1,0.1c0,0-0.1,0-0.1,0c0,0-0.1,0-0.1,0c-0.1,0-0.2,0-0.3-0.1s-0.1-0.2-0.1-0.3
			c0-0.1,0-0.2,0.1-0.3c0.1-0.1,0.2-0.1,0.3-0.1c0.1,0,0.2,0,0.3,0.1c0.1,0.1,0.1,0.2,0.1,0.3l0,0.1L-774.1,540.1z M-774,539.8
			c-0.1,0.1-0.1,0.1-0.1,0.2h0.6c0-0.1,0-0.2-0.1-0.2c-0.1-0.1-0.1-0.1-0.2-0.1S-773.9,539.7-774,539.8z"/>
		<path class="st1" d="M-772.9,540.5l-0.4-0.9h0.1l0.3,0.7l0.3-0.7h0.1l-0.4,0.9H-772.9z"/>
		<path class="st1" d="M-772.1,540.1c0,0.1,0,0.2,0.1,0.2c0.1,0.1,0.1,0.1,0.2,0.1c0.1,0,0.1,0,0.2,0c0,0,0.1-0.1,0.1-0.1l0,0
			l0.1,0.1c0,0,0,0,0,0c0,0,0,0,0,0c0,0-0.1,0-0.1,0.1c0,0-0.1,0-0.1,0c0,0-0.1,0-0.1,0c-0.1,0-0.2,0-0.3-0.1s-0.1-0.2-0.1-0.3
			c0-0.1,0-0.2,0.1-0.3c0.1-0.1,0.2-0.1,0.3-0.1c0.1,0,0.2,0,0.3,0.1c0.1,0.1,0.1,0.2,0.1,0.3l0,0.1L-772.1,540.1z M-772,539.8
			c-0.1,0.1-0.1,0.1-0.1,0.2h0.6c0-0.1,0-0.2-0.1-0.2c-0.1-0.1-0.1-0.1-0.2-0.1S-771.9,539.7-772,539.8z"/>
		<path class="st1" d="M-770.9,540.5h-0.1v-1.4h0.1V540.5z"/>
	</g>
	<g>
		<path class="st1" d="M-791.4,541.8h0.3l0.4,1.1l0.4-1.1h0.3l-0.5,1.4h-0.3L-791.4,541.8z"/>
		<path class="st1" d="M-789.4,543.1C-789.4,543.1-789.4,543.1-789.4,543.1c0,0-0.1,0.1-0.1,0.1c0,0-0.1,0-0.1,0
			c-0.1,0-0.2,0-0.2-0.1c-0.1-0.1-0.1-0.1-0.1-0.2c0-0.1,0-0.2,0.1-0.2c0.1-0.1,0.1-0.1,0.2-0.1l0.3-0.1c0,0,0-0.1,0-0.1
			c0,0-0.1,0-0.1,0c0,0-0.1,0-0.1,0c0,0-0.1,0-0.1,0.1l0,0l-0.2-0.2c0,0,0,0,0,0c0,0,0,0,0,0c0,0,0.1,0,0.1-0.1c0,0,0.1,0,0.1,0
			c0,0,0.1,0,0.1,0c0.1,0,0.2,0,0.3,0.1s0.1,0.2,0.1,0.3v0.6h-0.3V543.1z M-789.5,542.9c0,0,0.1-0.1,0.1-0.2v0l-0.2,0
			c-0.1,0-0.1,0-0.1,0.1c0,0.1,0,0.1,0.1,0.1C-789.6,543-789.5,543-789.5,542.9z"/>
		<path class="st1" d="M-788.6,543.2h-0.3v-1.4h0.3V543.2z"/>
		<path class="st1" d="M-787.6,543.1C-787.6,543.1-787.7,543.1-787.6,543.1c0,0-0.1,0.1-0.1,0.1s-0.1,0-0.2,0c-0.1,0-0.2,0-0.3-0.1
			c-0.1-0.1-0.1-0.2-0.1-0.3v-0.6h0.3v0.6c0,0.1,0,0.1,0.1,0.1c0,0,0.1,0.1,0.1,0.1c0.1,0,0.1,0,0.1-0.1c0,0,0.1-0.1,0.1-0.2v-0.5
			h0.3v1h-0.3V543.1z"/>
		<path class="st1" d="M-786.9,542.8c0,0.1,0,0.1,0.1,0.1c0,0,0.1,0.1,0.2,0.1c0.1,0,0.1,0,0.1,0c0,0,0.1,0,0.1-0.1l0,0l0.1,0.2l0,0
			c0,0,0,0-0.1,0c0,0-0.1,0-0.1,0.1c0,0-0.1,0-0.1,0c0,0-0.1,0-0.2,0c-0.1,0-0.3-0.1-0.4-0.2c-0.1-0.1-0.2-0.2-0.2-0.4
			s0.1-0.3,0.2-0.4c0.1-0.1,0.2-0.2,0.4-0.2c0.1,0,0.3,0,0.4,0.1s0.1,0.2,0.1,0.4l0,0.1H-786.9z M-786.8,542.5c0,0-0.1,0.1-0.1,0.1
			h0.5c0-0.1,0-0.1-0.1-0.1c0,0-0.1-0.1-0.1-0.1S-786.7,542.4-786.8,542.5z"/>
		<path class="st1" d="M-784.9,541.8c0.2,0,0.4,0.1,0.5,0.2c0.1,0.1,0.2,0.3,0.2,0.5c0,0.2-0.1,0.4-0.2,0.5
			c-0.1,0.1-0.3,0.2-0.5,0.2h-0.5v-1.4H-784.9z M-785.1,542v0.9h0.2c0.1,0,0.2,0,0.3-0.1c0.1-0.1,0.1-0.2,0.1-0.3
			c0-0.1,0-0.2-0.1-0.3c-0.1-0.1-0.2-0.1-0.3-0.1H-785.1z"/>
	</g>
	<g class="st4">
		<path class="st1" d="M-790.4,545.5v0.1h-0.4v1.2h-0.1v-1.2h-0.4v-0.1H-790.4z"/>
		<path class="st1" d="M-789.8,546.1L-789.8,546.1c-0.1,0-0.2,0-0.3,0.1c-0.1,0.1-0.1,0.1-0.1,0.2v0.5h-0.1v-0.9h0.1v0.1
			c0,0,0,0,0,0c0,0,0,0,0,0c0,0,0,0,0.1,0c0,0,0.1,0,0.1,0c0,0,0.1,0,0.1,0h0V546.1z"/>
		<path class="st1" d="M-789.1,546.3c0-0.1,0-0.1-0.1-0.2c0,0-0.1-0.1-0.2-0.1c0,0-0.1,0-0.1,0c0,0-0.1,0-0.1,0.1l0,0l-0.1-0.1
			c0,0,0,0,0,0c0,0,0,0,0,0c0,0,0,0,0.1-0.1c0,0,0.1,0,0.1,0c0,0,0.1,0,0.1,0c0.1,0,0.2,0,0.3,0.1c0.1,0.1,0.1,0.2,0.1,0.3v0.6h-0.1
			v-0.1c0,0,0,0,0,0c0,0,0,0,0,0c0,0,0,0-0.1,0c0,0,0,0-0.1,0c0,0-0.1,0-0.1,0c-0.1,0-0.2,0-0.2-0.1c-0.1-0.1-0.1-0.1-0.1-0.2
			c0-0.1,0-0.1,0.1-0.2c0,0,0.1-0.1,0.2-0.1L-789.1,546.3z M-789.2,546.7c0.1-0.1,0.1-0.1,0.1-0.2v-0.1l-0.3,0.1
			c-0.1,0-0.2,0.1-0.2,0.2c0,0,0,0.1,0.1,0.1c0,0,0.1,0,0.1,0C-789.3,546.8-789.2,546.7-789.2,546.7z"/>
		<path class="st1" d="M-788.6,545.6C-788.6,545.6-788.6,545.5-788.6,545.6c0.1,0,0.1,0,0.1,0c0,0,0,0,0,0.1c0,0,0,0,0,0.1
			c0,0,0,0-0.1,0s0,0-0.1,0C-788.6,545.7-788.7,545.7-788.6,545.6C-788.7,545.6-788.6,545.6-788.6,545.6z M-788.6,545.9h0.1v0.9
			h-0.1V545.9z"/>
		<path class="st1" d="M-788.1,545.6h0.1v0.3h0.2v0.1h-0.2v0.6c0,0.1,0,0.1,0.1,0.1c0,0,0,0,0.1,0c0,0,0,0,0,0l0,0v0.1
			c0,0-0.1,0-0.1,0c-0.1,0-0.1,0-0.2-0.1c0,0-0.1-0.1-0.1-0.2v-0.6h-0.2v-0.1h0.1c0.1,0,0.1,0,0.1-0.1V545.6z"/>
		<path class="st1" d="M-786.1,546.7v0.1h-0.9v-1.4h0.9v0.1h-0.8v0.4h0.6v0.1h-0.6v0.5H-786.1z"/>
	</g>
	<g>
		<path class="st1" d="M-791.4,548.1h0.3l0.4,1.1l0.4-1.1h0.3l-0.5,1.4h-0.3L-791.4,548.1z"/>
		<path class="st1" d="M-789.4,549.4C-789.4,549.4-789.4,549.4-789.4,549.4c0,0-0.1,0.1-0.1,0.1c0,0-0.1,0-0.1,0
			c-0.1,0-0.2,0-0.2-0.1s-0.1-0.1-0.1-0.2c0-0.1,0-0.2,0.1-0.2c0.1-0.1,0.1-0.1,0.2-0.1l0.3-0.1c0,0,0-0.1,0-0.1c0,0-0.1,0-0.1,0
			c0,0-0.1,0-0.1,0c0,0-0.1,0-0.1,0.1l0,0l-0.2-0.2c0,0,0,0,0,0c0,0,0,0,0,0c0,0,0.1,0,0.1-0.1c0,0,0.1,0,0.1,0c0,0,0.1,0,0.1,0
			c0.1,0,0.2,0,0.3,0.1c0.1,0.1,0.1,0.2,0.1,0.3v0.6h-0.3V549.4z M-789.5,549.3c0,0,0.1-0.1,0.1-0.2v0l-0.2,0c-0.1,0-0.1,0-0.1,0.1
			c0,0.1,0,0.1,0.1,0.1C-789.6,549.3-789.5,549.3-789.5,549.3z"/>
		<path class="st1" d="M-788.6,549.5h-0.3v-1.4h0.3V549.5z"/>
		<path class="st1" d="M-787.6,549.4C-787.6,549.4-787.7,549.4-787.6,549.4c0,0-0.1,0.1-0.1,0.1s-0.1,0-0.2,0c-0.1,0-0.2,0-0.3-0.1
			c-0.1-0.1-0.1-0.2-0.1-0.3v-0.6h0.3v0.6c0,0.1,0,0.1,0.1,0.1c0,0,0.1,0.1,0.1,0.1c0.1,0,0.1,0,0.1-0.1c0,0,0.1-0.1,0.1-0.2v-0.5
			h0.3v1h-0.3V549.4z"/>
		<path class="st1" d="M-786.9,549.1c0,0.1,0,0.1,0.1,0.1c0,0,0.1,0.1,0.2,0.1c0.1,0,0.1,0,0.1,0c0,0,0.1,0,0.1-0.1l0,0l0.1,0.2l0,0
			c0,0,0,0-0.1,0c0,0-0.1,0-0.1,0.1c0,0-0.1,0-0.1,0c0,0-0.1,0-0.2,0c-0.1,0-0.3-0.1-0.4-0.2c-0.1-0.1-0.2-0.2-0.2-0.4
			c0-0.1,0.1-0.3,0.2-0.4c0.1-0.1,0.2-0.2,0.4-0.2c0.1,0,0.3,0,0.4,0.1s0.1,0.2,0.1,0.4l0,0.1H-786.9z M-786.8,548.8
			c0,0-0.1,0.1-0.1,0.1h0.5c0-0.1,0-0.1-0.1-0.1c0,0-0.1-0.1-0.1-0.1S-786.7,548.8-786.8,548.8z"/>
		<path class="st1" d="M-784.4,549.2v0.3h-1.1v-1.4h1.1v0.3h-0.7v0.3h0.6v0.3h-0.6v0.3H-784.4z"/>
	</g>
	<g>
		<path class="st5" d="M-776.1,547v-4.1h0.4v3.7h2.1v0.4H-776.1z"/>
	</g>
	<g>
		<path class="st5" d="M-776.4,548.6v-1.1h0.1v1h0.6v0.1H-776.4z"/>
		<path class="st5" d="M-775.5,547.9c0.1-0.1,0.2-0.1,0.3-0.1c0.1,0,0.2,0,0.3,0.1c0.1,0.1,0.1,0.2,0.1,0.3c0,0.1,0,0.2-0.1,0.3
			c-0.1,0.1-0.2,0.1-0.3,0.1c-0.1,0-0.2,0-0.3-0.1s-0.1-0.2-0.1-0.3C-775.6,548.1-775.6,548-775.5,547.9z M-775,548
			c-0.1-0.1-0.1-0.1-0.2-0.1c-0.1,0-0.1,0-0.2,0.1c-0.1,0.1-0.1,0.1-0.1,0.2c0,0.1,0,0.2,0.1,0.2c0.1,0.1,0.1,0.1,0.2,0.1
			c0.1,0,0.1,0,0.2-0.1c0.1-0.1,0.1-0.1,0.1-0.2C-774.9,548.1-774.9,548-775,548z"/>
		<path class="st5" d="M-774.1,547.8l0.2,0.6l0.2-0.6h0.1l-0.3,0.8h-0.1l-0.2-0.6l-0.2,0.6h-0.1l-0.3-0.8h0.1l0.2,0.6L-774.1,547.8
			L-774.1,547.8z"/>
	</g>
	<g>
		<path class="st0" d="M-793.2,553.9c0.2-0.2,0.4-0.3,0.7-0.3c0.1,0,0.2,0,0.3,0s0.2,0.1,0.2,0.1c0.1,0,0.1,0.1,0.2,0.1
			s0.1,0.1,0.1,0.1l0,0l-0.1,0.1c0,0,0,0,0,0c0,0,0,0-0.1-0.1c0,0-0.1-0.1-0.1-0.1c0,0-0.1-0.1-0.2-0.1c-0.1,0-0.2,0-0.2,0
			c-0.2,0-0.4,0.1-0.6,0.2c-0.2,0.2-0.2,0.4-0.2,0.6s0.1,0.4,0.2,0.6c0.2,0.2,0.4,0.2,0.6,0.2c0.1,0,0.2,0,0.2,0
			c0.1,0,0.1-0.1,0.2-0.1c0.1,0,0.1-0.1,0.1-0.1c0,0,0.1-0.1,0.1-0.1l0,0l0.1,0.1c0,0,0,0,0,0s0,0.1-0.1,0.1c-0.1,0-0.1,0.1-0.2,0.1
			c-0.1,0-0.1,0.1-0.2,0.1c-0.1,0-0.2,0-0.3,0c-0.3,0-0.5-0.1-0.7-0.3c-0.2-0.2-0.3-0.4-0.3-0.7S-793.4,554.1-793.2,553.9z"/>
		<path class="st0" d="M-791.1,554.4C-791.1,554.4-791.1,554.4-791.1,554.4C-791,554.4-791,554.4-791.1,554.4
			c0.1-0.1,0.1-0.1,0.2-0.2c0,0,0.1,0,0.1-0.1c0.1,0,0.1,0,0.2,0c0.2,0,0.3,0.1,0.4,0.2c0.1,0.1,0.2,0.3,0.2,0.4v0.8h-0.2v-0.8
			c0-0.1,0-0.2-0.1-0.3c-0.1-0.1-0.2-0.1-0.3-0.1c-0.1,0-0.2,0-0.3,0.1s-0.1,0.2-0.1,0.3v0.8h-0.2v-2h0.2V554.4z"/>
		<path class="st0" d="M-789.5,554.4c0.1-0.1,0.3-0.2,0.5-0.2c0.2,0,0.4,0.1,0.5,0.2c0.1,0.1,0.2,0.3,0.2,0.5c0,0.2-0.1,0.4-0.2,0.5
			s-0.3,0.2-0.5,0.2c-0.2,0-0.4-0.1-0.5-0.2c-0.1-0.1-0.2-0.3-0.2-0.5C-789.7,554.7-789.6,554.6-789.5,554.4z M-788.6,554.6
			c-0.1-0.1-0.2-0.2-0.4-0.2s-0.3,0.1-0.4,0.2c-0.1,0.1-0.1,0.2-0.1,0.4c0,0.1,0,0.3,0.1,0.4c0.1,0.1,0.2,0.2,0.4,0.2
			s0.3-0.1,0.4-0.2c0.1-0.1,0.1-0.2,0.1-0.4C-788.5,554.8-788.5,554.7-788.6,554.6z"/>
		<path class="st0" d="M-787.8,554.4c0.1-0.1,0.3-0.2,0.5-0.2c0.2,0,0.4,0.1,0.5,0.2c0.1,0.1,0.2,0.3,0.2,0.5c0,0.2-0.1,0.4-0.2,0.5
			s-0.3,0.2-0.5,0.2c-0.2,0-0.4-0.1-0.5-0.2c-0.1-0.1-0.2-0.3-0.2-0.5C-788,554.7-788,554.6-787.8,554.4z M-787,554.6
			c-0.1-0.1-0.2-0.2-0.4-0.2s-0.3,0.1-0.4,0.2c-0.1,0.1-0.1,0.2-0.1,0.4c0,0.1,0,0.3,0.1,0.4c0.1,0.1,0.2,0.2,0.4,0.2
			s0.3-0.1,0.4-0.2c0.1-0.1,0.1-0.2,0.1-0.4C-786.8,554.8-786.9,554.7-787,554.6z"/>
		<path class="st0" d="M-785.6,554.5C-785.6,554.5-785.6,554.5-785.6,554.5c0-0.1-0.1-0.1-0.1-0.1c-0.1,0-0.1,0-0.2,0
			c-0.1,0-0.1,0-0.2,0.1c0,0-0.1,0.1-0.1,0.1c0,0.1,0,0.1,0.1,0.1c0.1,0,0.1,0.1,0.2,0.1c0.1,0,0.1,0,0.2,0.1c0.1,0,0.1,0.1,0.2,0.1
			s0.1,0.1,0.1,0.2c0,0.1,0,0.2-0.1,0.3c-0.1,0.1-0.2,0.1-0.4,0.1c-0.1,0-0.1,0-0.2,0c-0.1,0-0.1,0-0.1-0.1c0,0-0.1,0-0.1-0.1
			c0,0,0,0-0.1-0.1l0,0l0.1-0.1c0,0,0,0,0,0c0,0,0,0,0,0c0,0,0,0,0.1,0.1c0,0,0.1,0,0.1,0s0.1,0,0.1,0c0.1,0,0.2,0,0.2-0.1
			c0.1,0,0.1-0.1,0.1-0.2c0-0.1,0-0.1-0.1-0.1c-0.1,0-0.1-0.1-0.2-0.1s-0.1,0-0.2-0.1c-0.1,0-0.1-0.1-0.2-0.1s-0.1-0.1-0.1-0.2
			c0-0.1,0-0.2,0.1-0.3c0.1-0.1,0.2-0.1,0.3-0.1c0.1,0,0.1,0,0.2,0s0.1,0,0.1,0s0.1,0,0.1,0.1c0,0,0,0,0.1,0l0,0L-785.6,554.5z"/>
		<path class="st0" d="M-784.9,555c0,0.1,0.1,0.2,0.2,0.3c0.1,0.1,0.2,0.1,0.3,0.1c0.1,0,0.2,0,0.2-0.1c0.1,0,0.1-0.1,0.2-0.1l0-0.1
			l0.1,0.1c0,0,0,0,0,0c0,0,0,0-0.1,0.1c0,0-0.1,0.1-0.1,0.1c0,0-0.1,0-0.2,0.1c-0.1,0-0.1,0-0.2,0c-0.2,0-0.4-0.1-0.5-0.2
			c-0.1-0.1-0.2-0.3-0.2-0.5s0.1-0.4,0.2-0.5c0.1-0.1,0.3-0.2,0.5-0.2c0.2,0,0.3,0.1,0.5,0.2c0.1,0.1,0.2,0.3,0.2,0.5l0,0.1
			L-784.9,555z M-784.8,554.5c-0.1,0.1-0.1,0.2-0.2,0.3h0.9c0-0.1-0.1-0.2-0.2-0.3c-0.1-0.1-0.2-0.1-0.3-0.1
			S-784.7,554.4-784.8,554.5z"/>
	</g>
</g>
<g>
	<path id="XMLID_805_" class="st0" d="M-647.6,559h-42.1c-1.1,0-1.9-0.9-1.9-1.9v-31.6c0-1.1,0.9-1.9,1.9-1.9h42.1
		c1.1,0,1.9,0.9,1.9,1.9v31.6C-645.7,558.2-646.6,559-647.6,559z"/>
	<path id="XMLID_804_" class="st1" d="M-680.9,536.1h-4.5c-1.1,0-1.9-0.9-1.9-1.9v-4.5c0-1.1,0.9-1.9,1.9-1.9h4.5
		c1.1,0,1.9,0.9,1.9,1.9v4.5C-678.9,535.3-679.8,536.1-680.9,536.1z"/>
	<path id="XMLID_803_" class="st1" d="M-657.8,557.2h-21.8c-0.8,0-1.4-0.6-1.4-1.4v-2.4c0-0.8,0.6-1.4,1.4-1.4h21.8
		c0.8,0,1.4,0.6,1.4,1.4v2.4C-656.4,556.5-657,557.2-657.8,557.2z"/>
	<path id="XMLID_802_" class="st6" d="M-652.4,549.3h-5.3c-0.6,0-1.1-0.5-1.1-1.1v-5.3c0-0.6,0.5-1.1,1.1-1.1h5.3
		c0.6,0,1.1,0.5,1.1,1.1v5.3C-651.2,548.8-651.8,549.3-652.4,549.3z"/>
	<g>
		<path class="st1" d="M-675.6,529.1v0.4h-0.8v2.4h-0.4v-2.4h-0.8v-0.4H-675.6z"/>
		<path class="st1" d="M-674.6,530.3c-0.2,0-0.3,0-0.4,0.1c-0.1,0.1-0.1,0.2-0.1,0.4v1h-0.4V530h0.4v0.2l0,0c0,0,0,0,0.1-0.1
			c0,0,0.1-0.1,0.1-0.1c0,0,0.1,0,0.2-0.1c0.1,0,0.1,0,0.2,0h0.1v0.4C-674.4,530.3-674.5,530.3-674.6,530.3z"/>
		<path class="st1" d="M-673,531.9v-0.2c0,0,0,0,0,0c0,0,0,0-0.1,0.1c0,0-0.1,0.1-0.1,0.1c0,0-0.1,0-0.2,0.1c-0.1,0-0.1,0-0.2,0
			c-0.2,0-0.4-0.1-0.5-0.2c-0.1-0.1-0.2-0.2-0.2-0.4c0-0.2,0-0.3,0.1-0.4c0.1-0.1,0.2-0.2,0.4-0.2l0.7-0.1c0-0.1,0-0.2-0.1-0.3
			c-0.1-0.1-0.2-0.1-0.3-0.1c-0.1,0-0.2,0-0.3,0.1c-0.1,0-0.1,0.1-0.2,0.1l-0.1,0.1l-0.3-0.3c0,0,0,0,0,0c0,0,0,0,0.1-0.1
			c0,0,0.1-0.1,0.1-0.1s0.1-0.1,0.2-0.1c0.1,0,0.2,0,0.3,0c0.2,0,0.4,0.1,0.6,0.2c0.1,0.1,0.2,0.3,0.2,0.5v1.2H-673z M-673.1,531.4
			c0.1-0.1,0.1-0.2,0.1-0.4v0l-0.6,0.1c-0.1,0-0.1,0-0.2,0.1c0,0-0.1,0.1-0.1,0.2c0,0.1,0,0.1,0.1,0.2c0.1,0,0.1,0.1,0.2,0.1
			C-673.3,531.5-673.2,531.5-673.1,531.4z"/>
		<path class="st1" d="M-671,529.9c0.1,0,0.1,0,0.2,0.1c0,0,0.1,0.1,0.1,0.1c0,0,0.1,0,0.1,0.1l0,0v-1.1h0.4v2.8h-0.4v-0.2
			c0,0,0,0-0.1,0.1c0,0-0.1,0.1-0.2,0.1c-0.1,0-0.2,0.1-0.3,0.1c-0.3,0-0.5-0.1-0.7-0.3c-0.2-0.2-0.3-0.4-0.3-0.7s0.1-0.5,0.3-0.7
			c0.2-0.2,0.4-0.3,0.7-0.3C-671.1,529.9-671.1,529.9-671,529.9z M-670.8,531.4c0.1-0.1,0.2-0.3,0.2-0.4c0-0.2-0.1-0.3-0.2-0.4
			c-0.1-0.1-0.2-0.2-0.4-0.2c-0.1,0-0.3,0.1-0.4,0.2c-0.1,0.1-0.2,0.3-0.2,0.4c0,0.2,0.1,0.3,0.2,0.4c0.1,0.1,0.3,0.2,0.4,0.2
			C-671,531.5-670.9,531.5-670.8,531.4z"/>
		<path class="st1" d="M-669.2,529.5c0,0-0.1,0.1-0.2,0.1c-0.1,0-0.1,0-0.2-0.1c0,0-0.1-0.1-0.1-0.2s0-0.1,0.1-0.2
			c0,0,0.1-0.1,0.2-0.1c0.1,0,0.1,0,0.2,0.1c0,0,0.1,0.1,0.1,0.2S-669.2,529.5-669.2,529.5z M-669.2,531.9h-0.4V530h0.4V531.9z"/>
		<path class="st1" d="M-668.2,530.2L-668.2,530.2C-668.2,530.1-668.2,530.1-668.2,530.2c0.1-0.1,0.2-0.1,0.2-0.2c0,0,0.1,0,0.2-0.1
			c0.1,0,0.1,0,0.2,0c0.2,0,0.4,0.1,0.6,0.2c0.1,0.2,0.2,0.4,0.2,0.6v1.1h-0.4v-1.1c0-0.1,0-0.2-0.1-0.3c-0.1-0.1-0.2-0.1-0.3-0.1
			c-0.2,0-0.3,0-0.4,0.1c-0.1,0.1-0.1,0.2-0.1,0.4v1h-0.4V530h0.4V530.2z"/>
		<path class="st1" d="M-665,531.6L-665,531.6C-665,531.6-665,531.6-665,531.6c-0.1,0.1-0.2,0.1-0.2,0.2c0,0-0.1,0-0.2,0.1
			c-0.1,0-0.1,0-0.2,0c-0.2,0-0.4-0.1-0.6-0.3c-0.2-0.2-0.3-0.4-0.3-0.7c0-0.3,0.1-0.5,0.3-0.7s0.4-0.3,0.6-0.3c0.1,0,0.2,0,0.3,0.1
			c0.1,0,0.2,0.1,0.2,0.1l0.1,0.1V530h0.4v1.8c0,0.3-0.1,0.5-0.3,0.7c-0.2,0.2-0.4,0.3-0.7,0.3c-0.1,0-0.2,0-0.3,0
			c-0.1,0-0.2-0.1-0.2-0.1c-0.1,0-0.1-0.1-0.2-0.1c0,0-0.1-0.1-0.1-0.1l0,0l0.3-0.3c0,0,0,0,0,0c0,0,0,0,0.1,0.1
			c0,0,0.1,0.1,0.1,0.1c0,0,0.1,0.1,0.2,0.1c0.1,0,0.1,0,0.2,0c0.2,0,0.3-0.1,0.4-0.2c0.1-0.1,0.2-0.3,0.2-0.4V531.6z M-665.9,531.3
			c0.1,0.1,0.2,0.2,0.4,0.2c0.1,0,0.3-0.1,0.4-0.2c0.1-0.1,0.2-0.3,0.2-0.4c0-0.2-0.1-0.3-0.2-0.4c-0.1-0.1-0.2-0.2-0.4-0.2
			c-0.1,0-0.3,0.1-0.4,0.2s-0.2,0.3-0.2,0.4C-666,531-666,531.2-665.9,531.3z"/>
		<path class="st1" d="M-663.1,531.9v-2.8h1.1c0.2,0,0.4,0.1,0.6,0.2c0.2,0.1,0.2,0.3,0.2,0.5c0,0.1,0,0.2-0.1,0.3s-0.1,0.2-0.1,0.2
			l-0.1,0.1c0,0,0,0,0,0c0,0,0.1,0,0.1,0.1c0,0,0.1,0.1,0.1,0.1c0,0,0.1,0.1,0.1,0.2c0,0.1,0,0.2,0,0.2c0,0.2-0.1,0.4-0.3,0.6
			s-0.4,0.2-0.6,0.2H-663.1z M-662.7,529.5v0.8h0.7c0.1,0,0.2,0,0.3-0.1c0.1-0.1,0.1-0.2,0.1-0.3c0-0.1,0-0.2-0.1-0.3
			c-0.1-0.1-0.2-0.1-0.3-0.1H-662.7z M-661.9,531.5c0.1,0,0.2,0,0.3-0.1c0.1-0.1,0.1-0.2,0.1-0.3s0-0.2-0.1-0.3
			c-0.1-0.1-0.2-0.1-0.3-0.1h-0.8v0.9H-661.9z"/>
		<path class="st1" d="M-660.4,530.2c0.2-0.2,0.4-0.3,0.7-0.3c0.3,0,0.5,0.1,0.7,0.3c0.2,0.2,0.3,0.4,0.3,0.7c0,0.3-0.1,0.5-0.3,0.7
			c-0.2,0.2-0.4,0.3-0.7,0.3c-0.3,0-0.5-0.1-0.7-0.3c-0.2-0.2-0.3-0.4-0.3-0.7C-660.7,530.6-660.6,530.4-660.4,530.2z M-659.3,530.5
			c-0.1-0.1-0.3-0.2-0.4-0.2s-0.3,0.1-0.4,0.2c-0.1,0.1-0.2,0.3-0.2,0.4c0,0.2,0.1,0.3,0.2,0.4c0.1,0.1,0.3,0.2,0.4,0.2
			s0.3-0.1,0.4-0.2c0.1-0.1,0.2-0.3,0.2-0.4C-659.1,530.7-659.1,530.6-659.3,530.5z"/>
		<path class="st1" d="M-658,529.3h0.4v0.6h0.4v0.4h-0.4v1c0,0.1,0,0.1,0.1,0.2c0,0,0.1,0.1,0.2,0.1c0,0,0.1,0,0.1,0
			c0,0,0.1,0,0.1,0l0,0v0.4c-0.1,0-0.2,0-0.3,0c-0.4,0-0.6-0.2-0.6-0.6v-1h-0.4V530h0.2c0.1,0,0.2-0.1,0.2-0.2V529.3z"/>
		<path class="st1" d="M-655.8,531.9v-2.8h1.1c0.2,0,0.4,0.1,0.6,0.2c0.2,0.1,0.2,0.3,0.2,0.5c0,0.1,0,0.2-0.1,0.3s-0.1,0.2-0.1,0.2
			l-0.1,0.1c0,0,0,0,0,0c0,0,0.1,0,0.1,0.1c0,0,0.1,0.1,0.1,0.1c0,0,0.1,0.1,0.1,0.2c0,0.1,0,0.2,0,0.2c0,0.2-0.1,0.4-0.3,0.6
			s-0.4,0.2-0.6,0.2H-655.8z M-655.4,529.5v0.8h0.7c0.1,0,0.2,0,0.3-0.1c0.1-0.1,0.1-0.2,0.1-0.3c0-0.1,0-0.2-0.1-0.3
			c-0.1-0.1-0.2-0.1-0.3-0.1H-655.4z M-654.6,531.5c0.1,0,0.2,0,0.3-0.1c0.1-0.1,0.1-0.2,0.1-0.3s0-0.2-0.1-0.3
			c-0.1-0.1-0.2-0.1-0.3-0.1h-0.8v0.9H-654.6z"/>
	</g>
	<g>
		<path class="st3" d="M-676.1,533.1v0.2h-0.6v1.6h-0.2v-1.6h-0.6v-0.2H-676.1z"/>
		<path class="st3" d="M-676,533.9c0.1-0.1,0.3-0.2,0.4-0.2c0.2,0,0.3,0.1,0.4,0.2c0.1,0.1,0.2,0.3,0.2,0.4c0,0.2-0.1,0.3-0.2,0.4
			c-0.1,0.1-0.3,0.2-0.4,0.2c-0.2,0-0.3-0.1-0.4-0.2c-0.1-0.1-0.2-0.3-0.2-0.4C-676.2,534.1-676.2,534-676,533.9z M-675.3,534
			c-0.1-0.1-0.2-0.1-0.3-0.1s-0.2,0-0.3,0.1c-0.1,0.1-0.1,0.2-0.1,0.3c0,0.1,0,0.2,0.1,0.3c0.1,0.1,0.2,0.1,0.3,0.1s0.2,0,0.3-0.1
			c0.1-0.1,0.1-0.2,0.1-0.3C-675.2,534.2-675.2,534.1-675.3,534z"/>
		<path class="st3" d="M-674.6,533.3h0.2v0.4h0.3v0.2h-0.3v0.7c0,0.1,0.1,0.2,0.2,0.2c0,0,0.1,0,0.1,0c0,0,0,0,0.1,0l0,0v0.2
			c0,0-0.1,0-0.2,0c-0.1,0-0.2,0-0.2-0.1c-0.1-0.1-0.1-0.1-0.1-0.3v-0.7h-0.2v-0.2h0.1c0.1,0,0.1,0,0.1-0.1V533.3z"/>
		<path class="st3" d="M-673.1,534.1c0-0.1,0-0.2-0.1-0.2c-0.1-0.1-0.1-0.1-0.2-0.1c-0.1,0-0.1,0-0.2,0c-0.1,0-0.1,0.1-0.1,0.1l0,0
			l-0.1-0.1c0,0,0,0,0,0c0,0,0,0,0.1-0.1c0,0,0.1,0,0.1-0.1c0,0,0.1,0,0.1-0.1c0.1,0,0.1,0,0.2,0c0.1,0,0.3,0,0.3,0.1
			c0.1,0.1,0.1,0.2,0.1,0.3v0.8h-0.2v-0.2c0,0,0,0,0,0c0,0,0,0,0,0c0,0-0.1,0-0.1,0.1c0,0-0.1,0-0.1,0s-0.1,0-0.1,0
			c-0.1,0-0.2,0-0.3-0.1c-0.1-0.1-0.1-0.2-0.1-0.2c0-0.1,0-0.2,0.1-0.2c0.1-0.1,0.1-0.1,0.3-0.1L-673.1,534.1z M-673.2,534.7
			c0.1-0.1,0.1-0.2,0.1-0.3v-0.1l-0.4,0.1c-0.2,0-0.2,0.1-0.2,0.2c0,0.1,0,0.1,0.1,0.1c0,0,0.1,0.1,0.2,0.1
			C-673.4,534.8-673.3,534.7-673.2,534.7z"/>
		<path class="st3" d="M-672.3,534.9h-0.2v-1.8h0.2V534.9z"/>
		<path class="st3" d="M-670.7,533.1c0.2,0,0.3,0.1,0.4,0.2c0.1,0.1,0.2,0.2,0.2,0.4s-0.1,0.3-0.2,0.4c-0.1,0.1-0.2,0.2-0.4,0.2
			h-0.5v0.7h-0.2v-1.8H-670.7z M-671.2,533.3v0.8h0.5c0.1,0,0.2,0,0.3-0.1c0.1-0.1,0.1-0.2,0.1-0.3c0-0.1,0-0.2-0.1-0.3
			c-0.1-0.1-0.2-0.1-0.3-0.1H-671.2z"/>
		<path class="st3" d="M-669.2,533.8L-669.2,533.8c-0.2,0-0.3,0-0.3,0.1c-0.1,0.1-0.1,0.2-0.1,0.3v0.7h-0.2v-1.2h0.2v0.2
			c0,0,0,0,0,0c0,0,0,0,0,0c0,0,0.1,0,0.1-0.1s0.1,0,0.1,0c0,0,0.1,0,0.1,0h0V533.8z"/>
		<path class="st3" d="M-668.8,533.9c0.1-0.1,0.3-0.2,0.4-0.2c0.2,0,0.3,0.1,0.4,0.2c0.1,0.1,0.2,0.3,0.2,0.4c0,0.2-0.1,0.3-0.2,0.4
			c-0.1,0.1-0.3,0.2-0.4,0.2c-0.2,0-0.3-0.1-0.4-0.2c-0.1-0.1-0.2-0.3-0.2-0.4C-669,534.1-668.9,534-668.8,533.9z M-668.1,534
			c-0.1-0.1-0.2-0.1-0.3-0.1s-0.2,0-0.3,0.1c-0.1,0.1-0.1,0.2-0.1,0.3c0,0.1,0,0.2,0.1,0.3c0.1,0.1,0.2,0.1,0.3,0.1s0.2,0,0.3-0.1
			c0.1-0.1,0.1-0.2,0.1-0.3C-667.9,534.2-668,534.1-668.1,534z"/>
		<path class="st3" d="M-666.9,533.9h-0.3v1h-0.2v-1h-0.2v-0.2h0.2v-0.2c0-0.1,0-0.2,0.1-0.3c0.1-0.1,0.1-0.1,0.2-0.1
			c0,0,0.1,0,0.1,0c0,0,0.1,0,0.1,0l0,0v0.2c0,0-0.1,0-0.2,0c-0.1,0-0.2,0.1-0.2,0.2v0.2h0.3V533.9z"/>
		<path class="st3" d="M-666.6,533.2C-666.6,533.2-666.6,533.2-666.6,533.2c0.1,0,0.1,0,0.2,0c0,0,0,0,0,0.1c0,0,0,0.1,0,0.1
			c0,0,0,0-0.1,0c0,0-0.1,0-0.1,0C-666.7,533.3-666.7,533.3-666.6,533.2C-666.7,533.3-666.7,533.2-666.6,533.2z M-666.6,533.7h0.2
			v1.2h-0.2V533.7z"/>
		<path class="st3" d="M-665.9,533.3h0.2v0.4h0.3v0.2h-0.3v0.7c0,0.1,0.1,0.2,0.2,0.2c0,0,0.1,0,0.1,0c0,0,0,0,0.1,0l0,0v0.2
			c0,0-0.1,0-0.2,0c-0.1,0-0.2,0-0.2-0.1c-0.1-0.1-0.1-0.1-0.1-0.3v-0.7h-0.2v-0.2h0.1c0.1,0,0.1,0,0.1-0.1V533.3z"/>
		<path class="st1" d="M-663.8,534.7v-0.5h-0.5v-0.2h0.5v-0.5h0.2v0.5h0.5v0.2h-0.5v0.5H-663.8z"/>
		<path class="st1" d="M-663,534.9c0-0.1,0-0.2,0.1-0.3s0.1-0.2,0.2-0.2c0.1-0.1,0.1-0.1,0.2-0.2c0.1-0.1,0.2-0.1,0.2-0.2
			c0.1,0,0.1-0.1,0.2-0.2c0-0.1,0.1-0.1,0.1-0.2c0-0.1,0-0.2-0.1-0.2c-0.1-0.1-0.2-0.1-0.3-0.1c-0.1,0-0.1,0-0.2,0
			c0,0-0.1,0-0.1,0.1c0,0,0,0.1-0.1,0.1c0,0,0,0.1,0,0.1l0,0l-0.2-0.1c0,0,0,0,0,0c0,0,0,0,0-0.1c0,0,0.1-0.1,0.1-0.1
			c0,0,0.1-0.1,0.2-0.1c0.1,0,0.1,0,0.2,0c0.2,0,0.3,0,0.4,0.1c0.1,0.1,0.2,0.2,0.2,0.4c0,0.1,0,0.2-0.1,0.2c0,0.1-0.1,0.1-0.1,0.2
			c-0.1,0-0.1,0.1-0.2,0.2c-0.1,0.1-0.1,0.1-0.2,0.1c-0.1,0-0.1,0.1-0.2,0.2c-0.1,0.1-0.1,0.1-0.1,0.2h0.9v0.2H-663z"/>
		<path class="st1" d="M-660.3,534.3v0.2h-0.2v0.4h-0.2v-0.4h-0.9v-0.2l0.8-1.2h0.2v1.2H-660.3z M-660.7,533.4l-0.7,1h0.7V533.4z"/>
		<path class="st1" d="M-660,534.7C-660,534.7-660,534.7-660,534.7c0.1,0,0.2,0,0.2,0c0,0,0,0.1,0,0.1s0,0.1,0,0.1c0,0-0.1,0-0.1,0
			c0,0-0.1,0-0.1,0C-660.1,534.9-660.1,534.8-660,534.7C-660.1,534.8-660.1,534.7-660,534.7z"/>
		<path class="st1" d="M-658.5,533.9c0.1,0.1,0.2,0.2,0.2,0.4c0,0.2-0.1,0.3-0.2,0.4c-0.1,0.1-0.3,0.2-0.4,0.2c-0.1,0-0.1,0-0.2,0
			c-0.1,0-0.1,0-0.2-0.1c0,0-0.1-0.1-0.1-0.1c0,0-0.1,0-0.1-0.1l0,0l0.1-0.1c0,0,0,0,0,0c0,0,0,0,0.1,0.1s0.1,0,0.1,0.1
			c0,0,0.1,0,0.1,0.1c0.1,0,0.1,0,0.2,0c0.1,0,0.2,0,0.3-0.1c0.1-0.1,0.1-0.2,0.1-0.3c0-0.1,0-0.2-0.1-0.3c-0.1-0.1-0.2-0.1-0.3-0.1
			c-0.1,0-0.2,0-0.2,0c-0.1,0-0.1,0.1-0.1,0.1l0,0h-0.1l0.1-1h0.9v0.2h-0.8l0,0.6c0,0,0,0,0,0s0.1,0,0.1,0c0.1,0,0.1,0,0.2,0
			C-658.7,533.8-658.6,533.8-658.5,533.9z"/>
		<path class="st1" d="M-657.4,533.8c-0.1,0.1-0.2,0.1-0.3,0.1c-0.1,0-0.2,0-0.3-0.1c-0.1-0.1-0.1-0.2-0.1-0.3c0-0.1,0-0.2,0.1-0.3
			c0.1-0.1,0.2-0.1,0.3-0.1c0.1,0,0.2,0,0.3,0.1c0.1,0.1,0.1,0.2,0.1,0.3C-657.3,533.6-657.3,533.7-657.4,533.8z M-657.5,533.3
			c0,0-0.1-0.1-0.2-0.1c-0.1,0-0.1,0-0.2,0.1c0,0-0.1,0.1-0.1,0.2c0,0.1,0,0.1,0.1,0.2c0,0,0.1,0.1,0.2,0.1c0.1,0,0.1,0,0.2-0.1
			c0,0,0.1-0.1,0.1-0.2C-657.4,533.4-657.5,533.4-657.5,533.3z M-656.7,533.1h0.2l-1.1,1.8h-0.2L-656.7,533.1z M-657,534.3
			c0.1-0.1,0.2-0.1,0.3-0.1c0.1,0,0.2,0,0.3,0.1c0.1,0.1,0.1,0.2,0.1,0.3c0,0.1,0,0.2-0.1,0.3c-0.1,0.1-0.2,0.1-0.3,0.1
			c-0.1,0-0.2,0-0.3-0.1c-0.1-0.1-0.1-0.2-0.1-0.3C-657.1,534.4-657.1,534.3-657,534.3z M-656.9,534.7c0,0,0.1,0.1,0.2,0.1
			c0.1,0,0.1,0,0.2-0.1c0,0,0.1-0.1,0.1-0.2c0-0.1,0-0.1-0.1-0.2c0,0-0.1-0.1-0.2-0.1c-0.1,0-0.1,0-0.2,0.1c0,0-0.1,0.1-0.1,0.2
			C-657,534.6-656.9,534.7-656.9,534.7z"/>
	</g>
	<g class="st4">
		<path class="st1" d="M-685.5,539.2v0.1h-0.4v1.2h-0.1v-1.2h-0.4v-0.1H-685.5z"/>
		<path class="st1" d="M-685,539.7L-685,539.7c-0.1,0-0.2,0-0.3,0.1c-0.1,0.1-0.1,0.1-0.1,0.2v0.5h-0.1v-0.9h0.1v0.1c0,0,0,0,0,0
			c0,0,0,0,0,0c0,0,0,0,0.1,0c0,0,0.1,0,0.1,0c0,0,0.1,0,0.1,0h0V539.7z"/>
		<path class="st1" d="M-684.2,540c0-0.1,0-0.1-0.1-0.2c0,0-0.1-0.1-0.2-0.1c0,0-0.1,0-0.1,0c0,0-0.1,0-0.1,0.1l0,0l-0.1-0.1
			c0,0,0,0,0,0c0,0,0,0,0,0c0,0,0,0,0.1-0.1s0.1,0,0.1,0c0,0,0.1,0,0.1,0c0.1,0,0.2,0,0.3,0.1c0.1,0.1,0.1,0.2,0.1,0.3v0.6h-0.1
			v-0.1c0,0,0,0,0,0c0,0,0,0,0,0c0,0,0,0-0.1,0c0,0,0,0-0.1,0c0,0-0.1,0-0.1,0c-0.1,0-0.2,0-0.2-0.1c-0.1-0.1-0.1-0.1-0.1-0.2
			c0-0.1,0-0.1,0.1-0.2c0,0,0.1-0.1,0.2-0.1L-684.2,540z M-684.3,540.3c0.1-0.1,0.1-0.1,0.1-0.2v-0.1l-0.3,0.1
			c-0.1,0-0.2,0.1-0.2,0.2c0,0,0,0.1,0.1,0.1c0,0,0.1,0,0.1,0C-684.4,540.4-684.4,540.4-684.3,540.3z"/>
		<path class="st1" d="M-683.8,539.2C-683.8,539.2-683.7,539.2-683.8,539.2c0.1,0,0.1,0,0.1,0c0,0,0,0,0,0.1s0,0,0,0.1
			c0,0,0,0-0.1,0s0,0-0.1,0C-683.8,539.4-683.8,539.3-683.8,539.2C-683.8,539.3-683.8,539.3-683.8,539.2z M-683.8,539.6h0.1v0.9
			h-0.1V539.6z"/>
		<path class="st1" d="M-683.2,539.3h0.1v0.3h0.2v0.1h-0.2v0.6c0,0.1,0,0.1,0.1,0.1c0,0,0,0,0.1,0c0,0,0,0,0,0l0,0v0.1
			c0,0-0.1,0-0.1,0c-0.1,0-0.1,0-0.2-0.1c0,0-0.1-0.1-0.1-0.2v-0.6h-0.2v-0.1h0.1c0.1,0,0.1,0,0.1-0.1V539.3z"/>
		<path class="st1" d="M-681.4,539.8C-681.4,539.8-681.4,539.8-681.4,539.8c0.1,0.1,0.1,0.1,0.1,0.1c0,0,0,0.1,0.1,0.1
			c0,0,0,0.1,0,0.1c0,0.1,0,0.2-0.1,0.3s-0.2,0.1-0.3,0.1h-0.6v-1.4h0.5c0.1,0,0.2,0,0.3,0.1c0.1,0.1,0.1,0.1,0.1,0.2
			c0,0,0,0.1,0,0.1c0,0,0,0.1,0,0.1C-681.4,539.7-681.4,539.8-681.4,539.8C-681.4,539.8-681.4,539.8-681.4,539.8L-681.4,539.8
			C-681.5,539.8-681.4,539.8-681.4,539.8z M-682.1,539.3v0.4h0.4c0.1,0,0.1,0,0.2-0.1c0,0,0.1-0.1,0.1-0.2c0-0.1,0-0.1-0.1-0.2
			c0,0-0.1-0.1-0.2-0.1H-682.1z M-681.7,540.4c0.1,0,0.1,0,0.2-0.1c0,0,0.1-0.1,0.1-0.2c0-0.1,0-0.1-0.1-0.2c0-0.1-0.1-0.1-0.2-0.1
			h-0.4v0.5H-681.7z"/>
	</g>
	<g>
		<path class="st1" d="M-686.5,541.8h0.3l0.4,1.1l0.4-1.1h0.3l-0.5,1.4h-0.3L-686.5,541.8z"/>
		<path class="st1" d="M-684.6,543.1C-684.6,543.1-684.6,543.1-684.6,543.1c0,0-0.1,0.1-0.1,0.1c0,0-0.1,0-0.2,0
			c-0.1,0-0.2,0-0.2-0.1s-0.1-0.1-0.1-0.2c0-0.1,0-0.2,0.1-0.2c0.1-0.1,0.1-0.1,0.2-0.1l0.3-0.1c0,0,0-0.1,0-0.1c0,0-0.1,0-0.1,0
			c0,0-0.1,0-0.1,0c0,0-0.1,0-0.1,0.1l0,0l-0.2-0.2c0,0,0,0,0,0c0,0,0,0,0,0c0,0,0.1,0,0.1-0.1c0,0,0.1,0,0.1,0s0.1,0,0.1,0
			c0.1,0,0.2,0,0.3,0.1s0.1,0.2,0.1,0.3v0.6h-0.3V543.1z M-684.6,542.9c0,0,0.1-0.1,0.1-0.2v0l-0.2,0c-0.1,0-0.1,0-0.1,0.1
			c0,0.1,0,0.1,0.1,0.1C-684.7,543-684.6,543-684.6,542.9z"/>
		<path class="st1" d="M-683.7,543.2h-0.3v-1.4h0.3V543.2z"/>
		<path class="st1" d="M-682.8,543.1C-682.8,543.1-682.8,543.1-682.8,543.1c0,0-0.1,0.1-0.1,0.1c0,0-0.1,0-0.2,0
			c-0.1,0-0.2,0-0.3-0.1c-0.1-0.1-0.1-0.2-0.1-0.3v-0.6h0.3v0.6c0,0.1,0,0.1,0.1,0.1c0,0,0.1,0.1,0.1,0.1c0.1,0,0.1,0,0.1-0.1
			c0,0,0.1-0.1,0.1-0.2v-0.5h0.3v1h-0.3V543.1z"/>
		<path class="st1" d="M-682,542.8c0,0.1,0,0.1,0.1,0.1c0,0,0.1,0.1,0.2,0.1c0.1,0,0.1,0,0.1,0c0,0,0.1,0,0.1-0.1l0,0l0.1,0.2l0,0
			c0,0,0,0-0.1,0c0,0-0.1,0-0.1,0.1c0,0-0.1,0-0.1,0c0,0-0.1,0-0.2,0c-0.1,0-0.3-0.1-0.4-0.2c-0.1-0.1-0.2-0.2-0.2-0.4
			s0.1-0.3,0.2-0.4c0.1-0.1,0.2-0.2,0.4-0.2c0.1,0,0.3,0,0.4,0.1c0.1,0.1,0.1,0.2,0.1,0.4l0,0.1H-682z M-681.9,542.5
			c0,0-0.1,0.1-0.1,0.1h0.5c0-0.1,0-0.1-0.1-0.1c0,0-0.1-0.1-0.1-0.1C-681.8,542.4-681.9,542.4-681.9,542.5z"/>
		<path class="st1" d="M-680.6,543.2v-1.4h0.6c0.1,0,0.2,0,0.3,0.1c0.1,0.1,0.1,0.2,0.1,0.3c0,0,0,0.1,0,0.1c0,0,0,0.1,0,0.1
			c0,0,0,0,0,0.1c0,0,0,0,0,0l0,0c0,0,0,0,0,0c0,0,0,0,0.1,0c0,0,0.1,0,0.1,0.1c0,0,0,0.1,0.1,0.1c0,0,0,0.1,0,0.1
			c0,0.1,0,0.2-0.1,0.3c-0.1,0.1-0.2,0.1-0.3,0.1H-680.6z M-680.3,542v0.3h0.3c0.1,0,0.1,0,0.1,0c0,0,0-0.1,0-0.1s0-0.1,0-0.1
			c0,0-0.1,0-0.1,0H-680.3z M-680,542.9c0.1,0,0.1,0,0.1-0.1c0,0,0.1-0.1,0.1-0.1c0-0.1,0-0.1-0.1-0.1c0,0-0.1-0.1-0.1-0.1h-0.3v0.4
			H-680z"/>
	</g>
	<g class="st4">
		<path class="st1" d="M-685.5,545.5v0.1h-0.4v1.2h-0.1v-1.2h-0.4v-0.1H-685.5z"/>
		<path class="st1" d="M-685,546.1L-685,546.1c-0.1,0-0.2,0-0.3,0.1c-0.1,0.1-0.1,0.1-0.1,0.2v0.5h-0.1v-0.9h0.1v0.1c0,0,0,0,0,0
			c0,0,0,0,0,0c0,0,0,0,0.1,0c0,0,0.1,0,0.1,0c0,0,0.1,0,0.1,0h0V546.1z"/>
		<path class="st1" d="M-684.2,546.3c0-0.1,0-0.1-0.1-0.2c0,0-0.1-0.1-0.2-0.1c0,0-0.1,0-0.1,0c0,0-0.1,0-0.1,0.1l0,0l-0.1-0.1
			c0,0,0,0,0,0c0,0,0,0,0,0s0,0,0.1-0.1c0,0,0.1,0,0.1,0c0,0,0.1,0,0.1,0c0.1,0,0.2,0,0.3,0.1c0.1,0.1,0.1,0.2,0.1,0.3v0.6h-0.1
			v-0.1c0,0,0,0,0,0c0,0,0,0,0,0c0,0,0,0-0.1,0c0,0,0,0-0.1,0c0,0-0.1,0-0.1,0c-0.1,0-0.2,0-0.2-0.1c-0.1-0.1-0.1-0.1-0.1-0.2
			c0-0.1,0-0.1,0.1-0.2c0,0,0.1-0.1,0.2-0.1L-684.2,546.3z M-684.3,546.7c0.1-0.1,0.1-0.1,0.1-0.2v-0.1l-0.3,0.1
			c-0.1,0-0.2,0.1-0.2,0.2c0,0,0,0.1,0.1,0.1c0,0,0.1,0,0.1,0C-684.4,546.8-684.4,546.7-684.3,546.7z"/>
		<path class="st1" d="M-683.8,545.6C-683.8,545.6-683.7,545.5-683.8,545.6c0.1,0,0.1,0,0.1,0c0,0,0,0,0,0.1c0,0,0,0,0,0.1
			c0,0,0,0-0.1,0c0,0,0,0-0.1,0C-683.8,545.7-683.8,545.7-683.8,545.6C-683.8,545.6-683.8,545.6-683.8,545.6z M-683.8,545.9h0.1v0.9
			h-0.1V545.9z"/>
		<path class="st1" d="M-683.2,545.6h0.1v0.3h0.2v0.1h-0.2v0.6c0,0.1,0,0.1,0.1,0.1c0,0,0,0,0.1,0c0,0,0,0,0,0l0,0v0.1
			c0,0-0.1,0-0.1,0c-0.1,0-0.1,0-0.2-0.1c0,0-0.1-0.1-0.1-0.2v-0.6h-0.2v-0.1h0.1c0.1,0,0.1,0,0.1-0.1V545.6z"/>
		<path class="st1" d="M-682.1,545.7c0.1-0.1,0.3-0.2,0.5-0.2c0.1,0,0.1,0,0.2,0c0.1,0,0.1,0,0.2,0.1c0,0,0.1,0.1,0.1,0.1
			c0,0,0.1,0.1,0.1,0.1l0,0l-0.1,0.1c0,0,0,0,0,0c0,0,0,0-0.1-0.1c0,0-0.1,0-0.1-0.1c0,0-0.1,0-0.1-0.1c-0.1,0-0.1,0-0.2,0
			c-0.2,0-0.3,0.1-0.4,0.2c-0.1,0.1-0.2,0.2-0.2,0.4c0,0.2,0.1,0.3,0.2,0.4c0.1,0.1,0.2,0.2,0.4,0.2c0.1,0,0.1,0,0.2,0
			c0.1,0,0.1,0,0.1-0.1c0,0,0.1,0,0.1-0.1c0,0,0,0,0.1-0.1l0,0l0.1,0.1c0,0,0,0,0,0c0,0,0,0-0.1,0.1c0,0-0.1,0.1-0.1,0.1
			c0,0-0.1,0-0.2,0.1c-0.1,0-0.1,0-0.2,0c-0.2,0-0.4-0.1-0.5-0.2c-0.1-0.1-0.2-0.3-0.2-0.5C-682.3,546-682.2,545.8-682.1,545.7z"/>
	</g>
	<g>
		<path class="st1" d="M-686.5,548.1h0.3l0.4,1.1l0.4-1.1h0.3l-0.5,1.4h-0.3L-686.5,548.1z"/>
		<path class="st1" d="M-684.6,549.4C-684.6,549.4-684.6,549.4-684.6,549.4c0,0-0.1,0.1-0.1,0.1c0,0-0.1,0-0.2,0
			c-0.1,0-0.2,0-0.2-0.1s-0.1-0.1-0.1-0.2c0-0.1,0-0.2,0.1-0.2c0.1-0.1,0.1-0.1,0.2-0.1l0.3-0.1c0,0,0-0.1,0-0.1c0,0-0.1,0-0.1,0
			c0,0-0.1,0-0.1,0c0,0-0.1,0-0.1,0.1l0,0l-0.2-0.2c0,0,0,0,0,0c0,0,0,0,0,0c0,0,0.1,0,0.1-0.1c0,0,0.1,0,0.1,0c0,0,0.1,0,0.1,0
			c0.1,0,0.2,0,0.3,0.1c0.1,0.1,0.1,0.2,0.1,0.3v0.6h-0.3V549.4z M-684.6,549.3c0,0,0.1-0.1,0.1-0.2v0l-0.2,0c-0.1,0-0.1,0-0.1,0.1
			c0,0.1,0,0.1,0.1,0.1C-684.7,549.3-684.6,549.3-684.6,549.3z"/>
		<path class="st1" d="M-683.7,549.5h-0.3v-1.4h0.3V549.5z"/>
		<path class="st1" d="M-682.8,549.4C-682.8,549.4-682.8,549.4-682.8,549.4c0,0-0.1,0.1-0.1,0.1c0,0-0.1,0-0.2,0
			c-0.1,0-0.2,0-0.3-0.1c-0.1-0.1-0.1-0.2-0.1-0.3v-0.6h0.3v0.6c0,0.1,0,0.1,0.1,0.1c0,0,0.1,0.1,0.1,0.1c0.1,0,0.1,0,0.1-0.1
			c0,0,0.1-0.1,0.1-0.2v-0.5h0.3v1h-0.3V549.4z"/>
		<path class="st1" d="M-682,549.1c0,0.1,0,0.1,0.1,0.1c0,0,0.1,0.1,0.2,0.1c0.1,0,0.1,0,0.1,0c0,0,0.1,0,0.1-0.1l0,0l0.1,0.2l0,0
			c0,0,0,0-0.1,0c0,0-0.1,0-0.1,0.1c0,0-0.1,0-0.1,0c0,0-0.1,0-0.2,0c-0.1,0-0.3-0.1-0.4-0.2c-0.1-0.1-0.2-0.2-0.2-0.4
			c0-0.1,0.1-0.3,0.2-0.4c0.1-0.1,0.2-0.2,0.4-0.2c0.1,0,0.3,0,0.4,0.1c0.1,0.1,0.1,0.2,0.1,0.4l0,0.1H-682z M-681.9,548.8
			c0,0-0.1,0.1-0.1,0.1h0.5c0-0.1,0-0.1-0.1-0.1c0,0-0.1-0.1-0.1-0.1C-681.8,548.7-681.9,548.8-681.9,548.8z"/>
		<path class="st1" d="M-679.7,548.1c0.1,0,0.1,0,0.2,0.1c0,0,0.1,0.1,0.1,0.1c0,0,0.1,0.1,0.1,0.1l0,0l-0.2,0.2c0,0,0,0,0,0
			c0,0,0,0,0,0c0,0-0.1,0-0.1-0.1c0,0-0.1,0-0.1,0c0,0-0.1,0-0.1,0c-0.1,0-0.2,0-0.3,0.1s-0.1,0.2-0.1,0.3c0,0.1,0,0.2,0.1,0.3
			s0.2,0.1,0.3,0.1c0.1,0,0.1,0,0.1,0c0,0,0.1,0,0.1-0.1c0,0,0.1,0,0.1-0.1c0,0,0,0,0.1-0.1l0,0l0.2,0.2c0,0,0,0,0,0
			c0,0,0,0-0.1,0.1c0,0-0.1,0.1-0.1,0.1c0,0-0.1,0-0.2,0.1c-0.1,0-0.1,0-0.2,0c-0.2,0-0.4-0.1-0.6-0.2c-0.2-0.1-0.2-0.3-0.2-0.5
			c0-0.2,0.1-0.4,0.2-0.5c0.1-0.1,0.3-0.2,0.6-0.2C-679.8,548.1-679.7,548.1-679.7,548.1z"/>
	</g>
	<g class="st4">
		<path class="st1" d="M-670.4,539.2v0.1h-0.4v1.2h-0.1v-1.2h-0.4v-0.1H-670.4z"/>
		<path class="st1" d="M-669.8,539.7L-669.8,539.7c-0.1,0-0.2,0-0.3,0.1c-0.1,0.1-0.1,0.1-0.1,0.2v0.5h-0.1v-0.9h0.1v0.1
			c0,0,0,0,0,0c0,0,0,0,0,0c0,0,0,0,0.1,0c0,0,0.1,0,0.1,0c0,0,0.1,0,0.1,0h0V539.7z"/>
		<path class="st1" d="M-669.1,540c0-0.1,0-0.1-0.1-0.2c0,0-0.1-0.1-0.2-0.1c0,0-0.1,0-0.1,0c0,0-0.1,0-0.1,0.1l0,0l-0.1-0.1
			c0,0,0,0,0,0c0,0,0,0,0,0c0,0,0,0,0.1-0.1c0,0,0.1,0,0.1,0c0,0,0.1,0,0.1,0c0.1,0,0.2,0,0.3,0.1c0.1,0.1,0.1,0.2,0.1,0.3v0.6h-0.1
			v-0.1c0,0,0,0,0,0c0,0,0,0,0,0c0,0,0,0-0.1,0c0,0,0,0-0.1,0c0,0-0.1,0-0.1,0c-0.1,0-0.2,0-0.2-0.1c-0.1-0.1-0.1-0.1-0.1-0.2
			c0-0.1,0-0.1,0.1-0.2c0,0,0.1-0.1,0.2-0.1L-669.1,540z M-669.2,540.3c0.1-0.1,0.1-0.1,0.1-0.2v-0.1l-0.3,0.1
			c-0.1,0-0.2,0.1-0.2,0.2c0,0,0,0.1,0.1,0.1c0,0,0.1,0,0.1,0C-669.3,540.4-669.2,540.4-669.2,540.3z"/>
		<path class="st1" d="M-668.6,539.2C-668.6,539.2-668.6,539.2-668.6,539.2c0.1,0,0.1,0,0.1,0c0,0,0,0,0,0.1s0,0,0,0.1
			c0,0,0,0-0.1,0c0,0,0,0-0.1,0C-668.6,539.4-668.7,539.3-668.6,539.2C-668.7,539.3-668.6,539.3-668.6,539.2z M-668.6,539.6h0.1v0.9
			h-0.1V539.6z"/>
		<path class="st1" d="M-668.1,539.3h0.1v0.3h0.2v0.1h-0.2v0.6c0,0.1,0,0.1,0.1,0.1c0,0,0,0,0.1,0c0,0,0,0,0,0l0,0v0.1
			c0,0-0.1,0-0.1,0c-0.1,0-0.1,0-0.2-0.1c0,0-0.1-0.1-0.1-0.2v-0.6h-0.2v-0.1h0.1c0.1,0,0.1,0,0.1-0.1V539.3z"/>
		<path class="st1" d="M-666.6,539.2c0.2,0,0.4,0.1,0.5,0.2c0.1,0.1,0.2,0.3,0.2,0.5c0,0.2-0.1,0.3-0.2,0.5
			c-0.1,0.1-0.3,0.2-0.5,0.2h-0.4v-1.4H-666.6z M-666.9,539.3v1.1h0.3c0.2,0,0.3-0.1,0.4-0.2c0.1-0.1,0.2-0.2,0.2-0.4
			s-0.1-0.3-0.2-0.4c-0.1-0.1-0.2-0.2-0.4-0.2H-666.9z"/>
	</g>
	<g class="st4">
		<path class="st1" d="M-658.6,539.2c0.1,0,0.2,0,0.3,0.1c0.1,0.1,0.1,0.2,0.1,0.3c0,0.1,0,0.1,0,0.2c0,0,0,0.1-0.1,0.1
			c0,0-0.1,0-0.1,0.1c0,0-0.1,0-0.1,0l0,0l0.3,0.6h-0.2l-0.3-0.5h-0.4v0.5h-0.1v-1.4H-658.6z M-659,539.3v0.5h0.4
			c0.1,0,0.1,0,0.2-0.1c0,0,0.1-0.1,0.1-0.2c0-0.1,0-0.1-0.1-0.2c0,0-0.1-0.1-0.2-0.1H-659z"/>
		<path class="st1" d="M-657.9,539.2C-657.9,539.2-657.9,539.2-657.9,539.2c0.1,0,0.1,0,0.1,0c0,0,0,0,0,0.1s0,0,0,0.1
			c0,0,0,0-0.1,0s0,0-0.1,0C-657.9,539.4-657.9,539.3-657.9,539.2C-657.9,539.3-657.9,539.3-657.9,539.2z M-657.9,539.6h0.1v0.9
			h-0.1V539.6z"/>
		<path class="st1" d="M-657,539.8C-657,539.8-657,539.8-657,539.8C-657,539.8-657.1,539.8-657,539.8c-0.1-0.1-0.2-0.1-0.2-0.1
			c-0.1,0-0.1,0-0.1,0c0,0,0,0.1,0,0.1c0,0,0,0.1,0.1,0.1c0,0,0.1,0,0.1,0.1c0,0,0.1,0,0.1,0c0,0,0.1,0,0.1,0.1c0,0,0.1,0.1,0.1,0.2
			c0,0.1,0,0.1-0.1,0.2c-0.1,0.1-0.1,0.1-0.2,0.1c0,0-0.1,0-0.1,0c0,0-0.1,0-0.1,0s0,0-0.1,0c0,0,0,0,0,0l0,0l0.1-0.1c0,0,0,0,0,0
			c0,0,0,0,0,0c0,0,0,0,0,0s0,0,0.1,0c0,0,0.1,0,0.1,0c0.1,0,0.1,0,0.2,0c0,0,0.1-0.1,0.1-0.1c0,0,0-0.1-0.1-0.1c0,0-0.1,0-0.1-0.1
			c0,0-0.1,0-0.1,0c0,0-0.1,0-0.1-0.1c0,0-0.1-0.1-0.1-0.1c0-0.1,0-0.1,0.1-0.2c0.1-0.1,0.1-0.1,0.2-0.1c0,0,0.1,0,0.1,0
			c0,0,0.1,0,0.1,0c0,0,0,0,0.1,0c0,0,0,0,0,0L-657,539.8L-657,539.8z"/>
		<path class="st1" d="M-656.5,540.5h-0.1v-1.4h0.1v0.9l0.5-0.5h0.2l-0.4,0.4l0.4,0.6h-0.2l-0.3-0.5l-0.2,0.2V540.5z"/>
		<path class="st1" d="M-655.2,540.5v-1.4h0.1v1.2h0.7v0.1H-655.2z"/>
		<path class="st1" d="M-654.1,540.1c0,0.1,0,0.2,0.1,0.2c0.1,0.1,0.1,0.1,0.2,0.1c0.1,0,0.1,0,0.2,0c0,0,0.1-0.1,0.1-0.1l0,0
			l0.1,0.1c0,0,0,0,0,0c0,0,0,0,0,0c0,0,0,0-0.1,0.1c0,0-0.1,0-0.1,0c0,0-0.1,0-0.1,0c-0.1,0-0.2,0-0.3-0.1s-0.1-0.2-0.1-0.3
			c0-0.1,0-0.2,0.1-0.3c0.1-0.1,0.2-0.1,0.3-0.1c0.1,0,0.2,0,0.3,0.1c0.1,0.1,0.1,0.2,0.1,0.3l0,0.1L-654.1,540.1z M-654,539.8
			c-0.1,0.1-0.1,0.1-0.1,0.2h0.6c0-0.1,0-0.2-0.1-0.2c-0.1-0.1-0.1-0.1-0.2-0.1C-653.9,539.7-654,539.7-654,539.8z"/>
		<path class="st1" d="M-652.9,540.5l-0.4-0.9h0.1l0.3,0.7l0.3-0.7h0.1l-0.4,0.9H-652.9z"/>
		<path class="st1" d="M-652.1,540.1c0,0.1,0,0.2,0.1,0.2c0.1,0.1,0.1,0.1,0.2,0.1c0.1,0,0.1,0,0.2,0c0,0,0.1-0.1,0.1-0.1l0,0
			l0.1,0.1c0,0,0,0,0,0c0,0,0,0,0,0c0,0,0,0-0.1,0.1c0,0-0.1,0-0.1,0c0,0-0.1,0-0.1,0c-0.1,0-0.2,0-0.3-0.1s-0.1-0.2-0.1-0.3
			c0-0.1,0-0.2,0.1-0.3c0.1-0.1,0.2-0.1,0.3-0.1c0.1,0,0.2,0,0.3,0.1c0.1,0.1,0.1,0.2,0.1,0.3l0,0.1L-652.1,540.1z M-652,539.8
			c-0.1,0.1-0.1,0.1-0.1,0.2h0.6c0-0.1,0-0.2-0.1-0.2c-0.1-0.1-0.1-0.1-0.2-0.1C-651.9,539.7-651.9,539.7-652,539.8z"/>
		<path class="st1" d="M-650.9,540.5h-0.1v-1.4h0.1V540.5z"/>
	</g>
	<g>
		<path class="st1" d="M-671.4,541.8h0.3l0.4,1.1l0.4-1.1h0.3l-0.5,1.4h-0.3L-671.4,541.8z"/>
		<path class="st1" d="M-669.4,543.1C-669.4,543.1-669.4,543.1-669.4,543.1c0,0-0.1,0.1-0.1,0.1c0,0-0.1,0-0.2,0
			c-0.1,0-0.2,0-0.2-0.1s-0.1-0.1-0.1-0.2c0-0.1,0-0.2,0.1-0.2c0.1-0.1,0.1-0.1,0.2-0.1l0.3-0.1c0,0,0-0.1,0-0.1c0,0-0.1,0-0.1,0
			c0,0-0.1,0-0.1,0c0,0-0.1,0-0.1,0.1l0,0l-0.2-0.2c0,0,0,0,0,0c0,0,0,0,0,0c0,0,0.1,0,0.1-0.1c0,0,0.1,0,0.1,0s0.1,0,0.1,0
			c0.1,0,0.2,0,0.3,0.1c0.1,0.1,0.1,0.2,0.1,0.3v0.6h-0.3V543.1z M-669.5,542.9c0,0,0.1-0.1,0.1-0.2v0l-0.2,0c-0.1,0-0.1,0-0.1,0.1
			c0,0.1,0,0.1,0.1,0.1C-669.6,543-669.5,543-669.5,542.9z"/>
		<path class="st1" d="M-668.6,543.2h-0.3v-1.4h0.3V543.2z"/>
		<path class="st1" d="M-667.6,543.1C-667.6,543.1-667.7,543.1-667.6,543.1c0,0-0.1,0.1-0.1,0.1c0,0-0.1,0-0.2,0
			c-0.1,0-0.2,0-0.3-0.1c-0.1-0.1-0.1-0.2-0.1-0.3v-0.6h0.3v0.6c0,0.1,0,0.1,0.1,0.1c0,0,0.1,0.1,0.1,0.1c0.1,0,0.1,0,0.1-0.1
			c0,0,0.1-0.1,0.1-0.2v-0.5h0.3v1h-0.3V543.1z"/>
		<path class="st1" d="M-666.9,542.8c0,0.1,0,0.1,0.1,0.1c0,0,0.1,0.1,0.2,0.1c0.1,0,0.1,0,0.1,0c0,0,0.1,0,0.1-0.1l0,0l0.1,0.2l0,0
			c0,0,0,0-0.1,0c0,0-0.1,0-0.1,0.1c0,0-0.1,0-0.1,0c0,0-0.1,0-0.2,0c-0.1,0-0.3-0.1-0.4-0.2c-0.1-0.1-0.2-0.2-0.2-0.4
			s0.1-0.3,0.2-0.4c0.1-0.1,0.2-0.2,0.4-0.2c0.1,0,0.3,0,0.4,0.1c0.1,0.1,0.1,0.2,0.1,0.4l0,0.1H-666.9z M-666.8,542.5
			c0,0-0.1,0.1-0.1,0.1h0.5c0-0.1,0-0.1-0.1-0.1c0,0-0.1-0.1-0.1-0.1C-666.7,542.4-666.7,542.4-666.8,542.5z"/>
		<path class="st1" d="M-664.9,541.8c0.2,0,0.4,0.1,0.5,0.2c0.1,0.1,0.2,0.3,0.2,0.5c0,0.2-0.1,0.4-0.2,0.5
			c-0.1,0.1-0.3,0.2-0.5,0.2h-0.5v-1.4H-664.9z M-665.1,542v0.9h0.2c0.1,0,0.2,0,0.3-0.1c0.1-0.1,0.1-0.2,0.1-0.3
			c0-0.1,0-0.2-0.1-0.3c-0.1-0.1-0.2-0.1-0.3-0.1H-665.1z"/>
	</g>
	<g class="st4">
		<path class="st1" d="M-670.4,545.5v0.1h-0.4v1.2h-0.1v-1.2h-0.4v-0.1H-670.4z"/>
		<path class="st1" d="M-669.8,546.1L-669.8,546.1c-0.1,0-0.2,0-0.3,0.1c-0.1,0.1-0.1,0.1-0.1,0.2v0.5h-0.1v-0.9h0.1v0.1
			c0,0,0,0,0,0c0,0,0,0,0,0c0,0,0,0,0.1,0c0,0,0.1,0,0.1,0c0,0,0.1,0,0.1,0h0V546.1z"/>
		<path class="st1" d="M-669.1,546.3c0-0.1,0-0.1-0.1-0.2c0,0-0.1-0.1-0.2-0.1c0,0-0.1,0-0.1,0c0,0-0.1,0-0.1,0.1l0,0l-0.1-0.1
			c0,0,0,0,0,0c0,0,0,0,0,0s0,0,0.1-0.1c0,0,0.1,0,0.1,0c0,0,0.1,0,0.1,0c0.1,0,0.2,0,0.3,0.1c0.1,0.1,0.1,0.2,0.1,0.3v0.6h-0.1
			v-0.1c0,0,0,0,0,0c0,0,0,0,0,0c0,0,0,0-0.1,0c0,0,0,0-0.1,0c0,0-0.1,0-0.1,0c-0.1,0-0.2,0-0.2-0.1c-0.1-0.1-0.1-0.1-0.1-0.2
			c0-0.1,0-0.1,0.1-0.2c0,0,0.1-0.1,0.2-0.1L-669.1,546.3z M-669.2,546.7c0.1-0.1,0.1-0.1,0.1-0.2v-0.1l-0.3,0.1
			c-0.1,0-0.2,0.1-0.2,0.2c0,0,0,0.1,0.1,0.1c0,0,0.1,0,0.1,0C-669.3,546.8-669.2,546.7-669.2,546.7z"/>
		<path class="st1" d="M-668.6,545.6C-668.6,545.6-668.6,545.5-668.6,545.6c0.1,0,0.1,0,0.1,0c0,0,0,0,0,0.1c0,0,0,0,0,0.1
			c0,0,0,0-0.1,0c0,0,0,0-0.1,0C-668.6,545.7-668.7,545.7-668.6,545.6C-668.7,545.6-668.6,545.6-668.6,545.6z M-668.6,545.9h0.1v0.9
			h-0.1V545.9z"/>
		<path class="st1" d="M-668.1,545.6h0.1v0.3h0.2v0.1h-0.2v0.6c0,0.1,0,0.1,0.1,0.1c0,0,0,0,0.1,0c0,0,0,0,0,0l0,0v0.1
			c0,0-0.1,0-0.1,0c-0.1,0-0.1,0-0.2-0.1c0,0-0.1-0.1-0.1-0.2v-0.6h-0.2v-0.1h0.1c0.1,0,0.1,0,0.1-0.1V545.6z"/>
		<path class="st1" d="M-666.1,546.7v0.1h-0.9v-1.4h0.9v0.1h-0.8v0.4h0.6v0.1h-0.6v0.5H-666.1z"/>
	</g>
	<g>
		<path class="st1" d="M-671.4,548.1h0.3l0.4,1.1l0.4-1.1h0.3l-0.5,1.4h-0.3L-671.4,548.1z"/>
		<path class="st1" d="M-669.4,549.4C-669.4,549.4-669.4,549.4-669.4,549.4c0,0-0.1,0.1-0.1,0.1c0,0-0.1,0-0.2,0
			c-0.1,0-0.2,0-0.2-0.1s-0.1-0.1-0.1-0.2c0-0.1,0-0.2,0.1-0.2c0.1-0.1,0.1-0.1,0.2-0.1l0.3-0.1c0,0,0-0.1,0-0.1c0,0-0.1,0-0.1,0
			c0,0-0.1,0-0.1,0c0,0-0.1,0-0.1,0.1l0,0l-0.2-0.2c0,0,0,0,0,0c0,0,0,0,0,0c0,0,0.1,0,0.1-0.1c0,0,0.1,0,0.1,0c0,0,0.1,0,0.1,0
			c0.1,0,0.2,0,0.3,0.1c0.1,0.1,0.1,0.2,0.1,0.3v0.6h-0.3V549.4z M-669.5,549.3c0,0,0.1-0.1,0.1-0.2v0l-0.2,0c-0.1,0-0.1,0-0.1,0.1
			c0,0.1,0,0.1,0.1,0.1C-669.6,549.3-669.5,549.3-669.5,549.3z"/>
		<path class="st1" d="M-668.6,549.5h-0.3v-1.4h0.3V549.5z"/>
		<path class="st1" d="M-667.6,549.4C-667.6,549.4-667.7,549.4-667.6,549.4c0,0-0.1,0.1-0.1,0.1c0,0-0.1,0-0.2,0
			c-0.1,0-0.2,0-0.3-0.1c-0.1-0.1-0.1-0.2-0.1-0.3v-0.6h0.3v0.6c0,0.1,0,0.1,0.1,0.1c0,0,0.1,0.1,0.1,0.1c0.1,0,0.1,0,0.1-0.1
			c0,0,0.1-0.1,0.1-0.2v-0.5h0.3v1h-0.3V549.4z"/>
		<path class="st1" d="M-666.9,549.1c0,0.1,0,0.1,0.1,0.1c0,0,0.1,0.1,0.2,0.1c0.1,0,0.1,0,0.1,0c0,0,0.1,0,0.1-0.1l0,0l0.1,0.2l0,0
			c0,0,0,0-0.1,0c0,0-0.1,0-0.1,0.1s-0.1,0-0.1,0c0,0-0.1,0-0.2,0c-0.1,0-0.3-0.1-0.4-0.2c-0.1-0.1-0.2-0.2-0.2-0.4
			c0-0.1,0.1-0.3,0.2-0.4c0.1-0.1,0.2-0.2,0.4-0.2c0.1,0,0.3,0,0.4,0.1c0.1,0.1,0.1,0.2,0.1,0.4l0,0.1H-666.9z M-666.8,548.8
			c0,0-0.1,0.1-0.1,0.1h0.5c0-0.1,0-0.1-0.1-0.1c0,0-0.1-0.1-0.1-0.1C-666.7,548.7-666.7,548.8-666.8,548.8z"/>
		<path class="st1" d="M-664.4,549.2v0.3h-1.1v-1.4h1.1v0.3h-0.7v0.3h0.6v0.3h-0.6v0.3H-664.4z"/>
	</g>
	<g>
		<path class="st5" d="M-655.1,545.8l-1.6-2.2v3.3h-0.4v-4.1h0.4l1.7,2.2l1.7-2.2h0.4v4.1h-0.4v-3.3L-655.1,545.8z"/>
	</g>
	<g>
		<path class="st5" d="M-657,548.2l-0.4-0.5v0.8h-0.1v-1h0.1l0.4,0.5l0.4-0.5h0.1v1h-0.1v-0.8L-657,548.2z"/>
		<path class="st5" d="M-656.2,548.2c0,0.1,0,0.1,0.1,0.2c0,0,0.1,0.1,0.2,0.1c0,0,0.1,0,0.1,0c0,0,0.1,0,0.1-0.1l0,0l0.1,0.1
			c0,0,0,0,0,0c0,0,0,0,0,0c0,0,0,0-0.1,0c0,0,0,0-0.1,0c0,0-0.1,0-0.1,0c-0.1,0-0.2,0-0.2-0.1S-656.3,548.3-656.2,548.2
			c-0.1-0.1-0.1-0.2,0-0.3c0.1-0.1,0.1-0.1,0.2-0.1c0.1,0,0.2,0,0.2,0.1c0.1,0.1,0.1,0.1,0.1,0.2l0,0L-656.2,548.2z M-656.1,548
			c0,0-0.1,0.1-0.1,0.1h0.4c0-0.1,0-0.1-0.1-0.1c0,0-0.1-0.1-0.1-0.1C-656.1,547.9-656.1,547.9-656.1,548z"/>
		<path class="st5" d="M-655,547.6L-655,547.6l0.1,1h-0.1v-0.1c0,0,0,0,0,0c0,0,0,0,0,0s0,0,0,0c0,0,0,0-0.1,0c0,0-0.1,0-0.1,0
			c-0.1,0-0.2,0-0.2-0.1c-0.1-0.1-0.1-0.1-0.1-0.2c0-0.1,0-0.2,0.1-0.2c0.1-0.1,0.1-0.1,0.2-0.1c0,0,0.1,0,0.1,0c0,0,0,0,0.1,0
			c0,0,0,0,0,0c0,0,0,0,0,0l0,0V547.6z M-655.1,548c0-0.1-0.1-0.1-0.2-0.1c-0.1,0-0.1,0-0.2,0.1c0,0-0.1,0.1-0.1,0.2
			c0,0.1,0,0.1,0.1,0.2c0,0,0.1,0.1,0.2,0.1c0.1,0,0.1,0,0.2-0.1c0-0.1,0.1-0.1,0.1-0.2C-655,548.1-655,548.1-655.1,548z"/>
		<path class="st5" d="M-654.7,547.6C-654.7,547.6-654.7,547.6-654.7,547.6C-654.6,547.6-654.6,547.6-654.7,547.6c0.1,0,0.1,0,0.1,0
			C-654.6,547.7-654.6,547.7-654.7,547.6c0.1,0.1,0.1,0.1,0,0.1C-654.7,547.7-654.7,547.7-654.7,547.6
			C-654.7,547.7-654.7,547.7-654.7,547.6C-654.7,547.6-654.7,547.6-654.7,547.6z M-654.7,547.9L-654.7,547.9l0.1,0.7h-0.1V547.9z"/>
		<path class="st5" d="M-653.9,548.4C-653.9,548.4-653.9,548.4-653.9,548.4C-653.9,548.4-653.9,548.4-653.9,548.4
			C-653.9,548.5-654,548.5-653.9,548.4c-0.1,0.1-0.1,0.1-0.1,0.1s0,0-0.1,0c-0.1,0-0.1,0-0.2-0.1c-0.1-0.1-0.1-0.1-0.1-0.2v-0.4h0.1
			v0.4c0,0.1,0,0.1,0.1,0.1c0,0,0.1,0.1,0.1,0.1C-654,548.4-654,548.4-653.9,548.4c0-0.1,0-0.1,0-0.2v-0.4h0.1L-653.9,548.4
			L-653.9,548.4L-653.9,548.4z"/>
		<path class="st5" d="M-652.7,548.1c0-0.1,0-0.1,0-0.1c0,0-0.1,0-0.1,0c-0.1,0-0.1,0-0.1,0.1c0,0-0.1,0.1-0.1,0.2v0.4h-0.1v-0.4
			c0-0.1,0-0.1,0-0.1c0,0-0.1-0.1-0.1-0.1c-0.1,0-0.1,0-0.1,0.1c0,0-0.1,0.1-0.1,0.2v0.4h-0.1v-0.7h0.1v0.1c0,0,0,0,0,0c0,0,0,0,0,0
			c0,0,0,0,0,0c0,0,0,0,0.1,0c0,0,0,0,0.1,0c0,0,0.1,0,0.1,0c0,0,0,0,0.1,0c0,0,0,0,0,0c0,0,0,0,0,0l0,0c0,0,0,0,0,0c0,0,0,0,0,0
			c0,0,0,0,0,0c0,0,0,0,0.1,0c0,0,0.1,0,0.1,0c0.1,0,0.1,0,0.2,0.1C-652.6,548-652.6,548-652.7,548.1l0.1,0.4h-0.1V548.1z"/>
	</g>
	<g>
		<path class="st0" d="M-673.2,553.9c0.2-0.2,0.4-0.3,0.7-0.3c0.1,0,0.2,0,0.3,0s0.2,0.1,0.2,0.1c0.1,0,0.1,0.1,0.2,0.1
			c0,0,0.1,0.1,0.1,0.1l0,0l-0.1,0.1c0,0,0,0,0,0c0,0,0,0-0.1-0.1c0,0-0.1-0.1-0.1-0.1c0,0-0.1-0.1-0.2-0.1c-0.1,0-0.2,0-0.2,0
			c-0.2,0-0.4,0.1-0.6,0.2c-0.2,0.2-0.2,0.4-0.2,0.6s0.1,0.4,0.2,0.6c0.2,0.2,0.4,0.2,0.6,0.2c0.1,0,0.2,0,0.2,0
			c0.1,0,0.1-0.1,0.2-0.1c0.1,0,0.1-0.1,0.1-0.1c0,0,0.1-0.1,0.1-0.1l0,0l0.1,0.1c0,0,0,0,0,0s0,0.1-0.1,0.1c-0.1,0-0.1,0.1-0.2,0.1
			c-0.1,0-0.1,0.1-0.2,0.1c-0.1,0-0.2,0-0.3,0c-0.3,0-0.5-0.1-0.7-0.3c-0.2-0.2-0.3-0.4-0.3-0.7S-673.4,554.1-673.2,553.9z"/>
		<path class="st0" d="M-671.1,554.4C-671.1,554.4-671.1,554.4-671.1,554.4C-671,554.4-671,554.4-671.1,554.4
			c0.1-0.1,0.1-0.1,0.2-0.2c0,0,0.1,0,0.1-0.1s0.1,0,0.2,0c0.2,0,0.3,0.1,0.4,0.2c0.1,0.1,0.2,0.3,0.2,0.4v0.8h-0.2v-0.8
			c0-0.1,0-0.2-0.1-0.3c-0.1-0.1-0.2-0.1-0.3-0.1c-0.1,0-0.2,0-0.3,0.1s-0.1,0.2-0.1,0.3v0.8h-0.2v-2h0.2V554.4z"/>
		<path class="st0" d="M-669.5,554.4c0.1-0.1,0.3-0.2,0.5-0.2c0.2,0,0.4,0.1,0.5,0.2c0.1,0.1,0.2,0.3,0.2,0.5c0,0.2-0.1,0.4-0.2,0.5
			c-0.1,0.1-0.3,0.2-0.5,0.2c-0.2,0-0.4-0.1-0.5-0.2c-0.1-0.1-0.2-0.3-0.2-0.5C-669.7,554.7-669.6,554.6-669.5,554.4z M-668.6,554.6
			c-0.1-0.1-0.2-0.2-0.4-0.2s-0.3,0.1-0.4,0.2c-0.1,0.1-0.1,0.2-0.1,0.4c0,0.1,0,0.3,0.1,0.4c0.1,0.1,0.2,0.2,0.4,0.2
			s0.3-0.1,0.4-0.2c0.1-0.1,0.1-0.2,0.1-0.4C-668.5,554.8-668.5,554.7-668.6,554.6z"/>
		<path class="st0" d="M-667.8,554.4c0.1-0.1,0.3-0.2,0.5-0.2c0.2,0,0.4,0.1,0.5,0.2c0.1,0.1,0.2,0.3,0.2,0.5c0,0.2-0.1,0.4-0.2,0.5
			c-0.1,0.1-0.3,0.2-0.5,0.2c-0.2,0-0.4-0.1-0.5-0.2c-0.1-0.1-0.2-0.3-0.2-0.5C-668,554.7-668,554.6-667.8,554.4z M-667,554.6
			c-0.1-0.1-0.2-0.2-0.4-0.2s-0.3,0.1-0.4,0.2c-0.1,0.1-0.1,0.2-0.1,0.4c0,0.1,0,0.3,0.1,0.4c0.1,0.1,0.2,0.2,0.4,0.2
			s0.3-0.1,0.4-0.2c0.1-0.1,0.1-0.2,0.1-0.4C-666.8,554.8-666.9,554.7-667,554.6z"/>
		<path class="st0" d="M-665.6,554.5C-665.6,554.5-665.6,554.5-665.6,554.5c0-0.1-0.1-0.1-0.1-0.1s-0.1,0-0.2,0
			c-0.1,0-0.1,0-0.2,0.1c0,0-0.1,0.1-0.1,0.1c0,0.1,0,0.1,0.1,0.1s0.1,0.1,0.2,0.1c0.1,0,0.1,0,0.2,0.1c0.1,0,0.1,0.1,0.2,0.1
			s0.1,0.1,0.1,0.2c0,0.1,0,0.2-0.1,0.3c-0.1,0.1-0.2,0.1-0.4,0.1c-0.1,0-0.1,0-0.2,0c-0.1,0-0.1,0-0.1-0.1s-0.1,0-0.1-0.1
			c0,0,0,0-0.1-0.1l0,0l0.1-0.1c0,0,0,0,0,0c0,0,0,0,0,0c0,0,0,0,0.1,0.1s0.1,0,0.1,0s0.1,0,0.1,0c0.1,0,0.2,0,0.2-0.1
			c0.1,0,0.1-0.1,0.1-0.2c0-0.1,0-0.1-0.1-0.1c-0.1,0-0.1-0.1-0.2-0.1s-0.1,0-0.2-0.1c-0.1,0-0.1-0.1-0.2-0.1
			c-0.1-0.1-0.1-0.1-0.1-0.2c0-0.1,0-0.2,0.1-0.3c0.1-0.1,0.2-0.1,0.3-0.1c0.1,0,0.1,0,0.2,0s0.1,0,0.1,0s0.1,0,0.1,0.1
			c0,0,0,0,0.1,0l0,0L-665.6,554.5z"/>
		<path class="st0" d="M-664.9,555c0,0.1,0.1,0.2,0.2,0.3c0.1,0.1,0.2,0.1,0.3,0.1c0.1,0,0.2,0,0.2-0.1c0.1,0,0.1-0.1,0.2-0.1l0-0.1
			l0.1,0.1c0,0,0,0,0,0c0,0,0,0-0.1,0.1c0,0-0.1,0.1-0.1,0.1c0,0-0.1,0-0.2,0.1c-0.1,0-0.1,0-0.2,0c-0.2,0-0.4-0.1-0.5-0.2
			s-0.2-0.3-0.2-0.5s0.1-0.4,0.2-0.5c0.1-0.1,0.3-0.2,0.5-0.2c0.2,0,0.3,0.1,0.5,0.2c0.1,0.1,0.2,0.3,0.2,0.5l0,0.1L-664.9,555z
			 M-664.8,554.5c-0.1,0.1-0.1,0.2-0.2,0.3h0.9c0-0.1-0.1-0.2-0.2-0.3s-0.2-0.1-0.3-0.1S-664.7,554.4-664.8,554.5z"/>
	</g>
</g>
<g>
	<path id="XMLID_749_" class="st0" d="M-696.5,568.5h-64.3c-1.6,0-2.9-1.3-2.9-2.9v-48.3c0-1.6,1.3-2.9,2.9-2.9h64.3
		c1.6,0,2.9,1.3,2.9,2.9v48.3C-693.6,567.2-694.9,568.5-696.5,568.5z"/>
	<path id="XMLID_750_" class="st1" d="M-747.3,533.5h-6.8c-1.6,0-2.9-1.3-2.9-2.9v-6.8c0-1.6,1.3-2.9,2.9-2.9h6.8
		c1.6,0,2.9,1.3,2.9,2.9v6.8C-744.3,532.2-745.7,533.5-747.3,533.5z"/>
	<path id="XMLID_219_" class="st1" d="M-712,565.6h-33.2c-1.2,0-2.1-0.9-2.1-2.1v-3.7c0-1.2,0.9-2.1,2.1-2.1h33.2
		c1.2,0,2.1,0.9,2.1,2.1v3.7C-709.9,564.7-710.9,565.6-712,565.6z"/>
	<path id="XMLID_209_" class="st7" d="M-703.8,553.6h-8.2c-1,0-1.8-0.8-1.8-1.8v-8.2c0-1,0.8-1.8,1.8-1.8h8.2c1,0,1.8,0.8,1.8,1.8
		v8.2C-702.1,552.8-702.9,553.6-703.8,553.6z"/>
	<g>
		<path class="st1" d="M-739.4,522.8v0.6h-1.3v3.6h-0.7v-3.6h-1.3v-0.6H-739.4z"/>
		<path class="st1" d="M-737.8,524.6c-0.2,0-0.4,0.1-0.5,0.2c-0.1,0.1-0.2,0.4-0.2,0.6v1.6h-0.6v-2.9h0.6v0.3l0,0c0,0,0.1,0,0.1-0.1
			c0.1,0,0.1-0.1,0.2-0.1c0.1,0,0.1-0.1,0.2-0.1c0.1,0,0.2,0,0.3,0h0.2v0.6C-737.6,524.6-737.7,524.6-737.8,524.6z"/>
		<path class="st1" d="M-735.4,527v-0.3c0,0,0,0,0,0s-0.1,0-0.1,0.1c-0.1,0-0.1,0.1-0.2,0.1c-0.1,0-0.1,0.1-0.2,0.1
			c-0.1,0-0.2,0-0.3,0c-0.3,0-0.5-0.1-0.7-0.3c-0.2-0.2-0.3-0.4-0.3-0.6c0-0.2,0.1-0.4,0.2-0.6c0.2-0.2,0.4-0.3,0.6-0.3l1.1-0.2
			c0-0.2-0.1-0.3-0.2-0.4c-0.1-0.1-0.3-0.2-0.4-0.2c-0.2,0-0.3,0-0.4,0.1s-0.2,0.1-0.3,0.2l-0.1,0.1l-0.4-0.4c0,0,0,0,0-0.1
			c0,0,0.1-0.1,0.1-0.1c0.1-0.1,0.1-0.1,0.2-0.2c0.1,0,0.2-0.1,0.3-0.1c0.1,0,0.3-0.1,0.4-0.1c0.4,0,0.6,0.1,0.9,0.3
			c0.2,0.2,0.3,0.5,0.3,0.8v1.9H-735.4z M-735.6,526.3c0.1-0.1,0.2-0.4,0.2-0.6v-0.1l-0.9,0.2c-0.1,0-0.2,0.1-0.3,0.1
			c-0.1,0.1-0.1,0.2-0.1,0.3c0,0.1,0,0.2,0.1,0.3c0.1,0.1,0.2,0.1,0.4,0.1C-735.9,526.5-735.7,526.4-735.6,526.3z"/>
		<path class="st1" d="M-732.4,524.1c0.1,0,0.2,0.1,0.3,0.1c0.1,0,0.1,0.1,0.2,0.1c0.1,0,0.1,0.1,0.1,0.1l0,0v-1.7h0.6v4.2h-0.6
			v-0.3c0,0-0.1,0.1-0.1,0.1c-0.1,0-0.2,0.1-0.3,0.2c-0.2,0.1-0.3,0.1-0.5,0.1c-0.4,0-0.7-0.1-1-0.4c-0.3-0.3-0.4-0.7-0.4-1.1
			c0-0.4,0.1-0.8,0.4-1.1c0.3-0.3,0.6-0.4,1-0.4C-732.6,524-732.5,524-732.4,524.1z M-732,526.2c0.2-0.2,0.3-0.4,0.3-0.7
			s-0.1-0.5-0.3-0.7c-0.2-0.2-0.4-0.3-0.6-0.3c-0.2,0-0.4,0.1-0.6,0.3c-0.2,0.2-0.3,0.4-0.3,0.7s0.1,0.5,0.3,0.7
			c0.2,0.2,0.4,0.3,0.6,0.3C-732.4,526.5-732.2,526.4-732,526.2z"/>
		<path class="st1" d="M-729.6,523.5c-0.1,0.1-0.2,0.1-0.3,0.1c-0.1,0-0.2,0-0.3-0.1c-0.1-0.1-0.1-0.2-0.1-0.3c0-0.1,0-0.2,0.1-0.3
			c0.1-0.1,0.2-0.1,0.3-0.1c0.1,0,0.2,0,0.3,0.1c0.1,0.1,0.1,0.2,0.1,0.3C-729.5,523.3-729.6,523.4-729.6,523.5z M-729.6,527h-0.6
			v-2.9h0.6V527z"/>
		<path class="st1" d="M-728.1,524.4L-728.1,524.4c0.1-0.1,0.1-0.1,0.2-0.1c0.1,0,0.1-0.1,0.2-0.1c0.1,0,0.1-0.1,0.2-0.1
			c0.1,0,0.2,0,0.3,0c0.3,0,0.6,0.1,0.9,0.3c0.2,0.2,0.3,0.5,0.3,0.9v1.7h-0.6v-1.7c0-0.2-0.1-0.4-0.2-0.5c-0.1-0.1-0.3-0.2-0.5-0.2
			c-0.2,0-0.4,0.1-0.5,0.2c-0.1,0.1-0.2,0.4-0.2,0.6v1.6h-0.6v-2.9h0.6V524.4z"/>
		<path class="st1" d="M-723.2,526.6L-723.2,526.6c-0.1,0.1-0.1,0.1-0.1,0.1c-0.1,0-0.1,0.1-0.2,0.1c-0.1,0-0.1,0.1-0.2,0.1
			c-0.1,0-0.2,0-0.3,0c-0.4,0-0.7-0.1-1-0.4c-0.3-0.3-0.4-0.6-0.4-1s0.1-0.7,0.4-1c0.3-0.3,0.6-0.4,1-0.4c0.2,0,0.3,0,0.5,0.1
			c0.1,0.1,0.3,0.1,0.3,0.2l0.1,0.1v-0.3h0.6v2.7c0,0.4-0.1,0.7-0.4,1c-0.3,0.3-0.6,0.4-1,0.4c-0.2,0-0.3,0-0.5-0.1
			c-0.1,0-0.3-0.1-0.4-0.2c-0.1-0.1-0.2-0.1-0.3-0.2c-0.1-0.1-0.1-0.1-0.2-0.2l0-0.1l0.4-0.4c0,0,0,0,0,0c0,0,0.1,0.1,0.1,0.1
			c0.1,0.1,0.1,0.1,0.2,0.1c0.1,0,0.1,0.1,0.3,0.1c0.1,0,0.2,0,0.3,0c0.2,0,0.4-0.1,0.6-0.3c0.2-0.2,0.2-0.4,0.2-0.6V526.6z
			 M-724.6,526.1c0.2,0.2,0.4,0.3,0.6,0.3c0.2,0,0.4-0.1,0.6-0.3c0.2-0.2,0.2-0.4,0.2-0.6s-0.1-0.5-0.2-0.6
			c-0.2-0.2-0.4-0.3-0.6-0.3c-0.2,0-0.4,0.1-0.6,0.3c-0.2,0.2-0.2,0.4-0.2,0.6S-724.7,526-724.6,526.1z"/>
		<path class="st1" d="M-720.3,527v-4.2h1.7c0.3,0,0.6,0.1,0.9,0.3c0.2,0.2,0.4,0.5,0.4,0.8c0,0.2,0,0.3-0.1,0.5
			c-0.1,0.1-0.1,0.2-0.2,0.3l-0.1,0.1c0,0,0,0,0.1,0c0,0,0.1,0.1,0.2,0.1c0.1,0.1,0.1,0.1,0.2,0.2c0.1,0.1,0.1,0.2,0.2,0.3
			s0.1,0.2,0.1,0.4c0,0.3-0.1,0.6-0.4,0.9c-0.3,0.2-0.6,0.4-1,0.4H-720.3z M-719.7,523.3v1.1h1.1c0.2,0,0.3-0.1,0.4-0.2
			c0.1-0.1,0.2-0.2,0.2-0.4s-0.1-0.3-0.2-0.4c-0.1-0.1-0.2-0.2-0.4-0.2H-719.7z M-718.5,526.4c0.2,0,0.4-0.1,0.5-0.2
			c0.1-0.1,0.2-0.3,0.2-0.5s-0.1-0.4-0.2-0.5c-0.1-0.1-0.3-0.2-0.5-0.2h-1.1v1.4H-718.5z"/>
		<path class="st1" d="M-716.1,524.5c0.3-0.3,0.7-0.5,1.1-0.5c0.4,0,0.8,0.2,1.1,0.5c0.3,0.3,0.4,0.7,0.4,1.1s-0.2,0.8-0.4,1.1
			c-0.3,0.3-0.7,0.4-1.1,0.4c-0.4,0-0.8-0.1-1.1-0.4c-0.3-0.3-0.4-0.7-0.4-1.1S-716.4,524.8-716.1,524.5z M-714.4,524.9
			c-0.2-0.2-0.4-0.3-0.6-0.3c-0.2,0-0.5,0.1-0.6,0.3c-0.2,0.2-0.3,0.4-0.3,0.7c0,0.3,0.1,0.5,0.3,0.7c0.2,0.2,0.4,0.3,0.6,0.3
			c0.2,0,0.5-0.1,0.6-0.3c0.2-0.2,0.3-0.4,0.3-0.7C-714.2,525.3-714.3,525-714.4,524.9z"/>
		<path class="st1" d="M-712.5,523.1h0.5v1h0.6v0.5h-0.6v1.5c0,0.1,0,0.2,0.1,0.3s0.2,0.1,0.3,0.1c0,0,0.1,0,0.1,0c0,0,0.1,0,0.1,0
			l0,0v0.5c-0.1,0-0.3,0.1-0.4,0.1c-0.6,0-0.8-0.3-0.8-0.9v-1.5h-0.5v-0.5h0.3c0.2,0,0.3-0.1,0.3-0.4V523.1z"/>
		<path class="st1" d="M-707.9,522.8h0.7l1.8,4.2h-0.7l-0.5-1.1h-1.9l-0.5,1.1h-0.7L-707.9,522.8z M-708.3,525.3h1.4l-0.7-1.8
			L-708.3,525.3z"/>
	</g>
	<g>
		<path class="st3" d="M-740,528.9v0.3h-0.9v2.4h-0.3v-2.4h-0.9v-0.3H-740z"/>
		<path class="st3" d="M-739.9,530c0.2-0.2,0.4-0.3,0.7-0.3c0.3,0,0.5,0.1,0.7,0.3c0.2,0.2,0.3,0.4,0.3,0.7c0,0.3-0.1,0.5-0.3,0.7
			c-0.2,0.2-0.4,0.3-0.7,0.3c-0.3,0-0.5-0.1-0.7-0.3c-0.2-0.2-0.3-0.4-0.3-0.7C-740.2,530.4-740.1,530.2-739.9,530z M-738.8,530.2
			c-0.1-0.1-0.3-0.2-0.5-0.2c-0.2,0-0.3,0.1-0.5,0.2s-0.2,0.3-0.2,0.5c0,0.2,0.1,0.4,0.2,0.5c0.1,0.1,0.3,0.2,0.5,0.2
			c0.2,0,0.3-0.1,0.5-0.2c0.1-0.1,0.2-0.3,0.2-0.5C-738.6,530.5-738.6,530.3-738.8,530.2z"/>
		<path class="st3" d="M-737.7,529.2h0.3v0.6h0.4v0.3h-0.4v1.1c0,0.2,0.1,0.3,0.3,0.3c0,0,0.1,0,0.1,0c0,0,0.1,0,0.1,0l0,0v0.3
			c-0.1,0-0.2,0.1-0.3,0.1c-0.2,0-0.3,0-0.4-0.1c-0.1-0.1-0.1-0.2-0.1-0.4V530h-0.3v-0.3h0.2c0.1,0,0.2-0.1,0.2-0.2V529.2z"/>
		<path class="st3" d="M-735.4,530.5c0-0.1,0-0.2-0.1-0.3c-0.1-0.1-0.2-0.1-0.3-0.1c-0.1,0-0.2,0-0.3,0.1c-0.1,0-0.1,0.1-0.2,0.1
			l-0.1,0.1l-0.2-0.2c0,0,0,0,0,0c0,0,0,0,0.1-0.1c0,0,0.1-0.1,0.1-0.1c0,0,0.1-0.1,0.2-0.1c0.1,0,0.2,0,0.2,0
			c0.2,0,0.4,0.1,0.5,0.2c0.1,0.1,0.2,0.3,0.2,0.5v1.2h-0.3v-0.3c0,0,0,0,0,0c0,0,0,0-0.1,0.1c0,0-0.1,0.1-0.1,0.1
			c0,0-0.1,0-0.2,0.1c-0.1,0-0.1,0-0.2,0c-0.2,0-0.3-0.1-0.5-0.2c-0.1-0.1-0.2-0.2-0.2-0.4c0-0.2,0-0.3,0.1-0.4
			c0.1-0.1,0.2-0.2,0.4-0.2L-735.4,530.5z M-735.6,531.3c0.1-0.1,0.2-0.3,0.2-0.4v-0.1l-0.6,0.1c-0.2,0-0.3,0.2-0.3,0.3
			c0,0.1,0,0.2,0.1,0.2c0.1,0.1,0.2,0.1,0.3,0.1C-735.8,531.4-735.7,531.4-735.6,531.3z"/>
		<path class="st3" d="M-734.2,531.6h-0.3v-2.7h0.3V531.6z"/>
		<path class="st3" d="M-731.7,528.9c0.3,0,0.5,0.1,0.6,0.2c0.2,0.2,0.2,0.4,0.2,0.6c0,0.2-0.1,0.4-0.2,0.6
			c-0.2,0.2-0.4,0.2-0.6,0.2h-0.7v1h-0.3v-2.7H-731.7z M-732.5,529.2v1.2h0.7c0.2,0,0.3-0.1,0.4-0.2c0.1-0.1,0.2-0.2,0.2-0.4
			s-0.1-0.3-0.2-0.4c-0.1-0.1-0.2-0.2-0.4-0.2H-732.5z"/>
		<path class="st3" d="M-729.4,530h-0.1c-0.2,0-0.3,0.1-0.4,0.2c-0.1,0.1-0.2,0.3-0.2,0.4v1h-0.3v-1.9h0.3v0.3c0,0,0,0,0,0
			c0,0,0,0,0.1-0.1s0.1-0.1,0.1-0.1c0,0,0.1,0,0.2-0.1c0.1,0,0.1,0,0.2,0h0.1V530z"/>
		<path class="st3" d="M-728.9,530c0.2-0.2,0.4-0.3,0.7-0.3c0.3,0,0.5,0.1,0.7,0.3c0.2,0.2,0.3,0.4,0.3,0.7c0,0.3-0.1,0.5-0.3,0.7
			c-0.2,0.2-0.4,0.3-0.7,0.3c-0.3,0-0.5-0.1-0.7-0.3c-0.2-0.2-0.3-0.4-0.3-0.7C-729.2,530.4-729.1,530.2-728.9,530z M-727.7,530.2
			c-0.1-0.1-0.3-0.2-0.5-0.2c-0.2,0-0.3,0.1-0.5,0.2s-0.2,0.3-0.2,0.5c0,0.2,0.1,0.4,0.2,0.5c0.1,0.1,0.3,0.2,0.5,0.2
			c0.2,0,0.3-0.1,0.5-0.2c0.1-0.1,0.2-0.3,0.2-0.5C-727.5,530.5-727.6,530.3-727.7,530.2z"/>
		<path class="st3" d="M-726,530h-0.4v1.6h-0.3V530h-0.3v-0.3h0.3v-0.3c0-0.2,0-0.3,0.1-0.4c0.1-0.1,0.2-0.1,0.4-0.1
			c0,0,0.1,0,0.1,0c0,0,0.1,0,0.1,0l0,0v0.3c-0.1,0-0.2-0.1-0.3-0.1c-0.2,0-0.3,0.1-0.3,0.3v0.3h0.4V530z"/>
		<path class="st3" d="M-725.6,529c0,0,0.1,0,0.1,0c0,0,0.1,0,0.1,0c0,0,0,0.1,0,0.1c0,0,0,0.1,0,0.1c0,0-0.1,0-0.1,0
			c0,0-0.1,0-0.1,0c0,0,0-0.1,0-0.1C-725.6,529.1-725.6,529.1-725.6,529z M-725.6,529.8h0.3v1.9h-0.3V529.8z"/>
		<path class="st3" d="M-724.5,529.2h0.3v0.6h0.4v0.3h-0.4v1.1c0,0.2,0.1,0.3,0.3,0.3c0,0,0.1,0,0.1,0c0,0,0.1,0,0.1,0l0,0v0.3
			c-0.1,0-0.2,0.1-0.3,0.1c-0.2,0-0.3,0-0.4-0.1c-0.1-0.1-0.1-0.2-0.1-0.4V530h-0.3v-0.3h0.2c0.1,0,0.2-0.1,0.2-0.2V529.2z"/>
		<path class="st1" d="M-721.3,531.4v-0.7h-0.7v-0.3h0.7v-0.7h0.3v0.7h0.7v0.3h-0.7v0.7H-721.3z"/>
		<path class="st1" d="M-718.4,529.1c0.2,0.1,0.2,0.3,0.2,0.5c0,0.1,0,0.1,0,0.2c0,0.1-0.1,0.1-0.1,0.2c0,0-0.1,0.1-0.1,0.1
			c0,0-0.1,0.1-0.1,0.1l0,0c0,0,0,0,0,0c0,0,0.1,0,0.1,0.1c0.1,0,0.1,0.1,0.1,0.1c0,0,0.1,0.1,0.1,0.2s0,0.2,0,0.3
			c0,0.2-0.1,0.4-0.3,0.6c-0.2,0.2-0.4,0.2-0.6,0.2c-0.3,0-0.5-0.1-0.6-0.2c-0.2-0.2-0.3-0.4-0.3-0.6c0-0.1,0-0.2,0-0.3
			c0-0.1,0.1-0.1,0.1-0.2c0,0,0.1-0.1,0.1-0.1c0,0,0.1-0.1,0.1-0.1l0,0c0,0,0,0,0,0c0,0,0,0-0.1-0.1c0,0-0.1-0.1-0.1-0.1
			c0,0-0.1-0.1-0.1-0.2c0-0.1,0-0.1,0-0.2c0-0.2,0.1-0.4,0.2-0.5c0.2-0.1,0.3-0.2,0.6-0.2S-718.6,529-718.4,529.1z M-719.4,530.5
			c-0.1,0.1-0.2,0.2-0.2,0.4c0,0.2,0.1,0.3,0.2,0.4c0.1,0.1,0.3,0.2,0.4,0.2c0.2,0,0.3-0.1,0.4-0.2c0.1-0.1,0.2-0.2,0.2-0.4
			c0-0.1-0.1-0.3-0.2-0.4s-0.3-0.2-0.4-0.2S-719.3,530.3-719.4,530.5z M-718.6,529.9c0.1-0.1,0.1-0.2,0.1-0.3c0-0.1,0-0.2-0.1-0.3
			c-0.1-0.1-0.2-0.1-0.4-0.1c-0.2,0-0.3,0-0.4,0.1c-0.1,0.1-0.1,0.2-0.1,0.3c0,0.1,0,0.2,0.1,0.3c0.1,0.1,0.2,0.1,0.4,0.1
			C-718.8,530.1-718.7,530-718.6,529.9z"/>
		<path class="st1" d="M-715.7,530.8v0.3h-0.3v0.6h-0.3v-0.6h-1.4v-0.3l1.3-1.8h0.4v1.9H-715.7z M-716.4,529.3l-1.1,1.5h1.1V529.3z"
			/>
		<path class="st1" d="M-714.4,529.9c-0.1,0.1-0.3,0.2-0.4,0.2s-0.3-0.1-0.4-0.2c-0.1-0.1-0.2-0.3-0.2-0.4s0.1-0.3,0.2-0.4
			c0.1-0.1,0.3-0.2,0.4-0.2s0.3,0.1,0.4,0.2c0.1,0.1,0.2,0.3,0.2,0.4S-714.3,529.8-714.4,529.9z M-714.6,529.2
			c-0.1-0.1-0.1-0.1-0.2-0.1c-0.1,0-0.2,0-0.2,0.1c-0.1,0.1-0.1,0.2-0.1,0.3c0,0.1,0,0.2,0.1,0.3s0.1,0.1,0.2,0.1
			c0.1,0,0.2,0,0.2-0.1s0.1-0.2,0.1-0.3C-714.5,529.4-714.5,529.3-714.6,529.2z M-713.4,528.9h0.3l-1.7,2.7h-0.3L-713.4,528.9z
			 M-713.9,530.7c0.1-0.1,0.3-0.2,0.4-0.2s0.3,0.1,0.4,0.2c0.1,0.1,0.2,0.3,0.2,0.4s-0.1,0.3-0.2,0.4c-0.1,0.1-0.3,0.2-0.4,0.2
			s-0.3-0.1-0.4-0.2c-0.1-0.1-0.2-0.3-0.2-0.4S-714,530.8-713.9,530.7z M-713.7,531.3c0.1,0.1,0.1,0.1,0.2,0.1s0.2,0,0.2-0.1
			c0.1-0.1,0.1-0.2,0.1-0.3s0-0.2-0.1-0.3c-0.1-0.1-0.1-0.1-0.2-0.1s-0.2,0-0.2,0.1c-0.1,0.1-0.1,0.2-0.1,0.3
			S-713.7,531.3-713.7,531.3z"/>
	</g>
	<g class="st4">
		<path class="st1" d="M-754.4,538.2v0.2h-0.7v1.9h-0.2v-1.9h-0.7v-0.2H-754.4z"/>
		<path class="st1" d="M-753.6,539L-753.6,539c-0.2,0-0.3,0-0.4,0.1c-0.1,0.1-0.1,0.2-0.1,0.3v0.8h-0.2v-1.4h0.2v0.2c0,0,0,0,0,0
			c0,0,0,0,0.1-0.1c0,0,0.1,0,0.1-0.1c0,0,0.1,0,0.1-0.1c0.1,0,0.1,0,0.2,0h0.1V539z"/>
		<path class="st1" d="M-752.4,539.3c0-0.1,0-0.2-0.1-0.3c-0.1-0.1-0.2-0.1-0.3-0.1c-0.1,0-0.1,0-0.2,0.1c-0.1,0-0.1,0.1-0.1,0.1
			l0,0.1l-0.1-0.1c0,0,0,0,0,0s0,0,0.1-0.1c0,0,0.1-0.1,0.1-0.1c0,0,0.1,0,0.1-0.1c0.1,0,0.1,0,0.2,0c0.2,0,0.3,0.1,0.4,0.2
			s0.2,0.2,0.2,0.4v0.9h-0.2v-0.2c0,0,0,0,0,0s0,0-0.1,0.1c0,0-0.1,0-0.1,0.1c0,0-0.1,0-0.1,0.1c-0.1,0-0.1,0-0.2,0
			c-0.1,0-0.3,0-0.4-0.1s-0.1-0.2-0.1-0.3c0-0.1,0-0.2,0.1-0.3s0.2-0.1,0.3-0.1L-752.4,539.3z M-752.5,540c0.1-0.1,0.1-0.2,0.1-0.3
			v-0.1l-0.5,0.1c-0.2,0-0.3,0.1-0.3,0.3c0,0.1,0,0.1,0.1,0.2c0.1,0,0.1,0.1,0.2,0.1C-752.7,540.1-752.6,540-752.5,540z"/>
		<path class="st1" d="M-751.7,538.3C-751.7,538.2-751.7,538.2-751.7,538.3c0.1,0,0.2,0,0.2,0c0,0,0,0.1,0,0.1s0,0.1,0,0.1
			c0,0-0.1,0-0.1,0c0,0-0.1,0-0.1,0C-751.8,538.4-751.8,538.4-751.7,538.3C-751.8,538.3-751.8,538.3-751.7,538.3z M-751.7,538.8h0.2
			v1.4h-0.2V538.8z"/>
		<path class="st1" d="M-750.9,538.4h0.2v0.5h0.3v0.2h-0.3v0.8c0,0.1,0.1,0.2,0.2,0.2c0,0,0.1,0,0.1,0c0,0,0.1,0,0.1,0l0,0v0.2
			c-0.1,0-0.1,0-0.2,0c-0.1,0-0.2,0-0.3-0.1c-0.1-0.1-0.1-0.2-0.1-0.3V539h-0.3v-0.2h0.2c0.1,0,0.1,0,0.1-0.1V538.4z"/>
		<path class="st1" d="M-748.2,539.2C-748.1,539.2-748.1,539.2-748.2,539.2c0.1,0.1,0.2,0.1,0.2,0.2c0,0,0.1,0.1,0.1,0.1
			s0,0.1,0,0.2c0,0.2-0.1,0.3-0.2,0.4c-0.1,0.1-0.3,0.2-0.5,0.2h-0.8v-2.1h0.8c0.2,0,0.3,0.1,0.4,0.2c0.1,0.1,0.2,0.2,0.2,0.4
			c0,0.1,0,0.1,0,0.2c0,0.1,0,0.1-0.1,0.1C-748.1,539-748.1,539.1-748.2,539.2C-748.1,539.1-748.2,539.1-748.2,539.2L-748.2,539.2
			C-748.2,539.1-748.2,539.1-748.2,539.2z M-749.1,538.4v0.7h0.6c0.1,0,0.2,0,0.3-0.1s0.1-0.1,0.1-0.2c0-0.1,0-0.2-0.1-0.2
			c-0.1-0.1-0.2-0.1-0.3-0.1H-749.1z M-748.5,540c0.1,0,0.2,0,0.3-0.1c0.1-0.1,0.1-0.2,0.1-0.3c0-0.1,0-0.2-0.1-0.3
			c-0.1-0.1-0.2-0.1-0.3-0.1h-0.6v0.8H-748.5z"/>
	</g>
	<g>
		<path class="st1" d="M-755.9,542.1h0.5l0.6,1.6l0.6-1.6h0.5l-0.8,2.2h-0.5L-755.9,542.1z"/>
		<path class="st1" d="M-752.9,544.1C-752.9,544.2-753,544.2-752.9,544.1c-0.1,0.1-0.1,0.1-0.2,0.1c-0.1,0-0.1,0.1-0.2,0.1
			c-0.2,0-0.3,0-0.4-0.1c-0.1-0.1-0.1-0.2-0.1-0.3c0-0.1,0-0.2,0.1-0.3c0.1-0.1,0.2-0.1,0.3-0.2l0.5-0.1c0-0.1,0-0.1-0.1-0.2
			c0,0-0.1-0.1-0.2-0.1c-0.1,0-0.1,0-0.2,0c-0.1,0-0.1,0.1-0.1,0.1l0,0l-0.2-0.2c0,0,0,0,0,0c0,0,0,0,0.1-0.1c0,0,0.1-0.1,0.1-0.1
			c0,0,0.1,0,0.2-0.1c0.1,0,0.1,0,0.2,0c0.2,0,0.4,0.1,0.5,0.2c0.1,0.1,0.2,0.3,0.2,0.4v1h-0.4V544.1z M-753,543.9
			c0.1-0.1,0.1-0.1,0.1-0.3v0l-0.3,0.1c-0.1,0-0.2,0.1-0.2,0.2c0,0.1,0.1,0.2,0.2,0.2C-753.1,544-753.1,544-753,543.9z"/>
		<path class="st1" d="M-751.7,544.3h-0.4v-2.2h0.4V544.3z"/>
		<path class="st1" d="M-750.2,544.1C-750.2,544.2-750.2,544.2-750.2,544.1c-0.1,0.1-0.1,0.1-0.2,0.1c-0.1,0-0.2,0.1-0.2,0.1
			c-0.2,0-0.3-0.1-0.4-0.2c-0.1-0.1-0.2-0.3-0.2-0.5v-0.9h0.4v0.9c0,0.1,0,0.2,0.1,0.2c0.1,0.1,0.1,0.1,0.2,0.1c0.1,0,0.2,0,0.2-0.1
			c0.1-0.1,0.1-0.2,0.1-0.3v-0.8h0.4v1.5h-0.4V544.1z"/>
		<path class="st1" d="M-749,543.7c0,0.1,0.1,0.2,0.1,0.2c0.1,0.1,0.2,0.1,0.3,0.1c0.1,0,0.2,0,0.2,0c0.1,0,0.1-0.1,0.1-0.1l0,0
			l0.2,0.3l0,0c0,0,0,0-0.1,0.1c0,0-0.1,0.1-0.1,0.1c0,0-0.1,0-0.2,0.1c-0.1,0-0.2,0-0.2,0c-0.2,0-0.4-0.1-0.6-0.2
			c-0.2-0.2-0.2-0.3-0.2-0.6c0-0.2,0.1-0.4,0.2-0.6c0.2-0.2,0.3-0.2,0.6-0.2c0.2,0,0.4,0.1,0.5,0.2c0.1,0.1,0.2,0.3,0.2,0.5l0,0.2
			H-749z M-748.9,543.2c-0.1,0.1-0.1,0.1-0.1,0.2h0.7c0-0.1-0.1-0.1-0.1-0.2c-0.1-0.1-0.1-0.1-0.2-0.1
			C-748.8,543.1-748.8,543.1-748.9,543.2z"/>
		<path class="st1" d="M-746.9,544.3v-2.2h0.9c0.2,0,0.4,0.1,0.5,0.2c0.1,0.1,0.2,0.3,0.2,0.4c0,0.1,0,0.1,0,0.2
			c0,0.1,0,0.1-0.1,0.1c0,0-0.1,0.1-0.1,0.1c0,0,0,0-0.1,0.1l0,0c0,0,0,0,0,0c0,0,0,0,0.1,0.1c0,0,0.1,0.1,0.1,0.1
			c0,0,0.1,0.1,0.1,0.1c0,0.1,0,0.1,0,0.2c0,0.2-0.1,0.3-0.2,0.5c-0.1,0.1-0.3,0.2-0.5,0.2H-746.9z M-746.4,542.5v0.5h0.4
			c0.1,0,0.1,0,0.2-0.1c0,0,0.1-0.1,0.1-0.2c0-0.1,0-0.1-0.1-0.2c0,0-0.1-0.1-0.2-0.1H-746.4z M-745.9,543.9c0.1,0,0.2,0,0.2-0.1
			c0.1-0.1,0.1-0.1,0.1-0.2s0-0.1-0.1-0.2c-0.1-0.1-0.1-0.1-0.2-0.1h-0.5v0.6H-745.9z"/>
	</g>
	<g class="st4">
		<path class="st1" d="M-754.4,547.8v0.2h-0.7v1.9h-0.2V548h-0.7v-0.2H-754.4z"/>
		<path class="st1" d="M-753.6,548.7L-753.6,548.7c-0.2,0-0.3,0-0.4,0.1c-0.1,0.1-0.1,0.2-0.1,0.3v0.8h-0.2v-1.4h0.2v0.2
			c0,0,0,0,0,0c0,0,0,0,0.1-0.1c0,0,0.1,0,0.1-0.1c0,0,0.1,0,0.1-0.1c0.1,0,0.1,0,0.2,0h0.1V548.7z"/>
		<path class="st1" d="M-752.4,549c0-0.1,0-0.2-0.1-0.3c-0.1-0.1-0.2-0.1-0.3-0.1c-0.1,0-0.1,0-0.2,0.1c-0.1,0-0.1,0.1-0.1,0.1
			l0,0.1l-0.1-0.1c0,0,0,0,0,0s0,0,0.1-0.1c0,0,0.1-0.1,0.1-0.1s0.1,0,0.1-0.1c0.1,0,0.1,0,0.2,0c0.2,0,0.3,0.1,0.4,0.2
			c0.1,0.1,0.2,0.2,0.2,0.4v0.9h-0.2v-0.2c0,0,0,0,0,0s0,0-0.1,0.1c0,0-0.1,0-0.1,0.1c0,0-0.1,0-0.1,0.1c-0.1,0-0.1,0-0.2,0
			c-0.1,0-0.3,0-0.4-0.1s-0.1-0.2-0.1-0.3c0-0.1,0-0.2,0.1-0.3s0.2-0.1,0.3-0.1L-752.4,549z M-752.5,549.6c0.1-0.1,0.1-0.2,0.1-0.3
			v-0.1l-0.5,0.1c-0.2,0-0.3,0.1-0.3,0.3c0,0.1,0,0.1,0.1,0.2c0.1,0,0.1,0.1,0.2,0.1C-752.7,549.7-752.6,549.7-752.5,549.6z"/>
		<path class="st1" d="M-751.7,547.9C-751.7,547.9-751.7,547.9-751.7,547.9c0.1,0,0.2,0,0.2,0c0,0,0,0.1,0,0.1s0,0.1,0,0.1
			c0,0-0.1,0-0.1,0c0,0-0.1,0-0.1,0C-751.8,548.1-751.8,548-751.7,547.9C-751.8,548-751.8,547.9-751.7,547.9z M-751.7,548.5h0.2v1.4
			h-0.2V548.5z"/>
		<path class="st1" d="M-750.9,548h0.2v0.5h0.3v0.2h-0.3v0.8c0,0.1,0.1,0.2,0.2,0.2c0,0,0.1,0,0.1,0c0,0,0.1,0,0.1,0l0,0v0.2
			c-0.1,0-0.1,0-0.2,0c-0.1,0-0.2,0-0.3-0.1c-0.1-0.1-0.1-0.2-0.1-0.3v-0.8h-0.3v-0.2h0.2c0.1,0,0.1,0,0.1-0.1V548z"/>
		<path class="st1" d="M-749.2,548.1c0.2-0.2,0.5-0.3,0.8-0.3c0.1,0,0.2,0,0.3,0c0.1,0,0.2,0.1,0.2,0.1c0.1,0,0.1,0.1,0.2,0.1
			c0,0,0.1,0.1,0.1,0.1l0,0l-0.1,0.1c0,0,0,0,0,0c0,0,0,0-0.1-0.1s-0.1-0.1-0.1-0.1c0,0-0.1-0.1-0.2-0.1c-0.1,0-0.2,0-0.3,0
			c-0.2,0-0.4,0.1-0.6,0.2c-0.2,0.2-0.2,0.4-0.2,0.6s0.1,0.4,0.2,0.6c0.2,0.2,0.4,0.2,0.6,0.2c0.1,0,0.2,0,0.3,0s0.1-0.1,0.2-0.1
			c0.1,0,0.1-0.1,0.1-0.1c0,0,0.1-0.1,0.1-0.1l0,0l0.1,0.1c0,0,0,0,0,0c0,0-0.1,0.1-0.1,0.1s-0.1,0.1-0.2,0.1
			c-0.1,0-0.1,0.1-0.2,0.1c-0.1,0-0.2,0-0.3,0c-0.3,0-0.5-0.1-0.8-0.3c-0.2-0.2-0.3-0.5-0.3-0.8
			C-749.5,548.6-749.4,548.3-749.2,548.1z"/>
	</g>
	<g>
		<path class="st1" d="M-756,551.8h0.5l0.6,1.6l0.6-1.6h0.5l-0.8,2.2h-0.5L-756,551.8z"/>
		<path class="st1" d="M-752.9,553.8C-752.9,553.8-753,553.8-752.9,553.8c-0.1,0.1-0.1,0.1-0.2,0.1c-0.1,0-0.1,0.1-0.2,0.1
			c-0.2,0-0.3,0-0.4-0.1c-0.1-0.1-0.1-0.2-0.1-0.3c0-0.1,0-0.2,0.1-0.3c0.1-0.1,0.2-0.1,0.3-0.2l0.5-0.1c0-0.1,0-0.1-0.1-0.2
			c0,0-0.1-0.1-0.2-0.1c-0.1,0-0.1,0-0.2,0c-0.1,0-0.1,0.1-0.1,0.1l0,0l-0.2-0.2c0,0,0,0,0,0c0,0,0,0,0.1-0.1c0,0,0.1-0.1,0.1-0.1
			c0,0,0.1,0,0.2-0.1c0.1,0,0.1,0,0.2,0c0.2,0,0.4,0.1,0.5,0.2c0.1,0.1,0.2,0.3,0.2,0.4v1h-0.4V553.8z M-753,553.6
			c0.1-0.1,0.1-0.1,0.1-0.3v0l-0.3,0.1c-0.1,0-0.2,0.1-0.2,0.2c0,0.1,0.1,0.2,0.2,0.2C-753.1,553.6-753.1,553.6-753,553.6z"/>
		<path class="st1" d="M-751.7,554h-0.4v-2.2h0.4V554z"/>
		<path class="st1" d="M-750.2,553.8C-750.2,553.8-750.2,553.8-750.2,553.8c-0.1,0.1-0.1,0.1-0.2,0.1c-0.1,0-0.2,0.1-0.2,0.1
			c-0.2,0-0.3-0.1-0.4-0.2c-0.1-0.1-0.2-0.3-0.2-0.5v-0.9h0.4v0.9c0,0.1,0,0.2,0.1,0.2c0.1,0.1,0.1,0.1,0.2,0.1c0.1,0,0.2,0,0.2-0.1
			c0.1-0.1,0.1-0.2,0.1-0.3v-0.8h0.4v1.5h-0.4V553.8z"/>
		<path class="st1" d="M-749,553.3c0,0.1,0.1,0.2,0.1,0.2c0.1,0.1,0.2,0.1,0.3,0.1c0.1,0,0.2,0,0.2,0c0.1,0,0.1-0.1,0.1-0.1l0,0
			l0.2,0.3l0,0c0,0,0,0-0.1,0.1c0,0-0.1,0.1-0.1,0.1c0,0-0.1,0-0.2,0.1c-0.1,0-0.2,0-0.2,0c-0.2,0-0.4-0.1-0.6-0.2
			c-0.2-0.2-0.2-0.3-0.2-0.6c0-0.2,0.1-0.4,0.2-0.6c0.2-0.2,0.3-0.2,0.6-0.2c0.2,0,0.4,0.1,0.5,0.2c0.1,0.1,0.2,0.3,0.2,0.5l0,0.2
			H-749z M-748.9,552.8c-0.1,0.1-0.1,0.1-0.1,0.2h0.7c0-0.1-0.1-0.1-0.1-0.2c-0.1-0.1-0.1-0.1-0.2-0.1
			C-748.8,552.8-748.8,552.8-748.9,552.8z"/>
		<path class="st1" d="M-745.5,551.8c0.1,0,0.2,0.1,0.3,0.1c0.1,0,0.1,0.1,0.2,0.1c0.1,0,0.1,0.1,0.1,0.1l0,0l-0.3,0.3c0,0,0,0,0,0
			c0,0,0,0-0.1-0.1c0,0-0.1-0.1-0.1-0.1c0,0-0.1-0.1-0.2-0.1c-0.1,0-0.1,0-0.2,0c-0.2,0-0.4,0.1-0.5,0.2c-0.1,0.1-0.2,0.3-0.2,0.5
			c0,0.2,0.1,0.4,0.2,0.5c0.1,0.1,0.3,0.2,0.5,0.2c0.1,0,0.2,0,0.2,0c0.1,0,0.1,0,0.2-0.1c0,0,0.1-0.1,0.1-0.1c0,0,0.1-0.1,0.1-0.1
			l0,0l0.3,0.3c0,0,0,0,0,0c0,0-0.1,0.1-0.1,0.1c-0.1,0.1-0.1,0.1-0.2,0.1c-0.1,0-0.2,0.1-0.3,0.1c-0.1,0-0.2,0-0.3,0
			c-0.3,0-0.6-0.1-0.8-0.3c-0.2-0.2-0.3-0.5-0.3-0.8c0-0.3,0.1-0.6,0.3-0.8c0.2-0.2,0.5-0.3,0.8-0.3
			C-745.7,551.7-745.6,551.7-745.5,551.8z"/>
	</g>
	<g class="st4">
		<path class="st1" d="M-731.3,538.2v0.2h-0.7v1.9h-0.2v-1.9h-0.7v-0.2H-731.3z"/>
		<path class="st1" d="M-730.4,539L-730.4,539c-0.2,0-0.3,0-0.4,0.1c-0.1,0.1-0.1,0.2-0.1,0.3v0.8h-0.2v-1.4h0.2v0.2c0,0,0,0,0,0
			c0,0,0,0,0.1-0.1c0,0,0.1,0,0.1-0.1c0,0,0.1,0,0.1-0.1c0.1,0,0.1,0,0.2,0h0.1V539z"/>
		<path class="st1" d="M-729.3,539.3c0-0.1,0-0.2-0.1-0.3c-0.1-0.1-0.2-0.1-0.3-0.1c-0.1,0-0.1,0-0.2,0.1c-0.1,0-0.1,0.1-0.1,0.1
			l0,0.1l-0.1-0.1c0,0,0,0,0,0c0,0,0,0,0.1-0.1c0,0,0.1-0.1,0.1-0.1c0,0,0.1,0,0.1-0.1s0.1,0,0.2,0c0.2,0,0.3,0.1,0.4,0.2
			s0.2,0.2,0.2,0.4v0.9h-0.2v-0.2c0,0,0,0,0,0c0,0,0,0-0.1,0.1c0,0-0.1,0-0.1,0.1c0,0-0.1,0-0.1,0.1c-0.1,0-0.1,0-0.2,0
			c-0.1,0-0.3,0-0.4-0.1s-0.1-0.2-0.1-0.3c0-0.1,0-0.2,0.1-0.3c0.1-0.1,0.2-0.1,0.3-0.1L-729.3,539.3z M-729.4,540
			c0.1-0.1,0.1-0.2,0.1-0.3v-0.1l-0.5,0.1c-0.2,0-0.3,0.1-0.3,0.3c0,0.1,0,0.1,0.1,0.2c0.1,0,0.1,0.1,0.2,0.1
			C-729.6,540.1-729.5,540-729.4,540z"/>
		<path class="st1" d="M-728.6,538.3C-728.6,538.2-728.6,538.2-728.6,538.3c0.1,0,0.2,0,0.2,0c0,0,0,0.1,0,0.1s0,0.1,0,0.1
			c0,0-0.1,0-0.1,0c0,0-0.1,0-0.1,0C-728.6,538.4-728.7,538.4-728.6,538.3C-728.7,538.3-728.6,538.3-728.6,538.3z M-728.6,538.8h0.2
			v1.4h-0.2V538.8z"/>
		<path class="st1" d="M-727.8,538.4h0.2v0.5h0.3v0.2h-0.3v0.8c0,0.1,0.1,0.2,0.2,0.2c0,0,0.1,0,0.1,0c0,0,0.1,0,0.1,0l0,0v0.2
			c-0.1,0-0.1,0-0.2,0c-0.1,0-0.2,0-0.3-0.1c-0.1-0.1-0.1-0.2-0.1-0.3V539h-0.3v-0.2h0.2c0.1,0,0.1,0,0.1-0.1V538.4z"/>
		<path class="st1" d="M-725.6,538.2c0.3,0,0.6,0.1,0.8,0.3c0.2,0.2,0.3,0.4,0.3,0.7s-0.1,0.5-0.3,0.7c-0.2,0.2-0.5,0.3-0.8,0.3
			h-0.7v-2.1H-725.6z M-726,538.4v1.7h0.4c0.2,0,0.4-0.1,0.6-0.2s0.2-0.4,0.2-0.6c0-0.2-0.1-0.4-0.2-0.6c-0.2-0.2-0.4-0.2-0.6-0.2
			H-726z"/>
	</g>
	<g class="st4">
		<path class="st1" d="M-713.3,538.2c0.2,0,0.3,0.1,0.5,0.2s0.2,0.3,0.2,0.4c0,0.1,0,0.2,0,0.2c0,0.1-0.1,0.1-0.1,0.2
			s-0.1,0.1-0.1,0.1c0,0-0.1,0-0.1,0.1l0,0l0.5,0.9h-0.3l-0.5-0.8h-0.6v0.8h-0.2v-2.1H-713.3z M-713.9,538.4v0.8h0.6
			c0.1,0,0.2,0,0.3-0.1c0.1-0.1,0.1-0.2,0.1-0.3c0-0.1,0-0.2-0.1-0.3c-0.1-0.1-0.2-0.1-0.3-0.1H-713.9z"/>
		<path class="st1" d="M-712.2,538.3C-712.2,538.2-712.2,538.2-712.2,538.3c0.1,0,0.2,0,0.2,0c0,0,0,0.1,0,0.1s0,0.1,0,0.1
			c0,0-0.1,0-0.1,0s-0.1,0-0.1,0C-712.3,538.4-712.3,538.4-712.2,538.3C-712.3,538.3-712.3,538.3-712.2,538.3z M-712.2,538.8h0.2
			v1.4h-0.2V538.8z"/>
		<path class="st1" d="M-710.9,539.1C-710.9,539.1-710.9,539.1-710.9,539.1c0-0.1-0.1-0.1-0.1-0.1s-0.1,0-0.2,0
			c-0.1,0-0.1,0-0.2,0.1c0,0-0.1,0.1-0.1,0.1c0,0.1,0,0.1,0.1,0.1c0.1,0,0.1,0.1,0.2,0.1c0.1,0,0.2,0,0.2,0.1s0.1,0.1,0.2,0.1
			c0.1,0.1,0.1,0.1,0.1,0.2c0,0.1,0,0.2-0.1,0.3c-0.1,0.1-0.2,0.1-0.4,0.1c-0.1,0-0.1,0-0.2,0c-0.1,0-0.1,0-0.1-0.1
			c0,0-0.1,0-0.1-0.1s0,0-0.1-0.1l0,0l0.1-0.1c0,0,0,0,0,0s0,0,0,0s0,0,0.1,0.1c0,0,0.1,0,0.1,0c0,0,0.1,0,0.1,0
			c0.1,0,0.2,0,0.2-0.1c0.1,0,0.1-0.1,0.1-0.2c0-0.1,0-0.1-0.1-0.1c-0.1,0-0.1-0.1-0.2-0.1c-0.1,0-0.1,0-0.2-0.1
			c-0.1,0-0.1-0.1-0.2-0.1c-0.1-0.1-0.1-0.1-0.1-0.2c0-0.1,0-0.2,0.1-0.3c0.1-0.1,0.2-0.1,0.3-0.1c0.1,0,0.1,0,0.2,0
			c0.1,0,0.1,0,0.1,0c0,0,0.1,0,0.1,0.1c0,0,0,0,0.1,0l0,0L-710.9,539.1z"/>
		<path class="st1" d="M-710.1,540.2h-0.2v-2.1h0.2v1.4l0.7-0.8h0.3l-0.5,0.6l0.6,0.8h-0.2l-0.5-0.7l-0.3,0.3V540.2z"/>
		<path class="st1" d="M-708.1,540.2v-2.1h0.2v1.9h1.1v0.2H-708.1z"/>
		<path class="st1" d="M-706.5,539.6c0,0.1,0.1,0.2,0.2,0.3c0.1,0.1,0.2,0.1,0.3,0.1c0.1,0,0.2,0,0.2-0.1c0.1,0,0.1-0.1,0.2-0.1
			l0.1-0.1l0.1,0.1c0,0,0,0,0,0c0,0,0,0-0.1,0.1c0,0-0.1,0.1-0.1,0.1c0,0-0.1,0-0.2,0.1s-0.1,0-0.2,0c-0.2,0-0.4-0.1-0.5-0.2
			c-0.1-0.1-0.2-0.3-0.2-0.5c0-0.2,0.1-0.4,0.2-0.5c0.1-0.1,0.3-0.2,0.5-0.2c0.2,0,0.4,0.1,0.5,0.2c0.1,0.1,0.2,0.3,0.2,0.5l0,0.1
			L-706.5,539.6z M-706.3,539.1c-0.1,0.1-0.1,0.2-0.2,0.3h1c0-0.1-0.1-0.2-0.2-0.3c-0.1-0.1-0.2-0.1-0.3-0.1
			C-706.1,539-706.2,539-706.3,539.1z"/>
		<path class="st1" d="M-704.5,540.2l-0.6-1.4h0.2l0.5,1.1l0.5-1.1h0.2l-0.6,1.4H-704.5z"/>
		<path class="st1" d="M-703.4,539.6c0,0.1,0.1,0.2,0.2,0.3c0.1,0.1,0.2,0.1,0.3,0.1c0.1,0,0.2,0,0.2-0.1c0.1,0,0.1-0.1,0.2-0.1
			l0.1-0.1l0.1,0.1c0,0,0,0,0,0s0,0-0.1,0.1c0,0-0.1,0.1-0.1,0.1c0,0-0.1,0-0.2,0.1s-0.1,0-0.2,0c-0.2,0-0.4-0.1-0.5-0.2
			c-0.1-0.1-0.2-0.3-0.2-0.5c0-0.2,0.1-0.4,0.2-0.5c0.1-0.1,0.3-0.2,0.5-0.2c0.2,0,0.4,0.1,0.5,0.2s0.2,0.3,0.2,0.5l0,0.1
			L-703.4,539.6z M-703.2,539.1c-0.1,0.1-0.1,0.2-0.2,0.3h1c0-0.1-0.1-0.2-0.2-0.3c-0.1-0.1-0.2-0.1-0.3-0.1S-703.1,539-703.2,539.1
			z"/>
		<path class="st1" d="M-701.6,540.2h-0.2v-2.1h0.2V540.2z"/>
	</g>
	<g>
		<path class="st1" d="M-732.8,542.1h0.5l0.6,1.6l0.6-1.6h0.5l-0.8,2.2h-0.5L-732.8,542.1z"/>
		<path class="st1" d="M-729.8,544.1C-729.8,544.2-729.8,544.2-729.8,544.1c-0.1,0.1-0.1,0.1-0.2,0.1c-0.1,0-0.1,0.1-0.2,0.1
			c-0.2,0-0.3,0-0.4-0.1c-0.1-0.1-0.1-0.2-0.1-0.3c0-0.1,0-0.2,0.1-0.3c0.1-0.1,0.2-0.1,0.3-0.2l0.5-0.1c0-0.1,0-0.1-0.1-0.2
			c0,0-0.1-0.1-0.2-0.1c-0.1,0-0.1,0-0.2,0c-0.1,0-0.1,0.1-0.1,0.1l0,0l-0.2-0.2c0,0,0,0,0,0c0,0,0,0,0.1-0.1c0,0,0.1-0.1,0.1-0.1
			c0,0,0.1,0,0.2-0.1c0.1,0,0.1,0,0.2,0c0.2,0,0.4,0.1,0.5,0.2c0.1,0.1,0.2,0.3,0.2,0.4v1h-0.4V544.1z M-729.9,543.9
			c0.1-0.1,0.1-0.1,0.1-0.3v0l-0.3,0.1c-0.1,0-0.2,0.1-0.2,0.2c0,0.1,0.1,0.2,0.2,0.2C-730,544-730,544-729.9,543.9z"/>
		<path class="st1" d="M-728.6,544.3h-0.4v-2.2h0.4V544.3z"/>
		<path class="st1" d="M-727.1,544.1C-727.1,544.2-727.1,544.2-727.1,544.1c-0.1,0.1-0.1,0.1-0.2,0.1c-0.1,0-0.2,0.1-0.2,0.1
			c-0.2,0-0.3-0.1-0.4-0.2c-0.1-0.1-0.2-0.3-0.2-0.5v-0.9h0.4v0.9c0,0.1,0,0.2,0.1,0.2c0.1,0.1,0.1,0.1,0.2,0.1c0.1,0,0.2,0,0.2-0.1
			c0.1-0.1,0.1-0.2,0.1-0.3v-0.8h0.4v1.5h-0.4V544.1z"/>
		<path class="st1" d="M-725.9,543.7c0,0.1,0.1,0.2,0.1,0.2c0.1,0.1,0.2,0.1,0.3,0.1c0.1,0,0.2,0,0.2,0c0.1,0,0.1-0.1,0.1-0.1l0,0
			l0.2,0.3l0,0c0,0,0,0-0.1,0.1c0,0-0.1,0.1-0.1,0.1c0,0-0.1,0-0.2,0.1c-0.1,0-0.2,0-0.2,0c-0.2,0-0.4-0.1-0.6-0.2
			c-0.2-0.2-0.2-0.3-0.2-0.6c0-0.2,0.1-0.4,0.2-0.6c0.2-0.2,0.3-0.2,0.6-0.2s0.4,0.1,0.5,0.2c0.1,0.1,0.2,0.3,0.2,0.5l0,0.2H-725.9z
			 M-725.8,543.2c-0.1,0.1-0.1,0.1-0.1,0.2h0.7c0-0.1-0.1-0.1-0.1-0.2c-0.1-0.1-0.1-0.1-0.2-0.1S-725.7,543.1-725.8,543.2z"/>
		<path class="st1" d="M-723,542.1c0.3,0,0.6,0.1,0.8,0.3c0.2,0.2,0.3,0.5,0.3,0.8c0,0.3-0.1,0.6-0.3,0.8c-0.2,0.2-0.5,0.3-0.8,0.3
			h-0.8v-2.2H-723z M-723.3,542.5v1.3h0.3c0.2,0,0.3-0.1,0.5-0.2c0.1-0.1,0.2-0.3,0.2-0.5c0-0.2-0.1-0.3-0.2-0.5
			c-0.1-0.1-0.3-0.2-0.5-0.2H-723.3z"/>
	</g>
	<g class="st4">
		<path class="st1" d="M-731.3,547.8v0.2h-0.7v1.9h-0.2V548h-0.7v-0.2H-731.3z"/>
		<path class="st1" d="M-730.4,548.7L-730.4,548.7c-0.2,0-0.3,0-0.4,0.1c-0.1,0.1-0.1,0.2-0.1,0.3v0.8h-0.2v-1.4h0.2v0.2
			c0,0,0,0,0,0c0,0,0,0,0.1-0.1c0,0,0.1,0,0.1-0.1c0,0,0.1,0,0.1-0.1c0.1,0,0.1,0,0.2,0h0.1V548.7z"/>
		<path class="st1" d="M-729.3,549c0-0.1,0-0.2-0.1-0.3c-0.1-0.1-0.2-0.1-0.3-0.1c-0.1,0-0.1,0-0.2,0.1c-0.1,0-0.1,0.1-0.1,0.1
			l0,0.1l-0.1-0.1c0,0,0,0,0,0s0,0,0.1-0.1c0,0,0.1-0.1,0.1-0.1s0.1,0,0.1-0.1c0.1,0,0.1,0,0.2,0c0.2,0,0.3,0.1,0.4,0.2
			c0.1,0.1,0.2,0.2,0.2,0.4v0.9h-0.2v-0.2c0,0,0,0,0,0s0,0-0.1,0.1c0,0-0.1,0-0.1,0.1c0,0-0.1,0-0.1,0.1c-0.1,0-0.1,0-0.2,0
			c-0.1,0-0.3,0-0.4-0.1s-0.1-0.2-0.1-0.3c0-0.1,0-0.2,0.1-0.3s0.2-0.1,0.3-0.1L-729.3,549z M-729.4,549.6c0.1-0.1,0.1-0.2,0.1-0.3
			v-0.1l-0.5,0.1c-0.2,0-0.3,0.1-0.3,0.3c0,0.1,0,0.1,0.1,0.2c0.1,0,0.1,0.1,0.2,0.1C-729.6,549.7-729.5,549.7-729.4,549.6z"/>
		<path class="st1" d="M-728.6,547.9C-728.6,547.9-728.6,547.9-728.6,547.9c0.1,0,0.2,0,0.2,0c0,0,0,0.1,0,0.1s0,0.1,0,0.1
			c0,0-0.1,0-0.1,0c0,0-0.1,0-0.1,0C-728.6,548.1-728.7,548-728.6,547.9C-728.7,548-728.6,547.9-728.6,547.9z M-728.6,548.5h0.2v1.4
			h-0.2V548.5z"/>
		<path class="st1" d="M-727.8,548h0.2v0.5h0.3v0.2h-0.3v0.8c0,0.1,0.1,0.2,0.2,0.2c0,0,0.1,0,0.1,0c0,0,0.1,0,0.1,0l0,0v0.2
			c-0.1,0-0.1,0-0.2,0c-0.1,0-0.2,0-0.3-0.1c-0.1-0.1-0.1-0.2-0.1-0.3v-0.8h-0.3v-0.2h0.2c0.1,0,0.1,0,0.1-0.1V548z"/>
		<path class="st1" d="M-724.8,549.7v0.2h-1.5v-2.1h1.4v0.2h-1.2v0.7h1v0.2h-1v0.8H-724.8z"/>
	</g>
	<g>
		<path class="st1" d="M-732.8,551.8h0.5l0.6,1.6l0.6-1.6h0.5l-0.8,2.2h-0.5L-732.8,551.8z"/>
		<path class="st1" d="M-729.8,553.8C-729.8,553.8-729.8,553.8-729.8,553.8c-0.1,0.1-0.1,0.1-0.2,0.1c-0.1,0-0.1,0.1-0.2,0.1
			c-0.2,0-0.3,0-0.4-0.1c-0.1-0.1-0.1-0.2-0.1-0.3c0-0.1,0-0.2,0.1-0.3c0.1-0.1,0.2-0.1,0.3-0.2l0.5-0.1c0-0.1,0-0.1-0.1-0.2
			c0,0-0.1-0.1-0.2-0.1c-0.1,0-0.1,0-0.2,0c-0.1,0-0.1,0.1-0.1,0.1l0,0l-0.2-0.2c0,0,0,0,0,0c0,0,0,0,0.1-0.1c0,0,0.1-0.1,0.1-0.1
			c0,0,0.1,0,0.2-0.1c0.1,0,0.1,0,0.2,0c0.2,0,0.4,0.1,0.5,0.2c0.1,0.1,0.2,0.3,0.2,0.4v1h-0.4V553.8z M-729.9,553.6
			c0.1-0.1,0.1-0.1,0.1-0.3v0l-0.3,0.1c-0.1,0-0.2,0.1-0.2,0.2c0,0.1,0.1,0.2,0.2,0.2C-730,553.6-730,553.6-729.9,553.6z"/>
		<path class="st1" d="M-728.6,554h-0.4v-2.2h0.4V554z"/>
		<path class="st1" d="M-727.1,553.8C-727.1,553.8-727.1,553.8-727.1,553.8c-0.1,0.1-0.1,0.1-0.2,0.1c-0.1,0-0.2,0.1-0.2,0.1
			c-0.2,0-0.3-0.1-0.4-0.2c-0.1-0.1-0.2-0.3-0.2-0.5v-0.9h0.4v0.9c0,0.1,0,0.2,0.1,0.2c0.1,0.1,0.1,0.1,0.2,0.1c0.1,0,0.2,0,0.2-0.1
			c0.1-0.1,0.1-0.2,0.1-0.3v-0.8h0.4v1.5h-0.4V553.8z"/>
		<path class="st1" d="M-725.9,553.3c0,0.1,0.1,0.2,0.1,0.2c0.1,0.1,0.2,0.1,0.3,0.1c0.1,0,0.2,0,0.2,0c0.1,0,0.1-0.1,0.1-0.1l0,0
			l0.2,0.3l0,0c0,0,0,0-0.1,0.1c0,0-0.1,0.1-0.1,0.1c0,0-0.1,0-0.2,0.1c-0.1,0-0.2,0-0.2,0c-0.2,0-0.4-0.1-0.6-0.2
			c-0.2-0.2-0.2-0.3-0.2-0.6c0-0.2,0.1-0.4,0.2-0.6c0.2-0.2,0.3-0.2,0.6-0.2s0.4,0.1,0.5,0.2c0.1,0.1,0.2,0.3,0.2,0.5l0,0.2H-725.9z
			 M-725.8,552.8c-0.1,0.1-0.1,0.1-0.1,0.2h0.7c0-0.1-0.1-0.1-0.1-0.2c-0.1-0.1-0.1-0.1-0.2-0.1S-725.7,552.8-725.8,552.8z"/>
		<path class="st1" d="M-722.1,553.5v0.4h-1.6v-2.2h1.6v0.4h-1.1v0.4h0.9v0.4h-0.9v0.5H-722.1z"/>
	</g>
	<g>
		<path class="st0" d="M-710.3,543.9h0.7v2.8h3.5v-2.8h0.7v6.3h-0.7v-2.9h-3.5v2.9h-0.7V543.9z"/>
	</g>
	<g>
		<path class="st0" d="M-710.3,550.8h0.2v0.8h1v-0.8h0.2v1.7h-0.2v-0.8h-1v0.8h-0.2V550.8z"/>
		<path class="st0" d="M-708.5,550.9C-708.5,550.8-708.5,550.8-708.5,550.9c0.1,0,0.1,0,0.2,0s0,0,0,0.1c0,0,0,0.1,0,0.1s0,0-0.1,0
			s-0.1,0-0.1,0C-708.5,551-708.5,551-708.5,550.9C-708.5,550.9-708.5,550.9-708.5,550.9z M-708.5,551.3h0.2v1.2h-0.2V551.3z"/>
		<path class="st0" d="M-707.1,552.3C-707.1,552.3-707.1,552.3-707.1,552.3C-707.1,552.4-707.1,552.4-707.1,552.3
			c-0.1,0.1-0.1,0.1-0.1,0.1c0,0-0.1,0-0.1,0c0,0-0.1,0-0.1,0c-0.2,0-0.3-0.1-0.4-0.2c-0.1-0.1-0.2-0.3-0.2-0.4
			c0-0.2,0.1-0.3,0.2-0.4c0.1-0.1,0.2-0.2,0.4-0.2c0.1,0,0.1,0,0.1,0c0,0,0.1,0,0.1,0c0,0,0.1,0,0.1,0.1c0,0,0,0,0,0.1l0,0v-0.2h0.2
			v1.1c0,0.2-0.1,0.3-0.2,0.4c-0.1,0.1-0.3,0.2-0.4,0.2c-0.1,0-0.1,0-0.2,0c-0.1,0-0.1,0-0.1-0.1c0,0-0.1,0-0.1-0.1c0,0,0,0-0.1-0.1
			l0,0l0.1-0.1c0,0,0,0,0,0c0,0,0,0,0,0c0,0,0.1,0,0.1,0.1s0.1,0,0.1,0c0,0,0.1,0,0.1,0c0.1,0,0.2,0,0.3-0.1
			c0.1-0.1,0.1-0.2,0.1-0.3V552.3z M-707.7,552.2c0.1,0.1,0.2,0.1,0.3,0.1c0.1,0,0.2,0,0.3-0.1c0.1-0.1,0.1-0.2,0.1-0.3
			s0-0.2-0.1-0.3c-0.1-0.1-0.2-0.1-0.3-0.1c-0.1,0-0.2,0-0.3,0.1c-0.1,0.1-0.1,0.2-0.1,0.3C-707.9,552-707.8,552.1-707.7,552.2z"/>
		<path class="st0" d="M-706.3,551.5C-706.3,551.5-706.3,551.5-706.3,551.5C-706.3,551.5-706.3,551.5-706.3,551.5
			c0.1-0.1,0.1-0.1,0.1-0.1c0,0,0.1,0,0.1,0c0,0,0.1,0,0.1,0c0.1,0,0.3,0,0.4,0.1c0.1,0.1,0.1,0.2,0.1,0.4v0.7h-0.2v-0.7
			c0-0.1,0-0.2-0.1-0.3c-0.1-0.1-0.1-0.1-0.2-0.1c-0.1,0-0.2,0-0.3,0.1c-0.1,0.1-0.1,0.2-0.1,0.3v0.7h-0.2v-1.7h0.2V551.5z"/>
	</g>
	<path class="st0" d="M-735.6,560.6c0.3-0.3,0.7-0.5,1.1-0.5c0.2,0,0.3,0,0.4,0.1c0.1,0,0.3,0.1,0.4,0.2c0.1,0.1,0.2,0.1,0.2,0.2
		c0.1,0.1,0.1,0.1,0.2,0.2l0,0.1l-0.2,0.2c0,0,0,0,0-0.1c0,0-0.1-0.1-0.1-0.1c-0.1-0.1-0.1-0.1-0.2-0.2c-0.1,0-0.2-0.1-0.3-0.1
		c-0.1,0-0.2-0.1-0.4-0.1c-0.4,0-0.6,0.1-0.9,0.4c-0.2,0.2-0.4,0.5-0.4,0.9c0,0.4,0.1,0.7,0.4,0.9c0.2,0.2,0.5,0.4,0.9,0.4
		c0.1,0,0.3,0,0.4-0.1c0.1,0,0.2-0.1,0.3-0.1c0.1-0.1,0.1-0.1,0.2-0.2c0.1-0.1,0.1-0.1,0.1-0.1l0-0.1l0.2,0.2c0,0,0,0-0.1,0.1
		c0,0-0.1,0.1-0.2,0.2c-0.1,0.1-0.2,0.1-0.3,0.2c-0.1,0.1-0.2,0.1-0.4,0.2c-0.1,0-0.3,0.1-0.5,0.1c-0.4,0-0.8-0.2-1.1-0.5
		c-0.3-0.3-0.5-0.7-0.5-1.1C-736,561.3-735.9,560.9-735.6,560.6z"/>
	<path class="st0" d="M-732.3,561.5C-732.3,561.5-732.3,561.5-732.3,561.5c0-0.1,0.1-0.1,0.1-0.1c0,0,0.1-0.1,0.1-0.1
		c0,0,0.1-0.1,0.2-0.1c0.1,0,0.2,0,0.2,0c0.3,0,0.5,0.1,0.6,0.2c0.2,0.2,0.2,0.4,0.2,0.7v1.3h-0.3V562c0-0.2-0.1-0.3-0.2-0.4
		c-0.1-0.1-0.2-0.2-0.4-0.2c-0.2,0-0.3,0.1-0.5,0.2c-0.1,0.1-0.2,0.3-0.2,0.5v1.2h-0.3v-3.1h0.3V561.5z"/>
	<path class="st0" d="M-729.9,561.4c0.2-0.2,0.5-0.3,0.8-0.3c0.3,0,0.6,0.1,0.8,0.3c0.2,0.2,0.3,0.5,0.3,0.8c0,0.3-0.1,0.6-0.3,0.8
		c-0.2,0.2-0.5,0.3-0.8,0.3c-0.3,0-0.6-0.1-0.8-0.3s-0.3-0.5-0.3-0.8C-730.2,561.9-730.1,561.7-729.9,561.4z M-728.6,561.7
		c-0.2-0.2-0.3-0.2-0.5-0.2c-0.2,0-0.4,0.1-0.5,0.2c-0.2,0.2-0.2,0.3-0.2,0.6c0,0.2,0.1,0.4,0.2,0.6c0.2,0.2,0.3,0.2,0.5,0.2
		c0.2,0,0.4-0.1,0.5-0.2c0.2-0.2,0.2-0.3,0.2-0.6S-728.5,561.8-728.6,561.7z"/>
	<path class="st0" d="M-727.4,561.4c0.2-0.2,0.5-0.3,0.8-0.3c0.3,0,0.6,0.1,0.8,0.3c0.2,0.2,0.3,0.5,0.3,0.8c0,0.3-0.1,0.6-0.3,0.8
		s-0.5,0.3-0.8,0.3c-0.3,0-0.6-0.1-0.8-0.3s-0.3-0.5-0.3-0.8C-727.7,561.9-727.6,561.7-727.4,561.4z M-726.1,561.7
		c-0.2-0.2-0.3-0.2-0.5-0.2s-0.4,0.1-0.5,0.2c-0.2,0.2-0.2,0.3-0.2,0.6c0,0.2,0.1,0.4,0.2,0.6c0.2,0.2,0.3,0.2,0.5,0.2
		s0.4-0.1,0.5-0.2c0.2-0.2,0.2-0.3,0.2-0.6S-725.9,561.8-726.1,561.7z"/>
	<path class="st0" d="M-724,561.6C-724,561.6-724,561.6-724,561.6c-0.1-0.1-0.1-0.1-0.2-0.2c-0.1,0-0.2-0.1-0.3-0.1
		c-0.1,0-0.2,0-0.3,0.1c-0.1,0.1-0.1,0.1-0.1,0.2c0,0.1,0,0.2,0.1,0.2c0.1,0.1,0.2,0.1,0.3,0.1c0.1,0,0.2,0.1,0.3,0.1
		c0.1,0,0.2,0.1,0.3,0.2c0.1,0.1,0.1,0.2,0.1,0.3c0,0.2-0.1,0.3-0.2,0.5c-0.1,0.1-0.3,0.2-0.6,0.2c-0.1,0-0.2,0-0.3,0
		c-0.1,0-0.2-0.1-0.2-0.1c-0.1,0-0.1-0.1-0.1-0.1c0,0-0.1-0.1-0.1-0.1l0,0l0.2-0.2c0,0,0,0,0,0c0,0,0,0,0.1,0.1c0,0,0.1,0.1,0.1,0.1
		c0,0,0.1,0.1,0.2,0.1s0.1,0,0.2,0c0.1,0,0.3,0,0.3-0.1c0.1-0.1,0.1-0.1,0.1-0.3c0-0.1,0-0.2-0.1-0.2c-0.1-0.1-0.2-0.1-0.3-0.1
		c-0.1,0-0.2-0.1-0.3-0.1c-0.1,0-0.2-0.1-0.3-0.2c-0.1-0.1-0.1-0.2-0.1-0.3c0-0.2,0.1-0.3,0.2-0.4c0.1-0.1,0.3-0.2,0.5-0.2
		c0.1,0,0.2,0,0.2,0c0.1,0,0.1,0,0.2,0.1c0.1,0,0.1,0.1,0.1,0.1c0,0,0.1,0.1,0.1,0.1l0,0L-724,561.6z"/>
	<path class="st0" d="M-723,562.3c0,0.2,0.1,0.4,0.2,0.5c0.1,0.1,0.3,0.2,0.5,0.2c0.1,0,0.3,0,0.4-0.1c0.1-0.1,0.2-0.1,0.2-0.2
		l0.1-0.1l0.2,0.2c0,0,0,0,0,0c0,0-0.1,0.1-0.1,0.1c-0.1,0-0.1,0.1-0.2,0.1c-0.1,0-0.1,0.1-0.2,0.1c-0.1,0-0.2,0-0.3,0
		c-0.3,0-0.5-0.1-0.7-0.3c-0.2-0.2-0.3-0.5-0.3-0.8c0-0.3,0.1-0.6,0.3-0.8c0.2-0.2,0.4-0.3,0.7-0.3c0.3,0,0.5,0.1,0.7,0.3
		c0.2,0.2,0.3,0.5,0.3,0.8l0,0.2L-723,562.3z M-722.7,561.6c-0.1,0.1-0.2,0.3-0.2,0.5h1.4c0-0.2-0.1-0.3-0.2-0.5
		c-0.1-0.1-0.3-0.2-0.5-0.2C-722.4,561.4-722.6,561.5-722.7,561.6z"/>
</g>
</svg>
