<?xml version="1.0" encoding="utf-8"?>
<!-- Generator: Adobe Illustrator 19.0.0, SVG Export Plug-In . SVG Version: 6.00 Build 0)  -->
<svg version="1.1" id="Layer_1" xmlns="http://www.w3.org/2000/svg" xmlns:xlink="http://www.w3.org/1999/xlink" x="0px" y="0px"
	 viewBox="-875 502.9 167.7 76.1" style="enable-background:new -875 502.9 167.7 76.1;" xml:space="preserve">
<style type="text/css">
	.st0{opacity:0.5;}
	.st1{fill:#DFE2F4;}
	.st2{fill:#5267F7;}
	.st3{opacity:0.75;fill:#5267F7;}
</style>
<g id="XMLID_848_">
	<g id="XMLID_745_" class="st0">
		<path id="XMLID_651_" class="st1" d="M-712.1,570.4h-39.5c-2.6,0-4.6-2.1-4.6-4.6v-49.5c0-2.6,2.1-4.6,4.6-4.6h39.5
			c2.6,0,4.6,2.1,4.6,4.6v49.5C-707.4,568.4-709.5,570.4-712.1,570.4z"/>
		<g>
			<path class="st2" d="M-734.7,526.9v-8.1h3.3c0.7,0,1.2,0.2,1.7,0.7c0.5,0.4,0.7,0.9,0.7,1.5c0,0.3-0.1,0.6-0.2,0.9
				c-0.1,0.3-0.3,0.5-0.4,0.6l-0.2,0.2c0,0,0.1,0,0.1,0.1s0.2,0.1,0.3,0.2c0.1,0.1,0.3,0.3,0.4,0.4c0.1,0.1,0.2,0.3,0.3,0.6
				c0.1,0.2,0.1,0.5,0.1,0.7c0,0.7-0.3,1.2-0.7,1.7c-0.5,0.5-1.1,0.7-1.9,0.7H-734.7z M-733.4,519.8v2.2h2c0.3,0,0.6-0.1,0.8-0.3
				c0.2-0.2,0.3-0.5,0.3-0.8s-0.1-0.6-0.3-0.8s-0.5-0.3-0.8-0.3H-733.4z M-731.2,525.8c0.4,0,0.7-0.1,1-0.4c0.3-0.3,0.4-0.6,0.4-1
				s-0.1-0.7-0.4-1c-0.3-0.3-0.6-0.4-1-0.4h-2.2v2.7H-731.2z"/>
		</g>
		<path id="XMLID_721_" class="st3" d="M-716.3,532.6h-31.1c-0.5,0-0.8-0.4-0.8-0.8l0,0c0-0.5,0.4-0.8,0.8-0.8h31.1
			c0.5,0,0.8,0.4,0.8,0.8l0,0C-715.5,532.2-715.8,532.6-716.3,532.6z"/>
		<path id="XMLID_720_" class="st3" d="M-716.3,537h-31.1c-0.5,0-0.8-0.4-0.8-0.8l0,0c0-0.5,0.4-0.8,0.8-0.8h31.1
			c0.5,0,0.8,0.4,0.8,0.8l0,0C-715.5,536.6-715.8,537-716.3,537z"/>
		<path id="XMLID_719_" class="st3" d="M-716.3,541.4h-31.1c-0.5,0-0.8-0.4-0.8-0.8l0,0c0-0.5,0.4-0.8,0.8-0.8h31.1
			c0.5,0,0.8,0.4,0.8,0.8l0,0C-715.5,541-715.8,541.4-716.3,541.4z"/>
		<path id="XMLID_718_" class="st3" d="M-716.3,550.1h-31.1c-0.5,0-0.8-0.4-0.8-0.8l0,0c0-0.5,0.4-0.8,0.8-0.8h31.1
			c0.5,0,0.8,0.4,0.8,0.8l0,0C-715.5,549.7-715.8,550.1-716.3,550.1z"/>
		<path id="XMLID_716_" class="st3" d="M-735.7,554.5h-12c-0.3,0-0.5-0.2-0.5-0.5v-0.6c0-0.3,0.2-0.5,0.5-0.5h12
			c0.3,0,0.5,0.2,0.5,0.5v0.6C-735.1,554.3-735.4,554.5-735.7,554.5z"/>
		<path id="XMLID_715_" class="st3" d="M-724.5,545.7h-23c-0.4,0-0.7-0.3-0.7-0.7v-0.2c0-0.4,0.3-0.7,0.7-0.7h23
			c0.4,0,0.7,0.3,0.7,0.7v0.2C-723.7,545.4-724.1,545.7-724.5,545.7z"/>
		<path id="XMLID_714_" class="st3" d="M-717.5,565.2h-28.8c-1.1,0-2-0.9-2-2v-3.2c0-1.1,0.9-2,2-2h28.8c1.1,0,2,0.9,2,2v3.2
			C-715.5,564.3-716.4,565.2-717.5,565.2z"/>
		<g>
			<path class="st1" d="M-739.5,561.9c0-0.1-0.1-0.1-0.2-0.1s-0.2-0.1-0.3-0.1c-0.1,0-0.2-0.1-0.3-0.1c-0.1,0-0.2-0.1-0.3-0.1
				s-0.1-0.1-0.2-0.2s-0.1-0.2-0.1-0.3c0-0.2,0.1-0.4,0.2-0.5c0.1-0.1,0.3-0.2,0.6-0.2c0.1,0,0.2,0,0.3,0c0.1,0,0.2,0,0.2,0.1
				c0.1,0,0.1,0.1,0.1,0.1c0,0,0.1,0.1,0.1,0.1l0,0l-0.2,0.3c0,0,0,0,0,0c0,0,0,0-0.1-0.1c0,0-0.1,0-0.1-0.1c0,0-0.1,0-0.1-0.1
				c-0.1,0-0.1,0-0.2,0c-0.1,0-0.2,0-0.3,0.1s-0.1,0.1-0.1,0.2c0,0.1,0,0.1,0.1,0.2c0,0.1,0.1,0.1,0.2,0.1c0.1,0,0.2,0.1,0.3,0.1
				c0.1,0,0.2,0.1,0.3,0.1s0.2,0.1,0.3,0.1c0.1,0,0.1,0.1,0.2,0.2c0,0.1,0.1,0.2,0.1,0.3c0,0.2-0.1,0.4-0.2,0.5
				c-0.2,0.1-0.4,0.2-0.7,0.2c-0.1,0-0.2,0-0.3,0s-0.2-0.1-0.3-0.1c-0.1,0-0.1-0.1-0.2-0.1c0,0-0.1-0.1-0.1-0.1l0,0l0.2-0.2
				c0,0,0,0,0,0c0,0,0,0,0.1,0.1c0,0,0.1,0.1,0.1,0.1c0,0,0.1,0,0.2,0.1s0.2,0,0.2,0c0.2,0,0.3,0,0.4-0.1c0.1-0.1,0.1-0.2,0.1-0.3
				C-739.4,562-739.4,562-739.5,561.9z"/>
			<path class="st1" d="M-738.4,562.1c0,0.1,0.1,0.2,0.2,0.3c0.1,0.1,0.2,0.1,0.4,0.1c0.1,0,0.2,0,0.3-0.1c0.1,0,0.1-0.1,0.2-0.1
				l0.1-0.1l0.2,0.2c0,0,0,0,0,0c0,0,0,0-0.1,0.1s-0.1,0.1-0.2,0.1c-0.1,0-0.1,0.1-0.2,0.1c-0.1,0-0.2,0-0.3,0
				c-0.2,0-0.5-0.1-0.6-0.3s-0.3-0.4-0.3-0.6c0-0.2,0.1-0.4,0.3-0.6c0.2-0.2,0.4-0.3,0.6-0.3c0.2,0,0.4,0.1,0.6,0.2
				c0.2,0.2,0.2,0.4,0.2,0.6l0,0.2H-738.4z M-738.2,561.5c-0.1,0.1-0.1,0.2-0.2,0.3h1c0-0.1-0.1-0.2-0.2-0.3
				c-0.1-0.1-0.2-0.1-0.3-0.1C-738,561.4-738.1,561.4-738.2,561.5z"/>
			<path class="st1" d="M-736.2,562.8h-0.4v-2.5h0.4V562.8z"/>
			<path class="st1" d="M-735.4,562.1c0,0.1,0.1,0.2,0.2,0.3c0.1,0.1,0.2,0.1,0.4,0.1c0.1,0,0.2,0,0.3-0.1c0.1,0,0.1-0.1,0.2-0.1
				l0.1-0.1l0.2,0.2c0,0,0,0,0,0c0,0,0,0-0.1,0.1s-0.1,0.1-0.2,0.1c-0.1,0-0.1,0.1-0.2,0.1c-0.1,0-0.2,0-0.3,0
				c-0.2,0-0.5-0.1-0.6-0.3s-0.3-0.4-0.3-0.6c0-0.2,0.1-0.4,0.3-0.6c0.2-0.2,0.4-0.3,0.6-0.3c0.2,0,0.4,0.1,0.6,0.2
				c0.2,0.2,0.2,0.4,0.2,0.6l0,0.2H-735.4z M-735.3,561.5c-0.1,0.1-0.1,0.2-0.2,0.3h1c0-0.1-0.1-0.2-0.2-0.3
				c-0.1-0.1-0.2-0.1-0.3-0.1C-735.1,561.4-735.2,561.4-735.3,561.5z"/>
			<path class="st1" d="M-733.5,561.3c0.2-0.2,0.4-0.3,0.6-0.3c0.1,0,0.3,0,0.4,0.1c0.1,0.1,0.2,0.1,0.2,0.2l0.1,0.1l-0.2,0.2
				c0,0,0,0-0.1-0.1c0,0-0.1-0.1-0.2-0.1c-0.1,0-0.2-0.1-0.3-0.1c-0.1,0-0.3,0.1-0.4,0.2c-0.1,0.1-0.2,0.2-0.2,0.4
				c0,0.2,0.1,0.3,0.2,0.4c0.1,0.1,0.2,0.2,0.4,0.2c0.1,0,0.2,0,0.3-0.1c0.1,0,0.1-0.1,0.2-0.1l0.1-0.1l0.2,0.2c0,0,0,0,0,0
				c0,0,0,0-0.1,0.1c0,0-0.1,0.1-0.1,0.1c-0.1,0-0.1,0.1-0.2,0.1c-0.1,0-0.2,0-0.2,0c-0.2,0-0.4-0.1-0.6-0.3s-0.3-0.4-0.3-0.6
				C-733.8,561.7-733.7,561.5-733.5,561.3z"/>
			<path class="st1" d="M-731.6,560.5h0.3v0.6h0.4v0.3h-0.4v0.9c0,0.1,0,0.1,0.1,0.2c0,0,0.1,0.1,0.2,0.1c0,0,0.1,0,0.1,0
				c0,0,0.1,0,0.1,0l0,0v0.3c-0.1,0-0.2,0-0.3,0c-0.3,0-0.5-0.2-0.5-0.5v-0.9h-0.3v-0.3h0.2c0.1,0,0.2-0.1,0.2-0.2V560.5z"/>
			<path class="st1" d="M-728.7,560.3c0.2,0,0.4,0.1,0.6,0.2c0.2,0.2,0.2,0.3,0.2,0.6c0,0.2-0.1,0.4-0.2,0.6
				c-0.2,0.2-0.4,0.2-0.6,0.2h-0.6v0.9h-0.4v-2.5H-728.7z M-729.3,560.7v0.9h0.6c0.1,0,0.2,0,0.3-0.1s0.1-0.2,0.1-0.3s0-0.2-0.1-0.3
				s-0.2-0.1-0.3-0.1H-729.3z"/>
			<path class="st1" d="M-727,562.8h-0.4v-2.5h0.4V562.8z"/>
			<path class="st1" d="M-725.4,562.8v-0.2c0,0,0,0,0,0c0,0,0,0-0.1,0.1c0,0-0.1,0-0.1,0.1s-0.1,0-0.1,0.1c-0.1,0-0.1,0-0.2,0
				c-0.2,0-0.3-0.1-0.4-0.2c-0.1-0.1-0.2-0.2-0.2-0.3c0-0.1,0-0.3,0.1-0.4c0.1-0.1,0.2-0.2,0.4-0.2l0.6-0.1c0-0.1,0-0.2-0.1-0.2
				c-0.1-0.1-0.2-0.1-0.3-0.1c-0.1,0-0.2,0-0.2,0.1s-0.1,0.1-0.2,0.1l0,0.1l-0.2-0.2c0,0,0,0,0,0c0,0,0,0,0.1-0.1
				c0,0,0.1-0.1,0.1-0.1c0,0,0.1-0.1,0.2-0.1c0.1,0,0.2,0,0.2,0c0.2,0,0.4,0.1,0.5,0.2c0.1,0.1,0.2,0.3,0.2,0.5v1.1H-725.4z
				 M-725.6,562.4c0.1-0.1,0.1-0.2,0.1-0.4v0l-0.6,0.1c-0.1,0-0.1,0-0.2,0.1c0,0-0.1,0.1-0.1,0.2c0,0.1,0,0.1,0.1,0.1
				c0.1,0,0.1,0.1,0.2,0.1C-725.8,562.5-725.6,562.5-725.6,562.4z"/>
			<path class="st1" d="M-724.2,561.3L-724.2,561.3C-724.2,561.3-724.2,561.2-724.2,561.3c0.1-0.1,0.2-0.1,0.2-0.1
				c0,0,0.1,0,0.1-0.1s0.1,0,0.2,0c0.2,0,0.4,0.1,0.5,0.2s0.2,0.3,0.2,0.5v1h-0.4v-1c0-0.1,0-0.2-0.1-0.3c-0.1-0.1-0.2-0.1-0.3-0.1
				c-0.1,0-0.2,0-0.3,0.1c-0.1,0.1-0.1,0.2-0.1,0.4v0.9h-0.4v-1.7h0.4V561.3z"/>
		</g>
	</g>
	<g id="XMLID_712_" class="st0">
		<path id="XMLID_660_" class="st1" d="M-830.4,570.4h-39.5c-2.6,0-4.6-2.1-4.6-4.6v-49.5c0-2.6,2.1-4.6,4.6-4.6h39.5
			c2.6,0,4.6,2.1,4.6,4.6v49.5C-825.8,568.4-827.9,570.4-830.4,570.4z"/>
		<g>
			<path class="st2" d="M-848.4,518.8c0.4,0.1,0.7,0.2,0.9,0.4c0.2,0.2,0.5,0.3,0.6,0.5s0.3,0.3,0.4,0.4l0.1,0.2l-0.8,0.8
				c0,0-0.1-0.1-0.1-0.1c0-0.1-0.1-0.2-0.3-0.3c-0.2-0.1-0.3-0.3-0.5-0.4c-0.2-0.1-0.4-0.2-0.7-0.3c-0.3-0.1-0.6-0.1-0.9-0.1
				c-0.8,0-1.6,0.3-2.1,0.9c-0.6,0.6-0.9,1.3-0.9,2.1s0.3,1.6,0.9,2.1c0.6,0.6,1.3,0.9,2.1,0.9c0.3,0,0.6,0,0.9-0.1
				c0.3-0.1,0.5-0.2,0.7-0.3c0.2-0.1,0.4-0.2,0.5-0.4c0.1-0.1,0.3-0.2,0.3-0.3l0.1-0.1l0.8,0.8c0,0-0.1,0.1-0.1,0.2
				s-0.2,0.2-0.4,0.4c-0.2,0.2-0.4,0.4-0.7,0.5c-0.2,0.1-0.6,0.3-0.9,0.4c-0.4,0.1-0.8,0.2-1.2,0.2c-1.2,0-2.2-0.4-3.1-1.2
				c-0.8-0.8-1.2-1.8-1.2-3s0.4-2.2,1.2-3c0.8-0.8,1.8-1.2,3.1-1.2C-849.2,518.6-848.8,518.7-848.4,518.8z"/>
		</g>
		<path id="XMLID_744_" class="st3" d="M-834.6,533h-31.1c-0.5,0-0.8-0.4-0.8-0.8v0c0-0.5,0.4-0.8,0.8-0.8h31.1
			c0.5,0,0.8,0.4,0.8,0.8v0C-833.8,532.6-834.2,533-834.6,533z"/>
		<path id="XMLID_743_" class="st3" d="M-834.6,537.3h-31.1c-0.5,0-0.8-0.4-0.8-0.8l0,0c0-0.5,0.4-0.8,0.8-0.8h31.1
			c0.5,0,0.8,0.4,0.8,0.8l0,0C-833.8,537-834.2,537.3-834.6,537.3z"/>
		<path id="XMLID_733_" class="st3" d="M-834.6,541.7h-31.1c-0.5,0-0.8-0.4-0.8-0.8l0,0c0-0.5,0.4-0.8,0.8-0.8h31.1
			c0.5,0,0.8,0.4,0.8,0.8l0,0C-833.8,541.3-834.2,541.7-834.6,541.7z"/>
		<path id="XMLID_732_" class="st3" d="M-850.8,550.5H-866c-0.3,0-0.6-0.3-0.6-0.6v-0.5c0-0.3,0.3-0.6,0.6-0.6h15.2
			c0.3,0,0.6,0.3,0.6,0.6v0.5C-850.2,550.2-850.4,550.5-850.8,550.5z"/>
		<path id="XMLID_731_" class="st3" d="M-834.6,554.9h-31.1c-0.5,0-0.8-0.4-0.8-0.8l0,0c0-0.5,0.4-0.8,0.8-0.8h31.1
			c0.5,0,0.8,0.4,0.8,0.8l0,0C-833.8,554.5-834.2,554.9-834.6,554.9z"/>
		<path id="XMLID_730_" class="st3" d="M-834.6,546.1h-31.1c-0.5,0-0.8-0.4-0.8-0.8l0,0c0-0.5,0.4-0.8,0.8-0.8h31.1
			c0.5,0,0.8,0.4,0.8,0.8l0,0C-833.8,545.7-834.2,546.1-834.6,546.1z"/>
		<path id="XMLID_729_" class="st3" d="M-835.8,565.6h-28.8c-1.1,0-2-0.9-2-2v-3.2c0-1.1,0.9-2,2-2h28.8c1.1,0,2,0.9,2,2v3.2
			C-833.8,564.7-834.7,565.6-835.8,565.6z"/>
		<g>
			<path class="st1" d="M-857.8,562.3c0-0.1-0.1-0.1-0.2-0.1s-0.2-0.1-0.3-0.1c-0.1,0-0.2-0.1-0.3-0.1c-0.1,0-0.2-0.1-0.3-0.1
				s-0.1-0.1-0.2-0.2s-0.1-0.2-0.1-0.3c0-0.2,0.1-0.4,0.2-0.5c0.1-0.1,0.3-0.2,0.6-0.2c0.1,0,0.2,0,0.3,0s0.2,0,0.2,0.1
				c0.1,0,0.1,0.1,0.1,0.1c0,0,0.1,0.1,0.1,0.1l0,0l-0.2,0.3c0,0,0,0,0,0c0,0,0,0-0.1-0.1c0,0-0.1,0-0.1-0.1c0,0-0.1,0-0.1-0.1
				c-0.1,0-0.1,0-0.2,0c-0.1,0-0.2,0-0.3,0.1c-0.1,0.1-0.1,0.1-0.1,0.2c0,0.1,0,0.1,0.1,0.2c0,0.1,0.1,0.1,0.2,0.1
				c0.1,0,0.2,0.1,0.3,0.1c0.1,0,0.2,0.1,0.3,0.1c0.1,0,0.2,0.1,0.3,0.1s0.1,0.1,0.2,0.2c0,0.1,0.1,0.2,0.1,0.3
				c0,0.2-0.1,0.4-0.2,0.5c-0.2,0.1-0.4,0.2-0.7,0.2c-0.1,0-0.2,0-0.3,0s-0.2-0.1-0.3-0.1c-0.1,0-0.1-0.1-0.2-0.1
				c0,0-0.1-0.1-0.1-0.1l0,0l0.2-0.2c0,0,0,0,0,0c0,0,0,0,0.1,0.1c0,0,0.1,0.1,0.1,0.1c0,0,0.1,0,0.2,0.1s0.2,0,0.2,0
				c0.2,0,0.3,0,0.4-0.1c0.1-0.1,0.1-0.2,0.1-0.3C-857.7,562.4-857.8,562.3-857.8,562.3z"/>
			<path class="st1" d="M-856.7,562.5c0,0.1,0.1,0.2,0.2,0.3c0.1,0.1,0.2,0.1,0.4,0.1c0.1,0,0.2,0,0.3-0.1c0.1,0,0.1-0.1,0.2-0.1
				l0.1-0.1l0.2,0.2c0,0,0,0,0,0c0,0,0,0-0.1,0.1c0,0-0.1,0.1-0.2,0.1c-0.1,0-0.1,0.1-0.2,0.1c-0.1,0-0.2,0-0.3,0
				c-0.2,0-0.5-0.1-0.6-0.3s-0.3-0.4-0.3-0.6c0-0.2,0.1-0.4,0.3-0.6c0.2-0.2,0.4-0.3,0.6-0.3c0.2,0,0.4,0.1,0.6,0.2
				c0.2,0.2,0.2,0.4,0.2,0.6l0,0.2H-856.7z M-856.5,561.9c-0.1,0.1-0.1,0.2-0.2,0.3h1c0-0.1-0.1-0.2-0.2-0.3s-0.2-0.1-0.3-0.1
				C-856.3,561.8-856.4,561.8-856.5,561.9z"/>
			<path class="st1" d="M-854.6,563.2h-0.4v-2.5h0.4V563.2z"/>
			<path class="st1" d="M-853.8,562.5c0,0.1,0.1,0.2,0.2,0.3c0.1,0.1,0.2,0.1,0.4,0.1c0.1,0,0.2,0,0.3-0.1c0.1,0,0.1-0.1,0.2-0.1
				l0.1-0.1l0.2,0.2c0,0,0,0,0,0c0,0,0,0-0.1,0.1c0,0-0.1,0.1-0.2,0.1c-0.1,0-0.1,0.1-0.2,0.1c-0.1,0-0.2,0-0.3,0
				c-0.2,0-0.5-0.1-0.6-0.3s-0.3-0.4-0.3-0.6c0-0.2,0.1-0.4,0.3-0.6c0.2-0.2,0.4-0.3,0.6-0.3c0.2,0,0.4,0.1,0.6,0.2
				c0.2,0.2,0.2,0.4,0.2,0.6l0,0.2H-853.8z M-853.6,561.9c-0.1,0.1-0.1,0.2-0.2,0.3h1c0-0.1-0.1-0.2-0.2-0.3s-0.2-0.1-0.3-0.1
				C-853.4,561.8-853.5,561.8-853.6,561.9z"/>
			<path class="st1" d="M-851.9,561.7c0.2-0.2,0.4-0.3,0.6-0.3c0.1,0,0.3,0,0.4,0.1s0.2,0.1,0.2,0.2l0.1,0.1l-0.2,0.2
				c0,0,0,0-0.1-0.1c0,0-0.1-0.1-0.2-0.1c-0.1,0-0.2-0.1-0.3-0.1c-0.1,0-0.3,0.1-0.4,0.2c-0.1,0.1-0.2,0.2-0.2,0.4
				c0,0.2,0.1,0.3,0.2,0.4c0.1,0.1,0.2,0.2,0.4,0.2c0.1,0,0.2,0,0.3-0.1c0.1,0,0.1-0.1,0.2-0.1l0.1-0.1l0.2,0.2c0,0,0,0,0,0
				c0,0,0,0-0.1,0.1s-0.1,0.1-0.1,0.1c-0.1,0-0.1,0.1-0.2,0.1c-0.1,0-0.2,0-0.2,0c-0.2,0-0.4-0.1-0.6-0.3s-0.3-0.4-0.3-0.6
				C-852.1,562.1-852,561.9-851.9,561.7z"/>
			<path class="st1" d="M-850,560.9h0.3v0.6h0.4v0.3h-0.4v0.9c0,0.1,0,0.1,0.1,0.2c0,0,0.1,0.1,0.2,0.1c0,0,0.1,0,0.1,0
				c0,0,0.1,0,0.1,0l0,0v0.3c-0.1,0-0.2,0-0.3,0c-0.3,0-0.5-0.2-0.5-0.5v-0.9h-0.3v-0.3h0.2c0.1,0,0.2-0.1,0.2-0.2V560.9z"/>
			<path class="st1" d="M-847,560.7c0.2,0,0.4,0.1,0.6,0.2c0.2,0.2,0.2,0.3,0.2,0.6c0,0.2-0.1,0.4-0.2,0.6s-0.4,0.2-0.6,0.2h-0.6
				v0.9h-0.4v-2.5H-847z M-847.6,561.1v0.9h0.6c0.1,0,0.2,0,0.3-0.1c0.1-0.1,0.1-0.2,0.1-0.3s0-0.2-0.1-0.3
				c-0.1-0.1-0.2-0.1-0.3-0.1H-847.6z"/>
			<path class="st1" d="M-845.3,563.2h-0.4v-2.5h0.4V563.2z"/>
			<path class="st1" d="M-843.8,563.2V563c0,0,0,0,0,0c0,0,0,0-0.1,0.1s-0.1,0-0.1,0.1c0,0-0.1,0-0.1,0.1c-0.1,0-0.1,0-0.2,0
				c-0.2,0-0.3-0.1-0.4-0.2c-0.1-0.1-0.2-0.2-0.2-0.3c0-0.1,0-0.3,0.1-0.4c0.1-0.1,0.2-0.2,0.4-0.2l0.6-0.1c0-0.1,0-0.2-0.1-0.2
				c-0.1-0.1-0.2-0.1-0.3-0.1c-0.1,0-0.2,0-0.2,0.1s-0.1,0.1-0.2,0.1l0,0.1l-0.2-0.2c0,0,0,0,0,0c0,0,0,0,0.1-0.1
				c0,0,0.1-0.1,0.1-0.1c0,0,0.1-0.1,0.2-0.1c0.1,0,0.2,0,0.2,0c0.2,0,0.4,0.1,0.5,0.2c0.1,0.1,0.2,0.3,0.2,0.5v1.1H-843.8z
				 M-843.9,562.8c0.1-0.1,0.1-0.2,0.1-0.4v0l-0.6,0.1c-0.1,0-0.1,0-0.2,0.1c0,0-0.1,0.1-0.1,0.2c0,0.1,0,0.1,0.1,0.1
				c0.1,0,0.1,0.1,0.2,0.1C-844.1,562.9-844,562.9-843.9,562.8z"/>
			<path class="st1" d="M-842.6,561.7L-842.6,561.7C-842.5,561.6-842.5,561.6-842.6,561.7c0.1-0.1,0.2-0.1,0.2-0.1
				c0,0,0.1,0,0.1-0.1s0.1,0,0.2,0c0.2,0,0.4,0.1,0.5,0.2s0.2,0.3,0.2,0.5v1h-0.4v-1c0-0.1,0-0.2-0.1-0.3s-0.2-0.1-0.3-0.1
				c-0.1,0-0.2,0-0.3,0.1c-0.1,0.1-0.1,0.2-0.1,0.4v0.9h-0.4v-1.7h0.4V561.7z"/>
		</g>
	</g>
	<g id="XMLID_748_">
		<path id="XMLID_633_" class="st1" d="M-765.5,579h-51c-3.3,0-6-2.7-6-6v-63.9c0-3.3,2.7-6,6-6h51c3.3,0,6,2.7,6,6V573
			C-759.5,576.3-762.2,579-765.5,579z"/>
		<g>
			<path class="st2" d="M-792.5,511.5h1.9l5,12.1h-2l-1.3-3.2h-5.3l-1.3,3.2h-2L-792.5,511.5z M-793.5,518.7h4l-2-5L-793.5,518.7z"
				/>
		</g>
		<path id="XMLID_662_" class="st3" d="M-771.4,532.6h-39.3c-0.6,0-1.1-0.5-1.1-1.1l0,0c0-0.6,0.5-1.1,1.1-1.1h39.3
			c0.6,0,1.1,0.5,1.1,1.1l0,0C-770.3,532.1-770.8,532.6-771.4,532.6z"/>
		<path id="XMLID_689_" class="st3" d="M-771.4,538.1h-39.3c-0.6,0-1.1-0.5-1.1-1.1l0,0c0-0.6,0.5-1.1,1.1-1.1h39.3
			c0.6,0,1.1,0.5,1.1,1.1l0,0C-770.3,537.6-770.8,538.1-771.4,538.1z"/>
		<path id="XMLID_691_" class="st3" d="M-771.4,543.6h-39.3c-0.6,0-1.1-0.5-1.1-1.1l0,0c0-0.6,0.5-1.1,1.1-1.1h39.3
			c0.6,0,1.1,0.5,1.1,1.1l0,0C-770.3,543.1-770.8,543.6-771.4,543.6z"/>
		<path id="XMLID_702_" class="st3" d="M-771.4,554.7h-39.3c-0.6,0-1.1-0.5-1.1-1.1l0,0c0-0.6,0.5-1.1,1.1-1.1h39.3
			c0.6,0,1.1,0.5,1.1,1.1l0,0C-770.3,554.2-770.8,554.7-771.4,554.7z"/>
		<path id="XMLID_711_" class="st3" d="M-771.4,560.2h-39.3c-0.6,0-1.1-0.5-1.1-1.1l0,0c0-0.6,0.5-1.1,1.1-1.1h39.3
			c0.6,0,1.1,0.5,1.1,1.1l0,0C-770.3,559.7-770.8,560.2-771.4,560.2z"/>
		<path id="XMLID_692_" class="st3" d="M-796.6,549.2h-14.4c-0.4,0-0.7-0.3-0.7-0.7v-0.8c0-0.4,0.3-0.7,0.7-0.7h14.4
			c0.4,0,0.7,0.3,0.7,0.7v0.8C-796,548.9-796.3,549.2-796.6,549.2z"/>
		<path id="XMLID_679_" class="st2" d="M-772.8,573.8h-36.4c-1.4,0-2.5-1.1-2.5-2.5v-4c0-1.4,1.1-2.5,2.5-2.5h36.4
			c1.4,0,2.5,1.1,2.5,2.5v4C-770.3,572.6-771.4,573.8-772.8,573.8z"/>
		<g>
			<path class="st1" d="M-800.7,569.6c-0.1-0.1-0.1-0.1-0.2-0.2c-0.1,0-0.2-0.1-0.3-0.1c-0.1,0-0.2-0.1-0.4-0.1
				c-0.1,0-0.2-0.1-0.3-0.2c-0.1-0.1-0.2-0.1-0.2-0.3c-0.1-0.1-0.1-0.3-0.1-0.4c0-0.2,0.1-0.4,0.3-0.6c0.2-0.2,0.4-0.2,0.8-0.2
				c0.1,0,0.2,0,0.3,0c0.1,0,0.2,0.1,0.3,0.1c0.1,0,0.1,0.1,0.2,0.1c0.1,0,0.1,0.1,0.1,0.1l0,0l-0.3,0.3c0,0,0,0,0,0
				c0,0,0,0-0.1-0.1c0,0-0.1-0.1-0.1-0.1c0,0-0.1,0-0.2-0.1c-0.1,0-0.1,0-0.2,0c-0.2,0-0.3,0-0.4,0.1c-0.1,0.1-0.1,0.2-0.1,0.3
				c0,0.1,0,0.2,0.1,0.2c0.1,0.1,0.1,0.1,0.2,0.2c0.1,0,0.2,0.1,0.3,0.1c0.1,0,0.2,0.1,0.4,0.1s0.2,0.1,0.3,0.2
				c0.1,0.1,0.2,0.1,0.2,0.3s0.1,0.3,0.1,0.4c0,0.3-0.1,0.5-0.3,0.7s-0.5,0.3-0.8,0.3c-0.1,0-0.3,0-0.4-0.1c-0.1,0-0.2-0.1-0.3-0.1
				s-0.2-0.1-0.2-0.1c-0.1,0-0.1-0.1-0.1-0.1l0-0.1l0.3-0.3c0,0,0,0,0,0c0,0,0,0,0.1,0.1c0,0,0.1,0.1,0.2,0.1s0.1,0.1,0.2,0.1
				c0.1,0,0.2,0,0.3,0c0.2,0,0.3,0,0.5-0.1c0.1-0.1,0.2-0.2,0.2-0.4C-800.6,569.7-800.6,569.7-800.7,569.6z"/>
			<path class="st1" d="M-799.2,569.8c0,0.2,0.1,0.3,0.2,0.4c0.1,0.1,0.3,0.2,0.5,0.2c0.1,0,0.2,0,0.4-0.1c0.1-0.1,0.2-0.1,0.2-0.2
				l0.1-0.1l0.3,0.3c0,0,0,0,0,0c0,0-0.1,0.1-0.1,0.1s-0.1,0.1-0.2,0.1s-0.2,0.1-0.3,0.1c-0.1,0-0.2,0-0.3,0c-0.3,0-0.6-0.1-0.8-0.3
				c-0.2-0.2-0.3-0.5-0.3-0.8c0-0.3,0.1-0.6,0.3-0.8c0.2-0.2,0.5-0.3,0.8-0.3c0.3,0,0.6,0.1,0.8,0.3c0.2,0.2,0.3,0.5,0.3,0.8l0,0.2
				H-799.2z M-799,569.1c-0.1,0.1-0.2,0.2-0.2,0.4h1.3c0-0.2-0.1-0.3-0.2-0.4s-0.2-0.1-0.4-0.1C-798.8,568.9-798.9,569-799,569.1z"
				/>
			<path class="st1" d="M-796.5,570.7h-0.4v-3.2h0.4V570.7z"/>
			<path class="st1" d="M-795.6,569.8c0,0.2,0.1,0.3,0.2,0.4c0.1,0.1,0.3,0.2,0.5,0.2c0.1,0,0.2,0,0.4-0.1c0.1-0.1,0.2-0.1,0.2-0.2
				l0.1-0.1l0.3,0.3c0,0,0,0,0,0c0,0-0.1,0.1-0.1,0.1s-0.1,0.1-0.2,0.1s-0.2,0.1-0.3,0.1c-0.1,0-0.2,0-0.3,0c-0.3,0-0.6-0.1-0.8-0.3
				c-0.2-0.2-0.3-0.5-0.3-0.8c0-0.3,0.1-0.6,0.3-0.8c0.2-0.2,0.5-0.3,0.8-0.3c0.3,0,0.6,0.1,0.8,0.3c0.2,0.2,0.3,0.5,0.3,0.8l0,0.2
				H-795.6z M-795.3,569.1c-0.1,0.1-0.2,0.2-0.2,0.4h1.3c0-0.2-0.1-0.3-0.2-0.4s-0.2-0.1-0.4-0.1
				C-795.1,568.9-795.2,569-795.3,569.1z"/>
			<path class="st1" d="M-793.2,568.9c0.2-0.2,0.5-0.3,0.8-0.3c0.2,0,0.3,0,0.5,0.1c0.1,0.1,0.2,0.1,0.3,0.2l0.1,0.1l-0.3,0.3
				c0,0,0-0.1-0.1-0.1c0,0-0.1-0.1-0.2-0.1c-0.1-0.1-0.2-0.1-0.3-0.1c-0.2,0-0.3,0.1-0.5,0.2c-0.1,0.1-0.2,0.3-0.2,0.5
				s0.1,0.4,0.2,0.5c0.1,0.1,0.3,0.2,0.5,0.2c0.1,0,0.2,0,0.3-0.1c0.1-0.1,0.2-0.1,0.2-0.2l0.1-0.1l0.3,0.3c0,0,0,0,0,0
				c0,0-0.1,0.1-0.1,0.1s-0.1,0.1-0.2,0.1s-0.1,0.1-0.3,0.1c-0.1,0-0.2,0-0.3,0c-0.3,0-0.6-0.1-0.8-0.3c-0.2-0.2-0.3-0.5-0.3-0.8
				S-793.4,569.1-793.2,568.9z"/>
			<path class="st1" d="M-790.7,567.9h0.4v0.7h0.5v0.4h-0.5v1.1c0,0.1,0,0.1,0.1,0.2c0.1,0.1,0.1,0.1,0.2,0.1c0,0,0.1,0,0.1,0
				c0,0,0.1,0,0.1,0l0,0v0.4c-0.1,0-0.2,0-0.3,0c-0.4,0-0.6-0.2-0.6-0.7V569h-0.4v-0.4h0.2c0.1,0,0.2-0.1,0.2-0.3V567.9z"/>
			<path class="st1" d="M-787,567.6c0.3,0,0.6,0.1,0.8,0.3c0.2,0.2,0.3,0.4,0.3,0.7s-0.1,0.5-0.3,0.7c-0.2,0.2-0.5,0.3-0.8,0.3h-0.8
				v1.1h-0.5v-3.2H-787z M-787.8,568v1.1h0.8c0.2,0,0.3-0.1,0.4-0.2c0.1-0.1,0.2-0.2,0.2-0.4s-0.1-0.3-0.2-0.4
				c-0.1-0.1-0.2-0.2-0.4-0.2H-787.8z"/>
			<path class="st1" d="M-784.9,570.7h-0.4v-3.2h0.4V570.7z"/>
			<path class="st1" d="M-782.9,570.7v-0.2c0,0,0,0,0,0c0,0,0,0-0.1,0.1c0,0-0.1,0.1-0.1,0.1c0,0-0.1,0-0.2,0.1c-0.1,0-0.1,0-0.2,0
				c-0.2,0-0.4-0.1-0.5-0.2c-0.1-0.1-0.2-0.3-0.2-0.4c0-0.2,0.1-0.3,0.2-0.4s0.3-0.2,0.5-0.2l0.8-0.1c0-0.1,0-0.2-0.1-0.3
				c-0.1-0.1-0.2-0.1-0.3-0.1c-0.1,0-0.2,0-0.3,0.1c-0.1,0-0.2,0.1-0.2,0.1l-0.1,0.1l-0.3-0.3c0,0,0,0,0,0s0-0.1,0.1-0.1
				c0.1,0,0.1-0.1,0.2-0.1s0.1-0.1,0.2-0.1s0.2,0,0.3,0c0.3,0,0.5,0.1,0.6,0.2c0.2,0.2,0.3,0.3,0.3,0.6v1.4H-782.9z M-783.1,570.2
				c0.1-0.1,0.2-0.3,0.2-0.5v0l-0.7,0.1c-0.1,0-0.1,0-0.2,0.1c-0.1,0.1-0.1,0.1-0.1,0.2c0,0.1,0,0.1,0.1,0.2
				c0.1,0.1,0.2,0.1,0.3,0.1C-783.3,570.4-783.2,570.3-783.1,570.2z"/>
			<path class="st1" d="M-781.4,568.8L-781.4,568.8c0,0,0.1-0.1,0.1-0.1c0,0,0.1-0.1,0.1-0.1c0,0,0.1,0,0.2-0.1c0.1,0,0.1,0,0.2,0
				c0.3,0,0.5,0.1,0.6,0.3c0.2,0.2,0.2,0.4,0.2,0.7v1.3h-0.5v-1.3c0-0.2,0-0.3-0.1-0.4c-0.1-0.1-0.2-0.2-0.4-0.2
				c-0.2,0-0.3,0.1-0.4,0.2s-0.2,0.3-0.2,0.5v1.2h-0.5v-2.2h0.5V568.8z"/>
		</g>
	</g>
</g>
</svg>
