<svg xmlns="http://www.w3.org/2000/svg" width="159.457" height="40.03" viewBox="0 0 159.457 40.03">
  <g id="logo" transform="translate(-95.33 -54.92)">
    <g id="Group_6" data-name="Group 6" transform="translate(95.33 54.92)">
      <path id="Path_3" data-name="Path 3" d="M112.663,54.92,95.33,64.928V84.942L112.665,94.95,130,84.942V64.928Zm9.35,25.413-9.35,5.4-9.35-5.4v-10.8l9.35-5.4,9.35,5.4Z" transform="translate(-95.33 -54.92)" fill="#fff"/>
      <g id="Group_5" data-name="Group 5" transform="translate(7.984 14.807)">
        <g id="Group_4" data-name="Group 4">
          <g id="Group_2" data-name="Group 2">
            <path id="Path_4" data-name="Path 4" d="M107.673,77.812l9.35,5.4v10.8" transform="translate(-107.673 -77.812)"/>
          </g>
          <g id="Group_3" data-name="Group 3">
            <path id="Path_5" data-name="Path 5" d="M117.023,94.006l-9.35-5.4V77.812" transform="translate(-107.673 -77.812)"/>
          </g>
        </g>
      </g>
    </g>
    <path id="Path_178" data-name="Path 178" d="M12.41-29.99a10.124,10.124,0,0,0-7.333,2.9,9.4,9.4,0,0,0-2.988,6.994,9.42,9.42,0,0,0,2.988,7,10.112,10.112,0,0,0,7.333,2.908,10.033,10.033,0,0,0,2.869-.411,10.407,10.407,0,0,0,2.239-.906,10.232,10.232,0,0,0,1.6-1.153,11.068,11.068,0,0,0,.97-.914,4.916,4.916,0,0,0,.323-.417l-2.451-2.583-.212.278a4.16,4.16,0,0,1-.689.689,10.132,10.132,0,0,1-1.1.788,6.464,6.464,0,0,1-1.57.676,6.841,6.841,0,0,1-1.981.285,6.043,6.043,0,0,1-4.454-1.788,6.043,6.043,0,0,1-1.788-4.455,6.043,6.043,0,0,1,1.788-4.452,6.043,6.043,0,0,1,4.452-1.788,6.155,6.155,0,0,1,1.895.3,6.936,6.936,0,0,1,1.5.647,6.274,6.274,0,0,1,1.053.815,6.145,6.145,0,0,1,.623.656q.139.194.219.3L20.281-26.2l-.3-.4a6.288,6.288,0,0,0-.961-.939,15.432,15.432,0,0,0-1.537-1.113,8.5,8.5,0,0,0-2.219-.948,10.2,10.2,0,0,0-2.849-.39ZM25.834-17.238a3.511,3.511,0,0,1,.97-2.511,3.055,3.055,0,0,1,2.292-1.02,3.055,3.055,0,0,1,2.292,1.02,3.511,3.511,0,0,1,.97,2.511,3.488,3.488,0,0,1-.975,2.505,3.064,3.064,0,0,1-2.292,1.014A3.064,3.064,0,0,1,26.8-14.733a3.488,3.488,0,0,1-.965-2.505Zm10.308-.006a6.6,6.6,0,0,0-2.1-4.843,6.812,6.812,0,0,0-4.949-2.074,6.834,6.834,0,0,0-4.955,2.074,6.586,6.586,0,0,0-2.107,4.843,6.586,6.586,0,0,0,2.1,4.84,6.834,6.834,0,0,0,4.955,2.076A6.812,6.812,0,0,0,34.04-12.4a6.6,6.6,0,0,0,2.1-4.84ZM42.659-23.9H38.988v13.3h3.67Zm.265-3.8a1.948,1.948,0,0,0-.582-1.477,2.208,2.208,0,0,0-1.59-.556,1.988,1.988,0,0,0-1.471.556,2,2,0,0,0-.556,1.477,2.01,2.01,0,0,0,.55,1.477,1.983,1.983,0,0,0,1.477.556,2.208,2.208,0,0,0,1.59-.556,1.948,1.948,0,0,0,.581-1.477Zm7.05,3.8H46.315v13.3h3.657v-6.916a3.333,3.333,0,0,1,.735-2.312,2.536,2.536,0,0,1,1.981-.815,2.472,2.472,0,0,1,1.864.748,2.717,2.717,0,0,1,.722,1.968v7.327h3.657v-7.738a6.071,6.071,0,0,0-1.438-4.253,4.8,4.8,0,0,0-3.717-1.577,4.323,4.323,0,0,0-2.074.53,5.584,5.584,0,0,0-1.279.841,6.609,6.609,0,0,0-.453.523ZM70.045-10.328a5.98,5.98,0,0,0,4.485-2.005,6.872,6.872,0,0,0,1.9-4.909,6.872,6.872,0,0,0-1.9-4.909,5.981,5.981,0,0,0-4.485-2.005,4.8,4.8,0,0,0-1.4.206,4.837,4.837,0,0,0-1.1.464,5.429,5.429,0,0,0-.788.582q-.364.323-.477.444a1.617,1.617,0,0,0-.166.2v-1.63H62.453v19h3.657v-7.327l.411.49a4.439,4.439,0,0,0,1.4.934A4.88,4.88,0,0,0,70.045-10.328ZM69.376-20.9a3.02,3.02,0,0,1,2.305,1.027,3.726,3.726,0,0,1,.948,2.63,3.752,3.752,0,0,1-.948,2.636,3.011,3.011,0,0,1-2.305,1.035,3.032,3.032,0,0,1-2.312-1.035,3.735,3.735,0,0,1-.954-2.636,3.711,3.711,0,0,1,.954-2.63A3.04,3.04,0,0,1,69.376-20.9Zm13.561-2.994h-3.67v13.3h3.67Zm.265-3.8a1.948,1.948,0,0,0-.582-1.477,2.208,2.208,0,0,0-1.59-.556,1.988,1.988,0,0,0-1.471.556A2,2,0,0,0,79-27.691a2.01,2.01,0,0,0,.55,1.477,1.983,1.983,0,0,0,1.477.556,2.208,2.208,0,0,0,1.59-.556,1.948,1.948,0,0,0,.582-1.478Zm7.195-1.9h-3.67v19H90.4Zm6.638,12.354A3.511,3.511,0,0,1,98-19.749a3.055,3.055,0,0,1,2.292-1.02,3.055,3.055,0,0,1,2.292,1.02,3.511,3.511,0,0,1,.97,2.511,3.488,3.488,0,0,1-.97,2.5A3.064,3.064,0,0,1,100.3-13.72,3.064,3.064,0,0,1,98-14.733,3.488,3.488,0,0,1,97.034-17.238Zm10.308-.006a6.6,6.6,0,0,0-2.1-4.843,6.812,6.812,0,0,0-4.949-2.074,6.834,6.834,0,0,0-4.955,2.074,6.586,6.586,0,0,0-2.106,4.843,6.586,6.586,0,0,0,2.106,4.84,6.834,6.834,0,0,0,4.955,2.076,6.812,6.812,0,0,0,4.949-2.076,6.6,6.6,0,0,0,2.1-4.84Zm4.346-8.135a1.839,1.839,0,0,1-.437,1.272,1.369,1.369,0,0,1-1.06.49h-1.219v3.257h2.307v5.419q0,4.613,4.2,4.613a6.7,6.7,0,0,0,2.451-.4v-3.127l-.159.053a2.588,2.588,0,0,1-.51.153,3.29,3.29,0,0,1-.7.073,1.609,1.609,0,0,1-1.159-.437,1.413,1.413,0,0,1-.457-1.06V-20.36h2.7v-3.259h-2.7v-4.2h-3.259Z" transform="translate(136.858 96.324)" fill="#fff"/>
  </g>
</svg>
